<svg xmlns="http://www.w3.org/2000/svg" xmlns:xlink="http://www.w3.org/1999/xlink" class="httpgd" width="800.00" height="600.00" viewBox="0 0 800.00 600.00">
<defs>
<clipPath id="c0-96d82ac5-ca59-4cce-816e-745ff331ea94"><rect x="0.00" y="0.00" width="800.00" height="600.00"/></clipPath>
<clipPath id="c1-96d82ac5-ca59-4cce-816e-745ff331ea94"><rect x="59.04" y="59.04" width="710.72" height="467.52"/></clipPath>
<clipPath id="c2-96d82ac5-ca59-4cce-816e-745ff331ea94"><rect x="0.00" y="0.00" width="800.00" height="600.00"/></clipPath>
</defs>
<rect width="100%" height="100%" stroke="none" fill="#FFFFFF"/>
<g clip-path="url(#c0-96d82ac5-ca59-4cce-816e-745ff331ea94)">
</g><g clip-path="url(#c1-96d82ac5-ca59-4cce-816e-745ff331ea94)">
<polyline points="85.36,259.27 85.49,264.10 85.63,260.35 85.76,258.74 85.89,253.91 86.02,250.15 86.15,253.37 86.28,293.07 86.42,288.24 86.55,289.85 86.68,289.31 86.81,287.70 86.94,286.09 87.07,274.83 87.21,285.02 87.34,279.66 87.47,274.29 87.60,258.74 87.73,250.69 87.86,249.62 88.00,252.30 88.13,251.23 88.26,254.98 88.39,260.88 88.52,261.96 88.65,261.42 88.79,261.96 88.92,261.42 89.05,261.42 89.18,259.27 89.31,265.17 89.44,275.90 89.58,270.00 89.71,273.76 89.84,268.39 89.97,270.54 90.10,268.93 90.23,270.00 90.37,271.61 90.50,274.83 90.63,275.37 90.76,275.37 90.89,274.83 91.02,274.29 91.16,275.37 91.29,276.44 91.42,275.90 91.55,276.98 91.68,275.37 91.81,274.29 91.95,273.22 92.08,272.15 92.21,272.15 92.34,271.61 92.47,270.54 92.60,269.47 92.73,267.86 92.87,266.25 93.00,265.17 93.13,265.17 93.26,266.25 93.39,263.57 93.52,253.37 93.66,249.62 93.79,249.62 93.92,244.79 94.05,238.35 94.18,230.84 94.31,247.47 94.45,260.88 94.58,253.37 94.71,262.49 94.84,264.10 94.97,265.17 95.10,268.39 95.24,268.93 95.37,270.54 95.50,270.54 95.63,270.54 95.76,273.22 95.89,274.29 96.03,277.51 96.16,278.05 96.29,281.80 96.42,283.41 96.55,272.68 96.68,267.32 96.82,270.54 96.95,270.54 97.08,269.47 97.21,273.76 97.34,281.80 97.47,288.24 97.61,285.56 97.74,284.49 97.87,276.98 98.00,282.34 98.13,280.19 98.26,268.93 98.40,267.86 98.53,263.57 98.66,258.74 98.79,243.18 98.92,255.52 99.05,257.13 99.19,256.06 99.32,257.66 99.45,257.66 99.58,258.20 99.71,264.64 99.84,282.88 99.98,275.90 100.11,287.17 100.24,290.92 100.37,272.15 100.50,257.66 100.63,256.06 100.76,250.69 100.90,245.33 101.03,248.01 101.16,254.45 101.29,265.17 101.42,257.13 101.55,251.23 101.69,251.76 101.82,255.52 101.95,259.27 102.08,257.66 102.21,257.13 102.34,258.20 102.48,258.74 102.61,259.81 102.74,263.03 102.87,263.57 103.00,265.71 103.13,301.11 103.27,324.18 103.40,296.82 103.53,292.00 103.66,281.80 103.79,281.27 103.92,278.05 104.06,278.05 104.19,276.98 104.32,273.22 104.45,279.12 104.58,273.22 104.71,264.64 104.85,266.78 104.98,265.17 105.11,265.17 105.24,278.05 105.37,271.08 105.50,274.29 105.64,273.22 105.77,270.54 105.90,270.00 106.03,268.93 106.16,264.64 106.29,274.29 106.43,277.51 106.56,278.05 106.69,279.66 106.82,278.05 106.95,270.00 107.08,264.10 107.22,255.52 107.35,256.59 107.48,253.91 107.61,253.37 107.74,258.74 107.87,255.52 108.01,235.67 108.14,247.47 108.27,254.45 108.40,260.35 108.53,264.64 108.66,265.71 108.80,270.00 108.93,267.32 109.06,271.08 109.19,274.83 109.32,278.05 109.45,279.12 109.58,281.80 109.72,265.71 109.85,260.88 109.98,273.76 110.11,281.27 110.24,273.76 110.37,265.17 110.51,268.39 110.64,267.32 110.77,267.86 110.90,278.05 111.03,262.49 111.16,252.84 111.30,258.74 111.43,241.57 111.56,254.45 111.69,246.40 111.82,251.23 111.95,252.30 112.09,250.15 112.22,248.01 112.35,245.33 112.48,266.25 112.61,266.25 112.74,267.32 112.88,309.16 113.01,308.62 113.14,296.29 113.27,285.02 113.40,271.61 113.53,282.34 113.67,274.29 113.80,265.17 113.93,250.69 114.06,241.04 114.19,241.57 114.32,246.94 114.46,245.86 114.59,246.94 114.72,257.13 114.85,252.84 114.98,252.30 115.11,252.84 115.25,253.37 115.38,253.37 115.51,253.91 115.64,254.98 115.77,255.52 115.90,257.66 116.04,257.66 116.17,259.27 116.30,260.35 116.43,259.81 116.56,259.81 116.69,259.81 116.83,257.13 116.96,261.42 117.09,259.81 117.22,263.57 117.35,264.10 117.48,257.66 117.62,255.52 117.75,247.47 117.88,245.86 118.01,243.18 118.14,239.43 118.27,235.67 118.40,236.21 118.54,231.92 118.67,239.96 118.80,242.11 118.93,242.64 119.06,243.72 119.19,244.79 119.33,282.88 119.46,291.46 119.59,301.65 119.72,297.36 119.85,289.85 119.98,293.07 120.12,293.07 120.25,283.41 120.38,255.52 120.51,251.23 120.64,249.08 120.77,266.78 120.91,260.88 121.04,251.76 121.17,261.96 121.30,270.54 121.43,261.96 121.56,267.32 121.70,278.58 121.83,272.68 121.96,279.66 122.09,282.88 122.22,288.24 122.35,292.00 122.49,291.46 122.62,278.05 122.75,280.73 122.88,293.60 123.01,288.78 123.14,281.80 123.28,280.19 123.41,281.27 123.54,282.88 123.67,280.19 123.80,281.80 123.93,280.73 124.07,293.60 124.20,281.80 124.33,279.12 124.46,279.12 124.59,281.27 124.72,284.49 124.86,281.80 124.99,283.95 125.12,282.88 125.25,283.41 125.38,283.41 125.51,284.49 125.65,279.12 125.78,278.58 125.91,290.92 126.04,302.19 126.17,300.04 126.30,302.19 126.43,303.26 126.57,301.11 126.70,295.75 126.83,292.53 126.96,292.53 127.09,284.49 127.22,283.95 127.36,283.95 127.49,284.49 127.62,292.00 127.75,290.92 127.88,300.58 128.01,302.72 128.15,317.21 128.28,320.96 128.41,311.31 128.54,298.97 128.67,300.58 128.80,297.90 128.94,295.21 129.07,302.19 129.20,296.29 129.33,301.65 129.46,307.02 129.59,308.62 129.73,304.87 129.86,303.80 129.99,301.65 130.12,295.75 130.25,302.19 130.38,300.04 130.52,297.36 130.65,293.07 130.78,295.21 130.91,291.46 131.04,289.85 131.17,287.70 131.31,284.49 131.44,282.88 131.57,280.19 131.70,289.31 131.83,280.19 131.96,279.66 132.10,281.27 132.23,286.09 132.36,289.85 132.49,290.39 132.62,289.85 132.75,294.14 132.89,296.82 133.02,286.63 133.15,289.31 133.28,292.00 133.41,283.95 133.54,268.93 133.68,278.05 133.81,300.58 133.94,305.41 134.07,297.36 134.20,284.49 134.33,288.78 134.47,277.51 134.60,279.66 134.73,288.78 134.86,290.39 134.99,290.92 135.12,291.46 135.25,290.92 135.39,289.85 135.52,290.39 135.65,290.39 135.78,289.31 135.91,290.92 136.04,290.92 136.18,283.95 136.31,277.51 136.44,272.68 136.57,265.71 136.70,273.22 136.83,278.05 136.97,282.34 137.10,270.54 137.23,243.18 137.36,237.28 137.49,234.60 137.62,230.31 137.76,246.40 137.89,254.98 138.02,256.59 138.15,264.10 138.28,265.17 138.41,265.71 138.55,266.25 138.68,266.25 138.81,268.93 138.94,268.39 139.07,270.00 139.20,273.76 139.34,282.34 139.47,270.00 139.60,264.64 139.73,266.78 139.86,264.64 139.99,249.08 140.13,256.06 140.26,250.15 140.39,256.06 140.52,258.20 140.65,280.73 140.78,272.68 140.92,278.58 141.05,278.05 141.18,274.29 141.31,284.49 141.44,280.19 141.57,277.51 141.71,283.41 141.84,276.44 141.97,278.58 142.10,270.54 142.23,270.54 142.36,268.93 142.50,282.88 142.63,313.99 142.76,309.16 142.89,311.31 143.02,289.31 143.15,271.08 143.29,260.88 143.42,244.79 143.55,255.52 143.68,245.86 143.81,222.80 143.94,209.92 144.07,217.97 144.21,219.58 144.34,217.43 144.47,213.68 144.60,233.53 144.73,239.96 144.86,248.01 145.00,264.10 145.13,248.55 145.26,251.76 145.39,258.20 145.52,270.00 145.65,268.39 145.79,326.86 145.92,316.67 146.05,314.52 146.18,324.18 146.31,295.75 146.44,253.91 146.58,259.27 146.71,251.76 146.84,243.72 146.97,255.52 147.10,247.47 147.23,257.66 147.37,265.17 147.50,268.39 147.63,275.90 147.76,270.00 147.89,260.35 148.02,256.59 148.16,254.98 148.29,257.13 148.42,257.66 148.55,261.42 148.68,248.01 148.81,267.86 148.95,282.34 149.08,333.84 149.21,322.57 149.34,316.67 149.47,295.21 149.60,286.09 149.74,280.19 149.87,276.98 150.00,251.76 150.13,220.12 150.26,214.21 150.39,210.46 150.53,212.07 150.66,229.77 150.79,251.76 150.92,192.22 151.05,196.51 151.18,216.90 151.32,227.63 151.45,236.21 151.58,244.79 151.71,244.79 151.84,246.94 151.97,308.62 152.11,292.00 152.24,287.70 152.37,352.07 152.50,350.46 152.63,332.76 152.76,326.33 152.89,335.45 153.03,329.54 153.16,318.28 153.29,305.94 153.42,310.77 153.55,293.60 153.68,310.23 153.82,275.37 153.95,286.63 154.08,278.05 154.21,319.35 154.34,327.94 154.47,310.77 154.61,310.77 154.74,307.02 154.87,304.33 155.00,287.70 155.13,275.90 155.26,279.12 155.40,278.05 155.53,278.58 155.66,279.66 155.79,286.09 155.92,280.73 156.05,280.19 156.19,279.12 156.32,276.44 156.45,274.83 156.58,270.54 156.71,265.71 156.84,264.10 156.98,275.90 157.11,273.22 157.24,270.54 157.37,273.76 157.50,267.32 157.63,270.00 157.77,270.54 157.90,272.15 158.03,274.29 158.16,276.44 158.29,279.66 158.42,281.80 158.56,282.88 158.69,305.94 158.82,283.95 158.95,288.24 159.08,294.14 159.21,294.14 159.35,285.02 159.48,284.49 159.61,282.88 159.74,269.47 159.87,267.86 160.00,271.61 160.14,273.76 160.27,275.37 160.40,283.41 160.53,285.02 160.66,302.19 160.79,288.24 160.92,299.51 161.06,308.62 161.19,289.85 161.32,287.17 161.45,288.78 161.58,306.48 161.71,304.33 161.85,314.52 161.98,299.51 162.11,289.85 162.24,290.92 162.37,285.56 162.50,282.34 162.64,277.51 162.77,267.86 162.90,259.27 163.03,259.81 163.16,250.69 163.29,248.01 163.43,244.79 163.56,239.96 163.69,238.35 163.82,236.74 163.95,238.89 164.08,244.25 164.22,246.94 164.35,256.06 164.48,249.62 164.61,248.01 164.74,257.13 164.87,263.03 165.01,279.66 165.14,276.44 165.27,281.80 165.40,279.12 165.53,262.49 165.66,261.96 165.80,256.06 165.93,259.27 166.06,258.20 166.19,258.20 166.32,259.27 166.45,257.66 166.59,260.35 166.72,264.64 166.85,265.71 166.98,278.58 167.11,279.12 167.24,286.09 167.38,286.63 167.51,299.51 167.64,309.16 167.77,294.14 167.90,280.19 168.03,288.78 168.17,277.51 168.30,280.73 168.43,280.19 168.56,278.05 168.69,287.70 168.82,276.44 168.96,276.98 169.09,267.32 169.22,261.42 169.35,260.88 169.48,263.03 169.61,263.03 169.74,261.42 169.88,263.03 170.01,271.08 170.14,273.22 170.27,275.90 170.40,278.05 170.53,271.61 170.67,273.22 170.80,277.51 170.93,278.58 171.06,283.95 171.19,286.09 171.32,288.24 171.46,290.92 171.59,289.31 171.72,290.92 171.85,292.53 171.98,296.29 172.11,294.14 172.25,293.60 172.38,292.00 172.51,294.68 172.64,296.82 172.77,300.04 172.90,298.43 173.04,298.97 173.17,304.87 173.30,304.33 173.43,300.58 173.56,297.36 173.69,295.75 173.83,296.82 173.96,293.60 174.09,291.46 174.22,289.31 174.35,292.00 174.48,302.19 174.62,302.19 174.75,293.07 174.88,285.56 175.01,286.09 175.14,289.85 175.27,289.31 175.41,293.07 175.54,290.39 175.67,286.09 175.80,280.19 175.93,283.95 176.06,282.34 176.20,284.49 176.33,286.09 176.46,295.21 176.59,319.35 176.72,297.36 176.85,301.11 176.99,296.82 177.12,289.85 177.25,294.14 177.38,304.87 177.51,317.74 177.64,309.70 177.78,297.36 177.91,290.39 178.04,289.85 178.17,289.31 178.30,290.92 178.43,293.07 178.56,291.46 178.70,294.14 178.83,296.82 178.96,305.94 179.09,304.33 179.22,302.72 179.35,303.80 179.49,301.65 179.62,298.97 179.75,300.04 179.88,293.60 180.01,291.46 180.14,290.92 180.28,288.78 180.41,289.31 180.54,287.70 180.67,287.17 180.80,287.17 180.93,285.56 181.07,285.02 181.20,285.02 181.33,283.41 181.46,293.07 181.59,291.46 181.72,287.70 181.86,282.88 181.99,282.34 182.12,287.17 182.25,286.63 182.38,285.56 182.51,285.02 182.65,284.49 182.78,288.24 182.91,282.34 183.04,295.75 183.17,288.78 183.30,292.00 183.44,294.68 183.57,290.39 183.70,290.92 183.83,288.78 183.96,285.02 184.09,286.63 184.23,287.17 184.36,292.53 184.49,290.92 184.62,292.00 184.75,293.07 184.88,295.21 185.02,295.75 185.15,292.00 185.28,289.31 185.41,287.70 185.54,288.78 185.67,288.24 185.81,287.70 185.94,288.78 186.07,289.31 186.20,297.36 186.33,289.85 186.46,288.24 186.60,288.78 186.73,289.31 186.86,284.49 186.99,281.80 187.12,282.34 187.25,282.88 187.38,298.97 187.52,302.19 187.65,280.73 187.78,296.29 187.91,292.53 188.04,302.19 188.17,302.72 188.31,297.36 188.44,290.39 188.57,297.90 188.70,319.89 188.83,314.52 188.96,317.74 189.10,324.72 189.23,311.84 189.36,305.41 189.49,300.04 189.62,296.29 189.75,294.14 189.89,299.51 190.02,323.64 190.15,311.31 190.28,316.13 190.41,306.48 190.54,309.70 190.68,297.36 190.81,297.36 190.94,296.82 191.07,293.60 191.20,294.68 191.33,292.00 191.47,290.92 191.60,292.00 191.73,297.36 191.86,301.65 191.99,300.04 192.12,301.11 192.26,298.43 192.39,289.31 192.52,294.14 192.65,290.92 192.78,287.70 192.91,283.95 193.05,281.80 193.18,279.12 193.31,277.51 193.44,274.83 193.57,273.22 193.70,260.88 193.84,255.52 193.97,250.69 194.10,256.59 194.23,262.49 194.36,269.47 194.49,261.96 194.63,261.96 194.76,258.74 194.89,251.76 195.02,246.40 195.15,244.25 195.28,250.69 195.41,249.08 195.55,252.84 195.68,253.91 195.81,255.52 195.94,256.59 196.07,259.27 196.20,258.20 196.34,236.74 196.47,260.88 196.60,262.49 196.73,268.93 196.86,272.68 196.99,276.98 197.13,275.37 197.26,276.44 197.39,276.44 197.52,275.90 197.65,275.37 197.78,271.61 197.92,264.10 198.05,266.78 198.18,274.83 198.31,270.00 198.44,275.37 198.57,278.05 198.71,279.12 198.84,279.12 198.97,278.05 199.10,279.66 199.23,279.66 199.36,279.12 199.50,274.83 199.63,272.15 199.76,272.68 199.89,273.22 200.02,274.83 200.15,276.98 200.29,276.44 200.42,270.54 200.55,268.93 200.68,264.64 200.81,258.74 200.94,251.76 201.08,250.15 201.21,251.23 201.34,250.69 201.47,252.30 201.60,252.84 201.73,256.59 201.87,256.59 202.00,259.27 202.13,259.27 202.26,257.66 202.39,256.59 202.52,266.78 202.66,266.25 202.79,266.78 202.92,266.78 203.05,266.25 203.18,266.78 203.31,267.86 203.45,267.32 203.58,268.39 203.71,268.39 203.84,271.61 203.97,271.61 204.10,271.61 204.23,271.08 204.37,270.54 204.50,274.83 204.63,272.15 204.76,271.08 204.89,273.76 205.02,272.68 205.16,271.61 205.29,270.00 205.42,267.86 205.55,266.78 205.68,265.17 205.81,271.61 205.95,284.49 206.08,280.19 206.21,283.41 206.34,287.17 206.47,278.05 206.60,277.51 206.74,272.68 206.87,268.39 207.00,264.64 207.13,267.32 207.26,260.35 207.39,263.57 207.53,261.42 207.66,259.81 207.79,257.13 207.92,257.66 208.05,258.20 208.18,258.74 208.32,258.74 208.45,256.59 208.58,254.45 208.71,256.06 208.84,257.66 208.97,258.74 209.11,259.81 209.24,261.42 209.37,265.71 209.50,262.49 209.63,267.86 209.76,267.32 209.90,267.86 210.03,270.00 210.16,271.08 210.29,270.54 210.42,271.08 210.55,273.22 210.69,272.15 210.82,267.32 210.95,267.32 211.08,268.93 211.21,264.10 211.34,265.17 211.48,267.86 211.61,267.32 211.74,266.78 211.87,265.17 212.00,264.64 212.13,263.57 212.27,263.57 212.40,261.96 212.53,260.35 212.66,260.35 212.79,260.88 212.92,260.35 213.05,263.03 213.19,259.81 213.32,258.74 213.45,261.96 213.58,263.03 213.71,261.96 213.84,261.96 213.98,262.49 214.11,261.96 214.24,261.96 214.37,263.03 214.50,261.96 214.63,264.10 214.77,262.49 214.90,263.03 215.03,264.64 215.16,265.71 215.29,264.10 215.42,266.25 215.56,266.25 215.69,264.64 215.82,264.10 215.95,263.57 216.08,265.17 216.21,266.25 216.35,267.32 216.48,269.47 216.61,271.61 216.74,265.17 216.87,266.25 217.00,271.08 217.14,274.29 217.27,279.12 217.40,278.58 217.53,274.83 217.66,273.76 217.79,276.44 217.93,286.63 218.06,288.78 218.19,290.39 218.32,287.70 218.45,287.70 218.58,296.82 218.72,277.51 218.85,285.56 218.98,293.07 219.11,293.60 219.24,292.00 219.37,295.75 219.51,293.07 219.64,296.29 219.77,292.00 219.90,266.25 220.03,268.39 220.16,268.39 220.30,279.12 220.43,257.13 220.56,257.13 220.69,256.06 220.82,249.62 220.95,248.55 221.08,258.20 221.22,266.25 221.35,268.39 221.48,265.71 221.61,267.86 221.74,263.57 221.87,264.64 222.01,261.96 222.14,256.06 222.27,259.27 222.40,256.06 222.53,263.03 222.66,262.49 222.80,261.42 222.93,262.49 223.06,263.57 223.19,264.10 223.32,263.57 223.45,264.64 223.59,265.17 223.72,267.32 223.85,267.86 223.98,268.39 224.11,268.93 224.24,270.00 224.38,272.15 224.51,272.15 224.64,267.86 224.77,264.64 224.90,261.96 225.03,256.06 225.17,253.91 225.30,251.76 225.43,251.23 225.56,250.15 225.69,249.08 225.82,245.33 225.96,247.47 226.09,249.62 226.22,250.69 226.35,248.01 226.48,245.33 226.61,244.25 226.75,244.79 226.88,244.79 227.01,242.64 227.14,245.33 227.27,244.25 227.40,247.47 227.54,247.47 227.67,250.69 227.80,247.47 227.93,248.55 228.06,250.69 228.19,252.30 228.33,251.23 228.46,254.45 228.59,250.69 228.72,248.55 228.85,253.91 228.98,256.06 229.12,260.35 229.25,258.20 229.38,263.57 229.51,263.57 229.64,262.49 229.77,263.57 229.90,261.42 230.04,263.57 230.17,270.54 230.30,263.57 230.43,266.25 230.56,266.25 230.69,272.15 230.83,268.39 230.96,265.17 231.09,261.96 231.22,260.35 231.35,252.30 231.48,252.30 231.62,252.30 231.75,253.37 231.88,241.57 232.01,226.02 232.14,221.72 232.27,227.63 232.41,227.09 232.54,230.84 232.67,228.70 232.80,230.84 232.93,232.99 233.06,233.53 233.20,236.74 233.33,237.28 233.46,235.14 233.59,236.74 233.72,239.43 233.85,266.25 233.99,293.07 234.12,282.88 234.25,274.29 234.38,271.61 234.51,258.20 234.64,246.94 234.78,228.16 234.91,237.28 235.04,240.50 235.17,239.43 235.30,257.13 235.43,260.35 235.57,251.76 235.70,257.13 235.83,263.57 235.96,261.42 236.09,264.10 236.22,259.81 236.36,244.25 236.49,252.30 236.62,258.20 236.75,257.66 236.88,265.71 237.01,270.00 237.15,278.58 237.28,295.21 237.41,277.51 237.54,266.78 237.67,263.57 237.80,257.66 237.94,253.91 238.07,239.96 238.20,229.23 238.33,211.53 238.46,204.02 238.59,215.82 238.72,204.56 238.86,235.14 238.99,242.64 239.12,259.81 239.25,239.43 239.38,241.04 239.51,251.76 239.65,260.35 239.78,258.74 239.91,257.66 240.04,259.27 240.17,266.25 240.30,271.08 240.44,289.85 240.57,274.29 240.70,260.88 240.83,256.06 240.96,263.03 241.09,260.88 241.23,262.49 241.36,244.25 241.49,242.11 241.62,229.77 241.75,236.21 241.88,248.55 242.02,258.20 242.15,264.64 242.28,266.25 242.41,255.52 242.54,272.68 242.67,265.17 242.81,274.29 242.94,276.98 243.07,278.58 243.20,267.32 243.33,263.57 243.46,266.25 243.60,259.81 243.73,263.57 243.86,267.32 243.99,266.25 244.12,269.47 244.25,253.37 244.39,251.23 244.52,249.08 244.65,244.25 244.78,231.92 244.91,199.20 245.04,219.58 245.18,222.26 245.31,204.02 245.44,213.68 245.57,230.84 245.70,227.09 245.83,228.70 245.97,232.45 246.10,236.74 246.23,248.55 246.36,243.72 246.49,240.50 246.62,260.88 246.76,277.51 246.89,279.12 247.02,279.12 247.15,278.05 247.28,276.98 247.41,275.90 247.54,256.06 247.68,256.59 247.81,250.15 247.94,242.64 248.07,244.79 248.20,245.86 248.33,247.47 248.47,239.96 248.60,236.21 248.73,237.82 248.86,238.89 248.99,238.89 249.12,239.96 249.26,240.50 249.39,244.79 249.52,232.99 249.65,240.50 249.78,239.96 249.91,239.96 250.05,243.72 250.18,241.04 250.31,241.57 250.44,244.25 250.57,243.18 250.70,232.99 250.84,215.29 250.97,217.43 251.10,215.82 251.23,213.14 251.36,214.21 251.49,220.65 251.63,228.16 251.76,229.23 251.89,237.28 252.02,239.43 252.15,243.72 252.28,244.79 252.42,250.15 252.55,252.30 252.68,252.84 252.81,255.52 252.94,255.52 253.07,257.13 253.21,257.66 253.34,257.13 253.47,259.27 253.60,261.96 253.73,263.57 253.86,268.93 254.00,272.68 254.13,262.49 254.26,251.76 254.39,250.15 254.52,251.23 254.65,253.91 254.79,256.06 254.92,260.88 255.05,263.57 255.18,253.91 255.31,272.68 255.44,263.03 255.57,251.23 255.71,250.69 255.84,148.24 255.97,275.37 256.10,273.76 256.23,271.08 256.36,268.39 256.50,267.32 256.63,272.68 256.76,274.29 256.89,262.49 257.02,273.22 257.15,258.74 257.29,267.32 257.42,267.32 257.55,258.74 257.68,260.88 257.81,256.06 257.94,244.79 258.08,242.64 258.21,242.11 258.34,247.47 258.47,254.45 258.60,258.20 258.73,261.96 258.87,266.78 259.00,266.25 259.13,268.39 259.26,268.39 259.39,281.80 259.52,304.33 259.66,301.65 259.79,304.87 259.92,296.82 260.05,260.88 260.18,265.71 260.31,267.32 260.45,261.96 260.58,263.57 260.71,263.03 260.84,267.32 260.97,263.03 261.10,263.03 261.24,273.22 261.37,268.93 261.50,266.25 261.63,272.68 261.76,273.22 261.89,272.15 262.03,272.15 262.16,290.39 262.29,297.90 262.42,297.36 262.55,297.36 262.68,304.33 262.82,304.87 262.95,304.87 263.08,304.87 263.21,301.65 263.34,286.09 263.47,288.24 263.61,292.00 263.74,288.78 263.87,270.54 264.00,265.17 264.13,232.99 264.26,221.72 264.39,252.84 264.53,227.09 264.66,219.04 264.79,226.02 264.92,267.32 265.05,277.51 265.18,286.09 265.32,312.92 265.45,285.02 265.58,290.92 265.71,295.75 265.84,291.46 265.97,313.45 266.11,317.74 266.24,321.50 266.37,317.74 266.50,315.06 266.63,308.62 266.76,309.70 266.90,289.85 267.03,279.66 267.16,279.66 267.29,279.66 267.42,274.83 267.55,283.41 267.69,279.66 267.82,279.12 267.95,296.29 268.08,310.77 268.21,318.28 268.34,321.50 268.48,310.77 268.61,297.90 268.74,296.29 268.87,295.21 269.00,299.51 269.13,311.31 269.27,322.57 269.40,318.82 269.53,305.41 269.66,300.58 269.79,295.21 269.92,288.78 270.06,289.85 270.19,289.31 270.32,294.68 270.45,296.82 270.58,293.60 270.71,274.29 270.85,273.22 270.98,267.86 271.11,266.25 271.24,281.27 271.37,270.54 271.50,304.87 271.64,321.50 271.77,316.67 271.90,338.13 272.03,320.43 272.16,328.47 272.29,401.96 272.43,509.24 272.56,413.76 272.69,430.39 272.82,331.15 272.95,306.48 273.08,299.51 273.21,317.74 273.35,319.35 273.48,302.19 273.61,303.80 273.74,288.78 273.87,292.00 274.00,311.84 274.14,304.33 274.27,332.76 274.40,337.05 274.53,302.19 274.66,302.72 274.79,307.02 274.93,300.58 275.06,300.04 275.19,301.65 275.32,302.19 275.45,302.72 275.58,303.80 275.72,322.03 275.85,309.70 275.98,355.83 276.11,305.94 276.24,288.78 276.37,294.68 276.51,298.43 276.64,290.39 276.77,292.53 276.90,284.49 277.03,294.68 277.16,295.75 277.30,276.44 277.43,271.61 277.56,275.90 277.69,276.44 277.82,277.51 277.95,281.80 278.09,292.53 278.22,297.36 278.35,299.51 278.48,301.11 278.61,308.62 278.74,320.43 278.88,322.57 279.01,313.99 279.14,317.74 279.27,320.96 279.40,319.89 279.53,317.74 279.67,319.35 279.80,315.60 279.93,315.60 280.06,313.45 280.19,310.77 280.32,309.70 280.46,292.53 280.59,293.07 280.72,293.60 280.85,288.78 280.98,289.85 281.11,312.92 281.24,313.99 281.38,313.99 281.51,301.65 281.64,338.13 281.77,351.00 281.90,337.05 282.03,354.22 282.17,337.05 282.30,327.40 282.43,309.16 282.56,303.26 282.69,301.11 282.82,301.65 282.96,300.58 283.09,302.19 283.22,302.72 283.35,293.07 283.48,275.37 283.61,267.86 283.75,261.42 283.88,265.17 284.01,285.02 284.14,310.77 284.27,311.31 284.40,316.13 284.54,318.82 284.67,319.89 284.80,321.50 284.93,311.31 285.06,309.70 285.19,292.53 285.33,299.51 285.46,300.58 285.59,272.15 285.72,270.54 285.85,261.96 285.98,259.27 286.12,257.66 286.25,260.35 286.38,264.64 286.51,266.25 286.64,267.86 286.77,267.32 286.91,270.54 287.04,265.17 287.17,265.17 287.30,263.57 287.43,260.88 287.56,259.27 287.70,256.06 287.83,254.45 287.96,254.45 288.09,259.81 288.22,261.42 288.35,264.10 288.49,265.17 288.62,268.93 288.75,270.00 288.88,266.25 289.01,248.55 289.14,272.68 289.28,268.39 289.41,267.86 289.54,267.32 289.67,268.39 289.80,251.76 289.93,253.37 290.06,254.98 290.20,249.08 290.33,245.86 290.46,244.79 290.59,246.94 290.72,249.08 290.85,266.78 290.99,264.64 291.12,261.96 291.25,262.49 291.38,263.03 291.51,266.25 291.64,273.76 291.78,271.61 291.91,271.08 292.04,272.15 292.17,273.22 292.30,265.17 292.43,265.17 292.57,265.17 292.70,265.71 292.83,266.25 292.96,265.17 293.09,268.93 293.22,271.61 293.36,270.54 293.49,268.39 293.62,265.71 293.75,264.64 293.88,265.17 294.01,265.17 294.15,272.68" fill="none" stroke-width="0.75" stroke="#000000" stroke-linecap="round" stroke-linejoin="round"/>
<polyline points="308.10,276.44 308.23,271.61 308.36,275.90 308.49,268.93 308.63,271.61 308.76,274.29 308.89,271.08 309.02,271.61 309.15,278.05 309.28,275.37 309.42,275.90 309.55,277.51 309.68,271.08 309.81,272.68 309.94,272.15 310.07,280.73 310.21,271.61 310.34,282.88 310.47,283.95 310.60,286.63 310.73,295.21 310.86,304.33 311.00,283.41 311.13,282.88 311.26,284.49 311.39,278.05 311.52,279.66 311.65,280.73 311.79,283.41 311.92,286.09 312.05,289.31 312.18,293.07 312.31,310.77 312.44,288.78 312.58,284.49 312.71,278.58 312.84,276.44 312.97,275.37 313.10,271.08 313.23,269.47 313.37,270.54 313.50,273.76 313.63,276.98 313.76,271.61 313.89,271.61 314.02,270.54 314.16,266.78 314.29,267.86 314.42,272.68 314.55,281.27 314.68,272.68 314.81,268.39 314.95,257.66 315.08,271.61 315.21,281.80 315.34,293.07 315.47,292.00 315.60,300.04 315.73,276.44 315.87,272.68 316.00,270.54 316.13,267.86 316.26,267.86 316.39,261.96 316.52,261.42 316.66,264.64 316.79,266.25 316.92,268.39 317.05,272.15 317.18,276.44 317.31,279.12 317.45,280.73 317.58,276.98 317.71,276.44 317.84,275.37 317.97,281.27 318.10,282.88 318.24,284.49 318.37,282.88 318.50,281.80 318.63,287.70 318.76,294.68 318.89,287.70 319.03,272.15 319.16,276.44 319.29,271.08 319.42,271.08 319.55,267.32 319.68,266.25 319.82,263.03 319.95,261.42 320.08,264.64 320.21,273.76 320.34,279.12 320.47,276.98 320.61,275.37 320.74,274.29 320.87,274.29 321.00,260.35 321.13,263.57 321.26,258.20 321.40,270.00 321.53,276.44 321.66,276.98 321.79,270.54 321.92,267.86 322.05,268.39 322.19,272.68 322.32,283.95 322.45,285.56 322.58,275.90 322.71,273.22 322.84,270.00 322.98,267.86 323.11,271.08 323.24,270.54 323.37,266.25 323.50,266.78 323.63,266.25 323.77,265.71 323.90,271.08 324.03,272.68 324.16,272.68 324.29,271.08 324.42,273.22 324.55,278.58 324.69,275.37" fill="none" stroke-width="0.75" stroke="#000000" stroke-linecap="round" stroke-linejoin="round"/>
<polyline points="324.95,275.37 325.08,275.90 325.21,275.37 325.34,272.68 325.48,270.54 325.61,272.68 325.74,271.08 325.87,270.00 326.00,272.15 326.13,270.54 326.27,268.39 326.40,268.93 326.53,272.68 326.66,276.44 326.79,281.27 326.92,276.98 327.06,275.90 327.19,272.68 327.32,275.37 327.45,281.80 327.58,283.95 327.71,277.51 327.85,275.90 327.98,278.05 328.11,280.19 328.24,279.12 328.37,274.83 328.50,276.44 328.64,277.51 328.77,276.44 328.90,273.22 329.03,278.58 329.16,278.58 329.29,275.37 329.43,266.78 329.56,270.54 329.69,267.32 329.82,267.86 329.95,266.78 330.08,267.32 330.22,268.39 330.35,268.39 330.48,268.39 330.61,268.93 330.74,268.93 330.87,270.00 331.01,270.54 331.14,271.08 331.27,272.68 331.40,272.68 331.53,273.22 331.66,273.22 331.80,274.83 331.93,279.66 332.06,271.08 332.19,268.93 332.32,270.54 332.45,272.68 332.59,271.08 332.72,271.08 332.85,278.05 332.98,281.27 333.11,278.58 333.24,274.83 333.37,273.76 333.51,265.71" fill="none" stroke-width="0.75" stroke="#000000" stroke-linecap="round" stroke-linejoin="round"/>
<polyline points="333.77,281.27 333.90,277.51 334.03,272.68 334.16,267.32 334.30,262.49 334.43,267.32 334.56,263.57 334.69,264.64 334.82,266.78 334.95,269.47 335.09,270.00 335.22,273.76 335.35,276.44 335.48,275.90 335.61,278.58 335.74,276.44 335.88,277.51 336.01,279.66 336.14,280.73 336.27,281.27 336.40,285.02 336.53,273.76 336.67,275.90 336.80,278.58 336.93,279.12 337.06,278.58 337.19,279.66 337.32,279.66 337.46,279.66 337.59,280.73 337.72,278.05 337.85,278.58 337.98,279.12 338.11,279.66 338.25,280.19 338.38,279.12 338.51,277.51 338.64,275.37 338.77,274.29 338.90,271.61 339.04,268.93 339.17,270.54 339.30,273.22 339.43,276.44 339.56,274.29 339.69,268.93 339.83,267.32 339.96,280.73 340.09,278.58 340.22,275.90 340.35,274.83 340.48,273.76 340.62,270.00 340.75,270.54 340.88,269.47 341.01,268.39 341.14,268.39 341.27,268.39 341.40,268.93 341.54,269.47 341.67,268.93 341.80,269.47 341.93,269.47 342.06,268.39 342.19,268.93 342.33,270.54 342.46,269.47 342.59,266.78 342.72,268.39 342.85,272.15 342.98,274.83 343.12,275.90 343.25,274.29 343.38,273.76 343.51,273.22 343.64,273.22 343.77,274.83 343.91,277.51 344.04,280.73 344.17,281.27 344.30,281.27 344.43,279.66 344.56,278.05 344.70,283.95 344.83,279.12 344.96,274.83 345.09,273.76 345.22,273.22 345.35,274.29 345.49,274.29 345.62,275.37 345.75,275.37 345.88,273.76 346.01,273.22 346.14,270.54 346.28,269.47 346.41,269.47 346.54,272.15 346.67,271.08 346.80,270.54 346.93,269.47 347.07,270.00 347.20,270.54 347.33,270.54 347.46,269.47 347.59,269.47 347.72,270.00 347.86,270.54 347.99,271.61 348.12,272.68 348.25,273.76 348.38,272.68 348.51,272.68 348.65,273.76 348.78,272.68 348.91,271.61 349.04,272.68 349.17,273.76 349.30,272.68 349.44,273.76 349.57,274.83 349.70,273.76 349.83,274.29 349.96,273.22 350.09,273.76 350.22,274.83 350.36,273.76 350.49,272.68 350.62,274.29 350.75,273.76 350.88,274.29 351.01,276.44 351.15,277.51 351.28,275.90 351.41,275.90 351.54,275.37 351.67,275.37 351.80,273.22 351.94,272.15 352.07,272.68 352.20,274.29 352.33,268.39 352.46,265.71 352.59,265.17 352.73,264.10 352.86,263.57 352.99,263.57 353.12,264.64 353.25,263.57 353.38,264.10 353.52,266.25 353.65,268.39 353.78,267.32 353.91,267.32 354.04,270.54 354.17,273.22 354.31,271.61 354.44,270.54 354.57,268.93 354.70,268.39 354.83,267.32 354.96,268.39 355.10,272.15 355.23,273.22 355.36,273.76 355.49,272.68 355.62,270.00 355.75,268.93 355.89,266.25 356.02,265.71 356.15,266.25 356.28,267.32 356.41,267.86 356.54,268.39 356.68,268.39 356.81,269.47 356.94,269.47 357.07,269.47 357.20,267.86 357.33,267.86 357.47,267.86 357.60,268.39 357.73,266.78 357.86,263.03 357.99,263.03 358.12,261.96 358.26,260.35 358.39,256.06 358.52,256.06 358.65,256.06 358.78,253.37 358.91,254.45 359.04,253.91 359.18,252.84 359.31,254.45 359.44,255.52 359.57,255.52 359.70,256.59 359.83,257.13 359.97,256.06 360.10,256.06 360.23,257.13 360.36,257.13 360.49,258.20 360.62,264.64 360.76,264.64 360.89,264.10 361.02,261.42 361.15,257.66 361.28,259.81 361.41,261.42 361.55,259.81 361.68,260.35 361.81,259.81 361.94,260.88 362.07,262.49 362.20,261.42 362.34,259.81 362.47,257.13 362.60,257.66 362.73,259.27 362.86,257.13 362.99,256.59 363.13,258.20 363.26,256.59 363.39,253.37 363.52,252.30 363.65,254.45 363.78,252.84 363.92,254.98 364.05,251.23 364.18,251.23 364.31,255.52 364.44,256.59 364.57,255.52 364.71,254.45 364.84,254.45 364.97,251.76 365.10,252.30 365.23,253.91 365.36,256.59 365.50,260.35 365.63,257.66 365.76,264.64 365.89,254.98 366.02,256.06 366.15,260.35 366.29,265.17 366.42,265.71 366.55,266.25 366.68,265.17 366.81,264.10 366.94,265.17 367.08,266.78 367.21,267.32 367.34,267.86 367.47,271.08 367.60,276.98 367.73,270.00 367.86,270.00 368.00,266.25 368.13,260.35 368.26,259.81 368.39,260.88 368.52,264.10 368.65,267.32 368.79,273.22 368.92,276.44 369.05,266.25 369.18,267.86 369.31,268.39 369.44,266.25 369.58,265.17 369.71,265.71 369.84,265.17 369.97,263.57 370.10,261.96 370.23,260.35 370.37,262.49 370.50,261.96 370.63,257.13 370.76,255.52 370.89,254.45 371.02,253.37 371.16,252.84 371.29,252.30 371.42,251.23 371.55,251.23 371.68,251.23 371.81,251.23 371.95,251.23 372.08,251.76 372.21,251.23 372.34,251.23 372.47,251.76 372.60,251.76 372.74,251.76 372.87,251.76 373.00,251.76 373.13,252.30 373.26,252.84 373.39,252.30 373.53,252.30 373.66,252.30 373.79,253.37 373.92,246.94 374.05,251.76 374.18,251.76 374.32,252.84 374.45,253.37 374.58,257.13 374.71,258.20 374.84,254.45 374.97,260.88 375.11,264.10 375.24,260.35 375.37,266.78 375.50,262.49 375.63,258.20 375.76,253.91 375.89,253.37 376.03,253.37 376.16,251.76 376.29,250.15 376.42,246.94 376.55,246.94 376.68,245.86 376.82,245.33 376.95,251.76 377.08,252.30 377.21,252.84 377.34,253.37 377.47,245.33 377.61,226.55 377.74,239.96 377.87,241.57 378.00,243.72 378.13,239.96 378.26,235.67 378.40,234.06 378.53,230.84 378.66,225.48 378.79,216.36 378.92,227.63 379.05,227.09 379.19,231.38 379.32,235.67 379.45,241.04 379.58,241.57 379.71,246.94 379.84,245.33 379.98,253.91 380.11,244.79 380.24,254.45 380.37,250.15 380.50,260.88 380.63,260.88 380.77,255.52 380.90,250.69 381.03,250.69 381.16,248.55 381.29,252.30 381.42,249.62 381.56,246.40 381.69,247.47 381.82,248.01 381.95,252.30 382.08,245.86 382.21,241.04 382.35,239.96 382.48,237.82 382.61,233.53 382.74,232.99 382.87,227.09 383.00,227.09 383.14,227.09 383.27,224.41 383.40,219.04 383.53,223.33 383.66,257.66 383.79,257.66 383.93,256.59 384.06,257.13 384.19,255.52 384.32,252.84 384.45,248.01 384.58,243.72 384.71,230.31 384.85,226.55 384.98,228.16 385.11,228.16 385.24,231.92 385.37,236.74 385.50,242.64 385.64,242.64 385.77,252.84 385.90,250.69 386.03,252.30 386.16,254.45 386.29,258.74 386.43,258.74 386.56,257.66 386.69,259.81 386.82,259.81 386.95,261.42 387.08,261.96 387.22,262.49 387.35,258.20 387.48,255.52 387.61,254.98 387.74,256.06 387.87,255.52 388.01,254.98 388.14,252.84 388.27,250.69 388.40,250.15 388.53,252.30 388.66,252.84 388.80,250.69 388.93,255.52 389.06,251.23 389.19,252.30 389.32,252.84 389.45,251.23 389.59,249.62" fill="none" stroke-width="0.75" stroke="#000000" stroke-linecap="round" stroke-linejoin="round"/>
<polyline points="389.85,246.40 389.98,249.08 390.11,254.45 390.24,259.81 390.38,249.62 390.51,246.40 390.64,245.86 390.77,247.47 390.90,248.55 391.03,248.01 391.17,247.47 391.30,250.15 391.43,249.08" fill="none" stroke-width="0.75" stroke="#000000" stroke-linecap="round" stroke-linejoin="round"/>
<polyline points="391.69,253.91 391.82,248.01 391.96,248.55 392.09,248.55 392.22,249.08 392.35,249.62 392.48,250.69 392.61,250.69 392.75,251.23 392.88,253.37 393.01,253.91 393.14,253.91 393.27,254.45 393.40,253.37 393.53,254.45" fill="none" stroke-width="0.75" stroke="#000000" stroke-linecap="round" stroke-linejoin="round"/>
<polyline points="393.80,252.30 393.93,251.76 394.06,252.84 394.19,253.37 394.32,253.37 394.46,252.84 394.59,264.64 394.72,276.44 394.85,272.68 394.98,257.13 395.11,255.52 395.25,263.03 395.38,260.35 395.51,254.98 395.64,254.45 395.77,255.52 395.90,253.91 396.04,251.76 396.17,250.69 396.30,249.08 396.43,248.55 396.56,250.15 396.69,251.23 396.83,253.37 396.96,253.37 397.09,253.37 397.22,251.23 397.35,246.40 397.48,249.62 397.62,247.47 397.75,244.25 397.88,245.86 398.01,246.94 398.14,247.47 398.27,246.94 398.41,250.15 398.54,249.62 398.67,250.69 398.80,251.23 398.93,251.23 399.06,251.23 399.20,251.76 399.33,252.30 399.46,251.76 399.59,251.23 399.72,251.23 399.85,251.23 399.99,252.30 400.12,252.30 400.25,251.76 400.38,250.69 400.51,251.23 400.64,251.76 400.78,252.84 400.91,253.91 401.04,253.91 401.17,253.37 401.30,251.76 401.43,250.15 401.56,248.55 401.70,246.94 401.83,243.72 401.96,240.50 402.09,238.89 402.22,236.74 402.35,234.06 402.49,233.53 402.62,235.14 402.75,231.92 402.88,231.38 403.01,236.74 403.14,236.74 403.28,238.89 403.41,244.79 403.54,244.79 403.67,244.79 403.80,244.79 403.93,241.04 404.07,232.99 404.20,230.31 404.33,229.23 404.46,232.99 404.59,234.60 404.72,236.74 404.86,240.50 404.99,238.89 405.12,237.82 405.25,238.35 405.38,240.50 405.51,243.18 405.65,244.79 405.78,243.18 405.91,243.18 406.04,244.79 406.17,245.33 406.30,245.86 406.44,246.40 406.57,244.79 406.70,245.33 406.83,246.40 406.96,246.94 407.09,247.47 407.23,248.01 407.36,248.01 407.49,250.15 407.62,246.94 407.75,247.47 407.88,246.40 408.02,254.98 408.15,252.84 408.28,252.30 408.41,249.62 408.54,248.01 408.67,246.94 408.81,246.40 408.94,244.79 409.07,247.47 409.20,245.33 409.33,242.64 409.46,243.72 409.60,243.18 409.73,244.25 409.86,245.33 409.99,245.33 410.12,245.86 410.25,245.33 410.38,246.40 410.52,245.86 410.65,245.33 410.78,244.79 410.91,245.86 411.04,245.86 411.17,244.79 411.31,243.18 411.44,243.72 411.57,246.94 411.70,248.01 411.83,248.55 411.96,249.08 412.10,249.08 412.23,247.47 412.36,248.01 412.49,246.40 412.62,246.40 412.75,248.01 412.89,248.55 413.02,249.62 413.15,250.15 413.28,250.69 413.41,251.23 413.54,255.52 413.68,254.45 413.81,257.66 413.94,257.66 414.07,251.76 414.20,251.23 414.33,256.06 414.47,260.35 414.60,249.62 414.73,252.30 414.86,253.37 414.99,250.15 415.12,249.08 415.26,247.47 415.39,244.25 415.52,242.64 415.65,241.57 415.78,244.79 415.91,248.01 416.05,249.08 416.18,246.40 416.31,244.25 416.44,245.33 416.57,246.40 416.70,247.47 416.84,248.55 416.97,248.55 417.10,248.55 417.23,248.55 417.36,245.86 417.49,244.25 417.63,244.25 417.76,246.40 417.89,249.08 418.02,248.55 418.15,245.86 418.28,247.47 418.42,250.15 418.55,251.23 418.68,252.84 418.81,253.91 418.94,254.98 419.07,254.98 419.20,257.13 419.34,259.81 419.47,260.35 419.60,269.47 419.73,273.76 419.86,273.76 419.99,276.98 420.13,279.66 420.26,281.27 420.39,280.19 420.52,279.12 420.65,278.05 420.78,277.51 420.92,270.00 421.05,261.96 421.18,258.20 421.31,261.42 421.44,259.27 421.57,259.81 421.71,253.37 421.84,249.62 421.97,254.98 422.10,259.27 422.23,264.10 422.36,264.10 422.50,267.32 422.63,270.54 422.76,272.68 422.89,269.47 423.02,273.76 423.15,275.90 423.29,270.54 423.42,266.78 423.55,266.78 423.68,268.93 423.81,273.76 423.94,271.61 424.08,266.78 424.21,254.98 424.34,254.98 424.47,254.98 424.60,259.27 424.73,257.13 424.87,257.13 425.00,256.59 425.13,257.66 425.26,256.06 425.39,255.52 425.52,258.20 425.66,259.27 425.79,259.27 425.92,257.66 426.05,258.74 426.18,259.27 426.31,260.35 426.45,266.78 426.58,267.32 426.71,267.32 426.84,267.32 426.97,265.71 427.10,264.64 427.24,254.45 427.37,252.84 427.50,252.30 427.63,249.62 427.76,247.47 427.89,249.62 428.02,248.55 428.16,254.98 428.29,252.84 428.42,250.69 428.55,249.62 428.68,252.30 428.81,252.30 428.95,251.76 429.08,250.69 429.21,248.01 429.34,249.08 429.47,249.62 429.60,250.15 429.74,250.15 429.87,252.84 430.00,252.30 430.13,253.37 430.26,253.37 430.39,252.84 430.53,254.45 430.66,254.98 430.79,254.45 430.92,253.91 431.05,252.30 431.18,251.76 431.32,251.76 431.45,251.76 431.58,251.23 431.71,251.23 431.84,251.23 431.97,252.30 432.11,252.84 432.24,256.06 432.37,255.52 432.50,254.45 432.63,254.45 432.76,253.91 432.90,253.37 433.03,253.37 433.16,252.30 433.29,252.84 433.42,253.37 433.55,257.66 433.69,256.59 433.82,254.98 433.95,254.98 434.08,264.10 434.21,261.42 434.34,257.13 434.48,252.84 434.61,257.66 434.74,271.08 434.87,270.54 435.00,261.42 435.13,259.81 435.27,260.35 435.40,261.42 435.53,263.03 435.66,264.10 435.79,264.10 435.92,265.17 436.05,265.71 436.19,266.25 436.32,265.17 436.45,267.32 436.58,279.12 436.71,269.47 436.84,275.37 436.98,267.86 437.11,266.78 437.24,266.78 437.37,267.86 437.50,269.47 437.63,264.64 437.77,268.93 437.90,283.41 438.03,281.27 438.16,271.61 438.29,264.10 438.42,267.32 438.56,269.47 438.69,264.10 438.82,266.78 438.95,269.47 439.08,271.08 439.21,274.29 439.35,265.17 439.48,265.17 439.61,265.17 439.74,265.71 439.87,266.25 440.00,264.64 440.14,261.96 440.27,260.88 440.40,258.74 440.53,257.13 440.66,259.27 440.79,261.96 440.93,261.96 441.06,260.88 441.19,263.03 441.32,265.17 441.45,266.78 441.58,265.71 441.72,272.15 441.85,272.15 441.98,270.00 442.11,265.17 442.24,265.17 442.37,265.17 442.51,263.03 442.64,270.54 442.77,270.54 442.90,283.95 443.03,269.47 443.16,274.83 443.30,270.00 443.43,273.22 443.56,278.05 443.69,266.78 443.82,266.78 443.95,266.25 444.09,263.57 444.22,265.17 444.35,266.78 444.48,269.47 444.61,271.61 444.74,271.61 444.87,268.93 445.01,267.86 445.14,266.25 445.27,265.17 445.40,265.17 445.53,267.32 445.66,267.32 445.80,265.71 445.93,266.78 446.06,260.35 446.19,259.81 446.32,262.49 446.45,260.35 446.59,264.10 446.72,261.96 446.85,260.88 446.98,259.81 447.11,258.74 447.24,261.96 447.38,262.49 447.51,261.96 447.64,265.71 447.77,272.15 447.90,265.71 448.03,259.27 448.17,259.81 448.30,258.74 448.43,258.20 448.56,262.49 448.69,267.32 448.82,259.81 448.96,261.42 449.09,262.49 449.22,261.42 449.35,258.74 449.48,256.59 449.61,257.13 449.75,259.81 449.88,263.03 450.01,264.10 450.14,264.64 450.27,271.08 450.40,274.83 450.54,262.49 450.67,261.96 450.80,262.49 450.93,265.17 451.06,264.64 451.19,267.86 451.33,266.78 451.46,264.64 451.59,263.57 451.72,263.03 451.85,263.57 451.98,262.49 452.12,265.71 452.25,267.32 452.38,264.64 452.51,292.00 452.64,271.61 452.77,265.17 452.91,264.10 453.04,267.32 453.17,263.57 453.30,263.03 453.43,264.10 453.56,263.57 453.69,264.64 453.83,266.25 453.96,267.32 454.09,265.17 454.22,270.00 454.35,283.41 454.48,274.83 454.62,270.54 454.75,275.90 454.88,266.25 455.01,266.78 455.14,268.93 455.27,272.68 455.41,274.29 455.54,271.08 455.67,272.15 455.80,272.15 455.93,269.47 456.06,270.00 456.20,264.10 456.33,272.15 456.46,268.39 456.59,266.25 456.72,264.10 456.85,264.64 456.99,264.64 457.12,266.25 457.25,270.54 457.38,272.68 457.51,280.73 457.64,264.64 457.78,265.17 457.91,267.86 458.04,270.00 458.17,271.61 458.30,268.93 458.43,263.57 458.57,266.25 458.70,265.71 458.83,263.03 458.96,261.96 459.09,262.49 459.22,260.35 459.36,259.81 459.49,261.42 459.62,274.83 459.75,264.64 459.88,258.74 460.01,259.27 460.15,259.27 460.28,266.25 460.41,253.91 460.54,257.13 460.67,258.20 460.80,255.52 460.94,254.98 461.07,256.59 461.20,257.13 461.33,262.49 461.46,261.96 461.59,261.96 461.72,263.03 461.86,265.71 461.99,265.17 462.12,259.27 462.25,259.27 462.38,268.39 462.51,281.27 462.65,263.03 462.78,266.25 462.91,260.35 463.04,265.17 463.17,269.47 463.30,265.17 463.44,268.39 463.57,266.78 463.70,268.93 463.83,271.61 463.96,272.15 464.09,275.90 464.23,272.68 464.36,272.15 464.49,274.83 464.62,272.15 464.75,268.93 464.88,279.66 465.02,285.56 465.15,275.37 465.28,270.54 465.41,261.42 465.54,259.27 465.67,266.25 465.81,257.13 465.94,254.98 466.07,254.45 466.20,256.06 466.33,258.74 466.46,258.20 466.60,259.81 466.73,254.45 466.86,252.84 466.99,254.45 467.12,251.76 467.25,251.76 467.39,257.13 467.52,260.88 467.65,253.37 467.78,257.13 467.91,254.98 468.04,252.84 468.18,251.23 468.31,252.84 468.44,250.69 468.57,251.76 468.70,253.37 468.83,254.98 468.97,262.49 469.10,258.74 469.23,254.98 469.36,257.13 469.49,260.88 469.62,267.32 469.76,257.66 469.89,254.98 470.02,254.45 470.15,255.52 470.28,256.59 470.41,255.52 470.54,256.06 470.68,254.45 470.81,254.98 470.94,257.66 471.07,259.81 471.20,258.20 471.33,259.81 471.47,261.96 471.60,259.81 471.73,255.52 471.86,256.59 471.99,257.13 472.12,258.74 472.26,267.32 472.39,259.27 472.52,257.13 472.65,253.37 472.78,254.45 472.91,253.37 473.05,250.69 473.18,253.37 473.31,250.69 473.44,250.69 473.57,248.55 473.70,247.47 473.84,247.47 473.97,258.74 474.10,258.20 474.23,257.66 474.36,257.13 474.49,259.81 474.63,260.88 474.76,256.59 474.89,255.52 475.02,254.45 475.15,254.45 475.28,252.84 475.42,252.84 475.55,252.84 475.68,253.91 475.81,257.66 475.94,255.52 476.07,255.52 476.21,254.98 476.34,252.30 476.47,252.30 476.60,252.84 476.73,255.52 476.86,256.59 477.00,256.06 477.13,251.23 477.26,249.62 477.39,248.55 477.52,251.23 477.65,250.69 477.79,250.15 477.92,250.15 478.05,249.62 478.18,250.69 478.31,255.52 478.44,255.52 478.58,254.98 478.71,253.91 478.84,255.52 478.97,256.59 479.10,257.66 479.23,256.59 479.36,256.59 479.50,256.06 479.63,251.23 479.76,249.08 479.89,249.62 480.02,254.98 480.15,254.45 480.29,251.23 480.42,251.76 480.55,251.23 480.68,251.23 480.81,253.91 480.94,256.59 481.08,253.37 481.21,254.98 481.34,255.52 481.47,257.13 481.60,253.91 481.73,253.37 481.87,254.98 482.00,255.52 482.13,256.06 482.26,260.88 482.39,257.66 482.52,260.88 482.66,258.20 482.79,259.81 482.92,263.57 483.05,260.88 483.18,259.81 483.31,258.20 483.45,256.06 483.58,254.45 483.71,252.30 483.84,250.69 483.97,249.62 484.10,248.01 484.24,247.47 484.37,249.08 484.50,246.94 484.63,248.01 484.76,247.47 484.89,247.47 485.03,246.40 485.16,246.94 485.29,247.47 485.42,246.40 485.55,246.40 485.68,247.47 485.82,248.01 485.95,248.55 486.08,246.94 486.21,248.01 486.34,246.94 486.47,246.94 486.61,245.86 486.74,241.04 486.87,241.57 487.00,245.33 487.13,248.01 487.26,248.55 487.40,246.94 487.53,247.47 487.66,248.01 487.79,248.55 487.92,249.62 488.05,250.15 488.18,250.15 488.32,250.69 488.45,252.30 488.58,255.52 488.71,256.06 488.84,256.59 488.97,256.06 489.11,258.20 489.24,257.13 489.37,257.66 489.50,259.27 489.63,256.59 489.76,256.06 489.90,256.06 490.03,254.45 490.16,254.98 490.29,252.84 490.42,248.01 490.55,242.64 490.69,240.50 490.82,236.21 490.95,233.53 491.08,235.14 491.21,234.06 491.34,242.64 491.48,240.50 491.61,236.21 491.74,239.43 491.87,244.25 492.00,249.62 492.13,250.69 492.27,256.06 492.40,258.74 492.53,252.30 492.66,248.01 492.79,244.25 492.92,246.40 493.06,246.94 493.19,248.55 493.32,249.08 493.45,243.72 493.58,237.28 493.71,241.57 493.85,244.25 493.98,246.40 494.11,243.72 494.24,243.72 494.37,248.55 494.50,252.84 494.64,252.30 494.77,252.30 494.90,252.30 495.03,252.84 495.16,252.84 495.29,253.91 495.43,253.37 495.56,253.91 495.69,253.91 495.82,253.37 495.95,252.30 496.08,252.30 496.21,252.84 496.35,252.84 496.48,251.23 496.61,249.62 496.74,249.08 496.87,248.55 497.00,248.55 497.14,246.94 497.27,245.33 497.40,243.18 497.53,241.57 497.66,241.57 497.79,241.57 497.93,242.11 498.06,243.18 498.19,244.25 498.32,244.25 498.45,244.25 498.58,245.86 498.72,243.18 498.85,241.57 498.98,243.18 499.11,244.79 499.24,244.79 499.37,251.76 499.51,250.15 499.64,248.01 499.77,251.23 499.90,251.76 500.03,253.37 500.16,252.30 500.30,251.76 500.43,251.76 500.56,252.30 500.69,253.37 500.82,254.98 500.95,256.06 501.09,252.84 501.22,254.45 501.35,252.30 501.48,252.30 501.61,252.30 501.74,252.84 501.88,252.84 502.01,253.37 502.14,255.52 502.27,255.52 502.40,253.37 502.53,253.91 502.67,253.91 502.80,255.52 502.93,254.45 503.06,251.76 503.19,250.69 503.32,250.15 503.46,249.08 503.59,251.76 503.72,250.15 503.85,248.55 503.98,248.01 504.11,248.01 504.25,248.55 504.38,246.94 504.51,243.72 504.64,242.64 504.77,241.57 504.90,241.57 505.03,240.50 505.17,240.50 505.30,239.96 505.43,241.04 505.56,243.18 505.69,244.25 505.82,244.25 505.96,245.86 506.09,246.94 506.22,250.15 506.35,249.08 506.48,248.55 506.61,247.47 506.75,248.01 506.88,247.47 507.01,246.94 507.14,247.47 507.27,248.01 507.40,248.01 507.54,247.47 507.67,248.55 507.80,246.94 507.93,245.33 508.06,247.47 508.19,250.15 508.33,247.47 508.46,246.94 508.59,247.47 508.72,244.25 508.85,244.79 508.98,243.18 509.12,243.18 509.25,238.35 509.38,241.04 509.51,238.35 509.64,236.74 509.77,232.45 509.91,227.63 510.04,223.87 510.17,220.65 510.30,224.41 510.43,225.48 510.56,228.16 510.70,230.31 510.83,231.92 510.96,227.09 511.09,228.16 511.22,230.31 511.35,226.02 511.49,227.09 511.62,228.16 511.75,220.65 511.88,224.41 512.01,219.58 512.14,229.77 512.28,229.23 512.41,231.38 512.54,224.41 512.67,227.63 512.80,223.33 512.93,225.48 513.07,227.63 513.20,228.70 513.33,234.60 513.46,225.48 513.59,226.55 513.72,235.14 513.85,235.14 513.99,239.43 514.12,244.25 514.25,250.15 514.38,250.15 514.51,244.79 514.64,245.86 514.78,241.04 514.91,241.04 515.04,233.53 515.17,228.70 515.30,230.31 515.43,226.02 515.57,224.41 515.70,222.80 515.83,221.72 515.96,221.19 516.09,221.19 516.22,219.04 516.36,220.12 516.49,221.72 516.62,215.82 516.75,219.58 516.88,221.19 517.01,222.80 517.15,224.41 517.28,224.41 517.41,224.94 517.54,224.41 517.67,223.87 517.80,224.41 517.94,224.94 518.07,224.94 518.20,224.94 518.33,225.48 518.46,224.94 518.59,222.80 518.73,224.41 518.86,223.87 518.99,223.33 519.12,223.33 519.25,227.09 519.38,227.09 519.52,228.16 519.65,228.70 519.78,229.23 519.91,226.02 520.04,225.48 520.17,221.19 520.31,226.55 520.44,242.11 520.57,233.53 520.70,233.53 520.83,231.38 520.96,226.02 521.10,238.35 521.23,238.89 521.36,235.14 521.49,234.06 521.62,230.31 521.75,228.16 521.88,230.31 522.02,230.31 522.15,227.63 522.28,221.72 522.41,226.02 522.54,223.33 522.67,221.72 522.81,220.12 522.94,221.19 523.07,221.19 523.20,221.19 523.33,222.80 523.46,222.80 523.60,223.87 523.73,224.94 523.86,225.48 523.99,226.55 524.12,227.63 524.25,229.23 524.39,229.23 524.52,228.70 524.65,226.55 524.78,227.09 524.91,227.63 525.04,228.70 525.18,229.77 525.31,229.23 525.44,229.77 525.57,230.31 525.70,231.38 525.83,231.38 525.97,231.38 526.10,230.84 526.23,230.84 526.36,232.45 526.49,232.45 526.62,232.99 526.76,236.21 526.89,236.21 527.02,236.21 527.15,234.60 527.28,233.53 527.41,232.99 527.55,235.14 527.68,234.60 527.81,234.60 527.94,234.06 528.07,232.45 528.20,237.28 528.34,239.43 528.47,236.74 528.60,235.14 528.73,234.06 528.86,236.74 528.99,235.14 529.13,230.31 529.26,231.38 529.39,232.45 529.52,232.99 529.65,235.14 529.78,232.45 529.92,230.84 530.05,229.23 530.18,229.77 530.31,230.84 530.44,231.92 530.57,231.38 530.70,232.45 530.84,234.06 530.97,235.67 531.10,239.43 531.23,241.04 531.36,232.99 531.49,232.99 531.63,231.38 531.76,231.92 531.89,226.02 532.02,224.94 532.15,223.87 532.28,227.09 532.42,234.60 532.55,236.74 532.68,250.69 532.81,253.37 532.94,257.13 533.07,248.55 533.21,247.47 533.34,252.84 533.47,250.15 533.60,257.13 533.73,248.01 533.86,242.64 534.00,245.33 534.13,245.33 534.26,243.18 534.39,235.67 534.52,232.99 534.65,235.14 534.79,230.84 534.92,231.92 535.05,227.09 535.18,227.63 535.31,228.16 535.44,229.23 535.58,230.31 535.71,231.38 535.84,231.92 535.97,231.92 536.10,230.84 536.23,230.31 536.37,231.38 536.50,232.45 536.63,233.53 536.76,233.53 536.89,233.53 537.02,234.06 537.16,234.06 537.29,234.06 537.42,233.53 537.55,232.99 537.68,232.99 537.81,231.92 537.95,230.84 538.08,232.99 538.21,235.67 538.34,232.45 538.47,231.92 538.60,232.45 538.74,231.38 538.87,231.38 539.00,233.53 539.13,232.45 539.26,232.99 539.39,248.01 539.52,248.01 539.66,242.11 539.79,234.06 539.92,244.79 540.05,237.82 540.18,237.82 540.31,237.82 540.45,237.82 540.58,236.74 540.71,235.67 540.84,234.60 540.97,232.45 541.10,233.53 541.24,232.99 541.37,231.38 541.50,229.77 541.63,228.70 541.76,232.45 541.89,232.45 542.03,229.77 542.16,229.77 542.29,232.45 542.42,239.43 542.55,241.57 542.68,243.72 542.82,240.50 542.95,238.89 543.08,243.18 543.21,230.31 543.34,232.99 543.47,231.92 543.61,243.72 543.74,237.82 543.87,237.28 544.00,229.77 544.13,234.60 544.26,237.28 544.40,237.28 544.53,232.99 544.66,230.31 544.79,231.92 544.92,231.92 545.05,233.53 545.19,232.99 545.32,233.53 545.45,234.06 545.58,236.21 545.71,235.14 545.84,236.21 545.98,235.67 546.11,235.14 546.24,234.06 546.37,234.06 546.50,234.06 546.63,234.60 546.77,234.06 546.90,234.06 547.03,232.99 547.16,234.06 547.29,234.06 547.42,234.06 547.56,233.53 547.69,228.70 547.82,225.48 547.95,225.48 548.08,227.63 548.21,229.23 548.34,228.16 548.48,229.77 548.61,232.45 548.74,235.67 548.87,237.28 549.00,237.82 549.13,238.35 549.27,236.21 549.40,237.82 549.53,237.82 549.66,238.35 549.79,239.96 549.92,239.96 550.06,239.43 550.19,240.50 550.32,237.82 550.45,237.82 550.58,235.67 550.71,234.06 550.85,234.60 550.98,233.53 551.11,236.21 551.24,237.28 551.37,239.43 551.50,239.96 551.64,242.64 551.77,234.06 551.90,234.06 552.03,234.60 552.16,236.21 552.29,238.89 552.43,248.55 552.56,241.57 552.69,235.67 552.82,230.31 552.95,228.16 553.08,239.43 553.22,240.50 553.35,240.50 553.48,237.28 553.61,235.14 553.74,232.45 553.87,229.77 554.01,218.51 554.14,215.29 554.27,214.75 554.40,218.51 554.53,221.19 554.66,220.12 554.80,221.72 554.93,223.33 555.06,224.41 555.19,223.33 555.32,224.94 555.45,225.48 555.59,228.70 555.72,229.23 555.85,229.23 555.98,229.77 556.11,230.31 556.24,227.63 556.37,225.48 556.51,227.63 556.64,235.14 556.77,227.63 556.90,235.14 557.03,228.16 557.16,226.02 557.30,224.94 557.43,227.09 557.56,225.48 557.69,227.09 557.82,226.02 557.95,224.94 558.09,223.87 558.22,224.41 558.35,224.41 558.48,225.48 558.61,231.38 558.74,228.16 558.88,227.63 559.01,227.09 559.14,242.64 559.27,242.64 559.40,242.11 559.53,237.82 559.67,238.35 559.80,243.18 559.93,243.72 560.06,238.89 560.19,237.82 560.32,234.60 560.46,222.80 560.59,221.72 560.72,223.33 560.85,216.36 560.98,215.82 561.11,222.80 561.25,224.94 561.38,226.02 561.51,227.09 561.64,229.77 561.77,233.53 561.90,237.82 562.04,251.23 562.17,244.25 562.30,242.64 562.43,242.11 562.56,249.62 562.69,251.23 562.83,248.55 562.96,246.40 563.09,244.25 563.22,235.67 563.35,229.77 563.48,230.84 563.62,232.99 563.75,230.84 563.88,230.31 564.01,231.92 564.14,232.45 564.27,230.84 564.41,233.53 564.54,235.14 564.67,234.06 564.80,242.11 564.93,236.21 565.06,236.74 565.19,245.33 565.33,244.25 565.46,239.43 565.59,239.43 565.72,240.50 565.85,236.21 565.98,232.45 566.12,230.31 566.25,232.45 566.38,229.77 566.51,229.23 566.64,227.09 566.77,233.53 566.91,231.38 567.04,230.31 567.17,229.77 567.30,230.84 567.43,227.63 567.56,224.41 567.70,227.09 567.83,226.02 567.96,230.31 568.09,234.06 568.22,233.53 568.35,236.21 568.49,233.53 568.62,231.92 568.75,230.84 568.88,229.77 569.01,227.63 569.14,228.16 569.28,228.16 569.41,230.31 569.54,230.84 569.67,229.77 569.80,224.94 569.93,227.09 570.07,228.70 570.20,229.77 570.33,230.31 570.46,229.23 570.59,229.77 570.72,229.77 570.86,228.16 570.99,223.33 571.12,228.16 571.25,217.97 571.38,221.19 571.51,230.84 571.65,224.41 571.78,242.64 571.91,241.04 572.04,239.96 572.17,249.62 572.30,247.47 572.44,238.89 572.57,226.55 572.70,221.72 572.83,221.19 572.96,218.51 573.09,220.65 573.23,220.65 573.36,216.90 573.49,215.29 573.62,215.82 573.75,215.29 573.88,217.43 574.01,215.29 574.15,215.29 574.28,214.21 574.41,215.29 574.54,215.29 574.67,215.29 574.80,212.61 574.94,213.68 575.07,215.82 575.20,216.90 575.33,219.04 575.46,220.65 575.59,221.72 575.73,223.87 575.86,224.41 575.99,225.48 576.12,223.33 576.25,222.26 576.38,222.26 576.52,221.72 576.65,222.80 576.78,222.26 576.91,221.72 577.04,221.19 577.17,223.87 577.31,228.16 577.44,228.70 577.57,224.41 577.70,224.94 577.83,227.63 577.96,224.94 578.10,225.48 578.23,225.48 578.36,226.02 578.49,224.41 578.62,226.02 578.75,220.12 578.89,216.90 579.02,215.29 579.15,211.53 579.28,212.07 579.41,216.36 579.54,212.61 579.68,213.68 579.81,214.75 579.94,214.21 580.07,215.82 580.20,215.82 580.33,216.90 580.47,214.21 580.60,212.07 580.73,213.14 580.86,214.21 580.99,217.43 581.12,217.43 581.26,217.43 581.39,216.90 581.52,217.97 581.65,219.58 581.78,219.04 581.91,220.12 582.04,222.26 582.18,223.33 582.31,224.41 582.44,224.94 582.57,225.48 582.70,225.48 582.83,226.02 582.97,227.09 583.10,227.09 583.23,227.09 583.36,227.09 583.49,227.09 583.62,228.16 583.76,229.23 583.89,228.16 584.02,228.16 584.15,226.55 584.28,226.02 584.41,224.41 584.55,223.33 584.68,223.33 584.81,222.26 584.94,221.72 585.07,221.72 585.20,221.19 585.34,220.65 585.47,221.72 585.60,223.33 585.73,223.33 585.86,222.80 585.99,223.87 586.13,224.94 586.26,225.48 586.39,224.41 586.52,219.58 586.65,220.65 586.78,217.97 586.92,219.04 587.05,217.43 587.18,218.51 587.31,221.19 587.44,222.26 587.57,224.94 587.71,222.26 587.84,219.04 587.97,224.41 588.10,229.23 588.23,226.02 588.36,224.41 588.50,224.41 588.63,222.26 588.76,221.19 588.89,221.19 589.02,221.19 589.15,221.72 589.29,222.26 589.42,222.26 589.55,223.33 589.68,223.33 589.81,223.87 589.94,224.41 590.08,226.02 590.21,229.23 590.34,224.41 590.47,220.65 590.60,217.43 590.73,214.75 590.86,216.90 591.00,213.68 591.13,211.00 591.26,208.31 591.39,206.17 591.52,205.10 591.65,204.56 591.79,203.49 591.92,201.88 592.05,200.27 592.18,200.27 592.31,199.73 592.44,200.27 592.58,201.34 592.71,207.78 592.84,208.31 592.97,211.00 593.10,212.07 593.23,211.00 593.37,216.36 593.50,206.70 593.63,209.92 593.76,205.10 593.89,199.73 594.02,200.27 594.16,199.73 594.29,209.92 594.42,211.53 594.55,214.75 594.68,218.51 594.81,229.77 594.95,216.90 595.08,216.90 595.21,213.14 595.34,224.94 595.47,232.99 595.60,236.74 595.74,232.99 595.87,232.99 596.00,239.43 596.13,230.31 596.26,234.06 596.39,232.99 596.53,231.38 596.66,226.55 596.79,223.87 596.92,222.26 597.05,224.94 597.18,220.65 597.32,220.12 597.45,227.63 597.58,222.26 597.71,209.92 597.84,211.00 597.97,213.68 598.11,205.10 598.24,198.66 598.37,199.73 598.50,215.82 598.63,197.59 598.76,222.80 598.90,227.09 599.03,231.92 599.16,232.99 599.29,236.21 599.42,236.74 599.55,237.28 599.68,234.60 599.82,234.06 599.95,232.45 600.08,229.77 600.21,229.23 600.34,224.41 600.47,219.04 600.61,213.14 600.74,212.61 600.87,206.17 601.00,204.02 601.13,205.63 601.26,200.27 601.40,198.12 601.53,200.27 601.66,211.53 601.79,202.41 601.92,212.61 602.05,215.29 602.19,208.85 602.32,205.10 602.45,207.78 602.58,217.97 602.71,208.31 602.84,205.10 602.98,208.31 603.11,214.21 603.24,208.85 603.37,203.49 603.50,199.20 603.63,197.59 603.77,197.59 603.90,201.34 604.03,196.51 604.16,194.90 604.29,193.83 604.42,192.76 604.56,192.76 604.69,193.83 604.82,194.37 604.95,197.05 605.08,199.73 605.21,195.98 605.35,194.90 605.48,195.44 605.61,198.66 605.74,198.66 605.87,199.20 606.00,199.73 606.14,199.73 606.27,200.27 606.40,200.27 606.53,201.34 606.66,199.73 606.79,198.66 606.93,197.05 607.06,199.73 607.19,199.73 607.32,200.80 607.45,201.34 607.58,201.34 607.72,201.34 607.85,201.88 607.98,200.80 608.11,200.80 608.24,198.12 608.37,204.02 608.50,204.56 608.64,201.34 608.77,204.02 608.90,203.49 609.03,204.02 609.16,202.41 609.29,202.41 609.43,202.41 609.56,205.10 609.69,204.56 609.82,204.02 609.95,202.41 610.08,199.73 610.22,197.05 610.35,193.83 610.48,192.22 610.61,189.54 610.74,187.93 610.87,185.25 611.01,185.25 611.14,186.86 611.27,184.18 611.40,189.54 611.53,189.00 611.66,188.47 611.80,190.61 611.93,191.69 612.06,205.10 612.19,198.66 612.32,198.12 612.45,195.44 612.59,194.90 612.72,197.05 612.85,196.51 612.98,199.20 613.11,193.83 613.24,198.12 613.38,193.83 613.51,190.61 613.64,191.15 613.77,190.08 613.90,190.08 614.03,187.39 614.17,187.39 614.30,190.61 614.43,191.15 614.56,195.44 614.69,208.31 614.82,207.24 614.96,206.17 615.09,203.49 615.22,201.34 615.35,204.56 615.48,200.80 615.61,208.31 615.75,209.39 615.88,211.00 616.01,212.07 616.14,207.24 616.27,208.31 616.40,209.92 616.53,211.00 616.67,207.24 616.80,183.64 616.93,194.90 617.06,195.44 617.19,196.51 617.32,198.12 617.46,197.59 617.59,198.66 617.72,198.66 617.85,197.59 617.98,197.59 618.11,199.20 618.25,204.02 618.38,207.78 618.51,208.85 618.64,208.31 618.77,199.73 618.90,204.56 619.04,193.29 619.17,193.29 619.30,194.90 619.43,195.98 619.56,194.37 619.69,192.22 619.83,190.61 619.96,190.61 620.09,190.08 620.22,190.61 620.35,191.69 620.48,191.15 620.62,193.83 620.75,193.29 620.88,194.37 621.01,193.83 621.14,198.66 621.27,197.59 621.41,197.05 621.54,198.12 621.67,197.05 621.80,195.44 621.93,196.51 622.06,196.51 622.20,196.51 622.33,199.20 622.46,197.59 622.59,194.90 622.72,193.83 622.85,193.29 622.99,193.29 623.12,189.00 623.25,187.39 623.38,185.25 623.51,187.39 623.64,184.18 623.78,185.25 623.91,184.18 624.04,183.64 624.17,183.10 624.30,184.18 624.43,183.64 624.57,194.37 624.70,195.98 624.83,202.41 624.96,205.63 625.09,205.63 625.22,201.34 625.35,204.56 625.49,191.69 625.62,189.54 625.75,189.00 625.88,189.00 626.01,187.39 626.14,188.47 626.28,187.93 626.41,187.39 626.54,186.86 626.67,188.47 626.80,188.47 626.93,189.00 627.07,188.47 627.20,189.54 627.33,188.47 627.46,189.00 627.59,188.47 627.72,192.76 627.86,193.83 627.99,195.98 628.12,196.51 628.25,190.61 628.38,194.37 628.51,196.51 628.65,191.15 628.78,190.08 628.91,191.69 629.04,193.29 629.17,189.00 629.30,191.69 629.44,189.00 629.57,190.61 629.70,190.61 629.83,190.08 629.96,188.47 630.09,187.39 630.23,186.32 630.36,185.25 630.49,184.71 630.62,185.25 630.75,186.86 630.88,186.86 631.02,186.86 631.15,190.61 631.28,192.76 631.41,198.66 631.54,195.98 631.67,195.44 631.81,195.98 631.94,196.51 632.07,196.51 632.20,196.51 632.33,196.51 632.46,195.98 632.60,197.05 632.73,197.59 632.86,198.12 632.99,198.66 633.12,200.80 633.25,201.88 633.39,201.88 633.52,201.88 633.65,199.73 633.78,200.27 633.91,202.95 634.04,204.56 634.17,204.56 634.31,204.56 634.44,205.10 634.57,205.10 634.70,205.10 634.83,207.78 634.96,204.02 635.10,212.07 635.23,212.61 635.36,215.29 635.49,215.82 635.62,217.43 635.75,216.36 635.89,216.90 636.02,216.36 636.15,215.29 636.28,219.04 636.41,220.12 636.54,219.04 636.68,218.51 636.81,215.82 636.94,214.75 637.07,215.82 637.20,215.82 637.33,217.43 637.47,218.51 637.60,216.90 637.73,216.90 637.86,216.36 637.99,211.00 638.12,217.43 638.26,218.51 638.39,218.51 638.52,219.04 638.65,219.04 638.78,220.12 638.91,213.14 639.05,214.21 639.18,211.00 639.31,209.92 639.44,207.24 639.57,204.02 639.70,206.70 639.84,206.17 639.97,205.10 640.10,204.56 640.23,205.10 640.36,208.85 640.49,209.39 640.63,205.63 640.76,206.70 640.89,204.02 641.02,205.10 641.15,208.31 641.28,208.31 641.42,210.46 641.55,210.46 641.68,209.92 641.81,209.92 641.94,207.78 642.07,205.10 642.20,202.41 642.34,204.02 642.47,204.56 642.60,204.02 642.73,204.56 642.86,204.02 642.99,201.88 643.13,201.88 643.26,203.49 643.39,200.80 643.52,197.59 643.65,198.12 643.78,200.80 643.92,201.34 644.05,200.27 644.18,200.27 644.31,200.80 644.44,202.41 644.57,201.88 644.71,202.41 644.84,199.20 644.97,204.56 645.10,201.34 645.23,207.78 645.36,204.02 645.50,194.37 645.63,198.12 645.76,193.83 645.89,193.29 646.02,184.71 646.15,191.69 646.29,195.98 646.42,186.86 646.55,189.00 646.68,200.80 646.81,200.80 646.94,201.34 647.08,206.70 647.21,210.46 647.34,196.51 647.47,198.12 647.60,198.66 647.73,200.80 647.87,200.27 648.00,199.20 648.13,198.66 648.26,185.25 648.39,185.78 648.52,187.39 648.66,182.03 648.79,186.32 648.92,189.54 649.05,184.71 649.18,179.88 649.31,174.52 649.45,179.88 649.58,174.52 649.71,177.74 649.84,178.27 649.97,179.35 650.10,190.08 650.24,188.47 650.37,186.32 650.50,186.86 650.63,186.86 650.76,193.29 650.89,191.69 651.02,192.22 651.16,190.08 651.29,190.08 651.42,185.78 651.55,185.78 651.68,185.25 651.81,179.88 651.95,182.03 652.08,193.83 652.21,191.69 652.34,183.64 652.47,180.96 652.60,181.49 652.74,181.49 652.87,179.35 653.00,183.10 653.13,184.18 653.26,183.10 653.39,182.03 653.53,181.49 653.66,181.49 653.79,182.03 653.92,182.57 654.05,183.10 654.18,185.78 654.32,186.86 654.45,191.15 654.58,186.86 654.71,187.39 654.84,187.39 654.97,184.18 655.11,179.35 655.24,177.20 655.37,179.35 655.50,179.35 655.63,180.42 655.76,182.03 655.90,182.57 656.03,184.18 656.16,186.86 656.29,186.86 656.42,187.93 656.55,183.64 656.69,181.49 656.82,179.35 656.95,178.27 657.08,177.20 657.21,180.42 657.34,178.27 657.48,177.74 657.61,177.20 657.74,178.27 657.87,180.42 658.00,181.49 658.13,181.49 658.27,181.49 658.40,182.03 658.53,180.96 658.66,181.49 658.79,181.49 658.92,181.49 659.06,180.42 659.19,179.88 659.32,179.88 659.45,178.27 659.58,178.27 659.71,178.27 659.84,178.27 659.98,180.42 660.11,181.49 660.24,179.35 660.37,181.49 660.50,183.64 660.63,184.71 660.77,186.32 660.90,183.10 661.03,183.10 661.16,183.10 661.29,183.10 661.42,184.71 661.56,186.32 661.69,186.86 661.82,184.71 661.95,181.49 662.08,182.03 662.21,174.52 662.35,175.06 662.48,182.57 662.61,183.64 662.74,184.71 662.87,183.64 663.00,185.78 663.14,180.96 663.27,181.49 663.40,182.57 663.53,188.47 663.66,191.69 663.79,186.86 663.93,181.49 664.06,182.03 664.19,182.57 664.32,182.57 664.45,183.10 664.58,183.10 664.72,183.64 664.85,183.64 664.98,183.10 665.11,185.25 665.24,184.71 665.37,185.25 665.51,185.25 665.64,185.25 665.77,185.25 665.90,185.78 666.03,186.86 666.16,186.86 666.30,187.39 666.43,188.47 666.56,187.39 666.69,187.39 666.82,188.47 666.95,188.47 667.09,191.69 667.22,190.08 667.35,191.15 667.48,193.29 667.61,194.37 667.74,190.08 667.88,191.15 668.01,190.08 668.14,194.37 668.27,194.37 668.40,188.47 668.53,193.83 668.66,187.93 668.80,187.39 668.93,184.71 669.06,187.39 669.19,191.15 669.32,190.61 669.45,194.37 669.59,195.98 669.72,195.98 669.85,193.83 669.98,194.37 670.11,192.76 670.24,192.22 670.38,192.76 670.51,191.15 670.64,190.08 670.77,190.08 670.90,191.15 671.03,190.61 671.17,187.93 671.30,191.15 671.43,193.29 671.56,186.32 671.69,187.39 671.82,188.47 671.96,187.93 672.09,187.39 672.22,187.93 672.35,189.00 672.48,189.00 672.61,188.47 672.75,187.93 672.88,186.32 673.01,190.61 673.14,189.54 673.27,193.83 673.40,191.69 673.54,192.22 673.67,191.69 673.80,192.76 673.93,192.22 674.06,194.37 674.19,194.37 674.33,193.83 674.46,192.22 674.59,189.54 674.72,190.61 674.85,194.37 674.98,194.37 675.12,191.15 675.25,186.86 675.38,185.25 675.51,186.32 675.64,186.86 675.77,188.47 675.91,188.47 676.04,189.00 676.17,187.93 676.30,189.54 676.43,189.00 676.56,190.61 676.69,187.93 676.83,185.25 676.96,183.10 677.09,182.57 677.22,182.57 677.35,186.86 677.48,178.81 677.62,178.81 677.75,180.42 677.88,179.88 678.01,179.35 678.14,179.35 678.27,179.35 678.41,179.35 678.54,178.81 678.67,180.96 678.80,176.13 678.93,178.27 679.06,178.81 679.20,178.27 679.33,180.96 679.46,181.49 679.59,178.81 679.72,175.59 679.85,175.59 679.99,173.98 680.12,173.45 680.25,172.91 680.38,171.84 680.51,179.88 680.64,178.81 680.78,179.35 680.91,177.74 681.04,177.20 681.17,177.20 681.30,176.13 681.43,175.06 681.57,175.59 681.70,174.52 681.83,175.59 681.96,173.45 682.09,173.98 682.22,173.98 682.36,174.52 682.49,174.52 682.62,174.52 682.75,171.84 682.88,172.37 683.01,171.84 683.15,171.84 683.28,173.45 683.41,173.98 683.54,173.45 683.67,173.98 683.80,174.52 683.94,175.59 684.07,177.74 684.20,178.27 684.33,179.88 684.46,180.42 684.59,180.96 684.73,180.96 684.86,180.96 684.99,181.49 685.12,182.57 685.25,177.20 685.38,178.27 685.51,177.20 685.65,175.59 685.78,173.98 685.91,173.45 686.04,173.45 686.17,173.45 686.30,172.91 686.44,170.23 686.57,170.23 686.70,172.91 686.83,172.91 686.96,175.59 687.09,173.45 687.23,173.98 687.36,172.91 687.49,170.77 687.62,170.23 687.75,171.84 687.88,164.86 688.02,168.08 688.15,169.69 688.28,169.69 688.41,169.69 688.54,169.69 688.67,169.69 688.81,174.52 688.94,178.27 689.07,177.74 689.20,177.20 689.33,176.13 689.46,177.74 689.60,182.57 689.73,186.32 689.86,185.78 689.99,184.18 690.12,182.03 690.25,180.42 690.39,180.42 690.52,180.96 690.65,182.03 690.78,182.03 690.91,183.10 691.04,183.64 691.18,182.57 691.31,180.96 691.44,180.42 691.57,180.42 691.70,90.84" fill="none" stroke-width="0.75" stroke="#000000" stroke-linecap="round" stroke-linejoin="round"/>
<polyline points="691.97,76.36 692.10,166.47 692.23,167.01 692.36,172.37 692.49,166.47 692.62,168.08 692.76,160.57 692.89,161.11 693.02,161.11 693.15,159.50 693.28,163.79 693.41,164.33 693.55,162.18 693.68,162.18 693.81,167.55 693.94,167.55 694.07,170.77 694.20,172.91 694.33,171.84 694.47,170.23 694.60,168.08 694.73,167.55 694.86,167.01 694.99,167.01 695.12,168.08 695.26,165.40 695.39,166.47 695.52,167.55 695.65,175.06 695.78,171.84 695.91,170.77 696.05,171.84 696.18,173.45 696.31,173.98 696.44,178.27 696.57,177.20 696.70,177.20 696.84,176.67 696.97,177.74 697.10,178.27 697.23,182.03 697.36,180.96 697.49,179.35 697.63,179.88 697.76,178.27 697.89,179.35 698.02,171.30 698.15,173.45 698.28,173.45 698.42,172.37 698.55,171.84 698.68,169.16 698.81,168.08 698.94,166.47 699.07,158.43 699.21,152.53 699.34,148.24 699.47,151.45 699.60,153.06 699.73,164.86 699.86,169.16 700.00,180.42 700.13,179.35 700.26,180.96 700.39,180.42 700.52,182.03 700.65,182.57 700.79,182.57 700.92,183.10 701.05,179.35 701.18,177.20 701.31,176.67 701.44,174.52 701.58,178.27 701.71,176.67 701.84,175.59 701.97,173.98 702.10,160.04 702.23,160.04 702.37,160.57 702.50,176.13 702.63,176.13 702.76,176.13 702.89,173.98 703.02,172.91 703.15,179.88 703.29,181.49 703.42,175.59 703.55,175.06 703.68,179.35 703.81,181.49 703.94,181.49 704.08,183.10 704.21,182.57 704.34,177.74 704.47,175.59 704.60,174.52 704.73,173.45 704.87,173.98 705.00,179.88 705.13,177.74 705.26,171.84 705.39,162.18 705.52,163.79 705.66,162.18 705.79,163.79 705.92,171.30 706.05,172.37 706.18,173.45 706.31,174.52 706.45,172.37 706.58,176.67 706.71,180.96 706.84,178.27 706.97,175.06 707.10,181.49 707.24,181.49 707.37,180.96 707.50,180.96 707.63,180.42 707.76,180.42 707.89,180.96 708.03,177.74 708.16,182.03 708.29,181.49 708.42,180.42 708.55,176.13 708.68,173.98 708.82,173.45 708.95,178.81 709.08,177.74 709.21,177.74 709.34,178.81 709.47,182.03 709.61,183.10 709.74,184.18 709.87,172.91 710.00,175.06 710.13,175.06 710.26,177.74 710.40,179.35 710.53,181.49 710.66,178.27 710.79,175.59 710.92,175.06 711.05,171.30 711.18,174.52 711.32,172.37 711.45,168.62 711.58,167.55 711.71,167.55 711.84,168.62 711.97,170.23 712.11,167.01 712.24,166.47 712.37,169.16 712.50,169.16 712.63,170.23 712.76,178.27 712.90,178.81 713.03,180.42 713.16,184.71 713.29,182.57 713.42,182.03 713.55,182.57 713.69,177.74 713.82,180.42 713.95,179.88 714.08,176.67 714.21,177.20 714.34,175.06 714.48,176.13 714.61,171.84 714.74,172.91 714.87,168.62 715.00,171.30 715.13,174.52 715.27,175.59 715.40,176.67 715.53,178.81 715.66,179.35 715.79,178.81 715.92,180.96 716.06,178.27 716.19,181.49 716.32,180.96 716.45,180.42 716.58,182.03 716.71,182.03 716.85,177.20 716.98,169.16 717.11,161.65 717.24,163.79 717.37,158.43 717.50,162.72 717.64,160.57 717.77,157.89 717.90,153.60 718.03,156.28 718.16,160.04 718.29,151.45 718.43,149.84 718.56,148.24 718.69,148.77 718.82,149.84 718.95,151.45 719.08,145.55 719.22,161.65 719.35,169.16 719.48,164.33 719.61,160.04 719.74,156.82 719.87,156.82 720.00,155.21 720.14,160.57 720.27,158.96 720.40,157.35 720.53,156.28 720.66,156.28 720.79,155.21 720.93,154.14 721.06,154.14 721.19,154.14 721.32,151.45 721.45,152.53 721.58,153.60 721.72,152.53 721.85,154.67 721.98,155.75 722.11,153.06 722.24,153.60 722.37,154.14 722.51,155.75 722.64,156.28 722.77,155.21 722.90,155.75 723.03,154.14 723.16,154.67 723.30,154.67 723.43,155.21 723.56,155.75 723.69,155.75 723.82,154.67 723.95,155.21 724.09,154.67 724.22,154.67 724.35,154.67 724.48,153.60 724.61,151.45 724.74,150.92 724.88,151.99 725.01,150.92 725.14,151.45 725.27,151.99 725.40,154.14 725.53,152.53 725.67,158.43 725.80,162.72 725.93,158.96 726.06,159.50 726.19,160.57 726.32,164.86 726.46,162.72 726.59,161.65 726.72,161.65 726.85,163.79 726.98,165.40 727.11,167.01 727.25,166.47 727.38,166.47 727.51,161.11 727.64,161.65 727.77,161.11 727.90,162.18 728.04,161.11 728.17,158.96 728.30,158.96 728.43,157.89 728.56,157.89 728.69,160.57 728.82,166.47 728.96,169.69 729.09,173.45 729.22,177.74 729.35,177.20 729.48,169.16 729.61,167.01 729.75,165.94 729.88,166.47 730.01,164.33 730.14,164.33 730.27,164.33 730.40,163.79 730.54,163.79 730.67,163.26 730.80,160.57 730.93,160.04 731.06,158.43 731.19,155.21 731.33,146.63 731.46,149.31 731.59,149.31 731.72,154.14 731.85,151.99 731.98,163.79 732.12,165.94 732.25,163.26 732.38,163.79 732.51,165.94 732.64,164.33 732.77,162.72 732.91,164.33 733.04,157.89 733.17,166.47 733.30,165.40 733.43,160.57 733.56,157.35 733.70,161.65 733.83,164.86 733.96,158.43 734.09,158.43 734.22,160.04 734.35,161.11 734.49,160.04 734.62,159.50 734.75,158.43 734.88,157.89 735.01,155.75 735.14,155.75 735.28,157.35 735.41,156.82 735.54,157.35 735.67,156.28 735.80,155.75 735.93,154.67 736.07,153.06 736.20,153.06 736.33,153.06 736.46,153.06 736.59,153.06 736.72,153.06 736.85,153.60 736.99,154.14 737.12,153.60 737.25,153.06 737.38,154.67 737.51,155.75 737.64,154.14 737.78,154.67 737.91,156.82 738.04,157.89 738.17,155.75 738.30,154.14 738.43,155.21 738.57,157.89 738.70,157.89 738.83,158.96 738.96,159.50 739.09,161.11 739.22,158.96 739.36,156.28 739.49,156.82 739.62,182.57 739.75,163.26 739.88,162.72 740.01,161.65 740.15,160.57 740.28,158.96 740.41,158.43 740.54,158.43 740.67,160.04 740.80,164.33 740.94,163.79 741.07,162.18 741.20,160.04 741.33,160.04 741.46,158.43 741.59,160.04 741.73,160.04 741.86,159.50 741.99,158.43 742.12,159.50 742.25,159.50 742.38,159.50 742.52,158.43 742.65,158.96 742.78,159.50 742.91,160.57 743.04,161.11 743.17,161.65 743.31,162.18 743.44,162.18" fill="none" stroke-width="0.75" stroke="#000000" stroke-linecap="round" stroke-linejoin="round"/>
</g><g clip-path="url(#c2-96d82ac5-ca59-4cce-816e-745ff331ea94)">
<line x1="82.73" y1="526.56" x2="714.61" y2="526.56" stroke-width="0.75" stroke="#000000" stroke-linecap="round" stroke-linejoin="round"/>
<line x1="82.73" y1="526.56" x2="82.73" y2="533.76" stroke-width="0.75" stroke="#000000" stroke-linecap="round" stroke-linejoin="round"/>
<line x1="209.11" y1="526.56" x2="209.11" y2="533.76" stroke-width="0.75" stroke="#000000" stroke-linecap="round" stroke-linejoin="round"/>
<line x1="335.48" y1="526.56" x2="335.48" y2="533.76" stroke-width="0.75" stroke="#000000" stroke-linecap="round" stroke-linejoin="round"/>
<line x1="461.86" y1="526.56" x2="461.86" y2="533.76" stroke-width="0.75" stroke="#000000" stroke-linecap="round" stroke-linejoin="round"/>
<line x1="588.23" y1="526.56" x2="588.23" y2="533.76" stroke-width="0.75" stroke="#000000" stroke-linecap="round" stroke-linejoin="round"/>
<line x1="714.61" y1="526.56" x2="714.61" y2="533.76" stroke-width="0.75" stroke="#000000" stroke-linecap="round" stroke-linejoin="round"/>
<g><text x="82.73" y="552.48" text-anchor="middle" font-family="Arial" font-size="12.00px" textLength="6.67px" lengthAdjust="spacingAndGlyphs">0</text></g>
<g><text x="209.11" y="552.48" text-anchor="middle" font-family="Arial" font-size="12.00px" textLength="13.35px" lengthAdjust="spacingAndGlyphs">20</text></g>
<g><text x="335.48" y="552.48" text-anchor="middle" font-family="Arial" font-size="12.00px" textLength="13.35px" lengthAdjust="spacingAndGlyphs">40</text></g>
<g><text x="461.86" y="552.48" text-anchor="middle" font-family="Arial" font-size="12.00px" textLength="13.35px" lengthAdjust="spacingAndGlyphs">60</text></g>
<g><text x="588.23" y="552.48" text-anchor="middle" font-family="Arial" font-size="12.00px" textLength="13.35px" lengthAdjust="spacingAndGlyphs">80</text></g>
<g><text x="714.61" y="552.48" text-anchor="middle" font-family="Arial" font-size="12.00px" textLength="20.02px" lengthAdjust="spacingAndGlyphs">100</text></g>
<line x1="59.04" y1="430.39" x2="59.04" y2="108.54" stroke-width="0.75" stroke="#000000" stroke-linecap="round" stroke-linejoin="round"/>
<line x1="59.04" y1="430.39" x2="51.84" y2="430.39" stroke-width="0.75" stroke="#000000" stroke-linecap="round" stroke-linejoin="round"/>
<line x1="59.04" y1="323.11" x2="51.84" y2="323.11" stroke-width="0.75" stroke="#000000" stroke-linecap="round" stroke-linejoin="round"/>
<line x1="59.04" y1="215.82" x2="51.84" y2="215.82" stroke-width="0.75" stroke="#000000" stroke-linecap="round" stroke-linejoin="round"/>
<line x1="59.04" y1="108.54" x2="51.84" y2="108.54" stroke-width="0.75" stroke="#000000" stroke-linecap="round" stroke-linejoin="round"/>
<g><text transform="translate(41.76,430.39) rotate(-90.00)" text-anchor="middle" font-family="Arial" font-size="12.00px" textLength="6.67px" lengthAdjust="spacingAndGlyphs">6</text></g>
<g><text transform="translate(41.76,323.11) rotate(-90.00)" text-anchor="middle" font-family="Arial" font-size="12.00px" textLength="6.67px" lengthAdjust="spacingAndGlyphs">8</text></g>
<g><text transform="translate(41.76,215.82) rotate(-90.00)" text-anchor="middle" font-family="Arial" font-size="12.00px" textLength="13.35px" lengthAdjust="spacingAndGlyphs">10</text></g>
<g><text transform="translate(41.76,108.54) rotate(-90.00)" text-anchor="middle" font-family="Arial" font-size="12.00px" textLength="13.35px" lengthAdjust="spacingAndGlyphs">12</text></g>
<polygon points="59.04,526.56 769.76,526.56 769.76,59.04 59.04,59.04" stroke-width="0.75" stroke="#000000" stroke-linecap="round" stroke-linejoin="round" fill="none"/>
<g><text x="414.40" y="34.67" text-anchor="middle" font-family="Arial" font-size="14.40px" font-weight="bold" textLength="124.79px" lengthAdjust="spacingAndGlyphs">Dissolved Oxygen</text></g>
<g><text x="414.40" y="581.28" text-anchor="middle" font-family="Arial" font-size="12.00px" textLength="81.37px" lengthAdjust="spacingAndGlyphs">Days from start</text></g>
<g><text transform="translate(12.96,292.80) rotate(-90.00)" text-anchor="middle" font-family="Arial" font-size="12.00px" textLength="78.06px" lengthAdjust="spacingAndGlyphs">Oxygen [mg/L]</text></g>
</g>
</svg>