<svg xmlns="http://www.w3.org/2000/svg" xmlns:xlink="http://www.w3.org/1999/xlink" class="httpgd" width="1024.00" height="530.00" viewBox="0 0 819.20 424.00">
<defs>
  <style type='text/css'><![CDATA[
    .httpgd line, .httpgd polyline, .httpgd polygon, .httpgd path, .httpgd rect, .httpgd circle {
      fill: none;
      stroke: #000000;
      stroke-linecap: round;
      stroke-linejoin: round;
      stroke-miterlimit: 10.00;
    }
  ]]></style>
<clipPath id="c0"><rect x="0.00" y="0.00" width="819.20" height="424.00"/></clipPath>
<clipPath id="c1"><rect x="59.04" y="59.04" width="729.92" height="291.52"/></clipPath>
<clipPath id="c2"><rect x="0.00" y="0.00" width="819.20" height="424.00"/></clipPath>
</defs>
<rect width="100%" height="100%" style="stroke: none;fill: #FFFFFF;"/>
<g clip-path="url(#c0)">
</g><g clip-path="url(#c1)">
<polyline points="86.07,113.43 86.21,114.33 86.34,113.82 86.48,113.82 86.61,113.56 86.75,113.30 86.89,113.56 87.02,111.37 87.16,111.50 87.29,111.50 87.43,111.50 87.56,111.63 87.70,111.63 87.83,112.53 87.97,111.63 88.10,111.63 88.24,112.40 88.37,112.92 88.51,112.92 88.64,113.56 88.78,113.30 88.91,113.30 89.05,112.92 89.18,112.66 89.32,112.53 89.45,112.66 89.59,112.66 89.72,112.66 89.86,112.79 89.99,113.05 90.13,112.92 90.27,111.89 90.40,112.40 90.54,112.27 90.67,112.53 90.81,112.66 90.94,112.92 91.08,112.92 91.21,112.92 91.35,112.92 91.48,112.92 91.62,112.92 91.75,112.92 91.89,112.79 92.02,112.15 92.16,111.89 92.29,111.50 92.43,111.37 92.56,111.76 92.70,111.63 92.83,111.50 92.97,110.99 93.10,110.99 93.24,111.12 93.37,111.12 93.51,110.86 93.65,110.60 93.78,110.60 93.92,110.60 94.05,110.60 94.19,110.60 94.32,110.73 94.46,110.99 94.59,111.12 94.73,111.12 94.86,111.12 95.00,110.99 95.13,110.73 95.27,110.86 95.40,110.86 95.54,110.73 95.67,110.60 95.81,110.60 95.94,110.60 96.08,110.73 96.21,110.73 96.35,110.73 96.48,110.73 96.62,110.73 96.75,110.86 96.89,110.86 97.03,110.86 97.16,110.86 97.30,110.73 97.43,110.73 97.57,110.73 97.70,110.73 97.84,110.86 97.97,110.73 98.11,110.86 98.24,110.73 98.38,110.86 98.51,110.86 98.65,110.86 98.78,110.86 98.92,110.99 99.05,110.86 99.19,110.73 99.32,111.12 99.46,111.37 99.59,111.25 99.73,111.12 99.86,110.86 100.00,111.37 100.13,111.25 100.27,111.25 100.40,111.25 100.54,111.25 100.68,111.25 100.81,111.12 100.95,111.37 101.08,111.37 101.22,111.37 101.35,111.37 101.49,111.37 101.62,111.12 101.76,111.63 101.89,112.02 102.03,112.40 102.16,112.79 102.30,112.79 102.43,111.50 102.57,111.50 102.70,112.15 102.84,112.02 102.97,111.63 103.11,111.50 103.24,111.76 103.38,111.89 103.51,111.89 103.65,111.89 103.78,112.02 103.92,112.15 104.06,112.15 104.19,112.27 104.33,111.25 104.46,111.25 104.60,111.12 104.73,111.12 104.87,111.25 105.00,111.63 105.14,111.50 105.27,111.63 105.41,111.50 105.54,111.89 105.68,111.89 105.81,111.76 105.95,112.02 106.08,111.89 106.22,111.89 106.35,111.89 106.49,111.50 106.62,111.25 106.76,111.25 106.89,111.25 107.03,111.37 107.16,111.37 107.30,111.37 107.44,111.37 107.57,111.37 107.71,111.37 107.84,111.37 107.98,111.37 108.11,111.37 108.25,111.37 108.38,111.50 108.52,111.63 108.65,111.63 108.79,111.89 108.92,112.02 109.06,112.02 109.19,112.27 109.33,111.89 109.46,111.63 109.60,111.76 109.73,111.76 109.87,111.76 110.00,111.63 110.14,111.63 110.27,111.50 110.41,111.50 110.54,111.89 110.68,111.63 110.82,111.89 110.95,111.89 111.09,112.02 111.22,112.15 111.36,111.89 111.49,111.63 111.63,111.63 111.76,111.89 111.90,112.27 112.03,112.53 112.17,112.66 112.30,112.66 112.44,111.89 112.57,111.89 112.71,112.27 112.84,111.63 112.98,112.27 113.11,112.15 113.25,112.40 113.38,112.27 113.52,112.40 113.65,112.53 113.79,112.02 113.92,111.63 114.06,111.76 114.20,111.76 114.33,111.12 114.47,110.99 114.60,110.73 114.74,110.73 114.87,110.99 115.01,111.25 115.14,111.76 115.28,111.89 115.41,112.40 115.55,112.66 115.68,112.79 115.82,112.53 115.95,112.53 116.09,112.27 116.22,112.02 116.36,112.27 116.49,112.40 116.63,112.40 116.76,112.40 116.90,112.53 117.03,112.53 117.17,112.53 117.30,112.66 117.44,112.66 117.58,112.79 117.71,112.79 117.85,112.79 117.98,112.79 118.12,112.79 118.25,112.79 118.39,112.79 118.52,112.53 118.66,112.66 118.79,112.66 118.93,112.79 119.06,112.53 119.20,112.79 119.33,113.69 119.47,113.30 119.60,113.43 119.74,113.43 119.87,112.79 120.01,112.79 120.14,112.66 120.28,112.92 120.41,113.05 120.55,113.17 120.68,113.17 120.82,113.30 120.96,112.40 121.09,112.66 121.23,111.50 121.36,111.37 121.50,111.37 121.63,111.76 121.77,111.89 121.90,111.89 122.04,113.17 122.17,113.17 122.31,112.79 122.44,112.92 122.58,112.92 122.71,113.30 122.85,113.17 122.98,112.40 123.12,111.89 123.25,111.76 123.39,111.63 123.52,111.12 123.66,111.25 123.79,110.73 123.93,110.99 124.06,110.99 124.20,110.99 124.33,110.35 124.47,110.35 124.61,110.22 124.74,110.35 124.88,110.22 125.01,110.22 125.15,110.22 125.28,110.73 125.42,110.99 125.55,111.76 125.69,112.27 125.82,112.53 125.96,112.02 126.09,112.66 126.23,112.66 126.36,112.53 126.50,112.02 126.63,112.40 126.77,111.76 126.90,111.12 127.04,111.25 127.17,111.25 127.31,111.37 127.44,111.76 127.58,112.02 127.71,110.99 127.85,109.96 127.99,109.83 128.12,109.70 128.26,109.96 128.39,110.22 128.53,110.35 128.66,110.60 128.80,110.99 128.93,113.69 129.07,114.46 129.20,114.97 129.34,115.49 129.47,114.59 129.61,114.97 129.74,114.20 129.88,114.07 130.01,112.02 130.15,112.15 130.28,111.37 130.42,111.63 130.55,111.37 130.69,111.63 130.82,111.50 130.96,110.22 131.09,110.22 131.23,109.96 131.37,109.96 131.50,109.96 131.64,109.96 131.77,109.96 131.91,109.96 132.04,110.35 132.18,111.12 132.31,111.37 132.45,111.89 132.58,112.02 132.72,111.63 132.85,111.12 132.99,111.12 133.12,111.12 133.26,111.12 133.39,110.99 133.53,111.25 133.66,110.99 133.80,111.50 133.93,111.37 134.07,111.25 134.20,110.60 134.34,110.47 134.47,110.60 134.61,110.60 134.75,110.47 134.88,110.47 135.02,110.47 135.15,110.60 135.29,110.60 135.42,110.73 135.56,111.12 135.69,110.60 135.83,110.35 135.96,110.47 136.10,110.60 136.23,110.60 136.37,110.60 136.50,110.60 136.64,110.60 136.77,110.22 136.91,110.47 137.04,110.73 137.18,110.73 137.31,110.22 137.45,110.22 137.58,110.09 137.72,110.09 137.85,110.09 137.99,110.22 138.13,110.22 138.26,110.35 138.40,110.60 138.53,110.99 138.67,110.99 138.80,111.50 138.94,112.02 139.07,112.27 139.21,112.15 139.34,110.73 139.48,110.86 139.61,110.35 139.75,110.35 139.88,110.22 140.02,110.09 140.15,110.35 140.29,110.09 140.42,109.96 140.56,109.83 140.69,109.96 140.83,109.96 140.96,110.22 141.10,110.22 141.23,110.60 141.37,110.22 141.51,110.47 141.64,110.99 141.78,111.25 141.91,110.86 142.05,111.63 142.18,111.63 142.32,111.89 142.45,112.27 142.59,112.53 142.72,112.15 142.86,111.37 142.99,111.63 143.13,111.50 143.26,111.76 143.40,111.76 143.53,111.76 143.67,111.89 143.80,111.89 143.94,111.25 144.07,111.37 144.21,111.25 144.34,111.50 144.48,111.89 144.61,112.02 144.75,111.76 144.88,110.60 145.02,110.47 145.16,110.47 145.29,110.73 145.43,111.37 145.56,112.02 145.70,112.92 145.83,113.17 145.97,113.17 146.10,112.15 146.24,111.76 146.37,112.66 146.51,113.05 146.64,112.66 146.78,111.63 146.91,111.76 147.05,111.76 147.18,111.76 147.32,111.12 147.45,112.15 147.59,112.15 147.72,112.02 147.86,112.02 147.99,111.12 148.13,110.35 148.26,109.70 148.40,109.83 148.54,109.96 148.67,110.35 148.81,111.63 148.94,111.76 149.08,112.27 149.21,112.66 149.35,112.53 149.48,112.27 149.62,112.53 149.75,112.27 149.89,112.15 150.02,112.40 150.16,112.15 150.29,112.02 150.43,112.27 150.56,112.27 150.70,112.27 150.83,112.27 150.97,112.15 151.10,112.53 151.24,112.15 151.37,111.76 151.51,109.83 151.64,110.09 151.78,110.22 151.92,110.73 152.05,110.60 152.19,110.73 152.32,110.99 152.46,111.89 152.59,113.05 152.73,113.30 152.86,113.43 153.00,113.56 153.13,113.17 153.27,113.17 153.40,112.53 153.54,112.27 153.67,111.89 153.81,112.27 153.94,112.15 154.08,112.02 154.21,112.02 154.35,112.02 154.48,110.86 154.62,111.12 154.75,111.12 154.89,109.70 155.02,109.83 155.16,109.83 155.30,109.83 155.43,110.35 155.57,110.09 155.70,110.09 155.84,110.60 155.97,110.47 156.11,110.86 156.24,112.66 156.38,113.69 156.51,112.27 156.65,112.40 156.78,112.15 156.92,111.50 157.05,112.15 157.19,112.15 157.32,111.76 157.46,112.15 157.59,112.40 157.73,112.40 157.86,112.15 158.00,112.02 158.13,112.40 158.27,112.66 158.40,111.63 158.54,111.76 158.68,111.63 158.81,112.02 158.95,111.76 159.08,111.89 159.22,112.15 159.35,112.53 159.49,112.66 159.62,112.92 159.76,111.12 159.89,113.30 160.03,113.17 160.16,113.05 160.30,111.89 160.43,112.92 160.57,110.86 160.70,111.12 160.84,110.35 160.97,110.73 161.11,110.47 161.24,110.47 161.38,110.47 161.51,110.35 161.65,110.47 161.78,110.73 161.92,110.60 162.06,110.47 162.19,111.37 162.33,111.25 162.46,112.15 162.60,112.92 162.73,113.56 162.87,113.30 163.00,112.92 163.14,112.27 163.27,112.40 163.41,111.89 163.54,112.40 163.68,111.89 163.81,111.63 163.95,111.89 164.08,112.02 164.22,111.76 164.35,111.37 164.49,111.12 164.62,112.79 164.76,112.02 164.89,112.15 165.03,111.76 165.16,111.12 165.30,112.15 165.43,112.92 165.57,113.56 165.71,113.82 165.84,114.46 165.98,113.95 166.11,114.20 166.25,114.72 166.38,113.95 166.52,113.95 166.65,113.69 166.79,113.17 166.92,114.46 167.06,113.30 167.19,112.92 167.33,114.97 167.46,114.33 167.60,114.07 167.73,113.43 167.87,111.50 168.00,111.63 168.14,112.02 168.27,112.15 168.41,114.20 168.54,114.20 168.68,115.36 168.81,115.23 168.95,115.23 169.09,115.23 169.22,115.23 169.36,115.10 169.49,115.10 169.63,115.23 169.76,115.10 169.90,114.59 170.03,114.33 170.17,112.79 170.30,112.66 170.44,111.50 170.57,111.50 170.71,113.69 170.84,115.75 170.98,115.36 171.11,115.87 171.25,116.00 171.38,115.36 171.52,115.36 171.65,114.59 171.79,114.46 171.92,114.33 172.06,114.85 172.19,114.46 172.33,114.85 172.47,114.07 172.60,114.46 172.74,114.46 172.87,114.72 173.01,114.72 173.14,115.10 173.28,114.20 173.41,113.95 173.55,114.20 173.68,112.40 173.82,111.89 173.95,112.66 174.09,112.02 174.22,111.76 174.36,110.99 174.49,111.25 174.63,111.89 174.76,110.99 174.90,111.89 175.03,111.63 175.17,112.27 175.30,112.40 175.44,113.43 175.57,112.66 175.71,112.79 175.85,112.79 175.98,112.92 176.12,113.43 176.25,114.85 176.39,114.85 176.52,114.72 176.66,114.20 176.79,114.59 176.93,113.56 177.06,113.05 177.20,112.53 177.33,111.37 177.47,111.37 177.60,111.50 177.74,111.37 177.87,111.37 178.01,112.66 178.14,113.05 178.28,113.43 178.41,114.46 178.55,116.26 178.68,117.16 178.82,117.29 178.95,117.29 179.09,116.65 179.23,116.52 179.36,116.00 179.50,115.62 179.63,115.36 179.77,114.97 179.90,113.56 180.04,112.53 180.17,110.99 180.31,111.37 180.44,110.86 180.58,110.86 180.71,110.86 180.85,110.73 180.98,110.73 181.12,111.37 181.25,111.25 181.39,111.37 181.52,112.66 181.66,112.79 181.79,114.20 181.93,115.23 182.06,115.87 182.20,115.49 182.33,116.26 182.47,117.55 182.61,116.65 182.74,115.36 182.88,116.26 183.01,114.85 183.15,115.87 183.28,115.23 183.42,115.49 183.55,114.85 183.69,114.46 183.82,114.97 183.96,115.23 184.09,115.36 184.23,115.23 184.36,114.59 184.50,115.36 184.63,115.36 184.77,115.75 184.90,116.52 185.04,116.90 185.17,117.03 185.31,117.16 185.44,116.90 185.58,116.65 185.71,116.39 185.85,116.65 185.98,116.39 186.12,116.13 186.26,116.00 186.39,115.23 186.53,113.95 186.66,114.07 186.80,114.97 186.93,114.46 187.07,114.33 187.20,116.00 187.34,113.95 187.47,114.46 187.61,113.56 187.74,111.89 187.88,111.63 188.01,111.25 188.15,111.25 188.28,112.79 188.42,116.00 188.55,115.23 188.69,115.62 188.82,115.62 188.96,115.23 189.09,115.23 189.23,113.56 189.36,113.95 189.50,113.69 189.64,114.46 189.77,114.33 189.91,114.72 190.04,114.72 190.18,114.97 190.31,114.07 190.45,114.20 190.58,114.33 190.72,114.20 190.85,114.59 190.99,114.20 191.12,113.82 191.26,114.33 191.39,113.17 191.53,112.92 191.66,112.79 191.80,112.92 191.93,113.30 192.07,113.43 192.20,113.56 192.34,114.97 192.47,113.69 192.61,113.56 192.74,113.56 192.88,113.43 193.02,113.56 193.15,113.56 193.29,113.43 193.42,113.30 193.56,112.66 193.69,112.02 193.83,111.25 193.96,111.50 194.10,110.86 194.23,111.25 194.37,113.69 194.50,114.07 194.64,113.82 194.77,115.23 194.91,114.72 195.04,115.10 195.18,114.07 195.31,113.43 195.45,116.39 195.58,115.49 195.72,116.39 195.85,115.75 195.99,151.37 196.12,116.90 196.26,116.52 196.40,115.36 196.53,116.26 196.67,115.87 196.80,115.75 196.94,116.13 197.07,114.85 197.21,115.36 197.34,115.10 197.48,114.97 197.61,114.59 197.75,116.13 197.88,117.42 198.02,117.93 198.15,116.90 198.29,117.68 198.42,118.06 198.56,118.32 198.69,118.06 198.83,119.09 198.96,118.70 199.10,119.22 199.23,117.68 199.37,119.35 199.50,118.83 199.64,118.58 199.78,118.06 199.91,118.19 200.05,114.46 200.18,113.30 200.32,115.36 200.45,114.07 200.59,113.95 200.72,115.10 200.86,113.69 200.99,113.95 201.13,115.75 201.26,114.59 201.40,114.46 201.53,114.72 201.67,115.49 201.80,115.49 201.94,116.90 202.07,117.42 202.21,117.80 202.34,118.32 202.48,116.78 202.61,117.80 202.75,118.70 202.88,119.60 203.02,120.50 203.16,119.99 203.29,119.35 203.43,119.22 203.56,119.73 203.70,120.12 203.83,120.63 203.97,119.09 204.10,118.96 204.24,119.73 204.37,120.76 204.51,120.76 204.64,121.66 204.78,122.30 204.91,123.33 205.05,124.36 205.18,124.49 205.32,123.46 205.45,122.43 205.59,121.79 205.72,121.92 205.86,121.66 205.99,117.16 206.13,115.62 206.26,115.62 206.40,116.39 206.53,116.78 206.67,118.06 206.81,119.09 206.94,118.19 207.08,117.42 207.21,117.42 207.35,117.68 207.48,117.55 207.62,117.68 207.75,116.90 207.89,117.29 208.02,117.55 208.16,117.29 208.29,116.78 208.43,116.00 208.56,116.39 208.70,117.03 208.83,116.78 208.97,117.16 209.10,117.03 209.24,116.90 209.37,116.65 209.51,116.52 209.64,116.26 209.78,115.62 209.91,113.56 210.05,113.43 210.19,112.92 210.32,111.50 210.46,111.25 210.59,111.76 210.73,110.73 210.86,110.47 211.00,111.12 211.13,112.53 211.27,114.72 211.40,114.72 211.54,114.46 211.67,114.72 211.81,115.49 211.94,115.49 212.08,115.87 212.21,115.10 212.35,114.97 212.48,115.49 212.62,115.36 212.75,114.85 212.89,114.97 213.02,115.10 213.16,114.97 213.29,114.97 213.43,114.97 213.57,114.33 213.70,113.17 213.84,112.66 213.97,112.66 214.11,112.53 214.24,112.15 214.38,111.76 214.51,111.76 214.65,111.63 214.78,111.89 214.92,113.05 215.05,113.17 215.19,113.17 215.32,113.69 215.46,114.07 215.59,114.46 215.73,114.46 215.86,115.23 216.00,116.00 216.13,116.13 216.27,116.26 216.40,116.52 216.54,116.90 216.67,117.03 216.81,117.16 216.95,117.42 217.08,117.68 217.22,117.55 217.35,116.78 217.49,116.00 217.62,115.10 217.76,113.05 217.89,113.43 218.03,113.69 218.16,113.82 218.30,113.95 218.43,113.95 218.57,113.95 218.70,113.43 218.84,113.82 218.97,113.05 219.11,112.92 219.24,113.17 219.38,113.30 219.51,113.69 219.65,113.95 219.78,113.69 219.92,113.82 220.05,113.43 220.19,112.79 220.33,112.53 220.46,112.40 220.60,112.79 220.73,113.05 220.87,113.43 221.00,112.79 221.14,112.79 221.27,113.17 221.41,112.92 221.54,112.92 221.68,113.05 221.81,113.05 221.95,113.05 222.08,113.05 222.22,112.53 222.35,112.53 222.49,112.40 222.62,112.40 222.76,112.53 222.89,112.27 223.03,110.47 223.16,109.83 223.30,106.49 223.43,105.97 223.57,105.59 223.71,105.46 223.84,104.82 223.98,104.94 224.11,105.72 224.25,107.77 224.38,107.64 224.52,108.42 224.65,108.42 224.79,110.60 224.92,111.12 225.06,111.37 225.19,111.76 225.33,112.02 225.46,111.89 225.60,111.76 225.73,108.67 225.87,111.50 226.00,111.37 226.14,111.25 226.27,111.12 226.41,110.73 226.54,110.47 226.68,109.83 226.81,110.73 226.95,109.06 227.08,110.22 227.22,110.86 227.36,110.22 227.49,109.57 227.63,110.09 227.76,109.19 227.90,109.45 228.03,108.93 228.17,108.80 228.30,108.54 228.44,108.80 228.57,108.67 228.71,109.19 228.84,108.80 228.98,109.83 229.11,109.70 229.25,109.45 229.38,109.70 229.52,109.57 229.65,109.83 229.79,108.80 229.92,109.57 230.06,108.80 230.19,108.16 230.33,108.03 230.46,108.42 230.60,108.29 230.74,107.13 230.87,108.03 231.01,107.77 231.14,108.03 231.28,108.93 231.41,109.57 231.55,111.12 231.68,110.60 231.82,113.05 231.95,112.79 232.09,113.82 232.22,113.56 232.36,115.62 232.49,116.00 232.63,115.23 232.76,115.87 232.90,116.65 233.03,114.72 233.17,119.73 233.30,120.63 233.44,118.19 233.57,113.43 233.71,114.72 233.84,112.79 233.98,112.53 234.12,111.89 234.25,112.02 234.39,111.89 234.52,112.02 234.66,111.89 234.79,111.50 234.93,110.99 235.06,110.99 235.20,110.99 235.33,110.86 235.47,110.35 235.60,110.22 235.74,111.25 235.87,111.63 236.01,112.15 236.14,114.07 236.28,113.95 236.41,114.20 236.55,113.95 236.68,114.59 236.82,116.13 236.95,115.62 237.09,117.29 237.22,116.90 237.36,117.03 237.50,116.13 237.63,115.87 237.77,116.26 237.90,116.00 238.04,116.65 238.17,117.55 238.31,114.97 238.44,114.85 238.58,112.53 238.71,111.25 238.85,109.70 238.98,109.96 239.12,110.73 239.25,112.40 239.39,113.82 239.52,114.97 239.66,115.62 239.79,115.49 239.93,114.97 240.06,115.10 240.20,116.26 240.33,116.52 240.47,116.26 240.60,116.26 240.74,118.83 240.88,117.55 241.01,117.42 241.15,117.03 241.28,116.78 241.42,116.90 241.55,116.13 241.69,114.85 241.82,111.12 241.96,110.09 242.09,109.96 242.23,110.99 242.36,112.02 242.50,110.99 242.63,111.63 242.77,113.82 242.90,115.36 243.04,116.39 243.17,118.96 243.31,119.73 243.44,120.89 243.58,119.09 243.71,118.19 243.85,118.45 243.98,117.29 244.12,115.23 244.26,116.52 244.39,113.05 244.53,111.63 244.66,110.73 244.80,110.35 244.93,110.22 245.07,110.22 245.20,109.19 245.34,109.19 245.47,109.19 245.61,109.06 245.74,109.06 245.88,109.32 246.01,110.22 246.15,111.37 246.28,114.59 246.42,115.62 246.55,118.96 246.69,123.20 246.82,118.32 246.96,117.55 247.09,119.73 247.23,119.73 247.36,117.42 247.50,114.46 247.63,112.92 247.77,114.85 247.91,114.85 248.04,112.66 248.18,113.82 248.31,113.43 248.45,112.79 248.58,150.21 248.72,112.27 248.85,112.02 248.99,111.89 249.12,112.02 249.26,112.53 249.39,112.92 249.53,113.30 249.66,114.85 249.80,116.65 249.93,119.99 250.07,119.99 250.20,119.09 250.34,117.55 250.47,118.06 250.61,115.10 250.74,115.10 250.88,113.43 251.01,110.22 251.15,109.70 251.29,109.32 251.42,109.70 251.56,110.22 251.69,109.06 251.83,108.16 251.96,109.06 252.10,108.16 252.23,110.73 252.37,109.19 252.50,110.60 252.64,112.92 252.77,109.96 252.91,113.43 253.04,113.95 253.18,112.92 253.31,113.43 253.45,115.49 253.58,116.90 253.72,114.46 253.85,117.42 253.99,116.00 254.12,116.52 254.26,116.39 254.39,116.65 254.53,116.00 254.67,115.36 254.80,114.20 254.94,115.36 255.07,115.49 255.21,112.66 255.34,114.07 255.48,113.69 255.61,112.66 255.75,113.95 255.88,113.05 256.02,113.69 256.15,114.46 256.29,114.72 256.42,115.10 256.56,114.20 256.69,114.46 256.83,113.56 256.96,112.79 257.10,112.66 257.23,113.17 257.37,111.50 257.50,109.96 257.64,110.73 257.77,109.32 257.91,109.19 258.05,109.19 258.18,112.02 258.32,111.50 258.45,109.32 258.59,109.45 258.72,109.32 258.86,109.19 258.99,109.96 259.13,109.83 259.26,110.22 259.40,110.86 259.53,116.13 259.67,114.85 259.80,115.49 259.94,111.63 260.07,112.27 260.21,115.10 260.34,114.72 260.48,115.10 260.61,112.79 260.75,113.56 260.88,114.72 261.02,114.46 261.15,339.76 261.29,110.73 261.43,110.73 261.56,110.99 261.70,110.99 261.83,110.99 261.97,110.60 262.10,110.73 262.24,110.86 262.37,110.73 262.51,111.12 262.64,111.63 262.78,111.63 262.91,112.40 263.05,112.53 263.18,111.63 263.32,110.99 263.45,110.73 263.59,110.60 263.72,111.63 263.86,110.99 263.99,111.25 264.13,111.12 264.26,111.12 264.40,110.73 264.53,110.60 264.67,111.12 264.81,110.60 264.94,109.06 265.08,108.93 265.21,109.19 265.35,109.70 265.48,110.99 265.62,112.15 265.75,112.02 265.89,112.92 266.02,113.05 266.16,114.46 266.29,114.72 266.43,113.69 266.56,112.92 266.70,112.92 266.83,114.07 266.97,113.82 267.10,113.17 267.24,113.17 267.37,113.05 267.51,113.05 267.64,111.50 267.78,108.80 267.91,109.06 268.05,109.32 268.18,108.80 268.32,108.80 268.46,108.80 268.59,108.80 268.73,108.67 268.86,108.80 269.00,109.06 269.13,109.06 269.27,109.19 269.40,111.12 269.54,112.79 269.67,113.43 269.81,115.10 269.94,116.00 270.08,114.85 270.21,114.33 270.35,115.62 270.48,111.63 270.62,111.25 270.75,111.12 270.89,108.93 271.02,111.37 271.16,111.25 271.29,110.99 271.43,111.25 271.56,109.32 271.70,109.06 271.84,109.06 271.97,109.19 272.11,109.32 272.24,109.19 272.38,109.45 272.51,111.12 272.65,113.17 272.78,113.30 272.92,113.43 273.05,114.46 273.19,114.59 273.32,115.62 273.46,115.75 273.59,113.69 273.73,110.99 273.86,110.60 274.00,109.57 274.13,109.70 274.27,109.83 274.40,109.96 274.54,109.96 274.67,109.83 274.81,109.70 274.94,109.70 275.08,109.57 275.22,109.70 275.35,109.70 275.49,109.83 275.62,109.83 275.76,109.96 275.89,110.09 276.03,110.09 276.16,110.22 276.30,110.60 276.43,112.15 276.57,113.05 276.70,113.30 276.84,113.30 276.97,112.40 277.11,113.30 277.24,109.83 277.38,109.83 277.51,109.96 277.65,109.96 277.78,109.96 277.92,109.19 278.05,109.19 278.19,108.93 278.32,109.06 278.46,109.06 278.60,108.93 278.73,109.06 278.87,108.93 279.00,109.06 279.14,109.06 279.27,109.06 279.41,109.45 279.54,110.60 279.68,111.63 279.81,113.43 279.95,112.79 280.08,111.63 280.22,112.02 280.35,113.30 280.49,112.79 280.62,112.40 280.76,111.76 280.89,109.96 281.03,109.06 281.16,109.19 281.30,109.06 281.43,108.93 281.57,108.93 281.70,109.19 281.84,108.93 281.98,108.93 282.11,109.06 282.25,109.06 282.38,109.06 282.52,109.06 282.65,109.06 282.79,109.19 282.92,109.06 283.06,109.06 283.19,111.12 283.33,111.63 283.46,111.37 283.60,111.50 283.73,110.99 283.87,110.73 284.00,110.22 284.14,109.32 284.27,109.32 284.41,109.19 284.54,109.19 284.68,108.93 284.81,108.93 284.95,108.80 285.08,108.67 285.22,108.54 285.36,108.54 285.49,108.54 285.63,108.54 285.76,108.67 285.90,108.67 286.03,109.06 286.17,109.19 286.30,109.19 286.44,111.25 286.57,110.86 286.71,110.86 286.84,111.50 286.98,111.50 287.11,110.35 287.25,109.45 287.38,110.86 287.52,111.50 287.65,108.80 287.79,108.42 287.92,108.29 288.06,108.03 288.19,108.29 288.33,108.54 288.46,109.57 288.60,109.96 288.73,109.83 288.87,109.83 289.01,109.83 289.14,109.57 289.28,110.22 289.41,111.12 289.55,111.76 289.68,111.76 289.82,111.89 289.95,113.17 290.09,111.63 290.22,110.09 290.36,110.09 290.49,109.83 290.63,109.70 290.76,109.57 290.90,109.83 291.03,110.47 291.17,110.73 291.30,111.25 291.44,110.86 291.57,110.60 291.71,110.86 291.84,110.47 291.98,110.47 292.11,110.35 292.25,110.35 292.39,110.35 292.52,110.35 292.66,110.47 292.79,110.60 292.93,110.73 293.06,112.02 293.20,116.00 293.33,116.65 293.47,117.16 293.60,116.78 293.74,116.52 293.87,117.16 294.01,117.42 294.14,117.42 294.28,114.97 294.41,114.85 294.55,111.37 294.68,111.25 294.82,113.17 294.95,113.82 295.09,115.75 295.22,116.65 295.36,110.73 295.49,111.50 295.63,111.25 295.77,111.37 295.90,111.37 296.04,114.72 296.17,114.72 296.31,114.72 296.44,117.29 296.58,118.58 296.71,119.22 296.85,118.58 296.98,117.42 297.12,111.12 297.25,110.99 297.39,111.50 297.52,111.89 297.66,111.76 297.79,111.50 297.93,109.83 298.06,109.70 298.20,109.57 298.33,109.57 298.47,109.96 298.60,110.22 298.74,110.09 298.87,109.96 299.01,109.96 299.15,110.09 299.28,111.50 299.42,112.79 299.55,112.40 299.69,113.05 299.82,114.33 299.96,115.87 300.09,116.90 300.23,115.75 300.36,116.52 300.50,116.52" style="stroke-width: 0.75;"/>
<polyline points="314.83,110.35 314.96,110.86 315.10,110.09 315.23,109.83 315.37,109.83 315.50,109.83 315.64,109.83 315.77,109.70 315.91,109.70 316.04,109.57 316.18,109.45 316.32,109.45 316.45,110.35 316.59,110.35 316.72,111.12 316.86,112.53 316.99,114.46 317.13,114.85 317.26,115.75 317.40,116.00 317.53,117.29 317.67,117.55 317.80,115.10 317.94,111.89 318.07,111.25 318.21,111.89 318.34,110.86 318.48,111.12 318.61,110.35 318.75,110.73 318.88,110.22 319.02,109.19 319.15,109.70 319.29,109.57 319.42,110.47 319.56,110.60 319.70,112.15 319.83,116.26 319.97,121.79 320.10,122.56 320.24,121.66 320.37,117.16 320.51,116.26 320.64,118.45 320.78,118.58 320.91,119.22 321.05,120.63 321.18,121.79 321.32,117.93 321.45,111.89 321.59,111.89 321.72,112.40 321.86,115.36 321.99,111.76 322.13,110.22 322.26,109.83 322.40,110.47 322.53,109.06 322.67,109.06 322.80,110.47 322.94,112.02 323.08,112.53 323.21,114.97 323.35,121.53 323.48,121.92 323.62,118.96 323.75,117.03 323.89,117.03 324.02,116.00 324.16,115.49 324.29,117.55 324.43,117.03 324.56,113.69 324.70,113.17 324.83,113.95 324.97,112.27 325.10,112.53 325.24,110.86 325.37,110.99 325.51,110.35 325.64,110.47 325.78,111.12 325.91,112.79 326.05,112.92 326.18,111.63 326.32,112.79 326.46,113.95 326.59,118.32 326.73,121.02 326.86,123.85 327.00,125.01 327.13,121.92 327.27,119.60 327.40,118.83 327.54,120.50 327.67,117.42 327.81,111.89 327.94,111.89 328.08,117.29 328.21,116.13 328.35,115.49 328.48,113.82 328.62,108.67 328.75,108.16 328.89,109.19 329.02,108.29 329.16,108.42 329.29,113.05 329.43,108.29 329.56,108.54 329.70,111.76 329.84,112.27 329.97,111.37 330.11,112.02 330.24,112.79 330.38,114.97 330.51,120.50 330.65,119.22 330.78,120.89 330.92,120.63 331.05,117.55 331.19,115.23 331.32,111.89 331.46,109.57 331.59,109.70 331.73,109.06 331.86,108.93" style="stroke-width: 0.75;"/>
<polyline points="332.13,108.16 332.27,108.42 332.40,109.06 332.54,109.32 332.67,109.19 332.81,107.26 332.94,108.67 333.08,109.19 333.21,109.70 333.35,113.95 333.49,116.52 333.62,118.06 333.76,119.60 333.89,118.45 334.03,115.36 334.16,119.35 334.30,118.32 334.43,116.78 334.57,116.26 334.70,112.79 334.84,107.52 334.97,107.64 335.11,110.60 335.24,107.00 335.38,105.20 335.51,105.07 335.65,104.94 335.78,104.94 335.92,105.20 336.05,105.20 336.19,105.20 336.32,105.33 336.46,105.72 336.59,108.03 336.73,113.82 336.87,114.07 337.00,118.45 337.14,118.70 337.27,119.48 337.41,119.22 337.54,118.83 337.68,118.32 337.81,118.96 337.95,118.70 338.08,118.58 338.22,117.55 338.35,116.65 338.49,115.62 338.62,112.92 338.76,111.89 338.89,111.12 339.03,109.70 339.16,110.60 339.30,110.60 339.43,116.39 339.57,119.48 339.70,120.38 339.84,120.50 339.97,122.05 340.11,122.30 340.25,118.19 340.38,114.85 340.52,119.60 340.65,118.45 340.79,119.09 340.92,119.09" style="stroke-width: 0.75;"/>
<polyline points="341.19,108.03 341.33,106.62 341.46,107.64 341.60,113.17 341.73,116.90 341.87,113.17 342.00,115.23 342.14,114.46 342.27,113.69 342.41,113.43 342.54,113.43 342.68,109.70 342.81,108.80 342.95,108.42 343.08,107.52 343.22,107.39 343.35,107.26 343.49,107.13 343.63,107.00 343.76,106.74 343.90,106.74 344.03,104.04 344.17,103.40 344.30,103.14 344.44,102.76 344.57,102.63 344.71,102.76 344.84,102.50 344.98,102.11 345.11,102.11 345.25,101.86 345.38,101.73 345.52,101.73 345.65,101.47 345.79,101.47 345.92,101.86 346.06,103.14 346.19,103.53 346.33,103.53 346.46,103.66 346.60,103.66 346.73,104.04 346.87,104.17 347.01,103.79 347.14,103.66 347.28,103.92 347.41,103.92 347.55,103.27 347.68,103.02 347.82,102.63 347.95,102.89 348.09,103.02 348.22,102.37 348.36,102.11 348.49,101.99 348.63,102.11 348.76,102.37 348.90,102.63 349.03,102.76 349.17,102.89 349.30,102.76 349.44,102.89 349.57,102.89 349.71,102.63 349.84,102.76 349.98,103.02 350.11,102.89 350.25,102.24 350.39,102.11 350.52,102.37 350.66,102.50 350.79,102.76 350.93,103.02 351.06,103.14 351.20,103.27 351.33,103.40 351.47,103.40 351.60,103.40 351.74,104.56 351.87,105.72 352.01,106.10 352.14,106.23 352.28,106.10 352.41,105.59 352.55,105.84 352.68,106.10 352.82,105.84 352.95,105.97 353.09,106.23 353.22,106.49 353.36,107.00 353.49,107.39 353.63,107.52 353.76,107.90 353.90,107.64 354.04,107.26 354.17,107.00 354.31,106.23 354.44,105.46 354.58,104.17 354.71,103.92 354.85,103.92 354.98,104.04 355.12,103.92 355.25,104.17 355.39,104.30 355.52,104.56 355.66,104.82 355.79,104.82 355.93,104.94 356.06,105.07 356.20,104.94 356.33,105.07 356.47,105.20 356.60,105.07 356.74,104.69 356.87,104.30 357.01,104.82 357.14,104.17 357.28,103.92 357.42,104.04 357.55,104.56 357.69,104.69 357.82,104.30 357.96,104.30 358.09,104.43 358.23,104.43 358.36,104.56 358.50,104.56 358.63,104.56 358.77,104.56 358.90,104.82 359.04,105.20 359.17,105.46 359.31,105.59 359.44,105.46 359.58,105.46 359.71,105.07 359.85,105.07 359.98,105.33 360.12,105.72 360.25,104.69 360.39,104.43 360.52,104.30 360.66,104.30 360.80,104.30 360.93,104.43 361.07,104.43 361.20,104.30 361.34,104.30 361.47,104.43 361.61,105.72 361.74,104.82 361.88,106.49 362.01,106.62 362.15,105.07 362.28,104.56 362.42,104.43 362.55,104.43 362.69,104.43 362.82,104.43 362.96,104.43 363.09,104.43 363.23,104.56 363.36,104.56 363.50,104.82 363.63,105.33 363.77,105.97 363.90,105.46 364.04,104.82 364.18,104.94 364.31,104.82 364.45,104.82 364.58,104.82 364.72,104.82 364.85,104.56 364.99,104.30 365.12,104.17 365.26,104.04 365.39,103.92 365.53,103.92 365.66,104.04 365.80,104.17 365.93,104.43 366.07,104.69 366.20,105.46 366.34,105.72 366.47,105.59 366.61,105.97 366.74,106.23 366.88,105.97 367.01,105.84 367.15,105.59 367.28,105.46 367.42,105.72 367.56,105.72 367.69,105.72 367.83,105.84 367.96,105.72 368.10,105.72 368.23,105.84 368.37,105.84 368.50,106.10 368.64,105.84 368.77,105.33 368.91,105.33 369.04,105.72 369.18,105.72 369.31,106.23 369.45,106.10 369.58,105.97 369.72,105.84 369.85,105.84 369.99,105.72 370.12,105.59 370.26,105.72 370.39,105.46 370.53,105.46 370.66,105.07 370.80,104.56 370.94,104.17 371.07,104.17 371.21,104.17 371.34,104.17 371.48,104.17 371.61,104.30 371.75,104.30 371.88,104.17 372.02,104.30 372.15,104.17 372.29,104.30 372.42,104.30 372.56,104.69 372.69,105.20 372.83,105.59 372.96,105.97 373.10,105.97 373.23,105.97 373.37,106.10 373.50,107.13 373.64,107.52 373.77,108.16 373.91,108.42 374.04,107.64 374.18,109.19 374.31,107.13 374.45,106.23 374.59,105.46 374.72,105.33 374.86,105.33 374.99,105.07 375.13,104.94 375.26,104.94 375.40,105.07 375.53,104.94 375.67,104.94 375.80,104.94 375.94,105.72 376.07,105.59 376.21,106.36 376.34,107.00 376.48,107.77 376.61,108.80 376.75,109.32 376.88,109.57 377.02,108.93 377.15,107.52 377.29,107.00 377.42,108.42 377.56,108.29 377.69,107.39 377.83,107.13 377.97,106.87 378.10,106.62 378.24,106.62 378.37,106.87 378.51,106.87 378.64,106.62 378.78,106.10 378.91,106.10 379.05,106.23 379.18,106.23 379.32,106.23 379.45,106.10 379.59,105.97 379.72,105.97 379.86,105.84 379.99,105.84 380.13,105.84 380.26,105.84 380.40,105.72 380.53,105.59 380.67,105.59 380.80,105.46 380.94,105.46 381.07,105.46 381.21,105.46 381.35,105.46 381.48,105.33 381.62,105.33 381.75,105.33 381.89,105.33 382.02,105.33 382.16,105.33 382.29,105.84 382.43,105.97 382.56,105.59 382.70,105.72 382.83,106.23 382.97,106.74 383.10,106.36 383.24,106.49 383.37,105.59 383.51,105.84 383.64,106.62 383.78,107.64 383.91,106.36 384.05,106.74 384.18,107.64 384.32,106.49 384.45,106.74 384.59,106.87 384.73,107.13 384.86,106.49 385.00,105.72 385.13,106.10 385.27,107.00 385.40,107.77 385.54,107.64 385.67,107.77 385.81,106.36 385.94,106.49 386.08,106.62 386.21,106.23 386.35,106.36 386.48,107.13 386.62,108.16 386.75,109.57 386.89,110.99 387.02,110.60 387.16,112.66 387.29,110.73 387.43,106.36 387.56,107.13 387.70,107.26 387.83,107.00 387.97,107.52 388.11,107.64 388.24,108.16 388.38,107.13 388.51,108.42 388.65,108.03 388.78,108.67 388.92,108.42 389.05,108.42 389.19,107.90 389.32,107.77 389.46,107.90 389.59,107.77 389.73,107.77 389.86,108.03 390.00,107.64 390.13,108.16 390.27,109.70 390.40,110.99 390.54,110.86 390.67,110.99 390.81,110.35 390.94,111.37 391.08,111.50 391.21,112.53 391.35,112.15 391.49,111.50 391.62,111.25 391.76,111.25 391.89,111.25 392.03,111.89 392.16,110.99 392.30,110.73 392.43,107.77 392.57,107.77 392.70,107.77 392.84,107.90 392.97,108.03 393.11,108.80 393.24,110.09 393.38,111.12 393.51,113.95 393.65,114.72 393.78,114.85 393.92,114.85 394.05,114.72 394.19,113.95 394.32,112.53 394.46,112.27 394.59,109.57 394.73,108.80 394.86,108.54 395.00,108.16 395.14,107.77 395.27,107.77 395.41,107.77 395.54,107.64 395.68,107.64 395.81,107.64 395.95,107.64 396.08,107.64 396.22,107.52 396.35,107.26 396.49,106.49 396.62,106.49 396.76,106.87 396.89,108.03 397.03,109.83 397.16,109.83 397.30,110.09 397.43,110.73 397.57,110.47 397.70,110.86 397.84,110.09 397.97,110.09 398.11,110.60 398.24,110.99 398.38,111.12 398.52,111.12" style="stroke-width: 0.75;"/>
<polyline points="398.79,111.50 398.92,110.60 399.06,109.45 399.19,107.00 399.33,110.99 399.46,111.37 399.60,111.50 399.73,111.37 399.87,111.12 400.00,110.99 400.14,111.25 400.27,111.37 400.41,111.50" style="stroke-width: 0.75;"/>
<polyline points="400.68,111.37 400.81,111.37 400.95,111.25 401.08,111.12 401.22,110.73 401.35,110.60 401.49,110.22 401.62,109.83 401.76,109.45 401.90,109.45 402.03,109.70 402.17,109.57 402.30,109.57 402.44,109.45 402.57,109.19" style="stroke-width: 0.75;"/>
<polyline points="402.84,110.09 402.98,110.09 403.11,109.70 403.25,109.70 403.38,109.57 403.52,109.57 403.65,108.42 403.79,108.42 403.92,108.16 404.06,107.39 404.19,107.26 404.33,107.64 404.46,107.64 404.60,107.64 404.73,107.77 404.87,107.90 405.00,108.29 405.14,108.67 405.28,109.06 405.41,108.80 405.55,108.54 405.68,108.29 405.82,108.29 405.95,108.29 406.09,108.29 406.22,108.54 406.36,108.80 406.49,109.45 406.63,109.19 406.76,109.83 406.90,111.50 407.03,110.73 407.17,110.47 407.30,112.27 407.44,114.46 407.57,109.96 407.71,111.76 407.84,110.09 407.98,110.35 408.11,111.63 408.25,111.76 408.38,111.63 408.52,111.63 408.66,112.66 408.79,113.30 408.93,113.69 409.06,114.20 409.20,114.46 409.33,114.20 409.47,114.33 409.60,114.33 409.74,114.46 409.87,114.46 410.01,113.17 410.14,113.17 410.28,113.69 410.41,112.79 410.55,112.15 410.68,112.92 410.82,112.15 410.95,113.05 411.09,113.82 411.22,112.79 411.36,113.17 411.49,113.69 411.63,113.43 411.76,114.46 411.90,114.72 412.04,114.46 412.17,114.72 412.31,114.46 412.44,114.72 412.58,114.85 412.71,114.33 412.85,114.20 412.98,114.07 413.12,114.07 413.25,114.33 413.39,114.85 413.52,114.72 413.66,115.49 413.79,115.36 413.93,114.85 414.06,114.72 414.20,114.59 414.33,115.10 414.47,115.10 414.60,114.46 414.74,114.20 414.87,113.69 415.01,113.69 415.14,113.30 415.28,113.69 415.41,113.82 415.55,113.69 415.69,113.69 415.82,113.56 415.96,113.82 416.09,113.82 416.23,113.69 416.36,113.56 416.50,113.56 416.63,113.56 416.77,113.56 416.90,113.56 417.04,113.95 417.17,113.95 417.31,114.33 417.44,113.82 417.58,113.56 417.71,113.82 417.85,113.82 417.98,113.82 418.12,113.69 418.25,113.69 418.39,113.69 418.52,113.69 418.66,113.82 418.79,113.69 418.93,113.56 419.07,113.56 419.20,113.56 419.34,113.69 419.47,113.43 419.61,113.43 419.74,113.43 419.88,113.30 420.01,113.30 420.15,113.17 420.28,113.30 420.42,113.43 420.55,113.56 420.69,113.43 420.82,113.30 420.96,113.30 421.09,113.56 421.23,113.82 421.36,113.82 421.50,113.69 421.63,113.95 421.77,113.43 421.90,113.56 422.04,113.17 422.17,112.92 422.31,113.05 422.45,112.79 422.58,112.92 422.72,113.17 422.85,113.17 422.99,113.30 423.12,113.56 423.26,113.69 423.39,113.05 423.53,113.05 423.66,113.56 423.80,114.07 423.93,114.46 424.07,114.46 424.20,113.69 424.34,114.33 424.47,113.82 424.61,114.07 424.74,114.85 424.88,114.59 425.01,114.72 425.15,116.00 425.28,116.13 425.42,114.97 425.55,114.85 425.69,114.72 425.83,114.59 425.96,114.59 426.10,114.59 426.23,114.46 426.37,114.33 426.50,114.33 426.64,115.49 426.77,115.36 426.91,115.36 427.04,116.52 427.18,118.96 427.31,120.12 427.45,118.58 427.58,118.06 427.72,121.15 427.85,123.85 427.99,123.33 428.12,119.60 428.26,118.32 428.39,116.13 428.53,115.87 428.66,115.23 428.80,114.72 428.93,114.72 429.07,114.59 429.21,114.59 429.34,113.69 429.48,113.43 429.61,113.43 429.75,113.05 429.88,112.53 430.02,112.40 430.15,112.27 430.29,112.27 430.42,112.27 430.56,112.27 430.69,112.66 430.83,113.69 430.96,114.72 431.10,115.10 431.23,115.36 431.37,116.00 431.50,116.52 431.64,117.93 431.77,115.75 431.91,114.33 432.04,113.43 432.18,113.82 432.31,113.82 432.45,112.15 432.59,112.15 432.72,112.92 432.86,111.50 432.99,109.96 433.13,109.57 433.26,109.45 433.40,109.32 433.53,109.32 433.67,110.35 433.80,110.60 433.94,112.66 434.07,115.10 434.21,115.75 434.34,117.42 434.48,117.93 434.61,120.76 434.75,121.15 434.88,121.53 435.02,121.79 435.15,121.53 435.29,121.15 435.42,118.58 435.56,118.58 435.69,116.52 435.83,115.62 435.96,113.17 436.10,112.66 436.24,112.27 436.37,111.25 436.51,110.86 436.64,110.86 436.78,110.86 436.91,111.37 437.05,111.37 437.18,116.26 437.32,116.13 437.45,116.39 437.59,117.16 437.72,117.29 437.86,116.65 437.99,117.80 438.13,117.80 438.26,117.80 438.40,117.93 438.53,117.80 438.67,117.68 438.80,115.87 438.94,114.72 439.07,114.33 439.21,113.43 439.34,113.05 439.48,113.17 439.62,113.17 439.75,113.43 439.89,114.72 440.02,115.75 440.16,115.87 440.29,116.13 440.43,117.16 440.56,116.39 440.70,116.13 440.83,116.39 440.97,116.26 441.10,116.65 441.24,116.26 441.37,117.16 441.51,117.42 441.64,116.78 441.78,115.10 441.91,115.49 442.05,114.72 442.18,114.33 442.32,114.85 442.45,115.10 442.59,115.87 442.72,116.39 442.86,116.78 443.00,116.78 443.13,116.78 443.27,116.90 443.40,117.03 443.54,117.03 443.67,117.03 443.81,116.90 443.94,116.90 444.08,117.03 444.21,116.78 444.35,116.78 444.48,116.78 444.62,116.65 444.75,116.39 444.89,114.72 445.02,110.22 445.16,109.96 445.29,109.83 445.43,109.70 445.56,109.57 445.70,109.32 445.83,109.19 445.97,109.06 446.10,108.93 446.24,108.93 446.38,108.93 446.51,108.80 446.65,108.80 446.78,108.80 446.92,108.80 447.05,108.93 447.19,109.45 447.32,108.80 447.46,110.35 447.59,111.12 447.73,112.02 447.86,112.40 448.00,115.75 448.13,113.95 448.27,114.20 448.40,114.97 448.54,115.62 448.67,115.23 448.81,114.85 448.94,116.13 449.08,116.39 449.21,116.52 449.35,116.39 449.48,116.13 449.62,116.65 449.76,116.52 449.89,116.13 450.03,114.97 450.16,114.59 450.30,115.87 450.43,118.83 450.57,119.73 450.70,121.15 450.84,122.56 450.97,120.89 451.11,118.96 451.24,119.09 451.38,120.38 451.51,118.19 451.65,117.42 451.78,118.06 451.92,118.58 452.05,118.70 452.19,118.83 452.32,115.75 452.46,118.19 452.59,120.76 452.73,121.66 452.86,122.43 453.00,115.49 453.14,114.85 453.27,113.30 453.41,113.69 453.54,113.69 453.68,114.20 453.81,114.46 453.95,111.89 454.08,116.90 454.22,118.19 454.35,119.60 454.49,124.62 454.62,122.43 454.76,121.40 454.89,120.50 455.03,121.02 455.16,121.92 455.30,122.82 455.43,110.73 455.57,111.12 455.70,110.47 455.84,109.06 455.97,109.32 456.11,110.22 456.24,110.22 456.38,109.96 456.51,111.89 456.65,112.27 456.79,112.15 456.92,112.15 457.06,111.50 457.19,111.89 457.33,111.25 457.46,117.55 457.60,119.22 457.73,118.19 457.87,117.42 458.00,117.55 458.14,114.07 458.27,113.05 458.41,110.09 458.54,110.35 458.68,110.73 458.81,111.25 458.95,112.15 459.08,112.53 459.22,111.25 459.35,110.73 459.49,108.67 459.62,108.93 459.76,109.19 459.89,108.93 460.03,108.54 460.17,108.29 460.30,108.29 460.44,108.80 460.57,108.42 460.71,108.93 460.84,109.06 460.98,109.19 461.11,109.32 461.25,110.35 461.38,109.45 461.52,108.29 461.65,109.70 461.79,108.42 461.92,108.29 462.06,108.16 462.19,108.03 462.33,108.16 462.46,108.29 462.60,108.80 462.73,108.54 462.87,108.67 463.00,108.54 463.14,108.67 463.27,108.29 463.41,108.42 463.55,108.67 463.68,109.57 463.82,110.86 463.95,112.92 464.09,114.20 464.22,114.07 464.36,115.49 464.49,115.75 464.63,116.26 464.76,116.39 464.90,115.49 465.03,110.47 465.17,108.67 465.30,107.26 465.44,110.73 465.57,107.39 465.71,107.64 465.84,107.13 465.98,107.00 466.11,107.00 466.25,107.39 466.38,106.36 466.52,106.87 466.65,107.39 466.79,107.52 466.93,107.90 467.06,107.77 467.20,110.22 467.33,114.33 467.47,116.52 467.60,116.90 467.74,118.06 467.87,117.03 468.01,117.16 468.14,118.58 468.28,112.92 468.41,106.87 468.55,107.64 468.68,106.87 468.82,106.49 468.95,105.59 469.09,105.59 469.22,106.10 469.36,106.10 469.49,105.97 469.63,105.84 469.76,106.62 469.90,106.36 470.03,106.62 470.17,106.62 470.31,106.49 470.44,106.49 470.58,106.49 470.71,106.74 470.85,107.00 470.98,107.13 471.12,107.13 471.25,108.67 471.39,107.64 471.52,107.13 471.66,107.52 471.79,107.64 471.93,107.39 472.06,107.39 472.20,107.13 472.33,106.62 472.47,107.00 472.60,106.87 472.74,106.74 472.87,106.74 473.01,106.62 473.14,106.74 473.28,106.74 473.41,106.74 473.55,106.87 473.69,106.74 473.82,106.74 473.96,106.74 474.09,107.77 474.23,107.39 474.36,110.60 474.50,109.83 474.63,110.09 474.77,110.22 474.90,109.57 475.04,109.57 475.17,110.09 475.31,109.83 475.44,108.54 475.58,107.26 475.71,107.52 475.85,106.74 475.98,107.13 476.12,107.26 476.25,107.77 476.39,108.42 476.52,110.09 476.66,110.60 476.79,112.40 476.93,114.72 477.06,115.36 477.20,115.36 477.34,114.46 477.47,114.85 477.61,114.72 477.74,114.59 477.88,113.82 478.01,114.72 478.15,113.30 478.28,111.76 478.42,108.93 478.55,107.26 478.69,108.03 478.82,106.87 478.96,106.10 479.09,105.84 479.23,106.23 479.36,105.72 479.50,105.84 479.63,105.72 479.77,105.59 479.90,105.46 480.04,105.33 480.17,105.97 480.31,106.36 480.44,107.26 480.58,107.39 480.72,107.00 480.85,110.99 480.99,112.66 481.12,114.07 481.26,112.02 481.39,111.63 481.53,114.07 481.66,114.97 481.80,116.78 481.93,117.80 482.07,116.65 482.20,114.46 482.34,113.69 482.47,110.86 482.61,108.54 482.74,109.45 482.88,113.05 483.01,113.95 483.15,113.69 483.28,112.92 483.42,110.47 483.55,112.53 483.69,113.95 483.82,117.93 483.96,118.83 484.10,122.56 484.23,124.62 484.37,123.46 484.50,125.65 484.64,124.88 484.77,128.35 484.91,129.12 485.04,129.38 485.18,120.38 485.31,114.20 485.45,108.42 485.58,107.39 485.72,106.49 485.85,106.36 485.99,106.74 486.12,106.74 486.26,106.49 486.39,106.49 486.53,106.49 486.66,106.62 486.80,106.62 486.93,106.49 487.07,105.97 487.20,106.36 487.34,106.49 487.48,107.13 487.61,110.47 487.75,112.92 487.88,111.63 488.02,110.47 488.15,110.60 488.29,112.66 488.42,114.20 488.56,113.95 488.69,112.92 488.83,111.63 488.96,111.50 489.10,110.99 489.23,110.35 489.37,110.22 489.50,109.96 489.64,106.62 489.77,106.10 489.91,105.84 490.04,105.59 490.18,104.56 490.31,101.34 490.45,100.19 490.58,99.80 490.72,100.31 490.86,103.02 490.99,105.97 491.13,106.87 491.26,106.87 491.40,105.20 491.53,104.82 491.67,105.07 491.80,105.33 491.94,105.33 492.07,105.72 492.21,102.89 492.34,103.27 492.48,101.86 492.61,99.93 492.75,98.90 492.88,94.78 493.02,98.51 493.15,97.87 493.29,96.97 493.42,97.87 493.56,94.91 493.69,92.60 493.83,95.56 493.96,97.36 494.10,96.97 494.24,98.13 494.37,98.51 494.51,97.61 494.64,97.10 494.78,97.23 494.91,98.39 495.05,98.64 495.18,100.19 495.32,98.90 495.45,98.51 495.59,97.74 495.72,97.49 495.86,95.04 495.99,93.50 496.13,92.08 496.26,92.21 496.40,92.34 496.53,92.34 496.67,92.08 496.80,92.34 496.94,92.21 497.07,91.83 497.21,91.44 497.34,91.70 497.48,94.01 497.61,96.33 497.75,97.36 497.89,96.84 498.02,97.10 498.16,95.69 498.29,93.37 498.43,92.86 498.56,92.47 498.70,92.47 498.83,92.60 498.97,94.91 499.10,94.01 499.24,92.73 499.37,92.34 499.51,92.21 499.64,92.21 499.78,92.34 499.91,92.08 500.05,91.96 500.18,90.93 500.32,91.06 500.45,91.06 500.59,91.31 500.72,91.83 500.86,91.83 500.99,91.57 501.13,91.96 501.27,92.86 501.40,93.76 501.54,94.53 501.67,95.17 501.81,95.81 501.94,96.20 502.08,96.33 502.21,95.69 502.35,96.20 502.48,94.78 502.62,94.91 502.75,95.56 502.89,95.04 503.02,95.56 503.16,95.04 503.29,95.04 503.43,94.66 503.56,94.27 503.70,94.66 503.83,95.04 503.97,92.98 504.10,91.06 504.24,93.63 504.37,93.88 504.51,93.24 504.65,93.37 504.78,92.86 504.92,93.63 505.05,93.63 505.19,91.96 505.32,90.93 505.46,91.31 505.59,91.31 505.73,91.70 505.86,90.80 506.00,90.41 506.13,88.10 506.27,85.91 506.40,85.27 506.54,84.88 506.67,85.27 506.81,85.53 506.94,83.85 507.08,82.57 507.21,83.08 507.35,82.18 507.48,79.35 507.62,79.48 507.75,79.35 507.89,79.61 508.03,79.74 508.16,80.12 508.30,80.64 508.43,81.67 508.57,82.18 508.70,82.83 508.84,83.34 508.97,83.60 509.11,83.85 509.24,83.98 509.38,84.11 509.51,84.24 509.65,83.98 509.78,83.85 509.92,83.85 510.05,83.73 510.19,83.60 510.32,83.73 510.46,83.34 510.59,83.08 510.73,82.57 510.86,85.78 511.00,82.05 511.13,83.47 511.27,81.80 511.41,82.44 511.54,85.14 511.68,84.11 511.81,84.75 511.95,85.14 512.08,84.75 512.22,85.27 512.35,85.53 512.49,85.27 512.62,85.53 512.76,85.40 512.89,88.10 513.03,89.64 513.16,89.77 513.30,87.58 513.43,88.10 513.57,87.71 513.70,88.36 513.84,88.48 513.97,86.94 514.11,87.07 514.24,87.33 514.38,87.84 514.51,86.94 514.65,87.45 514.79,87.58 514.92,87.84 515.06,87.84 515.19,87.58 515.33,87.71 515.46,87.45 515.60,88.36 515.73,88.48 515.87,88.48 516.00,89.38 516.14,89.90 516.27,88.74 516.41,89.51 516.54,88.87 516.68,88.87 516.81,89.13 516.95,88.74 517.08,89.26 517.22,89.51 517.35,89.13 517.49,89.38 517.62,90.54 517.76,90.41 517.89,91.06 518.03,90.41 518.16,90.54 518.30,90.41 518.44,89.90 518.57,90.03 518.71,90.03 518.84,90.41 518.98,90.28 519.11,90.16 519.25,89.90 519.38,89.90 519.52,90.03 519.65,90.16 519.79,90.16 519.92,90.41 520.06,90.93 520.19,90.93 520.33,90.93 520.46,90.67 520.60,90.80 520.73,90.93 520.87,90.67 521.00,90.80 521.14,90.67 521.27,90.03 521.41,89.90 521.54,90.16 521.68,89.77 521.82,90.03 521.95,90.28 522.09,90.03 522.22,89.90 522.36,90.28 522.49,91.18 522.63,90.54 522.76,90.80 522.90,91.06 523.03,91.44 523.17,93.24 523.30,92.98 523.44,92.34 523.57,96.84 523.71,97.61 523.84,97.10 523.98,104.82 524.11,101.99 524.25,106.87 524.38,99.16 524.52,101.60 524.65,102.11 524.79,104.94 524.92,105.33 525.06,105.33 525.20,103.14 525.33,103.66 525.47,104.30 525.60,101.99 525.74,106.62 525.87,107.64 526.01,104.30 526.14,101.99 526.28,103.27 526.41,103.02 526.55,102.50 526.68,97.36 526.82,96.33 526.95,96.59 527.09,96.84 527.22,96.46 527.36,102.89 527.49,106.49 527.63,106.23 527.76,106.23 527.90,105.59 528.03,103.92 528.17,103.92 528.30,103.53 528.44,102.89 528.58,103.02 528.71,102.37 528.85,100.19 528.98,98.77 529.12,99.54 529.25,100.31 529.39,100.19 529.52,99.93 529.66,99.67 529.79,99.41 529.93,99.54 530.06,99.67 530.20,99.16 530.33,99.16 530.47,99.29 530.60,99.29 530.74,99.29 530.87,99.03 531.01,99.16 531.14,99.93 531.28,101.09 531.41,102.11 531.55,103.14 531.68,103.14 531.82,103.53 531.96,104.82 532.09,105.97 532.23,106.23 532.36,108.93 532.50,107.77 532.63,104.69 532.77,104.43 532.90,105.33 533.04,104.30 533.17,104.04 533.31,105.97 533.44,106.74 533.58,101.47 533.71,99.80 533.85,100.83 533.98,101.34 534.12,101.21 534.25,101.47 534.39,100.83 534.52,100.57 534.66,102.11 534.79,104.56 534.93,103.53 535.06,104.43 535.20,104.69 535.34,104.82 535.47,104.56 535.61,103.27 535.74,103.66 535.88,102.76 536.01,103.66 536.15,103.66 536.28,103.40 536.42,102.11 536.55,101.60 536.69,101.47 536.82,101.21 536.96,101.21 537.09,101.21 537.23,101.09 537.36,101.09 537.50,101.21 537.63,101.21 537.77,100.96 537.90,100.83 538.04,100.96 538.17,100.57 538.31,100.19 538.44,100.31 538.58,100.96 538.72,101.21 538.85,100.83 538.99,100.44 539.12,100.70 539.26,100.44 539.39,100.19 539.53,100.31 539.66,100.06 539.80,100.31 539.93,100.57 540.07,100.83 540.20,100.57 540.34,100.31 540.47,100.70 540.61,100.31 540.74,99.93 540.88,100.44 541.01,100.06 541.15,100.31 541.28,100.31 541.42,100.31 541.55,100.31 541.69,100.06 541.82,100.57 541.96,100.70 542.09,100.06 542.23,100.06 542.37,100.19 542.50,100.70 542.64,101.09 542.77,101.47 542.91,101.47 543.04,101.73 543.18,101.86 543.31,101.73 543.45,101.86 543.58,101.73 543.72,101.73 543.85,101.73 543.99,101.60 544.12,101.34 544.26,101.73 544.39,102.24 544.53,102.24 544.66,106.49 544.80,108.54 544.93,110.73 545.07,110.60 545.20,108.67 545.34,107.00 545.47,103.92 545.61,103.40 545.75,103.02 545.88,102.89 546.02,102.50 546.15,102.11 546.29,103.27 546.42,102.63 546.56,101.86 546.69,101.34 546.83,98.51 546.96,98.51 547.10,98.64 547.23,100.83 547.37,101.73 547.50,100.44 547.64,101.86 547.77,102.11 547.91,102.89 548.04,102.76 548.18,102.63 548.31,102.50 548.45,102.24 548.58,101.99 548.72,101.73 548.85,101.86 548.99,101.99 549.13,102.37 549.26,102.11 549.40,101.86 549.53,101.86 549.67,102.11 549.80,102.37 549.94,102.11 550.07,102.24 550.21,102.37 550.34,102.63 550.48,102.63 550.61,102.63 550.75,103.02 550.88,103.79 551.02,103.66 551.15,104.17 551.29,108.16 551.42,109.32 551.56,109.96 551.69,110.86 551.83,110.47 551.96,107.39 552.10,105.07 552.23,104.94 552.37,105.84 552.51,106.23 552.64,107.26 552.78,110.99 552.91,105.07 553.05,102.11 553.18,101.09 553.32,101.09 553.45,101.09 553.59,101.99 553.72,102.50 553.86,102.63 553.99,103.14 554.13,103.14 554.26,105.33 554.40,107.39 554.53,108.93 554.67,108.93 554.80,105.97 554.94,106.36 555.07,109.83 555.21,109.70 555.34,108.42 555.48,106.23 555.61,104.17 555.75,103.66 555.89,103.66 556.02,103.66 556.16,103.66 556.29,105.59 556.43,104.94 556.56,104.43 556.70,101.47 556.83,103.02 556.97,102.37 557.10,102.63 557.24,102.24 557.37,102.37 557.51,103.14 557.64,105.59 557.78,106.23 557.91,106.62 558.05,107.64 558.18,107.90 558.32,108.03 558.45,107.52 558.59,107.77 558.72,107.39 558.86,102.50 558.99,102.37 559.13,102.24 559.27,102.24 559.40,102.37 559.54,102.24 559.67,102.50 559.81,102.50 559.94,102.63 560.08,102.50 560.21,102.63 560.35,102.50 560.48,102.50 560.62,102.50 560.75,102.50 560.89,103.40 561.02,104.56 561.16,104.94 561.29,104.04 561.43,103.66 561.56,103.92 561.70,103.53 561.83,103.27 561.97,102.89 562.10,102.76 562.24,102.76 562.37,102.76 562.51,102.76 562.64,102.89 562.78,102.76 562.92,102.89 563.05,102.63 563.19,102.63 563.32,102.24 563.46,101.99 563.59,102.37 563.73,103.02 563.86,103.27 564.00,104.04 564.13,104.30 564.27,105.59 564.40,104.82 564.54,107.52 564.67,109.06 564.81,109.70 564.94,110.73 565.08,111.37 565.21,110.60 565.35,108.93 565.48,107.39 565.62,104.69 565.75,106.49 565.89,107.52 566.02,107.90 566.16,108.29 566.30,108.42 566.43,103.79 566.57,103.40 566.70,103.40 566.84,103.66 566.97,104.30 567.11,105.46 567.24,105.72 567.38,106.74 567.51,107.39 567.65,107.52 567.78,107.26 567.92,107.00 568.05,106.62 568.19,106.62 568.32,106.49 568.46,106.23 568.59,105.97 568.73,106.62 568.86,106.49 569.00,105.20 569.13,105.07 569.27,105.07 569.40,105.20 569.54,105.07 569.68,105.97 569.81,107.13 569.95,106.87 570.08,104.43 570.22,107.00 570.35,105.33 570.49,106.87 570.62,106.87 570.76,107.26 570.89,107.90 571.03,110.86 571.16,110.47 571.30,112.02 571.43,112.92 571.57,113.43 571.70,113.05 571.84,112.15 571.97,112.27 572.11,111.50 572.24,112.40 572.38,112.92 572.51,113.30 572.65,109.83 572.78,104.56 572.92,104.56 573.06,107.39 573.19,107.13 573.33,103.66 573.46,103.53 573.60,104.56 573.73,104.94 573.87,107.13 574.00,107.39 574.14,108.29 574.27,108.80 574.41,111.63 574.54,112.53 574.68,110.99 574.81,110.60 574.95,111.12 575.08,111.76 575.22,110.60 575.35,109.96 575.49,108.29 575.62,103.14 575.76,105.20 575.89,106.23 576.03,105.84 576.16,102.37 576.30,102.11 576.44,101.99 576.57,102.50 576.71,103.27 576.84,103.66 576.98,104.17 577.11,103.79 577.25,103.66 577.38,103.79 577.52,103.79 577.65,103.79 577.79,103.66 577.92,106.36 578.06,107.64 578.19,107.26 578.33,108.03 578.46,104.82 578.60,103.02 578.73,102.76 578.87,102.37 579.00,102.11 579.14,100.83 579.27,100.31 579.41,100.44 579.54,100.44 579.68,100.57 579.82,100.57 579.95,100.96 580.09,100.96 580.22,100.96 580.36,101.09 580.49,100.83 580.63,100.83 580.76,100.57 580.90,100.70 581.03,100.57 581.17,101.86 581.30,102.37 581.44,105.59 581.57,108.16 581.71,106.23 581.84,106.36 581.98,103.02 582.11,102.11 582.25,100.31 582.38,100.31 582.52,100.83 582.65,100.31 582.79,100.31 582.92,100.19 583.06,100.19 583.19,100.19 583.33,100.31 583.47,101.09 583.60,101.21 583.74,101.09 583.87,100.70 584.01,100.57 584.14,100.57 584.28,101.47 584.41,101.60 584.55,102.11 584.68,102.37 584.82,103.40 584.95,105.07 585.09,116.26 585.22,115.23 585.36,110.47 585.49,110.35 585.63,107.13 585.76,107.13 585.90,104.56 586.03,104.69 586.17,105.72 586.30,105.07 586.44,104.43 586.57,104.82 586.71,104.69 586.85,104.82 586.98,104.43 587.12,104.69 587.25,105.46 587.39,105.72 587.52,106.23 587.66,105.46 587.79,105.59 587.93,108.29 588.06,108.67 588.20,109.06 588.33,109.45 588.47,109.32 588.60,109.32 588.74,109.32 588.87,108.54 589.01,106.49 589.14,105.84 589.28,104.94 589.41,105.07 589.55,105.07 589.68,104.30 589.82,104.17 589.95,103.53 590.09,104.17 590.23,104.17 590.36,104.30 590.50,104.56 590.63,103.79 590.77,104.43 590.90,104.69 591.04,104.94 591.17,104.82 591.31,104.30 591.44,104.69 591.58,105.59 591.71,105.46 591.85,105.33 591.98,105.33 592.12,106.62 592.25,107.64 592.39,107.77 592.52,107.90 592.66,107.26 592.79,105.33 592.93,104.94 593.06,105.07 593.20,104.69 593.33,104.82 593.47,104.69 593.61,104.69 593.74,104.69 593.88,104.43 594.01,104.43 594.15,104.04 594.28,103.40 594.42,103.27 594.55,103.40 594.69,103.40 594.82,103.40 594.96,103.40 595.09,103.66 595.23,104.82 595.36,105.72 595.50,104.04 595.63,105.72 595.77,106.74 595.90,105.72 596.04,104.04 596.17,103.02 596.31,102.63 596.44,101.86 596.58,101.47 596.71,101.09 596.85,101.21 596.99,101.21 597.12,100.19 597.26,100.19 597.39,100.06 597.53,99.80 597.66,97.36 597.80,95.30 597.93,93.63 598.07,94.66 598.20,95.04 598.34,96.84 598.47,96.97 598.61,97.87 598.74,98.64 598.88,98.26 599.01,98.51 599.15,98.13 599.28,98.13 599.42,97.49 599.55,95.56 599.69,92.86 599.82,89.90 599.96,90.03 600.09,90.54 600.23,89.90 600.37,88.87 600.50,88.36 600.64,87.45 600.77,87.58 600.91,88.48 601.04,87.33 601.18,87.45 601.31,87.58 601.45,88.10 601.58,88.61 601.72,88.10 601.85,89.38 601.99,91.57 602.12,96.84 602.26,91.96 602.39,89.26 602.53,92.60 602.66,94.01 602.80,94.14 602.93,95.17 603.07,96.07 603.20,96.33 603.34,96.59 603.47,95.56 603.61,95.43 603.74,95.43 603.88,94.27 604.02,94.53 604.15,94.40 604.29,93.37 604.42,94.14 604.56,93.63 604.69,96.33 604.83,100.44 604.96,101.86 605.10,104.94 605.23,102.50 605.37,103.14 605.50,104.56 605.64,104.82 605.77,104.94 605.91,104.82 606.04,104.43 606.18,104.56 606.31,105.33 606.45,106.10 606.58,105.72 606.72,105.33 606.85,105.20 606.99,104.94 607.12,102.89 607.26,102.24 607.40,102.24 607.53,101.60 607.67,100.70 607.80,99.80 607.94,102.24 608.07,101.60 608.21,104.17 608.34,108.42 608.48,111.76 608.61,113.17 608.75,105.84 608.88,106.74 609.02,105.46 609.15,103.14 609.29,99.80 609.42,103.14 609.56,103.14 609.69,105.72 609.83,104.43 609.96,97.87 610.10,94.01 610.23,94.01 610.37,94.27 610.50,92.98 610.64,93.88 610.78,93.76 610.91,94.40 611.05,94.78 611.18,96.46 611.32,96.97 611.45,97.10 611.59,96.84 611.72,97.87 611.86,98.39 611.99,96.07 612.13,97.87 612.26,102.11 612.40,101.60 612.53,99.80 612.67,101.60 612.80,101.60 612.94,100.83 613.07,100.44 613.21,102.24 613.34,97.87 613.48,96.71 613.61,95.43 613.75,95.43 613.88,94.91 614.02,95.04 614.16,94.91 614.29,95.56 614.43,95.69 614.56,96.07 614.70,96.71 614.83,96.97 614.97,97.49 615.10,98.77 615.24,100.70 615.37,101.99 615.51,105.84 615.64,106.74 615.78,105.33 615.91,108.16 616.05,109.19 616.18,109.06 616.32,107.52 616.45,108.80 616.59,106.87 616.72,106.10 616.86,107.90 616.99,108.54 617.13,108.16 617.26,105.07 617.40,106.23 617.54,105.46 617.67,105.46 617.81,106.23 617.94,108.03 618.08,109.19 618.21,110.09 618.35,112.15 618.48,113.30 618.62,112.53 618.75,113.82 618.89,113.17 619.02,112.40 619.16,112.15 619.29,112.02 619.43,111.89 619.56,110.99 619.70,110.73 619.83,109.96 619.97,109.83 620.10,110.09 620.24,110.09 620.37,108.93 620.51,108.93 620.64,108.42 620.78,107.77 620.92,107.39 621.05,107.26 621.19,107.39 621.32,107.26 621.46,107.13 621.59,107.26 621.73,107.52 621.86,108.42 622.00,108.42 622.13,107.64 622.27,107.90 622.40,108.67 622.54,109.70 622.67,109.70 622.81,110.73 622.94,109.96 623.08,111.50 623.21,110.99 623.35,110.09 623.48,109.83 623.62,108.80 623.75,107.00 623.89,107.00 624.02,108.03 624.16,107.64 624.29,107.00 624.43,105.72 624.57,105.33 624.70,105.33 624.84,105.46 624.97,105.59 625.11,105.72 625.24,105.84 625.38,105.97 625.51,106.10 625.65,104.94 625.78,105.33 625.92,105.46 626.05,105.84 626.19,106.10 626.32,105.20 626.46,105.07 626.59,104.04 626.73,104.17 626.86,104.43 627.00,103.92 627.13,103.66 627.27,103.53 627.40,103.66 627.54,103.79 627.67,103.53 627.81,103.53 627.95,103.53 628.08,105.33 628.22,104.56 628.35,105.33 628.49,106.23 628.62,107.26 628.76,110.22 628.89,112.02 629.03,114.97 629.16,116.13 629.30,117.03 629.43,116.52 629.57,111.89 629.70,106.74 629.84,107.00 629.97,106.23 630.11,107.00 630.24,107.90 630.38,108.16 630.51,109.32 630.65,106.87 630.78,105.33 630.92,102.89 631.05,102.89 631.19,103.14 631.33,103.02 631.46,103.14 631.60,103.27 631.73,103.53 631.87,114.46 632.00,110.73 632.14,109.83 632.27,110.47 632.41,111.50 632.54,113.56 632.68,114.33 632.81,113.95 632.95,114.97 633.08,115.23 633.22,113.05 633.35,104.30 633.49,103.40 633.62,103.27 633.76,103.40 633.89,104.17 634.03,103.66 634.16,104.56 634.30,104.82 634.43,104.56 634.57,104.43 634.71,104.56 634.84,104.82 634.98,106.23 635.11,106.10 635.25,106.62 635.38,107.00 635.52,108.03 635.65,109.96 635.79,110.73 635.92,110.73 636.06,110.73 636.19,110.09 636.33,108.67 636.46,104.69 636.60,105.07 636.73,105.72 636.87,105.84 637.00,105.59 637.14,105.33 637.27,105.33 637.41,104.94 637.54,103.79 637.68,103.53 637.81,103.66 637.95,103.79 638.09,103.66 638.22,103.53 638.36,103.66 638.49,103.66 638.63,103.53 638.76,103.27 638.90,103.40 639.03,103.14 639.17,102.76 639.30,102.89 639.44,103.79 639.57,103.92 639.71,104.56 639.84,102.50 639.98,101.86 640.11,100.06 640.25,98.51 640.38,97.87 640.52,100.44 640.65,99.29 640.79,102.89 640.92,103.53 641.06,103.53 641.19,103.66 641.33,104.30 641.47,104.43 641.60,105.07 641.74,105.33 641.87,105.84 642.01,105.97 642.14,106.74 642.28,107.00 642.41,107.64 642.55,107.26 642.68,109.70 642.82,109.19 642.95,109.83 643.09,107.26 643.22,106.49 643.36,105.72 643.49,105.84 643.63,108.16 643.76,102.24 643.90,100.06 644.03,104.04 644.17,106.23 644.30,105.59 644.44,104.56 644.57,106.10 644.71,105.59 644.84,105.84 644.98,105.59 645.12,105.46 645.25,105.07 645.39,104.94 645.52,104.94 645.66,105.46 645.79,105.59 645.93,105.97 646.06,105.97 646.20,105.33 646.33,103.27 646.47,103.79 646.60,101.34 646.74,100.44 646.87,98.90 647.01,99.54 647.14,99.93 647.28,100.57 647.41,100.31 647.55,100.19 647.68,100.44 647.82,100.44 647.95,100.70 648.09,100.31 648.22,100.06 648.36,99.67 648.50,99.29 648.63,99.03 648.77,98.90 648.90,98.90 649.04,99.16 649.17,99.29 649.31,99.16 649.44,98.64 649.58,97.10 649.71,96.71 649.85,95.81 649.98,95.56 650.12,95.94 650.25,97.74 650.39,95.56 650.52,96.71 650.66,89.38 650.79,87.45 650.93,85.14 651.06,83.98 651.20,81.80 651.33,79.87 651.47,78.45 651.60,78.07 651.74,77.94 651.88,75.75 652.01,74.60 652.15,75.37 652.28,76.01 652.42,77.04 652.55,77.94 652.69,77.17 652.82,76.14 652.96,75.37 653.09,75.37 653.23,75.37 653.36,75.88 653.50,75.75 653.63,80.12 653.77,77.81 653.90,74.21 654.04,72.41 654.17,70.48 654.31,69.84 654.44,70.74 654.58,80.00 654.71,78.58 654.85,82.95 654.98,83.73 655.12,87.20 655.26,91.44 655.39,87.58 655.53,89.00 655.66,90.28 655.80,90.54 655.93,91.06 656.07,92.34 656.20,93.76 656.34,94.40 656.47,92.73 656.61,94.14 656.74,91.83 656.88,89.64 657.01,86.55 657.15,86.17 657.28,86.30 657.42,85.78 657.55,85.91 657.69,87.58 657.82,90.80 657.96,92.60 658.09,92.34 658.23,91.83 658.36,92.34 658.50,92.60 658.64,93.50 658.77,94.91 658.91,95.43 659.04,94.66 659.18,95.81 659.31,98.26 659.45,97.23 659.58,95.43 659.72,95.04 659.85,95.69 659.99,96.07 660.12,95.56 660.26,95.04 660.39,95.17 660.53,96.20 660.66,97.36 660.80,96.59 660.93,96.71 661.07,96.33 661.20,97.87 661.34,99.16 661.47,100.19 661.61,98.90 661.74,99.67 661.88,100.83 662.02,100.44 662.15,101.73 662.29,105.59 662.42,107.13 662.56,103.66 662.69,102.11 662.83,104.43 662.96,103.40 663.10,103.66 663.23,102.76 663.37,101.34 663.50,100.83 663.64,100.83 663.77,100.83 663.91,101.99 664.04,101.73 664.18,103.40 664.31,103.14 664.45,103.27 664.58,105.20 664.72,104.43 664.85,103.27 664.99,105.07 665.12,105.97 665.26,106.10 665.39,105.46 665.53,106.36 665.67,105.59 665.80,108.29 665.94,110.09 666.07,107.77 666.21,109.19 666.34,108.67 666.48,108.80 666.61,108.67 666.75,105.07 666.88,103.27 667.02,103.40 667.15,103.66 667.29,104.43 667.42,106.36 667.56,106.49 667.69,107.26 667.83,107.90 667.96,108.16 668.10,106.10 668.23,103.92 668.37,109.83 668.50,114.33 668.64,114.20 668.77,116.90 668.91,122.05 669.05,119.22 669.18,119.86 669.32,120.63 669.45,122.56 669.59,122.43 669.72,121.66 669.86,120.63 669.99,119.99 670.13,119.35 670.26,113.56 670.40,109.70 670.53,108.54 670.67,106.74 670.80,106.74 670.94,105.97 671.07,105.20 671.21,105.84 671.34,106.62 671.48,108.54 671.61,113.43 671.75,114.85 671.88,117.93 672.02,114.97 672.15,118.19 672.29,118.83 672.43,118.32 672.56,117.80 672.70,112.02 672.83,106.10 672.97,106.49 673.10,106.62 673.24,107.13 673.37,108.16 673.51,107.13 673.64,106.87 673.78,108.80 673.91,109.57 674.05,111.25 674.18,109.83 674.32,109.83 674.45,114.59 674.59,112.66 674.72,106.74 674.86,106.23 674.99,106.23 675.13,108.29 675.26,110.09 675.40,110.22 675.53,110.73 675.67,116.13 675.81,117.29 675.94,118.83 676.08,119.99 676.21,116.39 676.35,113.56 676.48,117.42 676.62,113.43 676.75,109.96 676.89,109.57 677.02,108.29 677.16,108.93 677.29,109.96 677.43,111.12 677.56,108.54 677.70,107.64 677.83,107.90 677.97,108.16 678.10,110.47 678.24,113.43 678.37,113.30 678.51,120.76 678.64,121.02 678.78,116.39 678.91,114.97 679.05,114.46 679.19,114.97 679.32,112.53 679.46,106.23 679.59,105.84 679.73,105.72 679.86,109.06 680.00,109.45 680.13,112.66 680.27,113.56 680.40,112.27 680.54,112.02 680.67,111.89 680.81,111.63 680.94,111.37 681.08,110.86 681.21,110.35 681.35,111.12 681.48,108.80 681.62,108.42 681.75,107.64 681.89,107.39 682.02,107.26 682.16,107.26 682.29,107.26 682.43,106.87 682.57,106.87 682.70,106.49 682.84,105.33 682.97,105.72 683.11,105.72 683.24,105.59 683.38,105.07 683.51,104.30 683.65,104.30 683.78,104.04 683.92,103.53 684.05,102.89 684.19,102.89 684.32,102.11 684.46,101.47 684.59,100.31 684.73,99.67 684.86,100.70 685.00,100.57 685.13,101.86 685.27,103.14 685.40,104.69 685.54,104.82 685.67,107.26 685.81,107.26 685.94,105.46 686.08,106.36 686.22,107.39 686.35,107.13 686.49,106.49 686.62,105.84 686.76,102.24 686.89,101.99 687.03,101.99 687.16,101.86 687.30,101.73 687.43,101.34 687.57,101.99 687.70,105.72 687.84,105.59 687.97,104.82 688.11,107.52 688.24,106.62 688.38,107.39 688.51,108.54 688.65,108.67 688.78,108.93 688.92,109.19 689.05,113.17 689.19,113.82 689.32,112.15 689.46,113.69 689.60,110.22 689.73,110.73 689.87,107.64 690.00,108.29 690.14,108.16 690.27,103.92 690.41,102.50 690.54,102.63 690.68,102.37 690.81,102.50 690.95,102.50 691.08,102.50 691.22,103.27 691.35,103.14 691.49,101.86 691.62,101.47 691.76,102.37 691.89,103.14 692.03,103.66 692.16,104.82 692.30,106.23 692.43,106.23 692.57,106.23 692.70,105.84 692.84,106.87 692.98,106.10 693.11,105.84 693.25,104.56 693.38,104.17 693.52,105.20 693.65,104.94 693.79,104.69 693.92,104.82 694.06,104.56 694.19,105.84 694.33,106.23 694.46,106.74 694.60,107.26 694.73,108.16 694.87,107.77 695.00,108.54 695.14,109.19 695.27,109.96 695.41,111.12 695.54,113.95 695.68,113.69 695.81,113.05 695.95,113.17 696.08,114.07 696.22,114.07 696.36,115.62 696.49,114.85 696.63,114.46 696.76,116.13 696.90,115.87 697.03,114.72 697.17,114.33 697.30,110.35 697.44,109.06 697.57,108.67 697.71,108.67 697.84,109.06 697.98,110.60 698.11,112.15 698.25,112.66 698.38,112.66 698.52,112.66 698.65,112.02 698.79,112.66 698.92,113.05 699.06,113.43 699.19,113.05 699.33,112.27 699.46,110.86 699.60,110.47 699.74,110.47 699.87,110.47 700.01,110.22 700.14,111.12 700.28,111.25 700.41,110.99 700.55,110.60 700.68,110.86 700.82,109.57 700.95,108.80 701.09,108.80 701.22,108.16 701.36,107.52 701.49,107.00 701.63,107.26 701.76,107.13 701.90,107.39 702.03,108.03 702.17,109.45 702.30,109.32 702.44,109.70 702.57,109.96 702.71,109.83 702.84,109.57 702.98,109.70 703.12,110.86 703.25,113.05 703.39,116.65 703.52,118.06 703.66,114.59 703.79,112.92 703.93,111.76 704.06,110.47 704.20,110.47 704.33,110.86 704.47,111.25 704.60,114.20 704.74,113.17 704.87,124.49 705.01,119.22 705.14,116.26 705.28,117.55 705.41,117.03 705.55,114.46 705.68,114.07 705.82,111.50 705.95,107.90 706.09,108.16 706.22,108.42 706.36,110.73 706.49,110.09 706.63,108.54 706.77,105.33 706.90,106.10 707.04,102.50 707.17,102.76 707.31,103.40 707.44,103.14 707.58,102.50 707.71,101.73 707.85,101.73 707.98,101.09 708.12,100.83 708.25,101.73 708.39,103.53 708.52,104.17 708.66,104.43 708.79,327.67" style="stroke-width: 0.75;"/>
<polyline points="709.06,328.32 709.20,108.29 709.33,108.03 709.47,104.56 709.60,108.03 709.74,108.42 709.87,110.60 710.01,109.57 710.15,108.80 710.28,108.67 710.42,105.07 710.55,104.17 710.69,105.84 710.82,106.23 710.96,102.24 711.09,101.21 711.23,98.51 711.36,96.97 711.50,97.61 711.63,98.26 711.77,99.29 711.90,101.60 712.04,102.63 712.17,103.53 712.31,102.76 712.44,107.26 712.58,105.72 712.71,105.59 712.85,103.66 712.98,105.33 713.12,107.52 713.25,107.39 713.39,106.74 713.53,106.74 713.66,105.72 713.80,105.72 713.93,104.56 714.07,103.14 714.20,100.19 714.34,99.54 714.47,98.13 714.61,95.94 714.74,96.07 714.88,96.07 715.01,96.59 715.15,98.39 715.28,100.70 715.42,100.96 715.55,101.47 715.69,104.82 715.82,108.29 715.96,108.42 716.09,109.70 716.23,110.35 716.36,109.32 716.50,109.45 716.63,109.96 716.77,109.83 716.91,110.09 717.04,105.84 717.18,102.76 717.31,96.84 717.45,97.49 717.58,96.84 717.72,94.78 717.85,94.53 717.99,94.40 718.12,94.27 718.26,94.27 718.39,94.66 718.53,95.04 718.66,95.17 718.80,97.49 718.93,97.87 719.07,97.36 719.20,99.54 719.34,101.34 719.47,112.15 719.61,111.89 719.74,112.66 719.88,108.03 720.01,108.16 720.15,106.36 720.29,105.59 720.42,109.06 720.56,100.70 720.69,100.44 720.83,98.64 720.96,97.49 721.10,95.94 721.23,94.66 721.37,94.53 721.50,94.27 721.64,94.40 721.77,96.97 721.91,98.77 722.04,100.19 722.18,100.31 722.31,100.06 722.45,96.71 722.58,97.61 722.72,103.79 722.85,107.13 722.99,107.39 723.12,107.90 723.26,107.64 723.39,105.59 723.53,103.92 723.67,103.14 723.80,100.96 723.94,102.76 724.07,100.83 724.21,98.51 724.34,96.33 724.48,95.17 724.61,93.76 724.75,93.88 724.88,93.76 725.02,94.01 725.15,94.14 725.29,94.40 725.42,96.33 725.56,96.07 725.69,94.91 725.83,95.17 725.96,95.43 726.10,97.87 726.23,100.83 726.37,103.53 726.50,101.34 726.64,103.27 726.77,103.79 726.91,103.79 727.04,97.74 727.18,94.91 727.32,93.50 727.45,93.37 727.59,93.11 727.72,92.98 727.86,92.98 727.99,92.86 728.13,92.47 728.26,92.60 728.40,92.86 728.53,92.98 728.67,93.88 728.80,93.11 728.94,93.63 729.07,94.01 729.21,94.01 729.34,94.01 729.48,93.88 729.61,93.50 729.75,93.63 729.88,96.59 730.02,98.13 730.15,98.51 730.29,99.03 730.42,92.21 730.56,90.54 730.70,90.54 730.83,88.23 730.97,87.84 731.10,87.71 731.24,88.74 731.37,90.03 731.51,89.13 731.64,89.26 731.78,90.54 731.91,90.80 732.05,91.18 732.18,91.44 732.32,92.86 732.45,94.53 732.59,95.94 732.72,95.69 732.86,96.71 732.99,99.03 733.13,99.80 733.26,99.54 733.40,100.57 733.53,100.06 733.67,99.67 733.80,101.47 733.94,98.39 734.08,98.26 734.21,98.64 734.35,97.23 734.48,96.97 734.62,98.39 734.75,99.54 734.89,100.70 735.02,100.57 735.16,101.34 735.29,103.27 735.43,105.97 735.56,109.32 735.70,110.09 735.83,111.89 735.97,107.52 736.10,111.25 736.24,111.63 736.37,111.76 736.51,112.79 736.64,114.72 736.78,112.40 736.91,109.32 737.05,109.70 737.18,108.67 737.32,107.64 737.46,106.62 737.59,105.59 737.73,104.43 737.86,104.43 738.00,103.27 738.13,103.92 738.27,105.07 738.40,108.29 738.54,108.93 738.67,108.93 738.81,107.90 738.94,108.67 739.08,109.32 739.21,109.70 739.35,109.83 739.48,109.57 739.62,109.83 739.75,109.45 739.89,108.42 740.02,108.29 740.16,106.87 740.29,107.64 740.43,107.00 740.56,107.00 740.70,107.13 740.84,106.49 740.97,105.59 741.11,106.10 741.24,106.62 741.38,106.23 741.51,105.33 741.65,105.46 741.78,103.66 741.92,101.60 742.05,102.24 742.19,102.50 742.32,102.50 742.46,103.02 742.59,105.33 742.73,105.07 742.86,104.82 743.00,105.20 743.13,105.20 743.27,105.33 743.40,104.30 743.54,104.56 743.67,101.21 743.81,97.87 743.94,97.23 744.08,97.49 744.22,98.00 744.35,95.69 744.49,96.33 744.62,95.94 744.76,95.81 744.89,95.04 745.03,94.40 745.16,93.88 745.30,94.14 745.43,94.01 745.57,96.46 745.70,95.81 745.84,96.46 745.97,96.46 746.11,97.10 746.24,98.39 746.38,99.29 746.51,100.57 746.65,101.73 746.78,99.67 746.92,95.81 747.05,93.24 747.19,87.58 747.32,84.24 747.46,84.37 747.60,83.21 747.73,83.21 747.87,82.95 748.00,82.70 748.14,83.85 748.27,84.63 748.41,85.01 748.54,85.53 748.68,85.78 748.81,86.30 748.95,87.33 749.08,88.23 749.22,89.51 749.35,91.70 749.49,95.17 749.62,95.43 749.76,95.17 749.89,92.98 750.03,94.14 750.16,87.58 750.30,85.14 750.43,86.68 750.57,87.45 750.70,85.27 750.84,85.40 750.97,86.94 751.11,86.17 751.25,87.33 751.38,84.63 751.52,85.14 751.65,86.81 751.79,88.10 751.92,86.68 752.06,85.65 752.19,90.54 752.33,90.41 752.46,91.31 752.60,93.11 752.73,95.43 752.87,95.94 753.00,96.46 753.14,98.13 753.27,97.49 753.41,97.74 753.54,97.61 753.68,96.33 753.81,93.24 753.95,92.98 754.08,92.60 754.22,91.70 754.35,91.83 754.49,91.57 754.63,91.18 754.76,90.93 754.90,91.06 755.03,90.16 755.17,89.26 755.30,88.61 755.44,88.61 755.57,88.74 755.71,88.36 755.84,88.23 755.98,88.48 756.11,88.48 756.25,87.97 756.38,86.94 756.52,86.55 756.65,86.94 756.79,87.20 756.92,86.43 757.06,85.27 757.19,85.53 757.33,85.78 757.46,83.85 757.60,86.04 757.73,88.48 757.87,88.61 758.01,78.97 758.14,77.81 758.28,78.07 758.41,78.45 758.55,79.10 758.68,81.80 758.82,82.44 758.95,82.05 759.09,83.08 759.22,82.70 759.36,82.95 759.49,84.50 759.63,85.78 759.76,85.01 759.90,85.53 760.03,83.85 760.17,83.47 760.30,83.85 760.44,84.11 760.57,83.08 760.71,83.85 760.84,84.50 760.98,85.01 761.11,83.60 761.25,81.03 761.39,79.87 761.52,79.48 761.66,79.10 761.79,78.58 761.93,78.20" style="stroke-width: 0.75;"/>
</g><g clip-path="url(#c2)">
<line x1="83.37" y1="350.56" x2="732.32" y2="350.56" style="stroke-width: 0.75;"/>
<line x1="83.37" y1="350.56" x2="83.37" y2="357.76" style="stroke-width: 0.75;"/>
<line x1="213.16" y1="350.56" x2="213.16" y2="357.76" style="stroke-width: 0.75;"/>
<line x1="342.95" y1="350.56" x2="342.95" y2="357.76" style="stroke-width: 0.75;"/>
<line x1="472.74" y1="350.56" x2="472.74" y2="357.76" style="stroke-width: 0.75;"/>
<line x1="602.53" y1="350.56" x2="602.53" y2="357.76" style="stroke-width: 0.75;"/>
<line x1="732.32" y1="350.56" x2="732.32" y2="357.76" style="stroke-width: 0.75;"/>
<g><text x="83.37" y="376.48" text-anchor="middle" style="font-family: Arial;font-size: 12.00px;" textLength="6.67px" lengthAdjust="spacingAndGlyphs">0</text></g>
<g><text x="213.16" y="376.48" text-anchor="middle" style="font-family: Arial;font-size: 12.00px;" textLength="13.35px" lengthAdjust="spacingAndGlyphs">20</text></g>
<g><text x="342.95" y="376.48" text-anchor="middle" style="font-family: Arial;font-size: 12.00px;" textLength="13.35px" lengthAdjust="spacingAndGlyphs">40</text></g>
<g><text x="472.74" y="376.48" text-anchor="middle" style="font-family: Arial;font-size: 12.00px;" textLength="13.35px" lengthAdjust="spacingAndGlyphs">60</text></g>
<g><text x="602.53" y="376.48" text-anchor="middle" style="font-family: Arial;font-size: 12.00px;" textLength="13.35px" lengthAdjust="spacingAndGlyphs">80</text></g>
<g><text x="732.32" y="376.48" text-anchor="middle" style="font-family: Arial;font-size: 12.00px;" textLength="20.02px" lengthAdjust="spacingAndGlyphs">100</text></g>
<line x1="59.04" y1="345.29" x2="59.04" y2="88.10" style="stroke-width: 0.75;"/>
<line x1="59.04" y1="345.29" x2="51.84" y2="345.29" style="stroke-width: 0.75;"/>
<line x1="59.04" y1="280.99" x2="51.84" y2="280.99" style="stroke-width: 0.75;"/>
<line x1="59.04" y1="216.70" x2="51.84" y2="216.70" style="stroke-width: 0.75;"/>
<line x1="59.04" y1="152.40" x2="51.84" y2="152.40" style="stroke-width: 0.75;"/>
<line x1="59.04" y1="88.10" x2="51.84" y2="88.10" style="stroke-width: 0.75;"/>
<g><text transform="translate(41.76,345.29) rotate(-90.00)" text-anchor="middle" style="font-family: Arial;font-size: 12.00px;" textLength="6.67px" lengthAdjust="spacingAndGlyphs">0</text></g>
<g><text transform="translate(41.76,280.99) rotate(-90.00)" text-anchor="middle" style="font-family: Arial;font-size: 12.00px;" textLength="6.67px" lengthAdjust="spacingAndGlyphs">5</text></g>
<g><text transform="translate(41.76,216.70) rotate(-90.00)" text-anchor="middle" style="font-family: Arial;font-size: 12.00px;" textLength="13.35px" lengthAdjust="spacingAndGlyphs">10</text></g>
<g><text transform="translate(41.76,152.40) rotate(-90.00)" text-anchor="middle" style="font-family: Arial;font-size: 12.00px;" textLength="13.35px" lengthAdjust="spacingAndGlyphs">15</text></g>
<g><text transform="translate(41.76,88.10) rotate(-90.00)" text-anchor="middle" style="font-family: Arial;font-size: 12.00px;" textLength="13.35px" lengthAdjust="spacingAndGlyphs">20</text></g>
<polygon points="59.04,350.56 788.96,350.56 788.96,59.04 59.04,59.04" style="stroke-width: 0.75;" />
<g><text x="424.00" y="34.67" text-anchor="middle" style="font-family: Arial;font-size: 14.40px;font-weight: bold;" textLength="93.05px" lengthAdjust="spacingAndGlyphs">Water salinity</text></g>
<g><text x="424.00" y="405.28" text-anchor="middle" style="font-family: Arial;font-size: 12.00px;" textLength="81.37px" lengthAdjust="spacingAndGlyphs">Days from start</text></g>
<g><text transform="translate(12.96,204.80) rotate(-90.00)" text-anchor="middle" style="font-family: Arial;font-size: 12.00px;" textLength="73.37px" lengthAdjust="spacingAndGlyphs">Salinity [PSU]</text></g>
</g>
</svg>