<svg xmlns="http://www.w3.org/2000/svg" xmlns:xlink="http://www.w3.org/1999/xlink" class="httpgd" width="1024.00" height="587.00" viewBox="0 0 819.20 469.60">
<defs>
  <style type='text/css'><![CDATA[
    .httpgd line, .httpgd polyline, .httpgd polygon, .httpgd path, .httpgd rect, .httpgd circle {
      fill: none;
      stroke: #000000;
      stroke-linecap: round;
      stroke-linejoin: round;
      stroke-miterlimit: 10.00;
    }
  ]]></style>
<clipPath id="c0"><rect x="0.00" y="0.00" width="819.20" height="469.60"/></clipPath>
<clipPath id="c1"><rect x="59.04" y="59.04" width="729.92" height="337.12"/></clipPath>
<clipPath id="c2"><rect x="0.00" y="0.00" width="819.20" height="469.60"/></clipPath>
</defs>
<rect width="100%" height="100%" style="stroke: none;fill: #FFFFFF;"/>
<g clip-path="url(#c0)">
</g><g clip-path="url(#c1)">
<polyline points="86.07,234.76 86.21,235.62 86.34,235.47 86.48,235.62 86.61,235.66 86.75,235.30 86.89,236.98 87.02,235.74 87.16,235.51 87.29,235.44 87.43,235.33 87.56,235.40 87.70,234.76 87.83,235.90 87.97,235.55 88.10,234.89 88.24,234.90 88.37,235.28 88.51,234.92 88.64,235.47 88.78,235.43 88.91,235.70 89.05,235.68 89.18,235.58 89.32,235.37 89.45,235.41 89.59,235.42 89.73,235.33 89.86,235.21 90.00,235.46 90.13,236.18 90.27,235.25 90.40,235.47 90.54,235.25 90.67,235.28 90.81,235.20 90.94,235.36 91.08,235.40 91.21,235.42 91.35,235.42 91.48,235.42 91.62,235.42 91.75,235.51 91.89,235.91 92.02,235.74 92.16,235.79 92.29,235.61 92.43,235.19 92.56,235.45 92.70,235.52 92.84,235.82 92.97,235.53 93.11,235.36 93.24,235.40 93.38,235.60 93.51,235.66 93.65,235.48 93.78,235.44 93.92,235.42 94.05,235.42 94.19,235.33 94.32,235.21 94.46,235.27 94.59,235.38 94.73,235.41 94.86,235.51 95.00,235.63 95.13,235.38 95.27,235.41 95.40,235.51 95.54,235.54 95.68,235.45 95.81,235.43 95.95,235.33 96.08,235.40 96.22,235.41 96.35,235.42 96.49,235.42 96.62,235.33 96.76,235.39 96.89,235.41 97.03,235.42 97.16,235.51 97.30,235.44 97.43,235.43 97.57,235.42 97.70,235.33 97.84,235.49 97.97,235.34 98.11,235.49 98.24,235.35 98.38,235.40 98.51,235.41 98.65,235.42 98.79,235.33 98.92,235.49 99.06,235.53 99.19,235.17 99.33,235.17 99.46,235.45 99.60,235.52 99.73,235.63 99.87,235.10 100.00,235.43 100.14,235.42 100.27,235.42 100.41,235.42 100.54,235.42 100.68,235.51 100.81,235.26 100.95,235.38 101.08,235.41 101.22,235.42 101.35,235.42 101.49,235.61 101.62,235.10 101.76,235.05 101.90,235.04 102.03,235.04 102.17,235.32 102.30,236.33 102.44,235.66 102.57,235.02 102.71,235.41 102.84,235.70 102.98,235.59 103.11,235.28 103.25,235.29 103.38,235.38 103.52,235.41 103.65,235.32 103.79,235.30 103.92,235.39 104.06,235.32 104.19,236.14 104.33,235.61 104.46,235.57 104.60,235.46 104.74,235.34 104.87,235.12 105.01,235.43 105.14,235.33 105.28,235.49 105.41,235.16 105.55,235.35 105.68,235.49 105.82,235.25 105.95,235.47 106.09,235.43 106.22,235.42 106.36,235.70 106.49,235.68 106.63,235.49 106.76,235.44 106.90,235.33 107.03,235.40 107.17,235.41 107.30,235.42 107.44,235.42 107.57,235.42 107.71,235.42 107.85,235.42 107.98,235.42 108.12,235.42 108.25,235.33 108.39,235.30 108.52,235.39 108.66,235.22 108.79,235.27 108.93,235.38 109.06,235.22 109.20,235.65 109.33,235.67 109.47,235.39 109.60,235.41 109.74,235.42 109.87,235.51 110.01,235.44 110.14,235.52 110.28,235.45 110.41,235.15 110.55,235.53 110.68,235.26 110.82,235.38 110.96,235.32 111.09,235.30 111.23,235.57 111.36,235.65 111.50,235.48 111.63,235.25 111.77,235.09 111.90,235.15 112.04,235.25 112.17,235.38 112.31,235.97 112.44,235.57 112.58,235.18 112.71,235.82 112.85,235.06 112.98,235.42 113.12,235.23 113.25,235.46 113.39,235.34 113.52,235.30 113.66,235.76 113.80,235.79 113.93,235.43 114.07,235.42 114.20,235.89 114.34,235.64 114.47,235.67 114.61,235.49 114.74,235.25 114.88,235.19 115.01,234.98 115.15,235.21 115.28,234.99 115.42,235.12 115.55,235.25 115.69,235.56 115.82,235.46 115.96,235.62 116.09,235.66 116.23,235.30 116.36,235.29 116.50,235.39 116.63,235.41 116.77,235.32 116.91,235.39 117.04,235.41 117.18,235.32 117.31,235.39 117.45,235.32 117.58,235.39 117.72,235.41 117.85,235.42 117.99,235.42 118.12,235.42 118.26,235.42 118.39,235.61 118.53,235.38 118.66,235.41 118.80,235.32 118.93,235.58 119.07,235.28 119.20,234.73 119.34,235.51 119.47,235.35 119.61,235.40 119.74,235.88 119.88,235.54 120.02,235.55 120.15,235.27 120.29,235.29 120.42,235.29 120.56,235.39 120.69,235.32 120.83,236.05 120.96,235.40 121.10,236.26 121.23,235.74 121.37,235.51 121.50,235.16 121.64,235.26 121.77,235.38 121.91,234.47 122.04,235.17 122.18,235.63 122.31,235.38 122.45,235.41 122.58,235.14 122.72,235.44 122.86,235.99 122.99,235.95 123.13,235.65 123.26,235.58 123.40,235.84 123.53,235.44 123.67,235.80 123.80,235.33 123.94,235.40 124.07,235.41 124.21,235.89 124.34,235.54 124.48,235.55 124.61,235.36 124.75,235.50 124.88,235.44 125.02,235.43 125.15,235.05 125.29,235.13 125.42,234.78 125.56,234.87 125.69,235.09 125.83,235.70 125.97,235.03 126.10,235.32 126.24,235.49 126.37,235.81 126.51,235.24 126.64,235.84 126.78,236.00 126.91,235.48 127.05,235.44 127.18,235.33 127.32,235.12 127.45,235.15 127.59,236.10 127.72,236.35 127.86,235.76 127.99,235.61 128.13,235.28 128.26,235.20 128.40,235.27 128.53,235.19 128.67,235.08 128.81,233.36 128.94,234.31 129.08,234.75 129.21,234.87 129.35,235.93 129.48,235.28 129.62,235.94 129.75,235.65 129.89,236.98 130.02,235.74 130.16,236.07 130.29,235.41 130.43,235.60 130.56,235.28 130.70,235.48 130.83,236.37 130.97,235.67 131.10,235.68 131.24,235.49 131.37,235.44 131.51,235.42 131.64,235.42 131.78,235.42 131.92,235.14 132.05,234.78 132.19,235.06 132.32,234.95 132.46,235.20 132.59,235.64 132.73,235.85 132.86,235.54 133.00,235.45 133.13,235.43 133.27,235.52 133.40,235.26 133.54,235.56 133.67,235.08 133.81,235.42 133.94,235.51 134.08,235.91 134.21,235.65 134.35,235.39 134.48,235.41 134.62,235.51 134.75,235.44 134.89,235.43 135.03,235.33 135.16,235.40 135.30,235.32 135.43,235.11 135.57,235.71 135.70,235.69 135.84,235.40 135.97,235.32 136.11,235.39 136.24,235.41 136.38,235.42 136.51,235.42 136.65,235.70 136.78,235.31 136.92,235.20 137.05,235.36 137.19,235.78 137.32,235.52 137.46,235.54 137.59,235.45 137.73,235.43 137.87,235.33 138.00,235.40 138.14,235.32 138.27,235.21 138.41,235.08 138.54,235.33 138.68,235.02 138.81,234.94 138.95,235.10 139.08,235.43 139.22,236.45 139.35,235.60 139.49,235.84 139.62,235.53 139.76,235.54 139.89,235.55 140.03,235.27 140.16,235.57 140.30,235.55 140.43,235.55 140.57,235.36 140.70,235.40 140.84,235.23 140.98,235.37 141.11,235.13 141.25,235.62 141.38,235.29 141.52,235.01 141.65,235.12 141.79,235.62 141.92,234.91 142.06,235.28 142.19,235.20 142.33,235.08 142.46,235.14 142.60,235.63 142.73,236.04 142.87,235.40 143.00,235.51 143.14,235.26 143.27,235.38 143.41,235.41 143.54,235.32 143.68,235.39 143.81,235.88 143.95,235.45 144.09,235.52 144.22,235.26 144.36,235.10 144.49,235.24 144.63,235.56 144.76,236.30 144.90,235.75 145.03,235.51 145.17,235.26 145.30,234.91 145.44,234.82 145.57,234.60 145.71,235.01 145.84,235.31 145.98,236.14 146.11,235.89 146.25,234.89 146.38,235.00 146.52,235.59 146.65,236.21 146.79,235.54 146.93,235.45 147.06,235.43 147.20,235.89 147.33,234.80 147.47,235.25 147.60,235.47 147.74,235.43 147.87,236.08 148.01,236.16 148.14,236.09 148.28,235.50 148.41,235.35 148.55,235.12 148.68,234.40 148.82,235.05 148.95,234.95 149.09,235.01 149.22,235.40 149.36,235.60 149.49,235.28 149.63,235.57 149.76,235.55 149.90,235.27 150.04,235.57 150.17,235.55 150.31,235.27 150.44,235.38 150.58,235.41 150.71,235.42 150.85,235.51 150.98,235.16 151.12,235.63 151.25,235.76 151.39,236.91 151.52,235.63 151.66,235.38 151.79,235.04 151.93,235.41 152.06,235.32 152.20,235.21 152.33,234.71 152.47,234.39 152.60,234.96 152.74,235.20 152.87,235.27 153.01,235.66 153.15,235.48 153.28,235.90 153.42,235.74 153.55,235.79 153.69,235.24 153.82,235.46 153.96,235.53 154.09,235.45 154.23,235.43 154.36,236.26 154.50,235.46 154.63,235.43 154.77,236.45 154.90,235.60 155.04,235.47 155.17,235.43 155.31,235.05 155.44,235.51 155.58,235.44 155.71,235.05 155.85,235.42 155.99,235.14 156.12,234.03 156.26,234.30 156.39,236.15 156.53,235.52 156.66,235.63 156.80,235.95 156.93,235.09 157.07,235.33 157.20,235.68 157.34,235.21 157.47,235.18 157.61,235.35 157.74,235.59 157.88,235.56 158.01,235.18 158.15,235.17 158.28,236.10 158.42,235.51 158.55,235.54 158.69,235.17 158.82,235.54 158.96,235.36 159.10,235.22 159.23,235.08 159.37,235.24 159.50,235.18 159.64,236.67 159.77,234.16 159.91,235.18 160.04,235.45 160.18,236.27 160.31,234.90 160.45,236.78 160.58,235.60 160.72,236.03 160.85,235.30 160.99,235.58 161.12,235.46 161.26,235.43 161.39,235.52 161.53,235.35 161.66,235.21 161.80,235.46 161.93,235.52 162.07,234.79 162.21,235.35 162.34,234.75 162.48,234.68 162.61,234.75 162.75,235.43 162.88,235.70 163.02,235.96 163.15,235.47 163.29,235.81 163.42,235.15 163.56,235.72 163.69,235.69 163.83,235.30 163.96,235.30 164.10,235.57 164.23,235.74 164.37,235.69 164.50,234.28 164.64,235.68 164.77,235.39 164.91,235.69 165.05,235.96 165.18,234.82 165.32,234.70 165.45,234.76 165.59,235.06 165.72,234.85 165.86,235.64 165.99,235.29 166.13,235.01 166.26,235.87 166.40,235.54 166.53,235.64 166.67,235.85 166.80,234.60 166.94,236.04 167.07,235.87 167.21,234.04 167.34,235.52 167.48,235.63 167.61,235.94 167.75,236.96 167.88,235.74 168.02,235.23 168.16,235.27 168.29,233.88 168.43,235.01 168.56,234.47 168.70,235.26 168.83,235.38 168.97,235.41 169.10,235.42 169.24,235.51 169.37,235.44 169.51,235.33 169.64,235.49 169.78,235.81 169.91,235.71 170.05,236.62 170.18,235.84 170.32,236.37 170.45,235.68 170.59,233.90 170.72,233.52 170.86,235.19 171.00,234.98 171.13,235.21 171.27,235.83 171.40,235.53 171.54,236.01 171.67,235.67 171.81,235.58 171.94,235.09 172.08,235.61 172.21,235.19 172.35,235.92 172.48,235.27 172.62,235.38 172.75,235.22 172.89,235.37 173.02,235.13 173.16,236.00 173.29,235.76 173.43,235.32 173.56,236.70 173.70,236.14 173.83,235.05 173.97,235.79 174.11,235.71 174.24,236.06 174.38,235.40 174.51,234.95 174.65,235.95 174.78,234.91 174.92,235.47 175.05,234.97 175.19,235.20 175.32,234.61 175.46,235.77 175.59,235.42 175.73,235.42 175.86,235.33 176.00,235.02 176.13,234.28 176.27,235.12 176.40,235.43 176.54,235.80 176.67,235.24 176.81,236.12 176.94,235.98 177.08,235.94 177.22,236.40 177.35,235.68 177.49,235.40 177.62,235.51 177.76,235.44 177.89,234.49 178.03,234.89 178.16,235.00 178.30,234.56 178.43,233.88 178.57,234.35 178.70,235.04 178.84,235.32 178.97,235.86 179.11,235.63 179.24,235.85 179.38,235.82 179.51,235.71 179.65,235.78 179.78,236.55 179.92,236.47 180.06,236.82 180.19,235.52 180.33,235.82 180.46,235.53 180.60,235.45 180.73,235.52 180.87,235.45 181.00,234.96 181.14,235.39 181.27,235.32 181.41,234.46 181.54,235.07 181.68,234.30 181.81,234.37 181.95,234.67 182.08,235.50 182.22,234.88 182.35,234.34 182.49,235.79 182.62,236.45 182.76,235.04 182.89,236.35 183.03,234.92 183.17,235.75 183.30,235.32 183.44,235.86 183.57,235.82 183.71,235.15 183.84,235.16 183.98,235.26 184.11,235.47 184.25,235.90 184.38,234.99 184.52,235.30 184.65,235.11 184.79,234.78 184.92,234.97 185.06,235.21 185.19,235.27 185.33,235.57 185.46,235.65 185.60,235.67 185.73,235.30 185.87,235.57 186.00,235.65 186.14,235.57 186.28,236.02 186.41,236.52 186.55,235.62 186.68,234.82 186.82,235.63 186.95,235.57 187.09,234.24 187.22,236.60 187.36,235.36 187.49,236.06 187.63,236.81 187.76,235.98 187.90,235.85 188.03,235.54 188.17,234.33 188.30,232.79 188.44,235.28 188.57,235.10 188.71,235.33 188.84,235.68 188.98,235.49 189.12,236.65 189.25,235.47 189.39,235.62 189.52,234.91 189.66,235.38 189.79,235.13 189.93,235.34 190.06,235.21 190.20,236.02 190.33,235.49 190.47,235.34 190.60,235.49 190.74,235.16 190.87,235.63 191.01,235.76 191.14,235.14 191.28,236.19 191.41,235.81 191.55,235.62 191.68,235.38 191.82,235.13 191.95,235.25 192.09,235.28 192.23,234.35 192.36,236.07 192.50,235.69 192.63,235.49 192.77,235.53 192.90,235.36 193.04,235.40 193.17,235.51 193.31,235.54 193.44,235.92 193.58,236.02 193.71,236.14 193.85,235.43 193.98,235.89 194.12,235.27 194.25,233.60 194.39,234.65 194.52,235.40 194.66,234.39 194.79,235.52 194.93,235.17 195.06,236.10 195.20,236.07 195.34,233.44 195.47,235.55 195.61,234.80 195.74,235.72 195.88,209.59 196.01,253.57 196.15,240.56 196.28,237.64 196.42,235.36 196.55,235.68 196.69,235.58 196.82,235.18 196.96,236.29 197.09,235.28 197.23,235.57 197.36,235.55 197.50,235.74 197.63,234.38 197.77,234.21 197.90,234.72 198.04,235.98 198.18,235.01 198.31,235.03 198.45,235.13 198.58,235.53 198.72,234.70 198.85,235.51 198.99,235.07 199.12,236.45 199.26,234.48 199.39,235.54 199.53,235.64 199.66,235.85 199.80,235.44 199.93,238.14 200.07,236.99 200.20,234.34 200.34,236.07 200.47,235.69 200.61,234.65 200.74,236.24 200.88,235.45 201.01,234.12 201.15,235.91 201.29,235.65 201.42,235.29 201.56,234.82 201.69,235.26 201.83,234.35 201.96,234.76 202.10,234.96 202.23,234.92 202.37,236.41 202.50,234.94 202.64,234.64 202.77,234.56 202.91,234.53 203.04,235.56 203.18,235.92 203.31,235.65 203.45,235.11 203.58,235.06 203.72,234.95 203.85,236.42 203.99,235.78 204.13,234.96 204.26,234.55 204.40,235.19 204.53,234.70 204.67,234.76 204.80,234.49 204.94,234.42 205.07,235.06 205.21,236.07 205.34,236.34 205.48,236.14 205.61,235.52 205.75,235.63 205.88,238.75 206.02,237.44 206.15,235.96 206.29,235.00 206.42,235.03 206.56,234.38 206.69,234.39 206.83,235.80 206.96,236.08 207.10,235.60 207.24,235.28 207.37,235.48 207.51,235.34 207.64,235.96 207.78,235.28 207.91,235.20 208.05,235.55 208.18,235.83 208.32,236.09 208.45,235.32 208.59,234.93 208.72,235.47 208.86,235.15 208.99,235.44 209.13,235.52 209.26,235.63 209.40,235.57 209.53,235.65 209.67,235.95 209.80,237.06 209.94,235.95 210.07,235.94 210.21,236.59 210.35,235.92 210.48,235.18 210.62,236.10 210.75,235.79 210.89,235.05 211.02,234.29 211.16,233.53 211.29,234.91 211.43,235.47 211.56,235.25 211.70,234.81 211.83,235.26 211.97,235.10 212.10,235.89 212.24,235.64 212.37,235.10 212.51,235.43 212.64,235.80 212.78,235.43 212.91,235.33 213.05,235.49 213.19,235.44 213.32,235.42 213.46,235.89 213.59,236.39 213.73,236.05 213.86,235.59 214.00,235.56 214.13,235.74 214.27,235.79 214.40,235.52 214.54,235.54 214.67,235.27 214.81,234.54 214.94,235.09 215.08,235.33 215.21,235.02 215.35,235.03 215.48,235.04 215.62,235.32 215.75,234.83 215.89,234.70 216.02,235.13 216.16,235.25 216.30,235.19 216.43,235.08 216.57,235.23 216.70,235.28 216.84,235.19 216.97,235.17 217.11,235.45 217.24,235.99 217.38,236.13 217.51,236.27 217.65,237.14 217.78,235.60 217.92,235.28 218.05,235.29 218.19,235.29 218.32,235.39 218.46,235.41 218.59,235.79 218.73,235.24 218.86,235.93 219.00,235.65 219.13,235.29 219.27,235.29 219.41,235.11 219.54,235.15 219.68,235.53 219.81,235.36 219.95,235.68 220.08,235.96 220.22,235.75 220.35,235.60 220.49,235.19 220.62,235.17 220.76,235.07 220.89,235.79 221.03,235.52 221.16,235.17 221.30,235.54 221.43,235.45 221.57,235.34 221.70,235.40 221.84,235.41 221.97,235.42 222.11,235.79 222.25,235.52 222.38,235.54 222.52,235.45 222.65,235.34 222.79,235.58 222.92,236.77 223.06,236.25 223.19,238.07 223.33,236.51 223.46,235.99 223.60,235.67 223.73,235.95 223.87,235.47 224.00,234.87 224.14,233.78 224.27,235.07 224.41,234.77 224.54,235.24 224.68,233.78 224.81,234.61 224.95,235.02 225.08,235.03 225.22,235.13 225.36,235.44 225.49,235.52 225.63,237.69 225.76,233.97 225.90,235.13 226.03,235.43 226.17,235.52 226.30,235.73 226.44,235.69 226.57,235.96 226.71,234.91 226.84,236.50 226.98,234.87 227.11,234.80 227.25,235.72 227.38,235.97 227.52,235.19 227.65,236.01 227.79,235.39 227.92,235.79 228.06,235.61 228.19,235.66 228.33,235.30 228.47,235.48 228.60,235.06 228.74,235.60 228.87,234.72 229.01,235.33 229.14,235.58 229.28,235.28 229.41,235.48 229.55,235.25 229.68,236.12 229.82,235.05 229.95,235.88 230.09,236.01 230.22,235.67 230.36,235.21 230.49,235.46 230.63,236.27 230.76,234.99 230.90,235.49 231.03,235.25 231.17,234.72 231.31,234.76 231.44,234.12 231.58,235.45 231.71,233.65 231.85,235.13 231.98,234.59 232.12,235.39 232.25,233.91 232.39,234.74 232.52,235.80 232.66,235.05 232.79,234.76 232.93,236.65 233.06,232.10 233.20,233.88 233.33,236.78 233.47,239.25 233.60,235.51 233.74,236.85 233.87,235.99 234.01,236.04 234.14,235.49 234.28,235.53 234.42,235.36 234.55,235.50 234.69,235.72 234.82,235.87 234.96,235.54 235.09,235.45 235.23,235.52 235.36,235.82 235.50,235.62 235.63,234.73 235.77,234.95 235.90,234.92 236.04,233.88 236.17,235.10 236.31,235.15 236.44,235.53 236.58,234.98 236.71,234.18 236.85,235.46 236.98,234.22 237.12,235.38 237.26,235.32 237.39,236.05 237.53,235.78 237.66,235.23 237.80,235.56 237.93,234.99 238.07,234.65 238.20,237.08 238.34,235.96 238.47,237.25 238.61,236.85 238.74,236.92 238.88,235.64 239.01,234.92 239.15,234.07 239.28,234.03 239.42,234.21 239.55,234.63 239.69,235.30 239.82,235.76 239.96,235.42 240.09,234.58 240.23,235.01 240.37,235.50 240.50,235.44 240.64,233.55 240.77,235.86 240.91,235.63 241.04,235.76 241.18,235.70 241.31,235.40 241.45,235.98 241.58,236.50 241.72,238.42 241.85,236.97 241.99,235.93 242.12,234.81 242.26,234.51 242.39,235.92 242.53,235.09 242.66,233.74 242.80,233.85 242.93,234.25 243.07,233.24 243.20,234.27 243.34,234.27 243.48,236.42 243.61,236.34 243.75,235.48 243.88,236.28 244.02,237.15 244.15,234.95 244.29,237.82 244.42,237.09 244.56,236.52 244.69,236.00 244.83,235.67 244.96,235.49 245.10,236.19 245.23,235.63 245.37,235.48 245.50,235.53 245.64,235.45 245.77,235.24 245.91,234.72 246.04,234.39 246.18,232.81 246.32,233.97 246.45,232.60 246.59,231.58 246.72,237.94 246.86,236.66 246.99,234.16 247.13,235.08 247.26,237.01 247.40,238.00 247.53,237.23 247.67,234.50 247.80,235.17 247.94,236.94 248.07,234.99 248.21,235.58 248.34,235.93 248.48,208.34 248.61,255.76 248.75,241.06 248.88,237.02 249.02,235.76 249.15,235.14 249.29,235.06 249.43,235.04 249.56,234.20 249.70,233.78 249.83,232.55 249.97,234.65 250.10,235.87 250.24,236.66 250.37,235.38 250.51,237.56 250.64,235.99 250.78,236.79 250.91,238.13 251.05,236.52 251.18,236.00 251.32,235.29 251.45,235.01 251.59,236.15 251.72,236.27 251.86,234.99 251.99,235.96 252.13,233.69 252.26,236.08 252.40,234.57 252.54,233.51 252.67,237.06 252.81,233.33 252.94,234.49 253.08,235.92 253.21,235.18 253.35,233.86 253.48,233.97 253.62,236.81 253.75,233.64 253.89,235.97 254.02,235.19 254.16,235.45 254.29,235.24 254.43,235.84 254.56,236.00 254.70,236.42 254.83,234.85 254.97,235.17 255.10,237.41 255.24,234.92 255.38,235.57 255.51,236.21 255.65,234.70 255.78,235.88 255.92,235.08 256.05,234.77 256.19,235.06 256.32,235.04 256.46,235.97 256.59,235.38 256.73,236.06 256.86,236.15 257.00,235.71 257.13,235.12 257.27,236.56 257.40,236.85 257.54,235.24 257.67,236.40 257.81,235.78 257.94,235.52 258.08,233.39 258.21,235.25 258.35,236.96 258.49,235.74 258.62,235.60 258.76,235.56 258.89,234.90 259.03,235.37 259.16,235.13 259.30,234.87 259.43,231.44 259.57,235.29 259.70,234.92 259.84,238.09 259.97,235.67 260.11,233.43 260.24,235.17 260.38,235.07 260.51,237.01 260.65,235.28 260.78,234.54 260.92,235.37 261.05,71.53 261.19,358.10 261.32,268.29 261.46,244.04 261.60,237.73 261.73,236.04 261.87,235.87 262.00,235.45 262.14,235.33 262.27,235.49 262.41,235.16 262.54,234.98 262.68,235.30 262.81,234.83 262.95,235.17 263.08,236.01 263.22,236.05 263.35,235.77 263.49,235.61 263.62,234.72 263.76,235.70 263.89,235.31 264.03,235.48 264.16,235.44 264.30,235.71 264.44,235.59 264.57,235.09 264.71,235.71 264.84,236.62 264.98,235.83 265.11,235.34 265.25,235.03 265.38,234.38 265.52,234.30 265.65,235.21 265.79,234.71 265.92,235.14 266.06,234.32 266.19,234.94 266.33,236.04 266.46,236.15 266.60,235.61 266.73,234.63 266.87,235.40 267.00,235.88 267.14,235.54 267.27,235.55 267.41,235.45 267.55,236.55 267.68,237.69 267.82,235.84 267.95,235.35 268.09,235.77 268.22,235.51 268.36,235.45 268.49,235.43 268.63,235.52 268.76,235.35 268.90,235.21 269.03,235.37 269.17,235.31 269.30,233.99 269.44,233.82 269.57,234.52 269.71,233.96 269.84,234.38 269.98,235.98 270.11,235.94 270.25,234.63 270.39,238.11 270.52,236.42 270.66,235.78 270.79,237.11 270.93,234.09 271.06,235.16 271.20,235.54 271.33,235.26 271.47,236.78 271.60,235.97 271.74,235.57 271.87,235.37 272.01,235.31 272.14,235.48 272.28,235.25 272.41,234.16 272.55,233.59 272.68,234.83 272.82,235.17 272.95,234.60 273.09,235.11 273.22,234.59 273.36,235.10 273.50,236.83 273.63,237.76 273.77,236.33 273.90,236.41 274.04,235.59 274.17,235.37 274.31,235.31 274.44,235.39 274.58,235.51 274.71,235.54 274.85,235.45 274.98,235.52 275.12,235.35 275.25,235.40 275.39,235.32 275.52,235.39 275.66,235.32 275.79,235.30 275.93,235.39 276.06,235.32 276.20,235.11 276.33,234.22 276.47,234.44 276.61,234.97 276.74,235.30 276.88,236.04 277.01,234.93 277.15,237.81 277.28,236.06 277.42,235.50 277.55,235.44 277.69,235.43 277.82,235.98 277.96,235.57 278.09,235.65 278.23,235.39 278.36,235.41 278.50,235.51 278.63,235.35 278.77,235.50 278.90,235.35 279.04,235.40 279.17,235.41 279.31,235.14 279.45,234.50 279.58,234.43 279.72,233.84 279.85,235.47 279.99,236.27 280.12,235.37 280.26,234.47 280.39,235.54 280.53,235.73 280.66,235.97 280.80,236.88 280.93,236.47 281.07,235.61 281.20,235.56 281.34,235.55 281.47,235.46 281.61,235.24 281.74,235.56 281.88,235.46 282.01,235.34 282.15,235.40 282.28,235.41 282.42,235.42 282.56,235.42 282.69,235.33 282.83,235.49 282.96,235.44 283.10,233.93 283.23,234.65 283.37,235.40 283.50,235.32 283.64,235.77 283.77,235.70 283.91,235.87 284.04,236.20 284.18,235.63 284.31,235.57 284.45,235.46 284.58,235.62 284.72,235.47 284.85,235.53 284.99,235.54 285.12,235.55 285.26,235.45 285.39,235.43 285.53,235.42 285.67,235.33 285.80,235.40 285.94,235.13 286.07,235.25 286.21,235.37 286.34,233.91 286.48,235.30 286.61,235.39 286.75,234.94 286.88,235.29 287.02,236.23 287.15,236.29 287.29,234.62 287.42,234.74 287.56,237.20 287.69,236.18 287.83,235.72 287.96,235.69 288.10,235.30 288.23,235.20 288.37,234.61 288.51,234.92 288.64,235.38 288.78,235.41 288.91,235.42 289.05,235.61 289.18,235.00 289.32,234.65 289.45,234.75 289.59,235.24 289.72,235.28 289.86,234.45 289.99,236.28 290.13,236.77 290.26,235.78 290.40,235.70 290.53,235.59 290.67,235.56 290.80,235.27 290.94,234.91 291.07,235.10 291.21,234.96 291.34,235.58 291.48,235.65 291.62,235.29 291.75,235.67 291.89,235.49 292.02,235.53 292.16,235.45 292.29,235.43 292.43,235.42 292.56,235.33 292.70,235.30 292.83,235.29 292.97,234.45 293.10,232.26 293.24,234.11 293.37,234.69 293.51,235.51 293.64,235.63 293.78,235.01 293.91,235.12 294.05,235.34 294.18,237.18 294.32,235.98 294.45,238.10 294.59,236.23 294.73,234.23 294.86,234.63 295.00,233.81 295.13,234.33 295.27,239.43 295.40,235.93 295.54,235.74 295.67,235.41 295.81,235.42 295.94,232.99 296.08,234.77 296.21,235.25 296.35,233.50 296.48,233.97 296.62,234.56 296.75,235.66 296.89,236.33 297.02,240.25 297.16,236.81 297.29,235.42 297.43,235.14 297.57,235.44 297.70,235.61 297.84,236.69 297.97,235.85 298.11,235.63 298.24,235.48 298.38,235.15 298.51,235.16 298.65,235.44 298.78,235.52 298.92,235.45 299.05,235.33 299.19,234.37 299.32,234.20 299.46,235.37 299.59,234.94 299.73,234.36 299.86,234.01 300.00,234.29 300.13,235.96 300.27,235.00 300.40,235.31" style="stroke-width: 0.75;"/>
<polyline points="314.74,239.88 314.87,236.24 315.01,236.20 315.14,235.82 315.28,235.53 315.41,235.45 315.55,235.43 315.69,235.52 315.82,235.45 315.96,235.52 316.09,235.54 316.23,235.45 316.36,234.77 316.50,235.25 316.63,234.81 316.77,234.23 316.90,233.70 317.04,234.68 317.17,234.57 317.31,235.00 317.44,234.37 317.58,234.95 317.71,237.07 317.85,238.20 317.98,236.63 318.12,235.28 318.25,236.13 318.39,235.42 318.52,235.98 318.66,235.29 318.80,235.76 318.93,236.26 319.07,235.27 319.20,235.47 319.34,234.78 319.47,235.15 319.61,234.23 319.74,232.11 319.88,230.51 320.01,233.54 320.15,235.57 320.28,238.73 320.42,236.96 320.55,234.24 320.69,235.01 320.82,234.84 320.96,234.24 321.09,234.26 321.23,237.92 321.36,240.49 321.50,236.78 321.64,235.41 321.77,233.27 321.91,237.46 322.04,237.09 322.18,236.15 322.31,235.15 322.45,236.38 322.58,235.68 322.72,234.46 322.85,234.04 322.99,234.68 323.12,233.44 323.26,230.12 323.39,233.72 323.53,237.12 323.66,237.28 323.80,235.92 323.93,236.30 324.07,236.03 324.20,234.09 324.34,235.44 324.47,237.86 324.61,236.45 324.75,235.13 324.88,236.56 325.02,235.54 325.15,236.67 325.29,235.66 325.42,235.95 325.56,235.47 325.69,234.97 325.83,234.08 325.96,234.97 326.10,236.23 326.23,234.80 326.37,234.41 326.50,231.97 326.64,232.53 326.77,232.59 326.91,233.82 327.04,237.24 327.18,237.59 327.31,236.56 327.45,234.51 327.58,237.42 327.72,239.98 327.86,236.64 327.99,231.82 328.13,235.30 328.26,235.85 328.40,236.75 328.53,239.52 328.67,236.89 328.80,235.07 328.94,235.98 329.07,235.48 329.21,232.07 329.34,237.98 329.48,235.92 329.61,233.22 329.75,234.46 329.88,235.82 330.02,235.06 330.15,234.76 330.29,233.65 330.42,230.92 330.56,235.15 330.70,234.13 330.83,235.26 330.97,237.62 331.10,237.69 331.24,238.46 331.37,237.92 331.51,236.00 331.64,236.04 331.78,235.68" style="stroke-width: 0.75;"/>
<polyline points="332.05,236.05 332.18,235.40 332.32,234.95 332.45,235.11 332.59,235.43 332.72,236.83 332.86,234.77 332.99,234.87 333.13,234.90 333.26,232.19 333.40,232.68 333.53,233.56 333.67,233.80 333.81,235.83 333.94,237.77 334.08,233.15 334.21,235.56 334.35,236.58 334.48,236.11 334.62,238.13 334.75,239.98 334.89,236.55 335.02,233.57 335.16,237.54 335.29,237.30 335.43,236.02 335.56,235.67 335.70,235.49 335.83,235.25 335.97,235.37 336.10,235.41 336.24,235.32 336.37,235.11 336.51,233.65 336.64,230.74 336.78,233.98 336.92,231.85 337.05,234.28 337.19,234.55 337.32,235.37 337.46,235.69 337.59,235.87 337.73,235.07 337.86,235.51 338.00,235.54 338.13,236.20 338.27,236.28 338.40,236.40 338.54,237.65 338.67,236.77 338.81,236.34 338.94,236.70 339.08,235.11 339.21,235.34 339.35,231.19 339.48,232.04 339.62,233.86 339.76,234.91 339.89,234.16 340.03,234.90 340.16,238.27 340.30,238.62 340.43,232.82 340.57,235.56 340.70,234.99 340.84,235.31" style="stroke-width: 0.75;"/>
<polyline points="341.11,243.43 341.24,238.60 341.38,235.52 341.51,231.43 341.65,231.64 341.78,237.12 341.92,234.38 342.05,235.70 342.19,236.06 342.32,235.78 342.46,235.52 342.59,238.16 342.73,236.81 342.87,236.07 343.00,236.25 343.14,235.74 343.27,235.60 343.41,235.56 343.54,235.55 343.68,235.64 343.81,235.48 343.95,237.40 344.08,236.42 344.22,235.87 344.35,235.82 344.49,235.62 344.62,235.38 344.76,235.60 344.89,235.75 345.03,235.51 345.16,235.63 345.30,235.57 345.43,235.46 345.57,235.62 345.71,235.47 345.84,235.15 345.98,234.41 346.11,234.87 346.25,235.27 346.38,235.29 346.52,235.38 346.65,235.13 346.79,235.25 346.92,235.65 347.06,235.58 347.19,235.27 347.33,235.38 347.46,235.88 347.60,235.73 347.73,235.78 347.87,235.33 348.00,235.30 348.14,235.86 348.27,235.72 348.41,235.60 348.54,235.37 348.68,235.22 348.82,235.18 348.95,235.26 349.09,235.28 349.22,235.48 349.36,235.34 349.49,235.40 349.63,235.60 349.76,235.38 349.90,235.22 350.03,235.46 350.17,235.90 350.30,235.64 350.44,235.29 350.57,235.29 350.71,235.20 350.84,235.17 350.98,235.26 351.11,235.28 351.25,235.29 351.38,235.39 351.52,235.41 351.65,234.58 351.79,234.35 351.93,234.85 352.06,235.17 352.20,235.45 352.33,235.80 352.47,235.34 352.60,235.21 352.74,235.55 352.87,235.36 353.01,235.22 353.14,235.18 353.28,234.98 353.41,235.02 353.55,235.22 353.68,235.09 353.82,235.52 353.95,235.73 354.09,235.69 354.22,236.05 354.36,236.15 354.49,236.55 354.63,235.91 354.77,235.55 354.90,235.36 355.04,235.50 355.17,235.25 355.31,235.28 355.44,235.20 355.58,235.17 355.71,235.35 355.85,235.31 355.98,235.30 356.12,235.48 356.25,235.34 356.39,235.31 356.52,235.48 356.66,235.72 356.79,235.78 356.93,235.14 357.06,235.81 357.20,235.71 357.33,235.40 357.47,235.04 357.60,235.23 357.74,235.65 357.88,235.48 358.01,235.34 358.15,235.40 358.28,235.32 358.42,235.39 358.55,235.41 358.69,235.42 358.82,235.23 358.96,235.09 359.09,235.14 359.23,235.25 359.36,235.47 359.50,235.43 359.63,235.70 359.77,235.50 359.90,235.25 360.04,235.09 360.17,236.08 360.31,235.78 360.44,235.61 360.58,235.47 360.71,235.43 360.85,235.33 360.99,235.40 361.12,235.51 361.26,235.44 361.39,235.33 361.53,234.46 361.66,235.82 361.80,234.31 361.93,235.03 362.07,236.44 362.20,236.07 362.34,235.69 362.47,235.49 362.61,235.44 362.74,235.43 362.88,235.42 363.01,235.42 363.15,235.33 363.28,235.39 363.42,235.23 363.55,234.99 363.69,234.84 363.83,235.64 363.96,235.95 364.10,235.47 364.23,235.53 364.37,235.45 364.50,235.43 364.64,235.42 364.77,235.61 364.91,235.66 365.04,235.58 365.18,235.56 365.31,235.55 365.45,235.45 365.58,235.34 365.72,235.30 365.85,235.20 365.99,235.17 366.12,234.79 366.26,235.06 366.39,235.42 366.53,235.14 366.66,235.16 366.80,235.54 366.94,235.54 367.07,235.64 367.21,235.57 367.34,235.27 367.48,235.38 367.61,235.41 367.75,235.32 367.88,235.49 368.02,235.44 368.15,235.33 368.29,235.40 368.42,235.23 368.56,235.56 368.69,235.83 368.83,235.53 368.96,235.17 369.10,235.35 369.23,235.03 369.37,235.41 369.50,235.51 369.64,235.54 369.77,235.45 369.91,235.52 370.05,235.54 370.18,235.36 370.32,235.59 370.45,235.47 370.59,235.71 370.72,235.87 370.86,235.82 370.99,235.53 371.13,235.45 371.26,235.43 371.40,235.42 371.53,235.33 371.67,235.40 371.80,235.51 371.94,235.35 372.07,235.49 372.21,235.35 372.34,235.40 372.48,235.13 372.61,234.97 372.75,235.02 372.89,235.03 373.02,235.32 373.16,235.39 373.29,235.32 373.43,234.64 373.56,234.93 373.70,234.82 373.83,235.07 373.97,235.89 374.10,234.42 374.24,236.65 374.37,236.40 374.51,236.24 374.64,235.73 374.78,235.50 374.91,235.63 375.05,235.57 375.18,235.46 375.32,235.34 375.45,235.49 375.59,235.44 375.72,235.43 375.86,234.86 376.00,235.36 376.13,234.84 376.27,234.80 376.40,234.69 376.54,234.48 376.67,234.79 376.81,235.06 376.94,235.79 377.08,236.55 377.21,236.10 377.35,234.57 377.48,235.29 377.62,236.04 377.75,235.77 377.89,235.70 378.02,235.68 378.16,235.49 378.29,235.25 378.43,235.37 378.56,235.60 378.70,235.84 378.84,235.53 378.97,235.36 379.11,235.40 379.24,235.42 379.38,235.51 379.51,235.54 379.65,235.45 379.78,235.52 379.92,235.45 380.05,235.43 380.19,235.42 380.32,235.51 380.46,235.54 380.59,235.45 380.73,235.52 380.86,235.45 381.00,235.43 381.13,235.42 381.27,235.42 381.40,235.51 381.54,235.45 381.67,235.43 381.81,235.42 381.95,235.42 382.08,235.42 382.22,235.05 382.35,235.23 382.49,235.65 382.62,235.39 382.76,235.04 382.89,234.94 383.03,235.57 383.16,235.37 383.30,236.06 383.43,235.40 383.57,234.85 383.70,234.52 383.84,236.11 383.97,235.33 384.11,234.74 384.24,236.08 384.38,235.41 384.51,235.32 384.65,235.21 384.78,235.83 384.92,236.09 385.06,235.32 385.19,234.74 385.33,234.68 385.46,235.31 385.60,235.30 385.73,236.42 385.87,235.59 386.00,235.37 386.14,235.69 386.27,235.40 386.41,234.85 386.54,234.52 386.68,234.15 386.81,234.05 386.95,235.33 387.08,233.90 387.22,236.42 387.35,238.87 387.49,235.78 387.62,235.42 387.76,235.61 387.90,235.10 388.03,235.24 388.17,235.00 388.30,236.06 388.44,234.65 388.57,235.50 388.71,234.97 388.84,235.49 388.98,235.44 389.11,235.80 389.25,235.62 389.38,235.38 389.52,235.50 389.65,235.44 389.79,235.24 389.92,235.65 390.06,235.11 390.19,234.21 390.33,234.16 390.46,235.18 390.60,235.26 390.73,235.85 390.87,234.79 391.01,235.16 391.14,234.60 391.28,235.48 391.41,235.90 391.55,235.74 391.68,235.50 391.82,235.44 391.95,234.96 392.09,235.95 392.22,235.75 392.36,237.66 392.49,236.02 392.63,235.58 392.76,235.37 392.90,235.31 393.03,234.83 393.17,234.33 393.30,234.38 393.44,233.08 393.57,234.23 393.71,235.01 393.84,235.31 393.98,235.48 394.12,236.00 394.25,236.60 394.39,235.92 394.52,237.52 394.66,236.54 394.79,235.91 394.93,235.83 395.06,235.81 395.20,235.52 395.33,235.45 395.47,235.52 395.60,235.45 395.74,235.43 395.87,235.42 396.01,235.42 396.14,235.51 396.28,235.63 396.41,236.04 396.55,235.59 396.68,235.18 396.82,234.51 396.96,233.87 397.09,235.00 397.23,235.12 397.36,234.87 397.50,235.46 397.63,235.15 397.77,235.91 397.90,235.55 398.04,235.08 398.17,235.05 398.31,235.23 398.44,235.37" style="stroke-width: 0.75;"/>
<polyline points="398.71,235.13 398.85,236.00 398.98,236.42 399.12,237.46 399.25,233.07 399.39,234.51 399.52,235.08 399.66,235.42 399.79,235.61 399.93,235.56 400.07,235.27 400.20,235.29 400.34,235.29" style="stroke-width: 0.75;"/>
<polyline points="400.61,235.48 400.74,235.44 400.88,235.52 401.01,235.54 401.15,235.73 401.28,235.60 401.42,235.75 401.55,235.79 401.69,235.80 401.82,235.52 401.96,235.26 402.09,235.47 402.23,235.43 402.36,235.52 402.50,235.63" style="stroke-width: 0.75;"/>
<polyline points="402.77,234.82 402.90,235.26 403.04,235.66 403.18,235.48 403.31,235.53 403.45,235.45 403.58,236.27 403.72,235.65 403.85,235.67 403.99,236.05 404.12,235.68 404.26,235.21 404.39,235.36 404.53,235.40 404.66,235.32 404.80,235.30 404.93,235.11 405.07,235.06 405.20,235.04 405.34,235.51 405.47,235.63 405.61,235.66 405.74,235.49 405.88,235.44 406.02,235.42 406.15,235.23 406.29,235.18 406.42,234.89 406.56,235.46 406.69,234.96 406.83,234.08 406.96,235.62 407.10,235.66 407.23,234.18 407.37,233.50 407.50,238.18 407.64,234.85 407.77,236.48 407.91,235.52 408.04,234.51 408.18,235.08 408.31,235.42 408.45,235.42 408.58,234.67 408.72,234.75 408.85,234.96 408.99,234.92 409.13,235.10 409.26,235.52 409.40,235.35 409.53,235.40 409.67,235.32 409.80,235.39 409.94,236.35 410.07,235.67 410.21,235.11 410.34,235.99 410.48,236.04 410.61,235.03 410.75,235.88 410.88,234.89 411.02,234.72 411.15,235.98 411.29,235.29 411.42,235.01 411.56,235.50 411.69,234.69 411.83,235.04 411.97,235.50 412.10,235.26 412.24,235.56 412.37,235.27 412.51,235.29 412.64,235.76 412.78,235.60 412.91,235.56 413.05,235.46 413.18,235.24 413.32,235.00 413.45,235.40 413.59,234.85 413.72,235.36 413.86,235.78 413.99,235.61 414.13,235.56 414.26,235.08 414.40,235.33 414.53,235.86 414.67,235.73 414.80,235.88 414.94,235.54 415.08,235.73 415.21,235.22 415.35,235.27 415.48,235.47 415.62,235.43 415.75,235.52 415.89,235.26 416.02,235.38 416.16,235.50 416.29,235.54 416.43,235.45 416.56,235.43 416.70,235.42 416.83,235.42 416.97,235.14 417.10,235.34 417.24,235.12 417.37,235.71 417.51,235.69 417.64,235.30 417.78,235.39 417.91,235.41 418.05,235.51 418.19,235.44 418.32,235.43 418.46,235.42 418.59,235.33 418.73,235.49 418.86,235.53 419.00,235.45 419.13,235.43 419.27,235.33 419.40,235.58 419.54,235.46 419.67,235.43 419.81,235.52 419.94,235.45 420.08,235.52 420.21,235.35 420.35,235.31 420.48,235.30 420.62,235.48 420.75,235.53 420.89,235.45 421.03,235.24 421.16,235.18 421.30,235.36 421.43,235.50 421.57,235.25 421.70,235.75 421.84,235.41 421.97,235.70 422.11,235.68 422.24,235.40 422.38,235.60 422.51,235.37 422.65,235.22 422.78,235.37 422.92,235.31 423.05,235.20 423.19,235.27 423.32,235.85 423.46,235.53 423.59,235.08 423.73,234.95 423.86,235.01 424.00,235.31 424.14,235.95 424.27,235.09 424.41,235.71 424.54,235.31 424.68,234.83 424.81,235.45 424.95,235.33 425.08,234.46 425.22,235.07 425.35,236.17 425.49,235.71 425.62,235.59 425.76,235.56 425.89,235.46 426.03,235.43 426.16,235.52 426.30,235.54 426.43,235.45 426.57,234.59 426.70,235.29 426.84,235.39 426.97,234.57 427.11,233.41 427.25,234.04 427.38,236.17 427.52,236.00 427.65,233.33 427.79,232.90 427.92,235.12 428.06,238.05 428.19,237.06 428.33,237.45 428.46,236.15 428.60,236.08 428.73,235.97 428.87,235.57 429.00,235.55 429.14,235.46 429.27,236.08 429.41,235.79 429.54,235.52 429.68,235.73 429.81,235.88 429.95,235.64 430.09,235.57 430.22,235.46 430.36,235.43 430.49,235.42 430.63,235.14 430.76,234.60 430.90,234.45 431.03,234.88 431.17,235.09 431.30,234.86 431.44,234.90 431.57,234.25 431.71,236.70 431.84,236.79 431.98,236.44 432.11,235.41 432.25,235.42 432.38,236.64 432.52,235.75 432.65,234.95 432.79,236.32 432.92,236.78 433.06,236.07 433.20,235.69 433.33,235.59 433.47,235.46 433.60,234.68 433.74,235.04 433.87,233.82 434.01,233.21 434.14,234.36 434.28,233.92 434.41,234.64 434.55,233.15 434.68,234.53 434.82,234.90 434.95,235.09 435.09,235.52 435.22,235.73 435.36,237.37 435.49,235.94 435.63,237.06 435.76,236.51 435.90,237.49 436.03,236.35 436.17,235.95 436.31,236.31 436.44,235.94 436.58,235.56 436.71,235.46 436.85,235.06 436.98,235.32 437.12,231.84 437.25,234.55 437.39,235.00 437.52,234.75 437.66,235.15 437.79,235.81 437.93,234.68 438.06,235.22 438.20,235.37 438.33,235.31 438.47,235.48 438.60,235.53 438.74,236.76 438.87,236.62 439.01,236.02 439.15,236.24 439.28,235.92 439.42,235.46 439.55,235.43 439.69,235.24 439.82,234.44 439.96,234.41 440.09,235.06 440.23,235.14 440.36,234.60 440.50,235.76 440.63,235.70 440.77,235.31 440.90,235.48 441.04,235.16 441.17,235.63 441.31,234.82 441.44,235.07 441.58,235.79 441.71,236.74 441.85,235.49 441.98,236.00 442.12,235.86 442.26,235.16 442.39,235.16 442.53,234.79 442.66,234.88 442.80,234.99 442.93,235.31 443.07,235.39 443.20,235.32 443.34,235.30 443.47,235.39 443.61,235.41 443.74,235.51 443.88,235.44 444.01,235.33 444.15,235.58 444.28,235.46 444.42,235.43 444.55,235.52 444.69,235.63 444.82,236.69 444.96,239.04 445.10,236.58 445.23,235.82 445.37,235.62 445.50,235.57 445.64,235.65 445.77,235.57 445.91,235.55 446.04,235.55 446.18,235.45 446.31,235.43 446.45,235.52 446.58,235.45 446.72,235.43 446.85,235.42 446.99,235.33 447.12,235.02 447.26,235.78 447.39,234.39 447.53,234.58 447.66,234.54 447.80,234.90 447.93,232.85 448.07,236.04 448.21,235.40 448.34,234.85 448.48,234.80 448.61,235.53 448.75,235.73 448.88,234.57 449.02,235.00 449.15,235.22 449.29,235.46 449.42,235.62 449.56,235.10 449.69,235.43 449.83,235.70 449.96,236.34 450.10,235.95 450.23,234.63 450.37,233.06 450.50,234.13 450.64,234.05 450.77,234.02 450.91,236.26 451.04,237.05 451.18,235.76 451.32,234.58 451.45,236.78 451.59,236.35 451.72,235.20 451.86,234.99 451.99,235.21 452.13,235.27 452.26,237.62 452.40,234.23 452.53,233.23 452.67,234.18 452.80,234.53 452.94,240.23 453.07,237.18 453.21,237.01 453.34,235.57 453.48,235.46 453.61,235.06 453.75,235.14 453.88,237.21 454.02,232.25 454.16,233.64 454.29,233.91 454.43,231.37 454.56,235.92 454.70,236.30 454.83,236.31 454.97,235.28 455.10,234.73 455.24,234.58 455.37,243.99 455.51,237.44 455.64,236.43 455.78,236.72 455.91,235.58 456.05,234.81 456.18,235.26 456.32,235.56 456.45,234.06 456.59,234.77 456.72,235.34 456.86,235.40 456.99,235.88 457.13,235.26 457.27,235.85 457.40,230.95 457.54,233.01 457.67,235.52 457.81,236.01 457.94,235.48 458.08,237.96 458.21,236.85 458.35,237.95 458.48,235.91 458.62,235.27 458.75,235.01 458.89,234.65 459.02,234.93 459.16,236.23 459.29,236.01 459.43,237.07 459.56,235.68 459.70,235.30 459.83,235.58 459.97,235.74 460.10,235.69 460.24,235.49 460.38,235.07 460.51,235.61 460.65,235.10 460.78,235.24 460.92,235.28 461.05,235.29 461.19,234.64 461.32,235.86 461.46,236.38 461.59,234.65 461.73,236.15 461.86,235.71 462.00,235.59 462.13,235.56 462.27,235.36 462.40,235.31 462.54,235.02 462.67,235.50 462.81,235.35 462.94,235.49 463.08,235.35 463.22,235.68 463.35,235.40 463.49,235.23 463.62,234.71 463.76,234.30 463.89,233.62 464.03,234.00 464.16,235.13 464.30,234.31 464.43,234.94 464.57,234.92 464.70,235.19 464.84,236.01 464.97,239.23 465.11,237.75 465.24,237.07 465.38,233.34 465.51,237.29 465.65,235.74 465.78,235.88 465.92,235.64 466.05,235.48 466.19,235.15 466.33,236.10 466.46,235.23 466.60,234.99 466.73,235.21 466.87,235.08 467.00,235.42 467.14,233.64 467.27,231.95 467.41,232.90 467.54,234.46 467.68,234.32 467.81,235.87 467.95,235.45 468.08,234.40 468.22,239.26 468.35,240.85 468.49,236.31 468.62,236.22 468.76,235.92 468.89,236.21 469.03,235.63 469.16,235.10 469.30,235.33 469.44,235.49 469.57,235.53 469.71,234.89 469.84,235.46 469.98,235.24 470.11,235.37 470.25,235.50 470.38,235.44 470.52,235.43 470.65,235.23 470.79,235.18 470.92,235.26 471.06,235.38 471.19,234.29 471.33,235.86 471.46,235.91 471.60,235.27 471.73,235.29 471.87,235.57 472.00,235.46 472.14,235.62 472.28,235.85 472.41,235.25 472.55,235.47 472.68,235.53 472.82,235.45 472.95,235.52 473.09,235.35 473.22,235.40 473.36,235.42 473.49,235.33 473.63,235.49 473.76,235.44 473.90,235.42 474.03,234.67 474.17,235.50 474.30,233.10 474.44,235.36 474.57,235.22 474.71,235.27 474.84,235.85 474.98,235.53 475.11,235.08 475.25,235.52 475.39,236.38 475.52,236.61 475.66,235.55 475.79,236.02 475.93,235.30 476.06,235.29 476.20,235.01 476.33,234.84 476.47,234.05 476.60,234.68 476.74,233.91 476.87,233.33 477.01,234.39 477.14,235.14 477.28,236.00 477.41,235.30 477.55,235.48 477.68,235.53 477.82,236.01 477.95,234.92 478.09,236.32 478.23,236.78 478.36,237.84 478.50,237.29 478.63,235.36 478.77,236.25 478.90,236.20 479.04,235.82 479.17,235.25 479.31,235.75 479.44,235.41 479.58,235.51 479.71,235.54 479.85,235.55 479.98,235.55 480.12,234.99 480.25,235.02 480.39,234.66 480.52,235.12 480.66,235.62 480.79,232.57 480.93,233.44 481.06,233.86 481.20,236.50 481.34,235.99 481.47,233.80 481.61,234.33 481.74,233.82 481.88,234.24 482.01,235.95 482.15,237.15 482.28,236.45 482.42,237.75 482.55,237.73 482.69,235.38 482.82,232.79 482.96,234.06 483.09,235.24 483.23,235.93 483.36,237.33 483.50,234.44 483.63,234.13 483.77,232.17 483.90,233.90 484.04,232.30 484.17,233.09 484.31,235.64 484.45,233.89 484.58,235.57 484.72,232.93 484.85,234.19 484.99,234.90 485.12,241.83 485.26,241.63 485.39,241.29 485.53,237.74 485.66,236.70 485.80,235.86 485.93,235.26 486.07,235.38 486.20,235.60 486.34,235.47 486.47,235.43 486.61,235.33 486.74,235.40 486.88,235.51 487.01,235.82 487.15,235.25 487.29,235.28 487.42,234.91 487.56,232.85 487.69,232.95 487.83,235.69 487.96,236.34 488.10,235.57 488.23,233.96 488.37,233.91 488.50,235.20 488.64,236.11 488.77,236.54 488.91,235.81 489.04,235.90 489.18,236.02 489.31,235.67 489.45,235.67 489.58,237.92 489.72,236.46 489.85,235.89 489.99,235.73 490.12,236.25 490.26,237.98 490.40,236.95 490.53,236.11 490.67,235.23 490.80,233.40 490.94,232.73 491.07,234.04 491.21,235.05 491.34,236.54 491.48,236.00 491.61,235.39 491.75,235.22 491.88,235.37 492.02,235.13 492.15,237.40 492.29,235.67 492.42,236.52 492.56,237.12 492.69,236.62 492.83,238.74 492.96,233.60 493.10,235.40 493.23,236.07 493.37,234.94 493.51,237.44 493.64,237.65 493.78,233.86 493.91,233.69 494.05,235.24 494.18,234.53 494.32,234.90 494.45,235.94 494.59,235.93 494.72,235.46 494.86,234.59 494.99,235.01 495.13,234.19 495.26,236.03 495.40,235.86 495.53,236.10 495.67,235.79 495.80,237.30 495.94,237.05 496.07,236.88 496.21,235.72 496.35,235.41 496.48,235.42 496.62,235.61 496.75,235.28 496.89,235.48 497.02,235.72 497.16,235.78 497.29,235.33 497.43,233.71 497.56,233.28 497.70,234.10 497.83,235.44 497.97,235.24 498.10,236.40 498.24,237.37 498.37,236.32 498.51,235.94 498.64,235.56 498.78,235.36 498.91,233.72 499.05,235.62 499.18,236.41 499.32,235.97 499.46,235.66 499.59,235.48 499.73,235.34 499.86,235.59 500.00,235.56 500.13,236.21 500.27,235.54 500.40,235.45 500.54,235.24 500.67,235.00 500.81,235.31 500.94,235.58 501.08,235.18 501.21,234.70 501.35,234.57 501.48,234.63 501.62,234.74 501.75,234.77 501.89,234.97 502.02,235.20 502.16,235.83 502.29,235.16 502.43,236.38 502.57,235.58 502.70,235.00 502.84,235.68 502.97,235.12 503.11,235.71 503.24,235.50 503.38,235.72 503.51,235.78 503.65,235.24 503.78,235.09 503.92,236.83 504.05,237.20 504.19,234.03 504.32,234.86 504.46,235.74 504.59,235.41 504.73,235.79 504.86,234.96 505.00,235.30 505.13,236.60 505.27,236.49 505.41,235.42 505.54,235.42 505.68,235.14 505.81,236.00 505.95,235.86 506.08,237.22 506.22,237.49 506.35,236.44 506.49,235.97 506.62,235.29 506.76,235.20 506.89,236.58 507.03,236.67 507.16,235.38 507.30,236.06 507.43,237.65 507.57,235.92 507.70,235.65 507.84,235.29 507.97,235.29 508.11,235.11 508.24,234.96 508.38,234.55 508.52,234.81 508.65,234.79 508.79,234.88 508.92,235.09 509.06,235.14 509.19,235.25 509.33,235.28 509.46,235.29 509.60,235.57 509.73,235.55 509.87,235.46 510.00,235.52 510.14,235.54 510.27,235.36 510.41,235.68 510.54,235.68 510.68,235.86 510.81,233.20 510.95,237.54 511.08,234.96 511.22,236.51 511.36,235.25 511.49,233.41 511.63,235.63 511.76,235.01 511.90,235.03 512.03,235.60 512.17,235.09 512.30,235.15 512.44,235.53 512.57,235.26 512.71,235.47 512.84,233.47 512.98,233.77 513.11,234.89 513.25,236.87 513.38,235.43 513.52,235.70 513.65,235.03 513.79,235.22 513.92,236.49 514.06,235.61 514.19,235.28 514.33,235.01 514.47,235.96 514.60,235.19 514.74,235.27 514.87,235.19 515.01,235.36 515.14,235.59 515.28,235.37 515.41,235.59 515.55,234.81 515.68,235.16 515.82,235.35 515.95,234.75 516.09,234.87 516.22,236.11 516.36,235.04 516.49,235.79 516.63,235.52 516.76,235.26 516.90,235.66 517.03,235.11 517.17,235.15 517.30,235.63 517.44,235.29 517.58,234.54 517.71,235.28 517.85,234.91 517.98,235.75 518.12,235.42 518.25,235.51 518.39,235.82 518.52,235.43 518.66,235.42 518.79,235.14 518.93,235.44 519.06,235.52 519.20,235.63 519.33,235.48 519.47,235.34 519.60,235.31 519.74,235.39 519.87,235.22 520.01,234.99 520.14,235.31 520.28,235.39 520.42,235.60 520.55,235.37 520.69,235.31 520.82,235.58 520.96,235.37 521.09,235.50 521.23,235.91 521.36,235.64 521.50,235.29 521.63,235.67 521.77,235.30 521.90,235.20 522.04,235.55 522.17,235.55 522.31,235.17 522.44,234.70 522.58,235.69 522.71,235.31 522.85,235.20 522.98,235.08 523.12,234.02 523.25,235.23 523.39,235.84 523.53,232.26 523.66,234.01 523.80,235.42 523.93,229.81 524.07,235.97 524.20,232.01 524.34,240.12 524.47,234.90 524.61,234.91 524.74,233.22 524.88,234.55 525.01,235.19 525.15,236.95 525.28,235.46 525.42,234.96 525.55,236.98 525.69,232.47 525.82,233.88 525.96,237.44 526.09,237.64 526.23,235.08 526.36,235.52 526.50,235.82 526.64,239.27 526.77,237.20 526.91,235.71 527.04,235.31 527.18,235.67 527.31,230.81 527.45,231.57 527.58,234.57 527.72,235.19 527.85,235.83 527.99,236.75 528.12,235.78 528.26,235.80 528.39,235.99 528.53,235.48 528.66,235.90 528.80,237.14 528.93,236.91 529.07,235.26 529.20,234.82 529.34,235.35 529.48,235.59 529.61,235.65 529.75,235.67 529.88,235.39 530.02,235.32 530.15,235.77 530.29,235.51 530.42,235.35 530.56,235.40 530.69,235.42 530.83,235.61 530.96,235.38 531.10,234.85 531.23,234.42 531.37,234.41 531.50,234.40 531.64,235.15 531.77,235.07 531.91,234.39 532.04,234.30 532.18,234.93 532.31,233.33 532.45,235.70 532.59,237.74 532.72,236.23 532.86,234.98 532.99,236.05 533.13,235.78 533.26,234.11 533.40,234.51 533.53,239.01 533.67,237.60 533.80,235.26 533.94,235.00 534.07,235.40 534.21,235.23 534.34,235.84 534.48,235.72 534.61,234.38 534.75,233.36 534.88,235.62 535.02,234.82 535.15,235.07 535.29,235.23 535.42,235.56 535.56,236.39 535.70,235.40 535.83,236.07 535.97,234.94 536.10,235.29 536.24,235.57 536.37,236.40 536.51,236.06 536.64,235.68 536.78,235.68 536.91,235.49 537.05,235.44 537.18,235.52 537.32,235.45 537.45,235.33 537.59,235.40 537.72,235.60 537.86,235.56 537.99,235.36 538.13,235.69 538.26,235.77 538.40,235.42 538.54,234.95 538.67,235.11 538.81,235.62 538.94,235.75 539.08,235.32 539.21,235.58 539.35,235.65 539.48,235.39 539.62,235.60 539.75,235.28 539.89,235.20 540.02,235.17 540.16,235.54 540.29,235.64 540.43,235.20 540.56,235.64 540.70,235.76 540.83,235.14 540.97,235.62 541.10,235.29 541.24,235.38 541.37,235.41 541.51,235.42 541.65,235.61 541.78,235.10 541.92,235.24 542.05,235.84 542.19,235.53 542.32,235.36 542.46,235.03 542.59,235.03 542.73,235.04 542.86,235.32 543.00,235.21 543.13,235.27 543.27,235.47 543.40,235.34 543.54,235.49 543.67,235.44 543.81,235.43 543.94,235.51 544.08,235.63 544.21,235.20 544.35,234.99 544.48,235.30 544.62,232.30 544.76,233.09 544.89,233.20 545.03,234.92 545.16,236.69 545.30,236.98 545.43,238.08 545.57,236.51 545.70,235.99 545.84,235.67 545.97,235.77 546.11,235.79 546.24,234.68 546.38,235.69 546.51,236.05 546.65,235.96 546.78,237.62 546.92,236.01 547.05,235.48 547.19,233.85 547.32,234.34 547.46,236.07 547.60,234.56 547.73,235.00 547.87,234.75 548.00,235.33 548.14,235.49 548.27,235.53 548.41,235.64 548.54,235.67 548.68,235.67 548.81,235.39 548.95,235.32 549.08,235.11 549.22,235.52 549.35,235.64 549.49,235.48 549.62,235.25 549.76,235.19 549.89,235.54 550.03,235.36 550.16,235.31 550.30,235.20 550.43,235.36 550.57,235.40 550.71,235.14 550.84,234.78 550.98,235.34 551.11,235.03 551.25,232.41 551.38,233.77 551.52,234.51 551.65,234.52 551.79,235.46 551.92,237.68 552.06,237.71 552.19,236.13 552.33,234.95 552.46,235.01 552.60,234.56 552.73,232.48 552.87,238.93 553.00,238.51 553.14,237.00 553.27,235.84 553.41,235.53 553.55,234.80 553.68,234.88 553.82,235.18 553.95,234.98 554.09,235.30 554.22,233.80 554.36,233.49 554.49,233.78 554.63,234.98 554.76,237.45 554.90,235.68 555.03,232.97 555.17,234.86 555.30,236.20 555.44,237.22 555.57,237.40 555.71,236.32 555.84,235.66 555.98,235.48 556.11,235.44 556.25,234.02 556.38,235.51 556.52,235.82 556.66,237.68 556.79,234.90 556.93,235.75 557.06,235.32 557.20,235.67 557.33,235.39 557.47,234.85 557.60,233.49 557.74,234.44 557.87,234.88 558.01,234.53 558.14,234.99 558.28,235.21 558.41,235.74 558.55,235.32 558.68,235.67 558.82,239.04 558.95,236.48 559.09,235.80 559.22,235.52 559.36,235.35 559.49,235.50 559.63,235.25 559.77,235.38 559.90,235.31 560.04,235.49 560.17,235.34 560.31,235.49 560.44,235.44 560.58,235.43 560.71,235.42 560.85,234.77 560.98,234.40 561.12,234.87 561.25,235.93 561.39,235.84 561.52,235.34 561.66,235.68 561.79,235.68 561.93,235.77 562.06,235.61 562.20,235.47 562.33,235.43 562.47,235.42 562.61,235.33 562.74,235.49 562.88,235.34 563.01,235.59 563.15,235.46 563.28,235.71 563.42,235.69 563.55,235.21 563.69,234.90 563.82,235.09 563.96,234.77 564.09,235.06 564.23,234.39 564.36,235.70 564.50,233.53 564.63,233.79 564.77,234.52 564.90,234.43 565.04,234.69 565.17,235.78 565.31,236.73 565.44,236.89 565.58,237.78 565.72,234.74 565.85,234.49 565.99,234.89 566.12,235.00 566.26,235.21 566.39,238.73 566.53,236.59 566.66,235.73 566.80,235.32 566.93,234.92 567.07,234.45 567.20,234.97 567.34,234.55 567.47,234.72 567.61,235.14 567.74,235.53 567.88,235.64 568.01,235.76 568.15,235.51 568.28,235.54 568.42,235.64 568.55,235.67 568.69,235.02 568.83,235.41 568.96,236.35 569.10,235.76 569.23,235.51 569.37,235.35 569.50,235.50 569.64,234.79 569.77,234.41 569.91,235.34 570.04,237.17 570.18,234.02 570.31,236.26 570.45,234.52 570.58,235.18 570.72,235.07 570.85,234.86 570.99,233.12 571.12,235.08 571.26,234.21 571.39,234.44 571.53,234.78 571.67,235.53 571.80,236.10 571.94,235.51 572.07,236.01 572.21,234.92 572.34,234.91 572.48,235.00 572.61,237.83 572.75,239.90 572.88,236.62 573.02,233.68 573.15,235.14 573.29,237.87 573.42,236.17 573.56,234.87 573.69,234.99 573.83,233.72 573.96,234.78 574.10,234.59 574.23,234.82 574.37,233.20 574.50,234.17 574.64,236.21 574.78,235.91 574.91,235.18 575.05,234.89 575.18,236.12 575.32,236.08 575.45,236.81 575.59,239.53 575.72,235.03 575.86,234.57 575.99,235.47 576.13,237.96 576.26,236.29 576.40,235.75 576.53,235.13 576.67,234.78 576.80,234.97 576.94,234.92 577.07,235.57 577.21,235.55 577.34,235.36 577.48,235.40 577.61,235.42 577.75,235.51 577.89,233.48 578.02,233.96 578.16,235.31 578.29,234.83 578.43,237.60 578.56,237.31 578.70,236.11 578.83,235.89 578.97,235.73 579.10,236.44 579.24,236.07 579.37,235.50 579.51,235.44 579.64,235.33 579.78,235.40 579.91,235.13 580.05,235.34 580.18,235.40 580.32,235.32 580.45,235.58 580.59,235.46 580.73,235.62 580.86,235.38 581.00,235.50 581.13,234.51 581.27,234.80 581.40,232.92 581.54,232.88 581.67,236.14 581.81,235.52 581.94,237.88 582.08,236.73 582.21,237.08 582.35,235.87 582.48,235.17 582.62,235.73 582.75,235.50 582.89,235.54 583.02,235.45 583.16,235.43 583.29,235.33 583.43,234.83 583.56,235.17 583.70,235.45 583.84,235.71 583.97,235.59 584.11,235.47 584.24,234.78 584.38,235.15 584.51,234.97 584.65,235.11 584.78,234.59 584.92,233.98 585.05,226.90 585.19,233.88 585.32,238.47 585.46,236.33 585.59,238.00 585.73,236.11 585.86,237.48 586.00,235.88 586.13,234.79 586.27,235.72 586.40,235.97 586.54,235.29 586.68,235.48 586.81,235.34 586.95,235.68 587.08,235.30 587.22,234.83 587.35,235.07 587.49,234.95 587.62,235.86 587.76,235.44 587.89,233.46 588.03,234.61 588.16,234.92 588.30,235.01 588.43,235.40 588.57,235.42 588.70,235.42 588.84,235.98 588.97,237.07 589.11,236.33 589.24,236.32 589.38,235.57 589.51,235.46 589.65,235.99 589.79,235.67 589.92,235.95 590.06,235.10 590.19,235.33 590.33,235.30 590.46,235.20 590.60,235.92 590.73,235.09 590.87,235.14 591.00,235.16 591.14,235.44 591.27,235.80 591.41,235.24 591.54,234.72 591.68,235.33 591.81,235.49 591.95,235.44 592.08,234.49 592.22,234.42 592.35,235.06 592.49,235.23 592.62,235.84 592.76,236.93 592.90,236.11 593.03,235.51 593.17,235.72 593.30,235.41 593.44,235.51 593.57,235.44 593.71,235.43 593.84,235.61 593.98,235.47 594.11,235.71 594.25,235.97 594.38,235.66 594.52,235.39 594.65,235.41 594.79,235.42 594.92,235.42 595.06,235.23 595.19,234.53 595.33,234.53 595.46,236.40 595.60,234.47 595.74,234.42 595.87,235.90 596.01,236.76 596.14,236.53 596.28,236.00 596.41,236.14 596.55,235.89 596.68,235.83 596.82,235.44 596.95,235.42 597.09,236.17 597.22,235.62 597.36,235.57 597.49,235.65 597.63,237.26 597.76,237.41 597.90,237.17 598.03,235.14 598.17,235.06 598.30,234.02 598.44,234.95 598.57,234.64 598.71,234.65 598.85,235.49 598.98,235.25 599.12,235.66 599.25,235.48 599.39,235.90 599.52,236.95 599.66,237.80 599.79,238.21 599.93,236.07 600.06,235.22 600.20,235.83 600.33,236.28 600.47,236.02 600.60,236.24 600.74,235.55 600.87,234.80 601.01,236.10 601.14,235.51 601.28,235.35 601.41,235.03 601.55,234.94 601.68,235.67 601.82,234.55 601.96,233.60 602.09,231.10 602.23,237.82 602.36,238.03 602.50,233.69 602.63,233.93 602.77,234.93 602.90,234.54 603.04,234.53 603.17,234.99 603.31,235.12 603.44,236.09 603.58,235.69 603.71,235.49 603.85,236.28 603.98,235.46 604.12,235.53 604.25,236.20 604.39,235.07 604.52,235.70 604.66,233.53 604.80,231.92 604.93,233.45 605.07,232.65 605.20,236.45 605.34,235.23 605.47,234.34 605.61,234.94 605.74,235.20 605.88,235.45 606.01,235.71 606.15,235.40 606.28,234.85 606.42,234.71 606.55,235.51 606.69,235.72 606.82,235.60 606.96,235.65 607.09,236.98 607.23,236.31 607.36,235.66 607.50,235.95 607.63,236.22 607.77,236.29 607.91,233.88 608.04,235.47 608.18,233.56 608.31,231.84 608.45,232.03 608.58,233.48 608.72,240.23 608.85,236.05 608.99,236.53 609.12,237.40 609.26,238.38 609.39,233.78 609.53,234.98 609.66,233.43 609.80,235.82 609.93,240.30 610.07,239.53 610.20,236.52 610.34,235.53 610.47,236.38 610.61,235.02 610.74,235.41 610.88,234.95 611.02,235.01 611.15,234.10 611.29,234.69 611.42,235.13 611.56,235.53 611.69,234.70 611.83,234.85 611.96,236.95 612.10,234.52 612.23,232.09 612.37,234.90 612.50,236.59 612.64,234.42 612.77,235.15 612.91,235.91 613.04,235.83 613.18,234.22 613.31,238.28 613.45,237.03 613.58,236.79 613.72,235.79 613.86,235.89 613.99,235.45 614.13,235.52 614.26,234.98 614.40,235.21 614.53,235.08 614.67,234.86 614.80,235.08 614.94,234.96 615.07,234.36 615.21,233.73 615.34,234.03 615.48,232.24 615.61,233.91 615.75,236.05 615.88,233.53 616.02,234.17 616.15,235.18 616.29,236.48 616.42,234.77 616.56,236.65 616.69,236.31 616.83,234.35 616.97,234.67 617.10,235.50 617.24,237.69 617.37,235.19 617.51,235.92 617.64,235.55 617.78,234.89 617.91,233.97 618.05,234.19 618.18,234.44 618.32,233.66 618.45,234.11 618.59,235.63 618.72,234.54 618.86,235.65 618.99,236.04 619.13,235.77 619.26,235.61 619.40,235.56 619.53,236.11 619.67,235.79 619.81,236.08 619.94,235.69 620.08,235.31 620.21,235.39 620.35,236.25 620.48,235.64 620.62,235.85 620.75,236.00 620.89,235.86 621.02,235.63 621.16,235.38 621.29,235.50 621.43,235.54 621.56,235.36 621.70,235.22 621.83,234.71 621.97,235.23 622.10,235.93 622.24,235.37 622.37,234.85 622.51,234.52 622.64,235.18 622.78,234.61 622.92,235.76 623.05,234.39 623.19,235.52 623.32,236.10 623.46,235.79 623.59,236.27 623.73,236.96 623.86,235.83 624.00,234.78 624.13,235.53 624.27,235.92 624.40,236.49 624.54,235.99 624.67,235.57 624.81,235.37 624.94,235.31 625.08,235.30 625.21,235.29 625.35,235.29 625.48,235.29 625.62,236.23 625.75,235.36 625.89,235.31 626.03,235.11 626.16,235.15 626.30,236.00 626.43,235.67 626.57,236.24 626.70,235.54 626.84,235.27 626.97,235.75 627.11,235.70 627.24,235.59 627.38,235.37 627.51,235.31 627.65,235.58 627.78,235.46 627.92,235.43 628.05,234.11 628.19,235.63 628.32,234.92 628.46,234.63 628.59,234.46 628.73,233.01 628.87,233.47 629.00,232.74 629.14,233.86 629.27,234.35 629.41,235.51 629.54,238.81 629.68,240.07 629.81,236.48 629.95,236.27 630.08,235.09 630.22,234.68 630.35,235.03 630.49,234.47 630.62,236.94 630.76,236.95 630.89,237.61 631.03,236.01 631.16,235.39 631.30,235.51 631.43,235.35 631.57,235.31 631.70,235.20 631.84,227.41 631.98,235.99 632.11,236.23 632.25,235.17 632.38,234.60 632.52,233.70 632.65,234.40 632.79,235.43 632.92,234.67 633.06,235.03 633.19,236.91 633.33,242.18 633.46,237.89 633.60,236.17 633.73,235.53 633.87,234.89 634.00,235.65 634.14,234.83 634.27,235.07 634.41,235.51 634.54,235.54 634.68,235.36 634.81,235.22 634.95,234.34 635.09,235.22 635.22,234.99 635.36,235.03 635.49,234.57 635.63,233.79 635.76,234.42 635.90,235.15 636.03,235.35 636.17,235.87 636.30,236.57 636.44,238.63 636.57,236.00 636.71,235.11 636.84,235.24 636.98,235.56 637.11,235.64 637.25,235.48 637.38,235.72 637.52,236.34 637.65,235.85 637.79,235.44 637.93,235.33 638.06,235.49 638.20,235.53 638.33,235.36 638.47,235.40 638.60,235.51 638.74,235.63 638.87,235.38 639.01,235.60 639.14,235.75 639.28,235.41 639.41,234.76 639.55,235.15 639.68,234.88 639.82,236.77 639.95,236.25 640.09,236.95 640.22,236.95 640.36,236.30 640.49,233.78 640.63,235.82 640.76,232.91 640.90,234.28 641.04,235.11 641.17,235.24 641.31,234.91 641.44,235.19 641.58,234.89 641.71,235.09 641.85,234.96 641.98,235.20 642.12,234.80 642.25,235.07 642.39,234.86 642.52,235.55 642.66,233.68 642.79,235.33 642.93,234.93 643.06,237.16 643.20,236.45 643.33,236.26 643.47,235.55 643.60,233.77 643.74,239.28 643.87,238.04 644.01,233.22 644.15,233.24 644.28,235.30 644.42,236.14 644.55,234.49 644.69,235.54 644.82,235.27 644.96,235.57 645.09,235.55 645.23,235.74 645.36,235.60 645.50,235.47 645.63,235.06 645.77,235.23 645.90,235.09 646.04,235.33 646.17,235.86 646.31,237.04 646.44,235.48 646.58,237.21 646.71,236.56 646.85,236.85 646.99,235.33 647.12,235.12 647.26,234.87 647.39,235.46 647.53,235.52 647.66,235.26 647.80,235.38 647.93,235.22 648.07,235.65 648.20,235.67 648.34,235.77 648.47,235.79 648.61,235.71 648.74,235.59 648.88,235.47 649.01,235.25 649.15,235.28 649.28,235.48 649.42,235.81 649.55,236.65 649.69,236.03 649.82,236.24 649.96,235.83 650.10,235.25 650.23,234.06 650.37,236.65 650.50,234.91 650.64,240.61 650.77,238.21 650.91,237.85 651.04,236.91 651.18,237.41 651.31,237.36 651.45,236.97 651.58,236.12 651.72,235.70 651.85,237.09 651.99,236.71 652.12,235.20 652.26,234.89 652.39,234.53 652.53,234.53 652.66,235.74 652.80,236.25 652.94,236.20 653.07,235.63 653.21,235.48 653.34,235.06 653.48,235.42 653.61,232.24 653.75,236.25 653.88,238.26 654.02,237.49 654.15,237.38 654.29,236.41 654.42,235.03 654.56,228.58 654.69,234.62 654.83,232.02 654.96,233.95 655.10,232.50 655.23,231.55 655.37,237.19 655.50,234.87 655.64,234.34 655.77,234.94 655.91,234.92 656.05,234.35 656.18,234.10 656.32,234.60 656.45,236.42 656.59,234.66 656.72,236.90 656.86,237.41 656.99,238.20 657.13,236.44 657.26,235.60 657.40,235.84 657.53,235.44 657.67,234.21 657.80,232.76 657.94,233.40 658.07,235.07 658.21,235.70 658.34,235.12 658.48,235.15 658.61,234.69 658.75,234.20 658.88,234.72 659.02,235.79 659.16,234.68 659.29,233.44 659.43,235.64 659.56,236.79 659.70,236.07 659.83,235.13 659.97,235.06 660.10,235.70 660.24,235.87 660.37,235.45 660.51,234.68 660.64,234.38 660.78,235.70 660.91,235.40 661.05,235.70 661.18,234.37 661.32,234.20 661.45,234.35 661.59,236.07 661.72,235.03 661.86,234.47 662.00,235.45 662.13,234.49 662.27,232.37 662.40,233.48 662.54,237.43 662.67,237.08 662.81,234.18 662.94,235.84 663.08,235.34 663.21,236.05 663.35,236.62 663.48,236.12 663.62,235.61 663.75,235.47 663.89,234.59 664.02,235.39 664.16,234.19 664.29,235.28 664.43,235.29 664.56,233.98 664.70,235.60 664.83,236.31 664.97,234.35 665.11,234.48 665.24,235.07 665.38,235.80 665.51,234.87 665.65,235.83 665.78,233.57 665.92,233.61 666.05,236.62 666.19,234.71 666.32,235.60 666.46,235.38 666.59,235.50 666.73,238.06 666.86,237.44 667.00,235.87 667.13,235.35 667.27,234.84 667.40,233.86 667.54,234.91 667.67,234.72 667.81,234.77 667.94,235.06 668.08,236.82 668.22,237.39 668.35,231.64 668.49,231.13 668.62,234.37 668.76,233.17 668.89,231.08 669.03,236.31 669.16,235.19 669.30,234.80 669.43,233.85 669.57,235.09 669.70,235.89 669.84,236.30 669.97,236.12 670.11,236.08 670.24,239.81 670.38,239.40 670.51,237.33 670.65,237.24 670.78,235.91 670.92,236.11 671.06,236.17 671.19,235.15 671.33,234.79 671.46,233.85 671.60,231.44 671.73,233.33 671.87,232.61 672.00,236.82 672.14,233.46 672.27,234.43 672.41,235.53 672.54,235.82 672.68,239.74 672.81,240.88 672.95,236.60 673.08,235.64 673.22,235.11 673.35,234.59 673.49,235.95 673.62,235.75 673.76,234.10 673.89,234.51 674.03,233.96 674.17,236.06 674.30,235.59 674.44,232.00 674.57,235.91 674.71,239.85 674.84,236.98 674.98,235.84 675.11,234.04 675.25,233.74 675.38,234.88 675.52,234.90 675.65,231.35 675.79,233.49 675.92,233.78 676.06,234.14 676.19,237.70 676.33,238.09 676.46,233.33 676.60,237.76 676.73,238.57 676.87,236.55 677.00,236.66 677.14,235.28 677.28,234.64 677.41,234.37 677.55,237.01 677.68,236.50 677.82,235.52 677.95,235.26 678.09,233.69 678.22,232.81 678.36,234.81 678.49,229.83 678.63,233.74 678.76,238.34 678.90,237.23 679.03,236.28 679.17,235.28 679.30,237.16 679.44,240.47 679.57,237.05 679.71,235.95 679.84,233.13 679.98,234.53 680.12,232.84 680.25,234.07 680.39,235.99 680.52,235.76 680.66,235.60 680.79,235.66 680.93,235.67 681.06,235.86 681.20,235.91 681.33,234.99 681.47,236.99 681.60,236.12 681.74,236.17 681.87,235.81 682.01,235.62 682.14,235.47 682.28,235.43 682.41,235.70 682.55,235.50 682.68,235.72 682.82,236.34 682.95,235.39 683.09,235.41 683.23,235.51 683.36,235.82 683.50,236.09 683.63,235.60 683.77,235.66 683.90,235.86 684.04,236.00 684.17,235.58 684.31,236.02 684.44,236.05 684.58,236.43 684.71,236.16 684.85,234.87 684.98,235.37 685.12,234.47 685.25,234.23 685.39,233.98 685.52,234.94 685.66,233.51 685.79,234.91 685.93,236.59 686.07,235.08 686.20,234.58 686.34,235.38 686.47,235.88 686.61,236.01 686.74,238.20 686.88,236.35 687.01,235.67 687.15,235.58 687.28,235.56 687.42,235.74 687.55,235.04 687.69,232.60 687.82,234.76 687.96,235.80 688.09,233.56 688.23,235.58 688.36,234.90 688.50,234.44 688.63,235.06 688.77,235.14 688.90,235.16 689.04,232.45 689.18,234.16 689.31,236.30 689.45,234.53 689.58,237.71 689.72,235.66 689.85,237.73 689.99,235.57 690.12,235.55 690.26,238.54 690.39,237.29 690.53,235.83 690.66,235.72 690.80,235.41 690.93,235.42 691.07,235.42 691.20,234.86 691.34,235.36 691.47,236.34 691.61,235.95 691.74,234.91 691.88,234.72 692.01,234.86 692.15,234.43 692.29,234.13 692.42,235.07 692.56,235.33 692.69,235.68 692.83,234.74 692.96,235.80 693.10,235.71 693.23,236.43 693.37,235.97 693.50,234.82 693.64,235.45 693.77,235.61 693.91,235.38 694.04,235.60 694.18,234.53 694.31,234.90 694.45,234.91 694.58,234.91 694.72,234.63 694.85,235.49 694.99,234.88 695.13,234.81 695.26,234.69 695.40,234.38 695.53,233.08 695.67,234.98 695.80,235.77 695.94,235.42 696.07,234.77 696.21,235.24 696.34,234.25 696.48,235.67 696.61,235.77 696.75,234.30 696.88,235.31 697.02,236.23 697.15,235.92 697.29,238.45 697.42,237.17 697.56,236.17 697.69,235.62 697.83,235.19 697.96,234.24 698.10,233.98 698.24,234.66 698.37,235.22 698.51,235.37 698.64,235.87 698.78,235.07 698.91,235.05 699.05,235.04 699.18,235.60 699.32,236.03 699.45,236.61 699.59,236.02 699.72,235.58 699.86,235.46 699.99,235.62 700.13,234.82 700.26,235.17 700.40,235.54 700.53,235.73 700.67,235.32 700.80,236.33 700.94,236.22 701.07,235.64 701.21,235.95 701.35,236.03 701.48,235.96 701.62,235.38 701.75,235.50 701.89,235.25 702.02,234.91 702.16,234.25 702.29,235.20 702.43,235.08 702.56,235.14 702.70,235.44 702.83,235.61 702.97,235.38 703.10,234.57 703.24,233.60 703.37,232.31 703.51,233.56 703.64,237.45 703.78,237.18 703.91,236.73 704.05,236.71 704.19,235.76 704.32,235.23 704.46,235.09 704.59,233.18 704.73,235.57 704.86,227.23 705.00,237.06 705.13,238.01 705.27,235.18 705.40,235.73 705.54,237.37 705.67,236.22 705.81,237.51 705.94,238.60 706.08,236.08 706.21,235.41 706.35,233.73 706.48,235.44 706.62,236.55 706.75,238.06 706.89,235.57 707.02,238.08 707.16,235.95 707.30,235.09 707.43,235.52 707.57,235.91 707.70,236.11 707.84,235.61 707.97,235.94 708.11,235.75 708.24,234.85 708.38,233.96 708.51,234.56 708.65,235.00 708.78,72.92" style="stroke-width: 0.75;"/>
<polyline points="709.05,191.41 709.19,383.67 709.32,275.33 709.46,248.64 709.59,236.44 709.73,235.41 709.86,233.83 710.00,235.74 710.13,236.07 710.27,235.69 710.41,238.11 710.54,236.80 710.68,234.57 710.81,234.91 710.95,238.18 711.08,236.91 711.22,237.78 711.35,237.18 711.49,235.42 711.62,234.95 711.76,234.55 711.89,233.50 712.03,234.16 712.16,234.43 712.30,235.72 712.43,232.23 712.57,235.69 712.70,235.58 712.84,236.87 712.97,234.59 713.11,233.61 713.25,235.03 713.38,235.78 713.52,235.52 713.65,236.19 713.79,235.63 713.92,236.32 714.06,236.69 714.19,237.91 714.33,236.56 714.46,236.75 714.60,237.37 714.73,235.85 714.87,235.53 715.00,235.08 715.14,234.02 715.27,233.36 715.41,234.68 715.54,234.85 715.68,232.83 715.81,232.20 715.95,234.46 716.08,234.23 716.22,234.63 716.36,235.96 716.49,235.47 716.63,235.06 716.76,235.42 716.90,235.23 717.03,238.46 717.17,238.48 717.30,240.54 717.44,236.32 717.57,236.13 717.71,237.11 717.84,236.06 717.98,235.68 718.11,235.58 718.25,235.46 718.38,235.15 718.52,235.07 718.65,235.23 718.79,233.69 718.92,234.67 719.06,235.59 719.19,233.88 719.33,233.70 719.47,227.10 719.60,233.38 719.74,234.31 719.87,238.49 720.01,236.15 720.14,236.92 720.28,236.38 720.41,233.15 720.55,240.89 720.68,237.07 720.82,237.17 720.95,236.73 721.09,236.89 721.22,236.75 721.36,235.87 721.49,235.73 721.63,235.41 721.76,233.55 721.90,233.61 722.03,233.91 722.17,234.92 722.31,235.47 722.44,237.87 722.58,235.42 722.71,230.93 722.85,231.78 722.98,234.26 723.12,234.73 723.25,235.42 723.39,236.92 723.52,237.04 723.66,236.41 723.79,237.28 723.93,234.61 724.06,236.61 724.20,237.42 724.33,237.55 724.47,236.83 724.60,236.83 724.74,235.70 724.87,235.59 725.01,235.28 725.14,235.29 725.28,235.20 725.42,233.96 725.55,235.22 725.69,236.21 725.82,235.44 725.96,235.24 726.09,233.59 726.23,232.78 726.36,232.75 726.50,236.29 726.63,234.25 726.77,234.73 726.90,235.24 727.04,239.77 727.17,238.64 727.31,237.31 727.44,236.02 727.58,235.77 727.71,235.61 727.85,235.47 727.98,235.53 728.12,235.73 728.26,235.41 728.39,235.23 728.53,235.28 728.66,234.73 728.80,235.80 728.93,235.15 729.07,235.07 729.20,235.33 729.34,235.39 729.47,235.51 729.61,235.72 729.74,235.41 729.88,233.27 730.01,233.72 730.15,234.68 730.28,234.85 730.42,240.22 730.55,237.92 730.69,236.09 730.82,237.28 730.96,236.20 731.09,235.72 731.23,234.75 731.37,234.31 731.50,235.78 731.64,235.42 731.77,234.49 731.91,234.98 732.04,235.02 732.18,235.13 732.31,234.31 732.45,233.91 732.58,233.99 732.72,235.22 732.85,234.62 732.99,233.52 733.12,234.35 733.26,235.32 733.39,234.65 733.53,235.59 733.66,235.75 733.80,234.20 733.93,237.34 734.07,236.03 734.20,235.30 734.34,236.42 734.48,235.87 734.61,234.51 734.75,234.34 734.88,234.29 735.02,235.21 735.15,234.80 735.29,233.85 735.42,233.04 735.56,232.35 735.69,234.04 735.83,233.74 735.96,238.15 736.10,233.44 736.23,234.61 736.37,235.11 736.50,234.59 736.64,233.79 736.77,236.67 736.91,238.00 737.04,235.83 737.18,236.28 737.32,236.40 737.45,236.43 737.59,236.44 737.72,236.53 737.86,235.72 737.99,236.34 738.13,235.20 738.26,234.52 738.40,232.84 738.53,234.26 738.67,235.11 738.80,236.09 738.94,235.04 739.07,234.85 739.21,234.99 739.34,235.21 739.48,235.55 739.61,235.27 739.75,235.66 739.88,236.23 740.02,235.73 740.15,236.53 740.29,235.16 740.43,235.82 740.56,235.53 740.70,235.36 740.83,235.87 740.97,236.20 741.10,235.25 741.24,235.00 741.37,235.59 741.51,236.12 741.64,235.51 741.78,236.75 741.91,237.27 742.05,235.45 742.18,235.24 742.32,235.37 742.45,235.03 742.59,233.63 742.72,235.13 742.86,235.53 742.99,235.17 743.13,235.35 743.26,235.31 743.40,236.14 743.54,235.43 743.67,237.85 743.81,238.50 743.94,236.71 744.08,235.58 744.21,235.09 744.35,237.01 744.48,235.38 744.62,235.69 744.75,235.59 744.89,236.03 745.02,236.05 745.16,235.96 745.29,235.38 745.43,235.50 745.56,233.66 745.70,235.42 745.83,234.95 745.97,235.29 746.10,234.92 746.24,234.35 746.38,234.48 746.51,234.23 746.65,234.26 746.78,236.61 746.92,238.54 747.05,238.13 747.19,240.26 747.32,239.15 747.46,236.33 747.59,236.50 747.73,235.71 747.86,235.68 748.00,235.68 748.13,234.65 748.27,234.65 748.40,234.93 748.54,234.92 748.67,235.10 748.81,234.96 748.94,234.55 749.08,234.53 749.21,234.25 749.35,233.52 749.49,232.38 749.62,234.42 749.76,235.34 749.89,236.99 750.03,235.00 750.16,240.08 750.30,238.45 750.43,235.11 750.57,234.78 750.70,236.84 750.84,235.71 750.97,234.37 751.11,235.70 751.24,234.65 751.38,237.18 751.51,235.52 751.65,234.23 751.78,234.17 751.92,236.11 752.05,236.35 752.19,232.12 752.32,234.63 752.46,234.55 752.60,233.88 752.73,233.32 752.87,234.48 753.00,234.80 753.14,234.04 753.27,235.52 753.41,235.26 753.54,235.47 753.68,236.37 753.81,237.92 753.95,236.28 754.08,235.93 754.22,236.21 754.35,235.54 754.49,235.64 754.62,235.76 754.76,235.70 754.89,235.40 755.03,236.07 755.16,236.25 755.30,236.11 755.44,235.60 755.57,235.38 755.71,235.69 755.84,235.59 755.98,235.28 756.11,235.38 756.25,235.78 756.38,236.27 756.52,235.93 756.65,235.28 756.79,235.19 756.92,235.92 757.06,236.40 757.19,235.49 757.33,235.25 757.46,236.78 757.60,234.19 757.73,233.31 757.87,234.76 758.00,242.26 758.14,238.09 758.27,235.95 758.41,235.28 758.55,234.92 758.68,233.32 758.82,234.39 758.95,235.42 759.09,234.67 759.22,235.50 759.36,235.25 759.49,234.25 759.63,234.17 759.76,235.65 759.90,235.11 760.03,236.55 760.17,236.00 760.30,235.30 760.44,235.20 760.57,236.11 760.71,235.04 760.84,234.85 760.98,234.89 761.11,236.31 761.25,237.53 761.39,236.83 761.52,236.08 761.66,235.88 761.79,235.92 761.93,235.83" style="stroke-width: 0.75;"/>
</g><g clip-path="url(#c2)">
<line x1="83.23" y1="396.16" x2="732.31" y2="396.16" style="stroke-width: 0.75;"/>
<line x1="83.23" y1="396.16" x2="83.23" y2="403.36" style="stroke-width: 0.75;"/>
<line x1="213.05" y1="396.16" x2="213.05" y2="403.36" style="stroke-width: 0.75;"/>
<line x1="342.87" y1="396.16" x2="342.87" y2="403.36" style="stroke-width: 0.75;"/>
<line x1="472.68" y1="396.16" x2="472.68" y2="403.36" style="stroke-width: 0.75;"/>
<line x1="602.50" y1="396.16" x2="602.50" y2="403.36" style="stroke-width: 0.75;"/>
<line x1="732.31" y1="396.16" x2="732.31" y2="403.36" style="stroke-width: 0.75;"/>
<g><text x="83.23" y="422.08" text-anchor="middle" style="font-family: Arial;font-size: 12.00px;" textLength="6.67px" lengthAdjust="spacingAndGlyphs">0</text></g>
<g><text x="213.05" y="422.08" text-anchor="middle" style="font-family: Arial;font-size: 12.00px;" textLength="13.35px" lengthAdjust="spacingAndGlyphs">20</text></g>
<g><text x="342.87" y="422.08" text-anchor="middle" style="font-family: Arial;font-size: 12.00px;" textLength="13.35px" lengthAdjust="spacingAndGlyphs">40</text></g>
<g><text x="472.68" y="422.08" text-anchor="middle" style="font-family: Arial;font-size: 12.00px;" textLength="13.35px" lengthAdjust="spacingAndGlyphs">60</text></g>
<g><text x="602.50" y="422.08" text-anchor="middle" style="font-family: Arial;font-size: 12.00px;" textLength="13.35px" lengthAdjust="spacingAndGlyphs">80</text></g>
<g><text x="732.31" y="422.08" text-anchor="middle" style="font-family: Arial;font-size: 12.00px;" textLength="20.02px" lengthAdjust="spacingAndGlyphs">100</text></g>
<line x1="59.04" y1="363.20" x2="59.04" y2="107.64" style="stroke-width: 0.75;"/>
<line x1="59.04" y1="363.20" x2="51.84" y2="363.20" style="stroke-width: 0.75;"/>
<line x1="59.04" y1="299.31" x2="51.84" y2="299.31" style="stroke-width: 0.75;"/>
<line x1="59.04" y1="235.42" x2="51.84" y2="235.42" style="stroke-width: 0.75;"/>
<line x1="59.04" y1="171.53" x2="51.84" y2="171.53" style="stroke-width: 0.75;"/>
<line x1="59.04" y1="107.64" x2="51.84" y2="107.64" style="stroke-width: 0.75;"/>
<g><text transform="translate(41.76,363.20) rotate(-90.00)" text-anchor="middle" style="font-family: Arial;font-size: 12.00px;" textLength="24.02px" lengthAdjust="spacingAndGlyphs">-100</text></g>
<g><text transform="translate(41.76,299.31) rotate(-90.00)" text-anchor="middle" style="font-family: Arial;font-size: 12.00px;" textLength="17.34px" lengthAdjust="spacingAndGlyphs">-50</text></g>
<g><text transform="translate(41.76,235.42) rotate(-90.00)" text-anchor="middle" style="font-family: Arial;font-size: 12.00px;" textLength="6.67px" lengthAdjust="spacingAndGlyphs">0</text></g>
<g><text transform="translate(41.76,171.53) rotate(-90.00)" text-anchor="middle" style="font-family: Arial;font-size: 12.00px;" textLength="13.35px" lengthAdjust="spacingAndGlyphs">50</text></g>
<g><text transform="translate(41.76,107.64) rotate(-90.00)" text-anchor="middle" style="font-family: Arial;font-size: 12.00px;" textLength="20.02px" lengthAdjust="spacingAndGlyphs">100</text></g>
<polygon points="59.04,396.16 788.96,396.16 788.96,59.04 59.04,59.04" style="stroke-width: 0.75;" />
<g><text x="424.00" y="34.67" text-anchor="middle" style="font-family: Arial;font-size: 14.40px;font-weight: bold;" textLength="209.54px" lengthAdjust="spacingAndGlyphs">Standardized prediction errors</text></g>
<g><text x="424.00" y="450.88" text-anchor="middle" style="font-family: Arial;font-size: 12.00px;" textLength="81.37px" lengthAdjust="spacingAndGlyphs">Days from start</text></g>
<g><text transform="translate(12.96,227.60) rotate(-90.00)" text-anchor="middle" style="font-family: Arial;font-size: 12.00px;" textLength="116.72px" lengthAdjust="spacingAndGlyphs">Prediction error [PSU]</text></g>
</g>
</svg>