<svg xmlns="http://www.w3.org/2000/svg" xmlns:xlink="http://www.w3.org/1999/xlink" class="httpgd" width="1024.00" height="530.00" viewBox="0 0 819.20 424.00">
<defs>
  <style type='text/css'><![CDATA[
    .httpgd line, .httpgd polyline, .httpgd polygon, .httpgd path, .httpgd rect, .httpgd circle {
      fill: none;
      stroke: #000000;
      stroke-linecap: round;
      stroke-linejoin: round;
      stroke-miterlimit: 10.00;
    }
  ]]></style>
<clipPath id="c0"><rect x="0.00" y="0.00" width="819.20" height="424.00"/></clipPath>
<clipPath id="c1"><rect x="49.00" y="49.00" width="335.50" height="102.04"/></clipPath>
<clipPath id="c2"><rect x="0.00" y="0.00" width="819.20" height="424.00"/></clipPath>
<clipPath id="c3"><rect x="0.00" y="0.00" width="409.60" height="212.00"/></clipPath>
<clipPath id="c4"><rect x="458.60" y="49.00" width="335.50" height="102.04"/></clipPath>
<clipPath id="c5"><rect x="0.00" y="0.00" width="819.20" height="424.00"/></clipPath>
<clipPath id="c6"><rect x="409.60" y="0.00" width="409.60" height="212.00"/></clipPath>
<clipPath id="c7"><rect x="49.00" y="261.00" width="335.50" height="102.04"/></clipPath>
<clipPath id="c8"><rect x="0.00" y="0.00" width="819.20" height="424.00"/></clipPath>
<clipPath id="c9"><rect x="0.00" y="212.00" width="409.60" height="212.00"/></clipPath>
<clipPath id="c10"><rect x="458.60" y="261.00" width="335.50" height="102.04"/></clipPath>
<clipPath id="c11"><rect x="0.00" y="0.00" width="819.20" height="424.00"/></clipPath>
<clipPath id="c12"><rect x="409.60" y="212.00" width="409.60" height="212.00"/></clipPath>
</defs>
<rect width="100%" height="100%" style="stroke: none;fill: #FFFFFF;"/>
<g clip-path="url(#c0)">
</g><g clip-path="url(#c1)">
<circle cx="221.25" cy="100.98" r="2.24" style="stroke-width: 0.75;"/>
<circle cx="262.35" cy="90.97" r="2.24" style="stroke-width: 0.75;"/>
<circle cx="244.15" cy="94.03" r="2.24" style="stroke-width: 0.75;"/>
<circle cx="254.29" cy="96.12" r="2.24" style="stroke-width: 0.75;"/>
<circle cx="149.78" cy="119.00" r="2.24" style="stroke-width: 0.75;"/>
<circle cx="299.22" cy="75.12" r="2.24" style="stroke-width: 0.75;"/>
<circle cx="266.64" cy="85.60" r="2.24" style="stroke-width: 0.75;"/>
<circle cx="215.36" cy="108.78" r="2.24" style="stroke-width: 0.75;"/>
<circle cx="174.55" cy="118.20" r="2.24" style="stroke-width: 0.75;"/>
<circle cx="204.71" cy="104.12" r="2.24" style="stroke-width: 0.75;"/>
<circle cx="130.65" cy="127.81" r="2.24" style="stroke-width: 0.75;"/>
<circle cx="250.69" cy="90.68" r="2.24" style="stroke-width: 0.75;"/>
<circle cx="251.14" cy="91.79" r="2.24" style="stroke-width: 0.75;"/>
<circle cx="185.10" cy="111.09" r="2.24" style="stroke-width: 0.75;"/>
<circle cx="208.54" cy="102.94" r="2.24" style="stroke-width: 0.75;"/>
<circle cx="247.65" cy="98.91" r="2.24" style="stroke-width: 0.75;"/>
<circle cx="230.29" cy="97.74" r="2.24" style="stroke-width: 0.75;"/>
<circle cx="271.72" cy="82.70" r="2.24" style="stroke-width: 0.75;"/>
<circle cx="293.47" cy="85.39" r="2.24" style="stroke-width: 0.75;"/>
<circle cx="218.12" cy="101.48" r="2.24" style="stroke-width: 0.75;"/>
<circle cx="152.89" cy="121.31" r="2.24" style="stroke-width: 0.75;"/>
<circle cx="151.62" cy="120.27" r="2.24" style="stroke-width: 0.75;"/>
<circle cx="263.74" cy="92.27" r="2.24" style="stroke-width: 0.75;"/>
<circle cx="220.71" cy="104.47" r="2.24" style="stroke-width: 0.75;"/>
<circle cx="138.07" cy="129.81" r="2.24" style="stroke-width: 0.75;"/>
<circle cx="223.56" cy="97.39" r="2.24" style="stroke-width: 0.75;"/>
<circle cx="220.45" cy="104.78" r="2.24" style="stroke-width: 0.75;"/>
<circle cx="302.17" cy="77.54" r="2.24" style="stroke-width: 0.75;"/>
<circle cx="61.43" cy="147.27" r="2.24" style="stroke-width: 0.75;"/>
<circle cx="134.92" cy="126.56" r="2.24" style="stroke-width: 0.75;"/>
<circle cx="231.20" cy="99.65" r="2.24" style="stroke-width: 0.75;"/>
<circle cx="242.11" cy="98.25" r="2.24" style="stroke-width: 0.75;"/>
<circle cx="177.49" cy="114.75" r="2.24" style="stroke-width: 0.75;"/>
<circle cx="308.98" cy="71.70" r="2.24" style="stroke-width: 0.75;"/>
<circle cx="266.74" cy="92.57" r="2.24" style="stroke-width: 0.75;"/>
<circle cx="248.32" cy="89.39" r="2.24" style="stroke-width: 0.75;"/>
<circle cx="273.84" cy="81.25" r="2.24" style="stroke-width: 0.75;"/>
<circle cx="255.20" cy="88.74" r="2.24" style="stroke-width: 0.75;"/>
<circle cx="266.81" cy="92.29" r="2.24" style="stroke-width: 0.75;"/>
<circle cx="207.18" cy="103.93" r="2.24" style="stroke-width: 0.75;"/>
<circle cx="296.73" cy="74.64" r="2.24" style="stroke-width: 0.75;"/>
<circle cx="205.78" cy="105.03" r="2.24" style="stroke-width: 0.75;"/>
<circle cx="247.05" cy="90.18" r="2.24" style="stroke-width: 0.75;"/>
<circle cx="226.51" cy="94.33" r="2.24" style="stroke-width: 0.75;"/>
<circle cx="293.46" cy="84.53" r="2.24" style="stroke-width: 0.75;"/>
<circle cx="199.27" cy="104.58" r="2.24" style="stroke-width: 0.75;"/>
<circle cx="247.35" cy="95.43" r="2.24" style="stroke-width: 0.75;"/>
<circle cx="255.87" cy="91.96" r="2.24" style="stroke-width: 0.75;"/>
<circle cx="263.12" cy="87.87" r="2.24" style="stroke-width: 0.75;"/>
<circle cx="273.30" cy="88.19" r="2.24" style="stroke-width: 0.75;"/>
<circle cx="226.68" cy="97.55" r="2.24" style="stroke-width: 0.75;"/>
<circle cx="297.79" cy="74.16" r="2.24" style="stroke-width: 0.75;"/>
<circle cx="160.81" cy="116.04" r="2.24" style="stroke-width: 0.75;"/>
<circle cx="124.23" cy="137.54" r="2.24" style="stroke-width: 0.75;"/>
<circle cx="127.82" cy="129.14" r="2.24" style="stroke-width: 0.75;"/>
<circle cx="230.07" cy="96.88" r="2.24" style="stroke-width: 0.75;"/>
<circle cx="215.63" cy="106.34" r="2.24" style="stroke-width: 0.75;"/>
<circle cx="218.33" cy="99.80" r="2.24" style="stroke-width: 0.75;"/>
<circle cx="233.89" cy="102.58" r="2.24" style="stroke-width: 0.75;"/>
<circle cx="247.69" cy="96.72" r="2.24" style="stroke-width: 0.75;"/>
<circle cx="265.47" cy="86.79" r="2.24" style="stroke-width: 0.75;"/>
<circle cx="291.22" cy="79.53" r="2.24" style="stroke-width: 0.75;"/>
<circle cx="272.14" cy="87.62" r="2.24" style="stroke-width: 0.75;"/>
<circle cx="281.48" cy="88.14" r="2.24" style="stroke-width: 0.75;"/>
<circle cx="283.48" cy="95.93" r="2.24" style="stroke-width: 0.75;"/>
<circle cx="247.62" cy="96.02" r="2.24" style="stroke-width: 0.75;"/>
<circle cx="231.63" cy="94.39" r="2.24" style="stroke-width: 0.75;"/>
<circle cx="274.54" cy="83.62" r="2.24" style="stroke-width: 0.75;"/>
<circle cx="372.07" cy="52.78" r="2.24" style="stroke-width: 0.75;"/>
<circle cx="222.93" cy="98.36" r="2.24" style="stroke-width: 0.75;"/>
<circle cx="276.31" cy="79.75" r="2.24" style="stroke-width: 0.75;"/>
<circle cx="172.88" cy="118.39" r="2.24" style="stroke-width: 0.75;"/>
<circle cx="197.46" cy="106.48" r="2.24" style="stroke-width: 0.75;"/>
<circle cx="144.78" cy="123.79" r="2.24" style="stroke-width: 0.75;"/>
<circle cx="318.36" cy="77.28" r="2.24" style="stroke-width: 0.75;"/>
<circle cx="195.58" cy="109.17" r="2.24" style="stroke-width: 0.75;"/>
<circle cx="147.89" cy="119.16" r="2.24" style="stroke-width: 0.75;"/>
<circle cx="131.87" cy="133.14" r="2.24" style="stroke-width: 0.75;"/>
<circle cx="245.35" cy="89.70" r="2.24" style="stroke-width: 0.75;"/>
<circle cx="305.62" cy="75.74" r="2.24" style="stroke-width: 0.75;"/>
<circle cx="254.08" cy="86.65" r="2.24" style="stroke-width: 0.75;"/>
<circle cx="251.02" cy="90.61" r="2.24" style="stroke-width: 0.75;"/>
<circle cx="121.20" cy="130.99" r="2.24" style="stroke-width: 0.75;"/>
<circle cx="179.91" cy="115.65" r="2.24" style="stroke-width: 0.75;"/>
<circle cx="290.26" cy="79.70" r="2.24" style="stroke-width: 0.75;"/>
<circle cx="262.28" cy="88.72" r="2.24" style="stroke-width: 0.75;"/>
<circle cx="146.86" cy="123.20" r="2.24" style="stroke-width: 0.75;"/>
<circle cx="160.33" cy="116.53" r="2.24" style="stroke-width: 0.75;"/>
<circle cx="336.04" cy="64.52" r="2.24" style="stroke-width: 0.75;"/>
<circle cx="121.95" cy="132.50" r="2.24" style="stroke-width: 0.75;"/>
<circle cx="248.93" cy="89.54" r="2.24" style="stroke-width: 0.75;"/>
<circle cx="211.47" cy="102.78" r="2.24" style="stroke-width: 0.75;"/>
<circle cx="208.50" cy="102.56" r="2.24" style="stroke-width: 0.75;"/>
<circle cx="184.98" cy="111.18" r="2.24" style="stroke-width: 0.75;"/>
<circle cx="201.43" cy="112.87" r="2.24" style="stroke-width: 0.75;"/>
<circle cx="211.16" cy="105.64" r="2.24" style="stroke-width: 0.75;"/>
<circle cx="265.72" cy="90.25" r="2.24" style="stroke-width: 0.75;"/>
<circle cx="173.50" cy="112.66" r="2.24" style="stroke-width: 0.75;"/>
<circle cx="90.38" cy="139.59" r="2.24" style="stroke-width: 0.75;"/>
<circle cx="225.41" cy="100.49" r="2.24" style="stroke-width: 0.75;"/>
</g><g clip-path="url(#c2)">
<line x1="89.73" y1="151.04" x2="326.90" y2="151.04" style="stroke-width: 0.75;"/>
<line x1="89.73" y1="151.04" x2="89.73" y2="157.02" style="stroke-width: 0.75;"/>
<line x1="149.02" y1="151.04" x2="149.02" y2="157.02" style="stroke-width: 0.75;"/>
<line x1="208.31" y1="151.04" x2="208.31" y2="157.02" style="stroke-width: 0.75;"/>
<line x1="267.61" y1="151.04" x2="267.61" y2="157.02" style="stroke-width: 0.75;"/>
<line x1="326.90" y1="151.04" x2="326.90" y2="157.02" style="stroke-width: 0.75;"/>
<g><text x="89.73" y="172.56" text-anchor="middle" style="font-family: Arial;font-size: 9.96px;" textLength="19.38px" lengthAdjust="spacingAndGlyphs">0.40</text></g>
<g><text x="149.02" y="172.56" text-anchor="middle" style="font-family: Arial;font-size: 9.96px;" textLength="19.38px" lengthAdjust="spacingAndGlyphs">0.45</text></g>
<g><text x="208.31" y="172.56" text-anchor="middle" style="font-family: Arial;font-size: 9.96px;" textLength="19.38px" lengthAdjust="spacingAndGlyphs">0.50</text></g>
<g><text x="267.61" y="172.56" text-anchor="middle" style="font-family: Arial;font-size: 9.96px;" textLength="19.38px" lengthAdjust="spacingAndGlyphs">0.55</text></g>
<g><text x="326.90" y="172.56" text-anchor="middle" style="font-family: Arial;font-size: 9.96px;" textLength="19.38px" lengthAdjust="spacingAndGlyphs">0.60</text></g>
<line x1="49.00" y1="133.96" x2="49.00" y2="59.96" style="stroke-width: 0.75;"/>
<line x1="49.00" y1="133.96" x2="43.03" y2="133.96" style="stroke-width: 0.75;"/>
<line x1="49.00" y1="115.46" x2="43.03" y2="115.46" style="stroke-width: 0.75;"/>
<line x1="49.00" y1="96.96" x2="43.03" y2="96.96" style="stroke-width: 0.75;"/>
<line x1="49.00" y1="78.46" x2="43.03" y2="78.46" style="stroke-width: 0.75;"/>
<line x1="49.00" y1="59.96" x2="43.03" y2="59.96" style="stroke-width: 0.75;"/>
<g><text transform="translate(34.66,133.96) rotate(-90.00)" text-anchor="middle" style="font-family: Arial;font-size: 9.96px;" textLength="19.38px" lengthAdjust="spacingAndGlyphs">1.40</text></g>
<g><text transform="translate(34.66,96.96) rotate(-90.00)" text-anchor="middle" style="font-family: Arial;font-size: 9.96px;" textLength="19.38px" lengthAdjust="spacingAndGlyphs">1.50</text></g>
<g><text transform="translate(34.66,59.96) rotate(-90.00)" text-anchor="middle" style="font-family: Arial;font-size: 9.96px;" textLength="19.38px" lengthAdjust="spacingAndGlyphs">1.60</text></g>
<polygon points="49.00,151.04 384.50,151.04 384.50,49.00 49.00,49.00" style="stroke-width: 0.75;" />
</g><g clip-path="url(#c3)">
<g><text x="216.75" y="28.77" text-anchor="middle" style="font-family: Arial;font-size: 11.95px;font-weight: bold;" textLength="56.41px" lengthAdjust="spacingAndGlyphs">Process 1</text></g>
<g><text x="211.34" y="194.12" style="font-family: Arial;font-size: 9.96px;" textLength="6.96px" lengthAdjust="spacingAndGlyphs">φ</text></g>
<g><text x="218.29" y="195.92" style="font-family: Arial;font-size: 6.97px;" textLength="3.87px" lengthAdjust="spacingAndGlyphs">2</text></g>
<g><text transform="translate(8.41,105.44) rotate(-90.00)" style="font-family: Arial;font-size: 9.96px;" textLength="6.96px" lengthAdjust="spacingAndGlyphs">φ</text></g>
<g><text transform="translate(10.22,98.48) rotate(-90.00)" style="font-family: Arial;font-size: 6.97px;" textLength="3.87px" lengthAdjust="spacingAndGlyphs">1</text></g>
</g><g clip-path="url(#c4)">
<circle cx="637.66" cy="72.39" r="2.24" style="stroke-width: 0.75;"/>
<circle cx="715.43" cy="83.36" r="2.24" style="stroke-width: 0.75;"/>
<circle cx="625.82" cy="82.63" r="2.24" style="stroke-width: 0.75;"/>
<circle cx="616.66" cy="99.66" r="2.24" style="stroke-width: 0.75;"/>
<circle cx="714.17" cy="72.31" r="2.24" style="stroke-width: 0.75;"/>
<circle cx="765.60" cy="82.77" r="2.24" style="stroke-width: 0.75;"/>
<circle cx="676.44" cy="74.94" r="2.24" style="stroke-width: 0.75;"/>
<circle cx="633.25" cy="90.36" r="2.24" style="stroke-width: 0.75;"/>
<circle cx="608.83" cy="113.67" r="2.24" style="stroke-width: 0.75;"/>
<circle cx="659.29" cy="69.54" r="2.24" style="stroke-width: 0.75;"/>
<circle cx="781.67" cy="58.00" r="2.24" style="stroke-width: 0.75;"/>
<circle cx="565.69" cy="82.03" r="2.24" style="stroke-width: 0.75;"/>
<circle cx="641.77" cy="107.63" r="2.24" style="stroke-width: 0.75;"/>
<circle cx="754.32" cy="74.76" r="2.24" style="stroke-width: 0.75;"/>
<circle cx="763.75" cy="63.92" r="2.24" style="stroke-width: 0.75;"/>
<circle cx="664.07" cy="69.25" r="2.24" style="stroke-width: 0.75;"/>
<circle cx="660.15" cy="89.20" r="2.24" style="stroke-width: 0.75;"/>
<circle cx="572.79" cy="109.92" r="2.24" style="stroke-width: 0.75;"/>
<circle cx="588.93" cy="86.94" r="2.24" style="stroke-width: 0.75;"/>
<circle cx="723.37" cy="81.57" r="2.24" style="stroke-width: 0.75;"/>
<circle cx="656.17" cy="78.79" r="2.24" style="stroke-width: 0.75;"/>
<circle cx="744.66" cy="84.40" r="2.24" style="stroke-width: 0.75;"/>
<circle cx="734.67" cy="83.79" r="2.24" style="stroke-width: 0.75;"/>
<circle cx="669.65" cy="58.57" r="2.24" style="stroke-width: 0.75;"/>
<circle cx="650.52" cy="102.80" r="2.24" style="stroke-width: 0.75;"/>
<circle cx="760.30" cy="65.60" r="2.24" style="stroke-width: 0.75;"/>
<circle cx="731.74" cy="70.20" r="2.24" style="stroke-width: 0.75;"/>
<circle cx="773.64" cy="72.67" r="2.24" style="stroke-width: 0.75;"/>
<circle cx="671.21" cy="88.92" r="2.24" style="stroke-width: 0.75;"/>
<circle cx="714.11" cy="76.34" r="2.24" style="stroke-width: 0.75;"/>
<circle cx="727.40" cy="74.67" r="2.24" style="stroke-width: 0.75;"/>
<circle cx="628.43" cy="94.67" r="2.24" style="stroke-width: 0.75;"/>
<circle cx="604.57" cy="94.59" r="2.24" style="stroke-width: 0.75;"/>
<circle cx="665.50" cy="79.54" r="2.24" style="stroke-width: 0.75;"/>
<circle cx="655.37" cy="86.10" r="2.24" style="stroke-width: 0.75;"/>
<circle cx="717.06" cy="74.69" r="2.24" style="stroke-width: 0.75;"/>
<circle cx="664.48" cy="87.87" r="2.24" style="stroke-width: 0.75;"/>
<circle cx="751.69" cy="83.24" r="2.24" style="stroke-width: 0.75;"/>
<circle cx="758.39" cy="58.65" r="2.24" style="stroke-width: 0.75;"/>
<circle cx="721.34" cy="67.33" r="2.24" style="stroke-width: 0.75;"/>
<circle cx="609.39" cy="85.22" r="2.24" style="stroke-width: 0.75;"/>
<circle cx="764.01" cy="70.60" r="2.24" style="stroke-width: 0.75;"/>
<circle cx="721.99" cy="86.32" r="2.24" style="stroke-width: 0.75;"/>
<circle cx="705.62" cy="80.23" r="2.24" style="stroke-width: 0.75;"/>
<circle cx="661.56" cy="101.23" r="2.24" style="stroke-width: 0.75;"/>
<circle cx="685.70" cy="112.80" r="2.24" style="stroke-width: 0.75;"/>
<circle cx="471.03" cy="125.37" r="2.24" style="stroke-width: 0.75;"/>
<circle cx="723.56" cy="88.58" r="2.24" style="stroke-width: 0.75;"/>
<circle cx="718.36" cy="75.25" r="2.24" style="stroke-width: 0.75;"/>
<circle cx="683.20" cy="80.38" r="2.24" style="stroke-width: 0.75;"/>
<circle cx="758.84" cy="72.34" r="2.24" style="stroke-width: 0.75;"/>
<circle cx="763.20" cy="77.07" r="2.24" style="stroke-width: 0.75;"/>
<circle cx="718.52" cy="73.47" r="2.24" style="stroke-width: 0.75;"/>
<circle cx="490.94" cy="130.79" r="2.24" style="stroke-width: 0.75;"/>
<circle cx="607.78" cy="106.84" r="2.24" style="stroke-width: 0.75;"/>
<circle cx="686.32" cy="80.38" r="2.24" style="stroke-width: 0.75;"/>
<circle cx="600.99" cy="124.63" r="2.24" style="stroke-width: 0.75;"/>
<circle cx="635.47" cy="80.27" r="2.24" style="stroke-width: 0.75;"/>
<circle cx="713.64" cy="71.04" r="2.24" style="stroke-width: 0.75;"/>
<circle cx="767.57" cy="66.86" r="2.24" style="stroke-width: 0.75;"/>
<circle cx="710.68" cy="87.12" r="2.24" style="stroke-width: 0.75;"/>
<circle cx="720.56" cy="74.09" r="2.24" style="stroke-width: 0.75;"/>
<circle cx="612.95" cy="100.72" r="2.24" style="stroke-width: 0.75;"/>
<circle cx="732.15" cy="91.45" r="2.24" style="stroke-width: 0.75;"/>
<circle cx="618.86" cy="96.70" r="2.24" style="stroke-width: 0.75;"/>
<circle cx="730.81" cy="88.32" r="2.24" style="stroke-width: 0.75;"/>
<circle cx="650.50" cy="81.06" r="2.24" style="stroke-width: 0.75;"/>
<circle cx="657.33" cy="84.78" r="2.24" style="stroke-width: 0.75;"/>
<circle cx="626.70" cy="76.20" r="2.24" style="stroke-width: 0.75;"/>
<circle cx="530.33" cy="147.27" r="2.24" style="stroke-width: 0.75;"/>
<circle cx="651.03" cy="109.11" r="2.24" style="stroke-width: 0.75;"/>
<circle cx="702.61" cy="85.44" r="2.24" style="stroke-width: 0.75;"/>
<circle cx="668.62" cy="78.56" r="2.24" style="stroke-width: 0.75;"/>
<circle cx="672.56" cy="92.24" r="2.24" style="stroke-width: 0.75;"/>
<circle cx="710.70" cy="79.39" r="2.24" style="stroke-width: 0.75;"/>
<circle cx="751.58" cy="52.78" r="2.24" style="stroke-width: 0.75;"/>
<circle cx="725.34" cy="69.60" r="2.24" style="stroke-width: 0.75;"/>
<circle cx="723.45" cy="73.14" r="2.24" style="stroke-width: 0.75;"/>
<circle cx="662.18" cy="73.67" r="2.24" style="stroke-width: 0.75;"/>
<circle cx="690.91" cy="115.38" r="2.24" style="stroke-width: 0.75;"/>
<circle cx="663.29" cy="72.34" r="2.24" style="stroke-width: 0.75;"/>
<circle cx="734.22" cy="67.61" r="2.24" style="stroke-width: 0.75;"/>
<circle cx="683.99" cy="100.02" r="2.24" style="stroke-width: 0.75;"/>
<circle cx="731.05" cy="89.36" r="2.24" style="stroke-width: 0.75;"/>
<circle cx="626.93" cy="115.40" r="2.24" style="stroke-width: 0.75;"/>
<circle cx="643.77" cy="108.63" r="2.24" style="stroke-width: 0.75;"/>
<circle cx="731.09" cy="102.97" r="2.24" style="stroke-width: 0.75;"/>
<circle cx="701.74" cy="97.97" r="2.24" style="stroke-width: 0.75;"/>
<circle cx="729.12" cy="68.25" r="2.24" style="stroke-width: 0.75;"/>
<circle cx="724.93" cy="68.15" r="2.24" style="stroke-width: 0.75;"/>
<circle cx="682.56" cy="74.95" r="2.24" style="stroke-width: 0.75;"/>
<circle cx="649.30" cy="73.05" r="2.24" style="stroke-width: 0.75;"/>
<circle cx="745.14" cy="77.73" r="2.24" style="stroke-width: 0.75;"/>
<circle cx="649.35" cy="97.91" r="2.24" style="stroke-width: 0.75;"/>
<circle cx="563.93" cy="112.50" r="2.24" style="stroke-width: 0.75;"/>
<circle cx="740.90" cy="99.41" r="2.24" style="stroke-width: 0.75;"/>
<circle cx="766.45" cy="68.40" r="2.24" style="stroke-width: 0.75;"/>
<circle cx="722.35" cy="68.46" r="2.24" style="stroke-width: 0.75;"/>
<circle cx="748.21" cy="63.43" r="2.24" style="stroke-width: 0.75;"/>
<circle cx="639.17" cy="94.98" r="2.24" style="stroke-width: 0.75;"/>
</g><g clip-path="url(#c5)">
<line x1="472.78" y1="151.04" x2="765.09" y2="151.04" style="stroke-width: 0.75;"/>
<line x1="472.78" y1="151.04" x2="472.78" y2="157.02" style="stroke-width: 0.75;"/>
<line x1="521.50" y1="151.04" x2="521.50" y2="157.02" style="stroke-width: 0.75;"/>
<line x1="570.22" y1="151.04" x2="570.22" y2="157.02" style="stroke-width: 0.75;"/>
<line x1="618.94" y1="151.04" x2="618.94" y2="157.02" style="stroke-width: 0.75;"/>
<line x1="667.65" y1="151.04" x2="667.65" y2="157.02" style="stroke-width: 0.75;"/>
<line x1="716.37" y1="151.04" x2="716.37" y2="157.02" style="stroke-width: 0.75;"/>
<line x1="765.09" y1="151.04" x2="765.09" y2="157.02" style="stroke-width: 0.75;"/>
<g><text x="472.78" y="172.56" text-anchor="middle" style="font-family: Arial;font-size: 9.96px;" textLength="19.38px" lengthAdjust="spacingAndGlyphs">0.93</text></g>
<g><text x="521.50" y="172.56" text-anchor="middle" style="font-family: Arial;font-size: 9.96px;" textLength="19.38px" lengthAdjust="spacingAndGlyphs">0.94</text></g>
<g><text x="570.22" y="172.56" text-anchor="middle" style="font-family: Arial;font-size: 9.96px;" textLength="19.38px" lengthAdjust="spacingAndGlyphs">0.95</text></g>
<g><text x="618.94" y="172.56" text-anchor="middle" style="font-family: Arial;font-size: 9.96px;" textLength="19.38px" lengthAdjust="spacingAndGlyphs">0.96</text></g>
<g><text x="667.65" y="172.56" text-anchor="middle" style="font-family: Arial;font-size: 9.96px;" textLength="19.38px" lengthAdjust="spacingAndGlyphs">0.97</text></g>
<g><text x="716.37" y="172.56" text-anchor="middle" style="font-family: Arial;font-size: 9.96px;" textLength="19.38px" lengthAdjust="spacingAndGlyphs">0.98</text></g>
<g><text x="765.09" y="172.56" text-anchor="middle" style="font-family: Arial;font-size: 9.96px;" textLength="19.38px" lengthAdjust="spacingAndGlyphs">0.99</text></g>
<line x1="458.60" y1="147.70" x2="458.60" y2="53.46" style="stroke-width: 0.75;"/>
<line x1="458.60" y1="147.70" x2="452.63" y2="147.70" style="stroke-width: 0.75;"/>
<line x1="458.60" y1="134.23" x2="452.63" y2="134.23" style="stroke-width: 0.75;"/>
<line x1="458.60" y1="120.77" x2="452.63" y2="120.77" style="stroke-width: 0.75;"/>
<line x1="458.60" y1="107.31" x2="452.63" y2="107.31" style="stroke-width: 0.75;"/>
<line x1="458.60" y1="93.85" x2="452.63" y2="93.85" style="stroke-width: 0.75;"/>
<line x1="458.60" y1="80.39" x2="452.63" y2="80.39" style="stroke-width: 0.75;"/>
<line x1="458.60" y1="66.92" x2="452.63" y2="66.92" style="stroke-width: 0.75;"/>
<line x1="458.60" y1="53.46" x2="452.63" y2="53.46" style="stroke-width: 0.75;"/>
<g><text transform="translate(444.26,147.70) rotate(-90.00)" text-anchor="middle" style="font-family: Arial;font-size: 9.96px;" textLength="19.38px" lengthAdjust="spacingAndGlyphs">1.45</text></g>
<g><text transform="translate(444.26,107.31) rotate(-90.00)" text-anchor="middle" style="font-family: Arial;font-size: 9.96px;" textLength="19.38px" lengthAdjust="spacingAndGlyphs">1.48</text></g>
<g><text transform="translate(444.26,66.92) rotate(-90.00)" text-anchor="middle" style="font-family: Arial;font-size: 9.96px;" textLength="19.38px" lengthAdjust="spacingAndGlyphs">1.51</text></g>
<polygon points="458.60,151.04 794.10,151.04 794.10,49.00 458.60,49.00" style="stroke-width: 0.75;" />
</g><g clip-path="url(#c6)">
<g><text x="626.35" y="28.77" text-anchor="middle" style="font-family: Arial;font-size: 11.95px;font-weight: bold;" textLength="56.41px" lengthAdjust="spacingAndGlyphs">Process 2</text></g>
<g><text x="620.94" y="194.12" style="font-family: Arial;font-size: 9.96px;" textLength="6.96px" lengthAdjust="spacingAndGlyphs">φ</text></g>
<g><text x="627.89" y="195.92" style="font-family: Arial;font-size: 6.97px;" textLength="3.87px" lengthAdjust="spacingAndGlyphs">2</text></g>
<g><text transform="translate(418.01,105.44) rotate(-90.00)" style="font-family: Arial;font-size: 9.96px;" textLength="6.96px" lengthAdjust="spacingAndGlyphs">φ</text></g>
<g><text transform="translate(419.82,98.48) rotate(-90.00)" style="font-family: Arial;font-size: 6.97px;" textLength="3.87px" lengthAdjust="spacingAndGlyphs">1</text></g>
</g><g clip-path="url(#c7)">
<circle cx="226.88" cy="308.81" r="2.24" style="stroke-width: 0.75;"/>
<circle cx="281.05" cy="290.03" r="2.24" style="stroke-width: 0.75;"/>
<circle cx="286.10" cy="295.17" r="2.24" style="stroke-width: 0.75;"/>
<circle cx="196.35" cy="313.56" r="2.24" style="stroke-width: 0.75;"/>
<circle cx="313.38" cy="282.39" r="2.24" style="stroke-width: 0.75;"/>
<circle cx="234.08" cy="311.75" r="2.24" style="stroke-width: 0.75;"/>
<circle cx="370.95" cy="264.78" r="2.24" style="stroke-width: 0.75;"/>
<circle cx="296.92" cy="288.73" r="2.24" style="stroke-width: 0.75;"/>
<circle cx="277.46" cy="290.64" r="2.24" style="stroke-width: 0.75;"/>
<circle cx="292.52" cy="289.56" r="2.24" style="stroke-width: 0.75;"/>
<circle cx="246.55" cy="300.88" r="2.24" style="stroke-width: 0.75;"/>
<circle cx="352.99" cy="271.60" r="2.24" style="stroke-width: 0.75;"/>
<circle cx="175.36" cy="320.68" r="2.24" style="stroke-width: 0.75;"/>
<circle cx="203.01" cy="316.52" r="2.24" style="stroke-width: 0.75;"/>
<circle cx="189.01" cy="318.75" r="2.24" style="stroke-width: 0.75;"/>
<circle cx="324.46" cy="284.01" r="2.24" style="stroke-width: 0.75;"/>
<circle cx="214.06" cy="314.05" r="2.24" style="stroke-width: 0.75;"/>
<circle cx="138.66" cy="338.03" r="2.24" style="stroke-width: 0.75;"/>
<circle cx="274.21" cy="298.41" r="2.24" style="stroke-width: 0.75;"/>
<circle cx="259.52" cy="299.81" r="2.24" style="stroke-width: 0.75;"/>
<circle cx="217.56" cy="310.65" r="2.24" style="stroke-width: 0.75;"/>
<circle cx="299.22" cy="285.77" r="2.24" style="stroke-width: 0.75;"/>
<circle cx="61.43" cy="359.27" r="2.24" style="stroke-width: 0.75;"/>
<circle cx="272.49" cy="292.40" r="2.24" style="stroke-width: 0.75;"/>
<circle cx="223.11" cy="305.81" r="2.24" style="stroke-width: 0.75;"/>
<circle cx="259.54" cy="301.72" r="2.24" style="stroke-width: 0.75;"/>
<circle cx="166.53" cy="330.23" r="2.24" style="stroke-width: 0.75;"/>
<circle cx="217.37" cy="308.36" r="2.24" style="stroke-width: 0.75;"/>
<circle cx="179.88" cy="322.44" r="2.24" style="stroke-width: 0.75;"/>
<circle cx="220.17" cy="319.18" r="2.24" style="stroke-width: 0.75;"/>
<circle cx="91.01" cy="349.71" r="2.24" style="stroke-width: 0.75;"/>
<circle cx="228.80" cy="307.05" r="2.24" style="stroke-width: 0.75;"/>
<circle cx="279.78" cy="295.01" r="2.24" style="stroke-width: 0.75;"/>
<circle cx="201.74" cy="315.86" r="2.24" style="stroke-width: 0.75;"/>
<circle cx="221.25" cy="314.07" r="2.24" style="stroke-width: 0.75;"/>
<circle cx="189.23" cy="323.86" r="2.24" style="stroke-width: 0.75;"/>
<circle cx="312.41" cy="282.61" r="2.24" style="stroke-width: 0.75;"/>
<circle cx="157.46" cy="328.78" r="2.24" style="stroke-width: 0.75;"/>
<circle cx="327.54" cy="279.36" r="2.24" style="stroke-width: 0.75;"/>
<circle cx="242.81" cy="302.29" r="2.24" style="stroke-width: 0.75;"/>
<circle cx="282.07" cy="291.51" r="2.24" style="stroke-width: 0.75;"/>
<circle cx="298.79" cy="284.07" r="2.24" style="stroke-width: 0.75;"/>
<circle cx="252.24" cy="301.24" r="2.24" style="stroke-width: 0.75;"/>
<circle cx="246.28" cy="300.29" r="2.24" style="stroke-width: 0.75;"/>
<circle cx="218.88" cy="313.97" r="2.24" style="stroke-width: 0.75;"/>
<circle cx="169.53" cy="325.92" r="2.24" style="stroke-width: 0.75;"/>
<circle cx="206.55" cy="318.89" r="2.24" style="stroke-width: 0.75;"/>
<circle cx="286.79" cy="292.48" r="2.24" style="stroke-width: 0.75;"/>
<circle cx="288.50" cy="291.99" r="2.24" style="stroke-width: 0.75;"/>
<circle cx="229.50" cy="309.76" r="2.24" style="stroke-width: 0.75;"/>
<circle cx="162.60" cy="327.30" r="2.24" style="stroke-width: 0.75;"/>
<circle cx="226.68" cy="306.73" r="2.24" style="stroke-width: 0.75;"/>
<circle cx="302.79" cy="288.94" r="2.24" style="stroke-width: 0.75;"/>
<circle cx="206.70" cy="316.46" r="2.24" style="stroke-width: 0.75;"/>
<circle cx="184.10" cy="321.20" r="2.24" style="stroke-width: 0.75;"/>
<circle cx="225.82" cy="313.70" r="2.24" style="stroke-width: 0.75;"/>
<circle cx="237.61" cy="307.31" r="2.24" style="stroke-width: 0.75;"/>
<circle cx="114.92" cy="342.18" r="2.24" style="stroke-width: 0.75;"/>
<circle cx="203.93" cy="314.86" r="2.24" style="stroke-width: 0.75;"/>
<circle cx="183.58" cy="323.05" r="2.24" style="stroke-width: 0.75;"/>
<circle cx="222.99" cy="307.51" r="2.24" style="stroke-width: 0.75;"/>
<circle cx="285.96" cy="289.06" r="2.24" style="stroke-width: 0.75;"/>
<circle cx="243.67" cy="303.71" r="2.24" style="stroke-width: 0.75;"/>
<circle cx="266.86" cy="296.77" r="2.24" style="stroke-width: 0.75;"/>
<circle cx="127.05" cy="335.77" r="2.24" style="stroke-width: 0.75;"/>
<circle cx="289.77" cy="294.65" r="2.24" style="stroke-width: 0.75;"/>
<circle cx="211.59" cy="316.41" r="2.24" style="stroke-width: 0.75;"/>
<circle cx="229.91" cy="309.32" r="2.24" style="stroke-width: 0.75;"/>
<circle cx="281.10" cy="290.50" r="2.24" style="stroke-width: 0.75;"/>
<circle cx="261.73" cy="294.49" r="2.24" style="stroke-width: 0.75;"/>
<circle cx="165.01" cy="332.39" r="2.24" style="stroke-width: 0.75;"/>
<circle cx="220.31" cy="312.80" r="2.24" style="stroke-width: 0.75;"/>
<circle cx="372.07" cy="271.99" r="2.24" style="stroke-width: 0.75;"/>
<circle cx="263.77" cy="300.38" r="2.24" style="stroke-width: 0.75;"/>
<circle cx="221.74" cy="306.52" r="2.24" style="stroke-width: 0.75;"/>
<circle cx="217.38" cy="316.71" r="2.24" style="stroke-width: 0.75;"/>
<circle cx="263.19" cy="297.80" r="2.24" style="stroke-width: 0.75;"/>
<circle cx="298.27" cy="291.62" r="2.24" style="stroke-width: 0.75;"/>
<circle cx="213.74" cy="319.17" r="2.24" style="stroke-width: 0.75;"/>
<circle cx="223.76" cy="310.34" r="2.24" style="stroke-width: 0.75;"/>
<circle cx="247.86" cy="302.67" r="2.24" style="stroke-width: 0.75;"/>
<circle cx="265.67" cy="295.77" r="2.24" style="stroke-width: 0.75;"/>
<circle cx="163.17" cy="334.28" r="2.24" style="stroke-width: 0.75;"/>
<circle cx="272.77" cy="296.61" r="2.24" style="stroke-width: 0.75;"/>
<circle cx="159.75" cy="330.67" r="2.24" style="stroke-width: 0.75;"/>
<circle cx="183.40" cy="319.29" r="2.24" style="stroke-width: 0.75;"/>
<circle cx="201.15" cy="313.03" r="2.24" style="stroke-width: 0.75;"/>
<circle cx="168.02" cy="324.53" r="2.24" style="stroke-width: 0.75;"/>
<circle cx="192.17" cy="316.79" r="2.24" style="stroke-width: 0.75;"/>
<circle cx="292.97" cy="289.60" r="2.24" style="stroke-width: 0.75;"/>
<circle cx="267.78" cy="295.57" r="2.24" style="stroke-width: 0.75;"/>
<circle cx="207.85" cy="318.31" r="2.24" style="stroke-width: 0.75;"/>
<circle cx="158.82" cy="329.88" r="2.24" style="stroke-width: 0.75;"/>
<circle cx="275.38" cy="298.10" r="2.24" style="stroke-width: 0.75;"/>
<circle cx="273.29" cy="294.01" r="2.24" style="stroke-width: 0.75;"/>
<circle cx="217.24" cy="310.63" r="2.24" style="stroke-width: 0.75;"/>
<circle cx="229.29" cy="306.07" r="2.24" style="stroke-width: 0.75;"/>
<circle cx="314.00" cy="281.43" r="2.24" style="stroke-width: 0.75;"/>
<circle cx="196.08" cy="315.75" r="2.24" style="stroke-width: 0.75;"/>
<circle cx="117.31" cy="340.27" r="2.24" style="stroke-width: 0.75;"/>
</g><g clip-path="url(#c8)">
<line x1="99.28" y1="363.04" x2="380.98" y2="363.04" style="stroke-width: 0.75;"/>
<line x1="99.28" y1="363.04" x2="99.28" y2="369.02" style="stroke-width: 0.75;"/>
<line x1="155.62" y1="363.04" x2="155.62" y2="369.02" style="stroke-width: 0.75;"/>
<line x1="211.96" y1="363.04" x2="211.96" y2="369.02" style="stroke-width: 0.75;"/>
<line x1="268.30" y1="363.04" x2="268.30" y2="369.02" style="stroke-width: 0.75;"/>
<line x1="324.64" y1="363.04" x2="324.64" y2="369.02" style="stroke-width: 0.75;"/>
<line x1="380.98" y1="363.04" x2="380.98" y2="369.02" style="stroke-width: 0.75;"/>
<g><text x="99.28" y="384.56" text-anchor="middle" style="font-family: Arial;font-size: 9.96px;" textLength="19.38px" lengthAdjust="spacingAndGlyphs">0.40</text></g>
<g><text x="155.62" y="384.56" text-anchor="middle" style="font-family: Arial;font-size: 9.96px;" textLength="19.38px" lengthAdjust="spacingAndGlyphs">0.45</text></g>
<g><text x="211.96" y="384.56" text-anchor="middle" style="font-family: Arial;font-size: 9.96px;" textLength="19.38px" lengthAdjust="spacingAndGlyphs">0.50</text></g>
<g><text x="268.30" y="384.56" text-anchor="middle" style="font-family: Arial;font-size: 9.96px;" textLength="19.38px" lengthAdjust="spacingAndGlyphs">0.55</text></g>
<g><text x="324.64" y="384.56" text-anchor="middle" style="font-family: Arial;font-size: 9.96px;" textLength="19.38px" lengthAdjust="spacingAndGlyphs">0.60</text></g>
<g><text x="380.98" y="384.56" text-anchor="middle" style="font-family: Arial;font-size: 9.96px;" textLength="19.38px" lengthAdjust="spacingAndGlyphs">0.65</text></g>
<line x1="49.00" y1="355.67" x2="49.00" y2="273.02" style="stroke-width: 0.75;"/>
<line x1="49.00" y1="355.67" x2="43.03" y2="355.67" style="stroke-width: 0.75;"/>
<line x1="49.00" y1="339.14" x2="43.03" y2="339.14" style="stroke-width: 0.75;"/>
<line x1="49.00" y1="322.61" x2="43.03" y2="322.61" style="stroke-width: 0.75;"/>
<line x1="49.00" y1="306.08" x2="43.03" y2="306.08" style="stroke-width: 0.75;"/>
<line x1="49.00" y1="289.55" x2="43.03" y2="289.55" style="stroke-width: 0.75;"/>
<line x1="49.00" y1="273.02" x2="43.03" y2="273.02" style="stroke-width: 0.75;"/>
<g><text transform="translate(34.66,355.67) rotate(-90.00)" text-anchor="middle" style="font-family: Arial;font-size: 9.96px;" textLength="19.38px" lengthAdjust="spacingAndGlyphs">1.35</text></g>
<g><text transform="translate(34.66,322.61) rotate(-90.00)" text-anchor="middle" style="font-family: Arial;font-size: 9.96px;" textLength="19.38px" lengthAdjust="spacingAndGlyphs">1.45</text></g>
<g><text transform="translate(34.66,289.55) rotate(-90.00)" text-anchor="middle" style="font-family: Arial;font-size: 9.96px;" textLength="19.38px" lengthAdjust="spacingAndGlyphs">1.55</text></g>
<polygon points="49.00,363.04 384.50,363.04 384.50,261.00 49.00,261.00" style="stroke-width: 0.75;" />
</g><g clip-path="url(#c9)">
<g><text x="216.75" y="240.77" text-anchor="middle" style="font-family: Arial;font-size: 11.95px;font-weight: bold;" textLength="56.41px" lengthAdjust="spacingAndGlyphs">Process 3</text></g>
<g><text x="211.34" y="406.12" style="font-family: Arial;font-size: 9.96px;" textLength="6.96px" lengthAdjust="spacingAndGlyphs">φ</text></g>
<g><text x="218.29" y="407.92" style="font-family: Arial;font-size: 6.97px;" textLength="3.87px" lengthAdjust="spacingAndGlyphs">2</text></g>
<g><text transform="translate(8.41,317.44) rotate(-90.00)" style="font-family: Arial;font-size: 9.96px;" textLength="6.96px" lengthAdjust="spacingAndGlyphs">φ</text></g>
<g><text transform="translate(10.22,310.48) rotate(-90.00)" style="font-family: Arial;font-size: 6.97px;" textLength="3.87px" lengthAdjust="spacingAndGlyphs">1</text></g>
</g><g clip-path="url(#c10)">
<circle cx="746.31" cy="276.01" r="2.24" style="stroke-width: 0.75;"/>
<circle cx="743.85" cy="264.78" r="2.24" style="stroke-width: 0.75;"/>
<circle cx="750.99" cy="276.77" r="2.24" style="stroke-width: 0.75;"/>
<circle cx="711.21" cy="291.71" r="2.24" style="stroke-width: 0.75;"/>
<circle cx="700.17" cy="301.17" r="2.24" style="stroke-width: 0.75;"/>
<circle cx="659.83" cy="306.28" r="2.24" style="stroke-width: 0.75;"/>
<circle cx="749.72" cy="284.57" r="2.24" style="stroke-width: 0.75;"/>
<circle cx="724.40" cy="295.73" r="2.24" style="stroke-width: 0.75;"/>
<circle cx="714.69" cy="283.38" r="2.24" style="stroke-width: 0.75;"/>
<circle cx="728.31" cy="309.11" r="2.24" style="stroke-width: 0.75;"/>
<circle cx="698.72" cy="297.23" r="2.24" style="stroke-width: 0.75;"/>
<circle cx="573.12" cy="314.18" r="2.24" style="stroke-width: 0.75;"/>
<circle cx="695.81" cy="308.02" r="2.24" style="stroke-width: 0.75;"/>
<circle cx="759.52" cy="291.84" r="2.24" style="stroke-width: 0.75;"/>
<circle cx="745.77" cy="287.41" r="2.24" style="stroke-width: 0.75;"/>
<circle cx="726.49" cy="304.37" r="2.24" style="stroke-width: 0.75;"/>
<circle cx="717.61" cy="289.89" r="2.24" style="stroke-width: 0.75;"/>
<circle cx="745.55" cy="275.03" r="2.24" style="stroke-width: 0.75;"/>
<circle cx="692.44" cy="293.59" r="2.24" style="stroke-width: 0.75;"/>
<circle cx="751.35" cy="280.15" r="2.24" style="stroke-width: 0.75;"/>
<circle cx="772.33" cy="278.95" r="2.24" style="stroke-width: 0.75;"/>
<circle cx="653.23" cy="298.82" r="2.24" style="stroke-width: 0.75;"/>
<circle cx="589.89" cy="311.79" r="2.24" style="stroke-width: 0.75;"/>
<circle cx="728.59" cy="290.01" r="2.24" style="stroke-width: 0.75;"/>
<circle cx="725.57" cy="276.58" r="2.24" style="stroke-width: 0.75;"/>
<circle cx="622.35" cy="314.76" r="2.24" style="stroke-width: 0.75;"/>
<circle cx="688.50" cy="289.54" r="2.24" style="stroke-width: 0.75;"/>
<circle cx="583.86" cy="325.46" r="2.24" style="stroke-width: 0.75;"/>
<circle cx="655.11" cy="314.29" r="2.24" style="stroke-width: 0.75;"/>
<circle cx="675.14" cy="284.39" r="2.24" style="stroke-width: 0.75;"/>
<circle cx="473.94" cy="359.27" r="2.24" style="stroke-width: 0.75;"/>
<circle cx="691.96" cy="298.78" r="2.24" style="stroke-width: 0.75;"/>
<circle cx="681.50" cy="287.67" r="2.24" style="stroke-width: 0.75;"/>
<circle cx="741.03" cy="290.57" r="2.24" style="stroke-width: 0.75;"/>
<circle cx="713.87" cy="296.27" r="2.24" style="stroke-width: 0.75;"/>
<circle cx="684.27" cy="303.89" r="2.24" style="stroke-width: 0.75;"/>
<circle cx="699.31" cy="316.04" r="2.24" style="stroke-width: 0.75;"/>
<circle cx="699.76" cy="286.30" r="2.24" style="stroke-width: 0.75;"/>
<circle cx="702.83" cy="290.59" r="2.24" style="stroke-width: 0.75;"/>
<circle cx="709.67" cy="296.85" r="2.24" style="stroke-width: 0.75;"/>
<circle cx="748.16" cy="278.94" r="2.24" style="stroke-width: 0.75;"/>
<circle cx="702.16" cy="296.20" r="2.24" style="stroke-width: 0.75;"/>
<circle cx="708.87" cy="302.33" r="2.24" style="stroke-width: 0.75;"/>
<circle cx="471.03" cy="359.01" r="2.24" style="stroke-width: 0.75;"/>
<circle cx="748.36" cy="280.15" r="2.24" style="stroke-width: 0.75;"/>
<circle cx="734.77" cy="284.36" r="2.24" style="stroke-width: 0.75;"/>
<circle cx="667.52" cy="300.50" r="2.24" style="stroke-width: 0.75;"/>
<circle cx="781.67" cy="266.55" r="2.24" style="stroke-width: 0.75;"/>
<circle cx="736.91" cy="282.15" r="2.24" style="stroke-width: 0.75;"/>
<circle cx="737.45" cy="293.90" r="2.24" style="stroke-width: 0.75;"/>
<circle cx="710.82" cy="286.26" r="2.24" style="stroke-width: 0.75;"/>
<circle cx="694.25" cy="286.78" r="2.24" style="stroke-width: 0.75;"/>
<circle cx="712.67" cy="296.07" r="2.24" style="stroke-width: 0.75;"/>
<circle cx="572.42" cy="314.75" r="2.24" style="stroke-width: 0.75;"/>
<circle cx="656.84" cy="292.95" r="2.24" style="stroke-width: 0.75;"/>
<circle cx="654.71" cy="307.66" r="2.24" style="stroke-width: 0.75;"/>
<circle cx="691.62" cy="314.18" r="2.24" style="stroke-width: 0.75;"/>
<circle cx="762.87" cy="282.68" r="2.24" style="stroke-width: 0.75;"/>
<circle cx="693.93" cy="316.60" r="2.24" style="stroke-width: 0.75;"/>
<circle cx="721.49" cy="291.95" r="2.24" style="stroke-width: 0.75;"/>
<circle cx="725.93" cy="295.30" r="2.24" style="stroke-width: 0.75;"/>
<circle cx="750.24" cy="288.68" r="2.24" style="stroke-width: 0.75;"/>
<circle cx="689.75" cy="294.87" r="2.24" style="stroke-width: 0.75;"/>
<circle cx="750.88" cy="286.69" r="2.24" style="stroke-width: 0.75;"/>
<circle cx="758.16" cy="286.22" r="2.24" style="stroke-width: 0.75;"/>
<circle cx="720.99" cy="280.42" r="2.24" style="stroke-width: 0.75;"/>
<circle cx="767.90" cy="278.73" r="2.24" style="stroke-width: 0.75;"/>
<circle cx="754.45" cy="278.97" r="2.24" style="stroke-width: 0.75;"/>
<circle cx="515.87" cy="326.92" r="2.24" style="stroke-width: 0.75;"/>
<circle cx="714.76" cy="298.41" r="2.24" style="stroke-width: 0.75;"/>
<circle cx="673.13" cy="307.76" r="2.24" style="stroke-width: 0.75;"/>
<circle cx="696.03" cy="305.71" r="2.24" style="stroke-width: 0.75;"/>
<circle cx="680.50" cy="303.27" r="2.24" style="stroke-width: 0.75;"/>
<circle cx="735.44" cy="296.24" r="2.24" style="stroke-width: 0.75;"/>
<circle cx="727.03" cy="289.74" r="2.24" style="stroke-width: 0.75;"/>
<circle cx="767.05" cy="280.36" r="2.24" style="stroke-width: 0.75;"/>
<circle cx="549.02" cy="317.41" r="2.24" style="stroke-width: 0.75;"/>
<circle cx="626.31" cy="312.77" r="2.24" style="stroke-width: 0.75;"/>
<circle cx="664.08" cy="312.25" r="2.24" style="stroke-width: 0.75;"/>
<circle cx="693.50" cy="304.92" r="2.24" style="stroke-width: 0.75;"/>
<circle cx="756.11" cy="287.31" r="2.24" style="stroke-width: 0.75;"/>
<circle cx="657.54" cy="302.82" r="2.24" style="stroke-width: 0.75;"/>
<circle cx="720.44" cy="287.35" r="2.24" style="stroke-width: 0.75;"/>
<circle cx="698.61" cy="300.08" r="2.24" style="stroke-width: 0.75;"/>
<circle cx="727.37" cy="282.32" r="2.24" style="stroke-width: 0.75;"/>
<circle cx="763.85" cy="278.69" r="2.24" style="stroke-width: 0.75;"/>
<circle cx="705.96" cy="310.22" r="2.24" style="stroke-width: 0.75;"/>
<circle cx="597.15" cy="305.54" r="2.24" style="stroke-width: 0.75;"/>
<circle cx="753.04" cy="279.31" r="2.24" style="stroke-width: 0.75;"/>
<circle cx="759.02" cy="281.43" r="2.24" style="stroke-width: 0.75;"/>
<circle cx="741.97" cy="298.91" r="2.24" style="stroke-width: 0.75;"/>
<circle cx="710.86" cy="283.87" r="2.24" style="stroke-width: 0.75;"/>
<circle cx="716.35" cy="284.98" r="2.24" style="stroke-width: 0.75;"/>
<circle cx="761.36" cy="289.03" r="2.24" style="stroke-width: 0.75;"/>
<circle cx="675.22" cy="305.77" r="2.24" style="stroke-width: 0.75;"/>
<circle cx="685.91" cy="289.13" r="2.24" style="stroke-width: 0.75;"/>
<circle cx="757.14" cy="282.31" r="2.24" style="stroke-width: 0.75;"/>
<circle cx="709.49" cy="299.32" r="2.24" style="stroke-width: 0.75;"/>
<circle cx="672.20" cy="296.25" r="2.24" style="stroke-width: 0.75;"/>
<circle cx="740.96" cy="285.58" r="2.24" style="stroke-width: 0.75;"/>
</g><g clip-path="url(#c11)">
<line x1="488.23" y1="363.04" x2="725.58" y2="363.04" style="stroke-width: 0.75;"/>
<line x1="488.23" y1="363.04" x2="488.23" y2="369.02" style="stroke-width: 0.75;"/>
<line x1="567.34" y1="363.04" x2="567.34" y2="369.02" style="stroke-width: 0.75;"/>
<line x1="646.46" y1="363.04" x2="646.46" y2="369.02" style="stroke-width: 0.75;"/>
<line x1="725.58" y1="363.04" x2="725.58" y2="369.02" style="stroke-width: 0.75;"/>
<g><text x="488.23" y="384.56" text-anchor="middle" style="font-family: Arial;font-size: 9.96px;" textLength="19.38px" lengthAdjust="spacingAndGlyphs">0.92</text></g>
<g><text x="567.34" y="384.56" text-anchor="middle" style="font-family: Arial;font-size: 9.96px;" textLength="19.38px" lengthAdjust="spacingAndGlyphs">0.94</text></g>
<g><text x="646.46" y="384.56" text-anchor="middle" style="font-family: Arial;font-size: 9.96px;" textLength="19.38px" lengthAdjust="spacingAndGlyphs">0.96</text></g>
<g><text x="725.58" y="384.56" text-anchor="middle" style="font-family: Arial;font-size: 9.96px;" textLength="19.38px" lengthAdjust="spacingAndGlyphs">0.98</text></g>
<line x1="458.60" y1="351.67" x2="458.60" y2="269.03" style="stroke-width: 0.75;"/>
<line x1="458.60" y1="351.67" x2="452.63" y2="351.67" style="stroke-width: 0.75;"/>
<line x1="458.60" y1="331.01" x2="452.63" y2="331.01" style="stroke-width: 0.75;"/>
<line x1="458.60" y1="310.35" x2="452.63" y2="310.35" style="stroke-width: 0.75;"/>
<line x1="458.60" y1="289.69" x2="452.63" y2="289.69" style="stroke-width: 0.75;"/>
<line x1="458.60" y1="269.03" x2="452.63" y2="269.03" style="stroke-width: 0.75;"/>
<g><text transform="translate(444.26,351.67) rotate(-90.00)" text-anchor="middle" style="font-family: Arial;font-size: 9.96px;" textLength="19.38px" lengthAdjust="spacingAndGlyphs">1.44</text></g>
<g><text transform="translate(444.26,310.35) rotate(-90.00)" text-anchor="middle" style="font-family: Arial;font-size: 9.96px;" textLength="19.38px" lengthAdjust="spacingAndGlyphs">1.48</text></g>
<g><text transform="translate(444.26,269.03) rotate(-90.00)" text-anchor="middle" style="font-family: Arial;font-size: 9.96px;" textLength="19.38px" lengthAdjust="spacingAndGlyphs">1.52</text></g>
<polygon points="458.60,363.04 794.10,363.04 794.10,261.00 458.60,261.00" style="stroke-width: 0.75;" />
</g><g clip-path="url(#c12)">
<g><text x="626.35" y="240.77" text-anchor="middle" style="font-family: Arial;font-size: 11.95px;font-weight: bold;" textLength="56.41px" lengthAdjust="spacingAndGlyphs">Process 4</text></g>
<g><text x="620.94" y="406.12" style="font-family: Arial;font-size: 9.96px;" textLength="6.96px" lengthAdjust="spacingAndGlyphs">φ</text></g>
<g><text x="627.89" y="407.92" style="font-family: Arial;font-size: 6.97px;" textLength="3.87px" lengthAdjust="spacingAndGlyphs">2</text></g>
<g><text transform="translate(418.01,317.44) rotate(-90.00)" style="font-family: Arial;font-size: 9.96px;" textLength="6.96px" lengthAdjust="spacingAndGlyphs">φ</text></g>
<g><text transform="translate(419.82,310.48) rotate(-90.00)" style="font-family: Arial;font-size: 6.97px;" textLength="3.87px" lengthAdjust="spacingAndGlyphs">1</text></g>
</g>
</svg>