<svg xmlns="http://www.w3.org/2000/svg" xmlns:xlink="http://www.w3.org/1999/xlink" class="httpgd" width="1024.00" height="530.00" viewBox="0 0 819.20 424.00">
<defs>
  <style type='text/css'><![CDATA[
    .httpgd line, .httpgd polyline, .httpgd polygon, .httpgd path, .httpgd rect, .httpgd circle {
      fill: none;
      stroke: #000000;
      stroke-linecap: round;
      stroke-linejoin: round;
      stroke-miterlimit: 10.00;
    }
  ]]></style>
<clipPath id="c0"><rect x="0.00" y="0.00" width="819.20" height="424.00"/></clipPath>
<clipPath id="c1"><rect x="49.00" y="49.00" width="335.50" height="102.04"/></clipPath>
<clipPath id="c2"><rect x="0.00" y="0.00" width="819.20" height="424.00"/></clipPath>
<clipPath id="c3"><rect x="0.00" y="0.00" width="409.60" height="212.00"/></clipPath>
<clipPath id="c4"><rect x="458.60" y="49.00" width="335.50" height="102.04"/></clipPath>
<clipPath id="c5"><rect x="0.00" y="0.00" width="819.20" height="424.00"/></clipPath>
<clipPath id="c6"><rect x="409.60" y="0.00" width="409.60" height="212.00"/></clipPath>
<clipPath id="c7"><rect x="49.00" y="261.00" width="335.50" height="102.04"/></clipPath>
<clipPath id="c8"><rect x="0.00" y="0.00" width="819.20" height="424.00"/></clipPath>
<clipPath id="c9"><rect x="0.00" y="212.00" width="409.60" height="212.00"/></clipPath>
<clipPath id="c10"><rect x="458.60" y="261.00" width="335.50" height="102.04"/></clipPath>
<clipPath id="c11"><rect x="0.00" y="0.00" width="819.20" height="424.00"/></clipPath>
<clipPath id="c12"><rect x="409.60" y="212.00" width="409.60" height="212.00"/></clipPath>
</defs>
<rect width="100%" height="100%" style="stroke: none;fill: #FFFFFF;"/>
<g clip-path="url(#c0)">
</g><g clip-path="url(#c1)">
<circle cx="364.65" cy="55.21" r="2.24" style="stroke-width: 0.75;"/>
<circle cx="331.43" cy="63.95" r="2.24" style="stroke-width: 0.75;"/>
<circle cx="76.58" cy="136.73" r="2.24" style="stroke-width: 0.75;"/>
<circle cx="224.98" cy="95.17" r="2.24" style="stroke-width: 0.75;"/>
<circle cx="233.34" cy="99.76" r="2.24" style="stroke-width: 0.75;"/>
<circle cx="207.13" cy="105.89" r="2.24" style="stroke-width: 0.75;"/>
<circle cx="372.07" cy="54.49" r="2.24" style="stroke-width: 0.75;"/>
<circle cx="280.82" cy="84.99" r="2.24" style="stroke-width: 0.75;"/>
<circle cx="265.57" cy="86.86" r="2.24" style="stroke-width: 0.75;"/>
<circle cx="324.79" cy="64.97" r="2.24" style="stroke-width: 0.75;"/>
<circle cx="217.74" cy="103.02" r="2.24" style="stroke-width: 0.75;"/>
<circle cx="240.58" cy="94.70" r="2.24" style="stroke-width: 0.75;"/>
<circle cx="316.12" cy="74.72" r="2.24" style="stroke-width: 0.75;"/>
<circle cx="270.42" cy="83.52" r="2.24" style="stroke-width: 0.75;"/>
<circle cx="270.47" cy="80.60" r="2.24" style="stroke-width: 0.75;"/>
<circle cx="277.22" cy="77.82" r="2.24" style="stroke-width: 0.75;"/>
<circle cx="249.57" cy="85.59" r="2.24" style="stroke-width: 0.75;"/>
<circle cx="150.14" cy="125.52" r="2.24" style="stroke-width: 0.75;"/>
<circle cx="139.67" cy="118.62" r="2.24" style="stroke-width: 0.75;"/>
<circle cx="316.11" cy="66.64" r="2.24" style="stroke-width: 0.75;"/>
<circle cx="182.35" cy="105.50" r="2.24" style="stroke-width: 0.75;"/>
<circle cx="147.28" cy="119.44" r="2.24" style="stroke-width: 0.75;"/>
<circle cx="249.85" cy="92.71" r="2.24" style="stroke-width: 0.75;"/>
<circle cx="320.48" cy="66.11" r="2.24" style="stroke-width: 0.75;"/>
<circle cx="188.23" cy="106.35" r="2.24" style="stroke-width: 0.75;"/>
<circle cx="131.71" cy="127.11" r="2.24" style="stroke-width: 0.75;"/>
<circle cx="272.92" cy="91.15" r="2.24" style="stroke-width: 0.75;"/>
<circle cx="255.01" cy="103.59" r="2.24" style="stroke-width: 0.75;"/>
<circle cx="360.52" cy="58.05" r="2.24" style="stroke-width: 0.75;"/>
<circle cx="331.85" cy="68.52" r="2.24" style="stroke-width: 0.75;"/>
<circle cx="158.20" cy="112.92" r="2.24" style="stroke-width: 0.75;"/>
<circle cx="224.99" cy="94.52" r="2.24" style="stroke-width: 0.75;"/>
<circle cx="130.26" cy="124.12" r="2.24" style="stroke-width: 0.75;"/>
<circle cx="297.68" cy="73.00" r="2.24" style="stroke-width: 0.75;"/>
<circle cx="229.19" cy="94.66" r="2.24" style="stroke-width: 0.75;"/>
<circle cx="286.29" cy="80.20" r="2.24" style="stroke-width: 0.75;"/>
<circle cx="206.73" cy="99.41" r="2.24" style="stroke-width: 0.75;"/>
<circle cx="326.06" cy="74.28" r="2.24" style="stroke-width: 0.75;"/>
<circle cx="266.28" cy="84.44" r="2.24" style="stroke-width: 0.75;"/>
<circle cx="351.29" cy="55.71" r="2.24" style="stroke-width: 0.75;"/>
<circle cx="270.98" cy="77.59" r="2.24" style="stroke-width: 0.75;"/>
<circle cx="287.16" cy="73.57" r="2.24" style="stroke-width: 0.75;"/>
<circle cx="282.93" cy="73.42" r="2.24" style="stroke-width: 0.75;"/>
<circle cx="353.97" cy="54.58" r="2.24" style="stroke-width: 0.75;"/>
<circle cx="287.72" cy="82.30" r="2.24" style="stroke-width: 0.75;"/>
<circle cx="235.31" cy="92.95" r="2.24" style="stroke-width: 0.75;"/>
<circle cx="293.47" cy="84.03" r="2.24" style="stroke-width: 0.75;"/>
<circle cx="75.14" cy="140.76" r="2.24" style="stroke-width: 0.75;"/>
<circle cx="227.85" cy="94.31" r="2.24" style="stroke-width: 0.75;"/>
<circle cx="255.72" cy="97.60" r="2.24" style="stroke-width: 0.75;"/>
<circle cx="231.09" cy="97.52" r="2.24" style="stroke-width: 0.75;"/>
<circle cx="168.49" cy="110.27" r="2.24" style="stroke-width: 0.75;"/>
<circle cx="214.61" cy="95.41" r="2.24" style="stroke-width: 0.75;"/>
<circle cx="166.10" cy="111.19" r="2.24" style="stroke-width: 0.75;"/>
<circle cx="280.62" cy="87.26" r="2.24" style="stroke-width: 0.75;"/>
<circle cx="187.15" cy="111.92" r="2.24" style="stroke-width: 0.75;"/>
<circle cx="315.38" cy="67.36" r="2.24" style="stroke-width: 0.75;"/>
<circle cx="183.37" cy="114.44" r="2.24" style="stroke-width: 0.75;"/>
<circle cx="249.38" cy="91.53" r="2.24" style="stroke-width: 0.75;"/>
<circle cx="205.21" cy="101.90" r="2.24" style="stroke-width: 0.75;"/>
<circle cx="316.51" cy="71.14" r="2.24" style="stroke-width: 0.75;"/>
<circle cx="261.51" cy="86.88" r="2.24" style="stroke-width: 0.75;"/>
<circle cx="209.40" cy="101.03" r="2.24" style="stroke-width: 0.75;"/>
<circle cx="240.79" cy="90.42" r="2.24" style="stroke-width: 0.75;"/>
<circle cx="279.30" cy="77.96" r="2.24" style="stroke-width: 0.75;"/>
<circle cx="356.45" cy="58.31" r="2.24" style="stroke-width: 0.75;"/>
<circle cx="65.51" cy="140.35" r="2.24" style="stroke-width: 0.75;"/>
<circle cx="333.91" cy="63.81" r="2.24" style="stroke-width: 0.75;"/>
<circle cx="289.51" cy="72.36" r="2.24" style="stroke-width: 0.75;"/>
<circle cx="157.09" cy="113.32" r="2.24" style="stroke-width: 0.75;"/>
<circle cx="344.00" cy="75.74" r="2.24" style="stroke-width: 0.75;"/>
<circle cx="147.29" cy="116.55" r="2.24" style="stroke-width: 0.75;"/>
<circle cx="369.76" cy="58.74" r="2.24" style="stroke-width: 0.75;"/>
<circle cx="181.19" cy="106.94" r="2.24" style="stroke-width: 0.75;"/>
<circle cx="363.01" cy="52.78" r="2.24" style="stroke-width: 0.75;"/>
<circle cx="323.42" cy="66.48" r="2.24" style="stroke-width: 0.75;"/>
<circle cx="241.20" cy="89.84" r="2.24" style="stroke-width: 0.75;"/>
<circle cx="61.43" cy="147.27" r="2.24" style="stroke-width: 0.75;"/>
<circle cx="141.20" cy="122.95" r="2.24" style="stroke-width: 0.75;"/>
<circle cx="251.33" cy="86.07" r="2.24" style="stroke-width: 0.75;"/>
<circle cx="360.92" cy="53.45" r="2.24" style="stroke-width: 0.75;"/>
<circle cx="222.46" cy="93.26" r="2.24" style="stroke-width: 0.75;"/>
<circle cx="224.55" cy="95.03" r="2.24" style="stroke-width: 0.75;"/>
<circle cx="339.07" cy="56.18" r="2.24" style="stroke-width: 0.75;"/>
<circle cx="256.38" cy="86.13" r="2.24" style="stroke-width: 0.75;"/>
<circle cx="301.61" cy="73.54" r="2.24" style="stroke-width: 0.75;"/>
<circle cx="317.50" cy="69.48" r="2.24" style="stroke-width: 0.75;"/>
<circle cx="145.07" cy="117.29" r="2.24" style="stroke-width: 0.75;"/>
<circle cx="177.40" cy="114.57" r="2.24" style="stroke-width: 0.75;"/>
<circle cx="301.74" cy="68.31" r="2.24" style="stroke-width: 0.75;"/>
<circle cx="262.44" cy="86.24" r="2.24" style="stroke-width: 0.75;"/>
<circle cx="206.30" cy="101.51" r="2.24" style="stroke-width: 0.75;"/>
<circle cx="282.67" cy="71.53" r="2.24" style="stroke-width: 0.75;"/>
<circle cx="218.58" cy="109.05" r="2.24" style="stroke-width: 0.75;"/>
<circle cx="124.65" cy="131.37" r="2.24" style="stroke-width: 0.75;"/>
<circle cx="150.05" cy="127.98" r="2.24" style="stroke-width: 0.75;"/>
<circle cx="303.49" cy="70.18" r="2.24" style="stroke-width: 0.75;"/>
<circle cx="177.29" cy="109.79" r="2.24" style="stroke-width: 0.75;"/>
<circle cx="261.48" cy="81.01" r="2.24" style="stroke-width: 0.75;"/>
<circle cx="218.34" cy="98.15" r="2.24" style="stroke-width: 0.75;"/>
</g><g clip-path="url(#c2)">
<line x1="63.02" y1="151.04" x2="361.67" y2="151.04" style="stroke-width: 0.75;"/>
<line x1="63.02" y1="151.04" x2="63.02" y2="157.02" style="stroke-width: 0.75;"/>
<line x1="137.68" y1="151.04" x2="137.68" y2="157.02" style="stroke-width: 0.75;"/>
<line x1="212.35" y1="151.04" x2="212.35" y2="157.02" style="stroke-width: 0.75;"/>
<line x1="287.01" y1="151.04" x2="287.01" y2="157.02" style="stroke-width: 0.75;"/>
<line x1="361.67" y1="151.04" x2="361.67" y2="157.02" style="stroke-width: 0.75;"/>
<g><text x="63.02" y="172.56" text-anchor="middle" style="font-family: Arial;font-size: 9.96px;" textLength="19.38px" lengthAdjust="spacingAndGlyphs">0.40</text></g>
<g><text x="137.68" y="172.56" text-anchor="middle" style="font-family: Arial;font-size: 9.96px;" textLength="19.38px" lengthAdjust="spacingAndGlyphs">0.45</text></g>
<g><text x="212.35" y="172.56" text-anchor="middle" style="font-family: Arial;font-size: 9.96px;" textLength="19.38px" lengthAdjust="spacingAndGlyphs">0.50</text></g>
<g><text x="287.01" y="172.56" text-anchor="middle" style="font-family: Arial;font-size: 9.96px;" textLength="19.38px" lengthAdjust="spacingAndGlyphs">0.55</text></g>
<g><text x="361.67" y="172.56" text-anchor="middle" style="font-family: Arial;font-size: 9.96px;" textLength="19.38px" lengthAdjust="spacingAndGlyphs">0.60</text></g>
<line x1="49.00" y1="136.15" x2="49.00" y2="67.47" style="stroke-width: 0.75;"/>
<line x1="49.00" y1="136.15" x2="43.03" y2="136.15" style="stroke-width: 0.75;"/>
<line x1="49.00" y1="113.26" x2="43.03" y2="113.26" style="stroke-width: 0.75;"/>
<line x1="49.00" y1="90.36" x2="43.03" y2="90.36" style="stroke-width: 0.75;"/>
<line x1="49.00" y1="67.47" x2="43.03" y2="67.47" style="stroke-width: 0.75;"/>
<g><text transform="translate(34.66,136.15) rotate(-90.00)" text-anchor="middle" style="font-family: Arial;font-size: 9.96px;" textLength="19.38px" lengthAdjust="spacingAndGlyphs">1.40</text></g>
<g><text transform="translate(34.66,90.36) rotate(-90.00)" text-anchor="middle" style="font-family: Arial;font-size: 9.96px;" textLength="19.38px" lengthAdjust="spacingAndGlyphs">1.50</text></g>
<polygon points="49.00,151.04 384.50,151.04 384.50,49.00 49.00,49.00" style="stroke-width: 0.75;" />
</g><g clip-path="url(#c3)">
<g><text x="216.75" y="28.77" text-anchor="middle" style="font-family: Arial;font-size: 11.95px;font-weight: bold;" textLength="56.41px" lengthAdjust="spacingAndGlyphs">Process 1</text></g>
<g><text x="211.34" y="194.12" style="font-family: Arial;font-size: 9.96px;" textLength="6.96px" lengthAdjust="spacingAndGlyphs">φ</text></g>
<g><text x="218.29" y="195.92" style="font-family: Arial;font-size: 6.97px;" textLength="3.87px" lengthAdjust="spacingAndGlyphs">2</text></g>
<g><text transform="translate(8.41,105.44) rotate(-90.00)" style="font-family: Arial;font-size: 9.96px;" textLength="6.96px" lengthAdjust="spacingAndGlyphs">φ</text></g>
<g><text transform="translate(10.22,98.48) rotate(-90.00)" style="font-family: Arial;font-size: 6.97px;" textLength="3.87px" lengthAdjust="spacingAndGlyphs">1</text></g>
</g><g clip-path="url(#c4)">
<circle cx="696.68" cy="88.64" r="2.24" style="stroke-width: 0.75;"/>
<circle cx="682.53" cy="96.64" r="2.24" style="stroke-width: 0.75;"/>
<circle cx="562.44" cy="118.57" r="2.24" style="stroke-width: 0.75;"/>
<circle cx="698.77" cy="93.83" r="2.24" style="stroke-width: 0.75;"/>
<circle cx="700.93" cy="80.43" r="2.24" style="stroke-width: 0.75;"/>
<circle cx="716.02" cy="74.04" r="2.24" style="stroke-width: 0.75;"/>
<circle cx="593.48" cy="108.91" r="2.24" style="stroke-width: 0.75;"/>
<circle cx="741.69" cy="63.24" r="2.24" style="stroke-width: 0.75;"/>
<circle cx="766.68" cy="76.53" r="2.24" style="stroke-width: 0.75;"/>
<circle cx="717.55" cy="88.02" r="2.24" style="stroke-width: 0.75;"/>
<circle cx="721.02" cy="73.91" r="2.24" style="stroke-width: 0.75;"/>
<circle cx="661.08" cy="90.91" r="2.24" style="stroke-width: 0.75;"/>
<circle cx="688.70" cy="114.57" r="2.24" style="stroke-width: 0.75;"/>
<circle cx="657.95" cy="92.14" r="2.24" style="stroke-width: 0.75;"/>
<circle cx="730.71" cy="88.75" r="2.24" style="stroke-width: 0.75;"/>
<circle cx="676.58" cy="108.53" r="2.24" style="stroke-width: 0.75;"/>
<circle cx="751.70" cy="85.05" r="2.24" style="stroke-width: 0.75;"/>
<circle cx="620.78" cy="131.49" r="2.24" style="stroke-width: 0.75;"/>
<circle cx="622.36" cy="99.93" r="2.24" style="stroke-width: 0.75;"/>
<circle cx="756.72" cy="81.41" r="2.24" style="stroke-width: 0.75;"/>
<circle cx="690.96" cy="83.36" r="2.24" style="stroke-width: 0.75;"/>
<circle cx="485.08" cy="137.43" r="2.24" style="stroke-width: 0.75;"/>
<circle cx="692.09" cy="93.02" r="2.24" style="stroke-width: 0.75;"/>
<circle cx="702.33" cy="97.31" r="2.24" style="stroke-width: 0.75;"/>
<circle cx="579.87" cy="99.37" r="2.24" style="stroke-width: 0.75;"/>
<circle cx="745.88" cy="89.03" r="2.24" style="stroke-width: 0.75;"/>
<circle cx="678.36" cy="115.25" r="2.24" style="stroke-width: 0.75;"/>
<circle cx="740.01" cy="74.84" r="2.24" style="stroke-width: 0.75;"/>
<circle cx="744.93" cy="82.10" r="2.24" style="stroke-width: 0.75;"/>
<circle cx="518.14" cy="130.54" r="2.24" style="stroke-width: 0.75;"/>
<circle cx="736.66" cy="76.74" r="2.24" style="stroke-width: 0.75;"/>
<circle cx="660.83" cy="77.13" r="2.24" style="stroke-width: 0.75;"/>
<circle cx="628.56" cy="119.20" r="2.24" style="stroke-width: 0.75;"/>
<circle cx="726.11" cy="52.78" r="2.24" style="stroke-width: 0.75;"/>
<circle cx="683.79" cy="101.72" r="2.24" style="stroke-width: 0.75;"/>
<circle cx="730.45" cy="76.59" r="2.24" style="stroke-width: 0.75;"/>
<circle cx="722.65" cy="102.82" r="2.24" style="stroke-width: 0.75;"/>
<circle cx="713.00" cy="94.44" r="2.24" style="stroke-width: 0.75;"/>
<circle cx="720.95" cy="90.31" r="2.24" style="stroke-width: 0.75;"/>
<circle cx="734.01" cy="90.17" r="2.24" style="stroke-width: 0.75;"/>
<circle cx="750.65" cy="76.59" r="2.24" style="stroke-width: 0.75;"/>
<circle cx="622.16" cy="86.37" r="2.24" style="stroke-width: 0.75;"/>
<circle cx="603.95" cy="94.38" r="2.24" style="stroke-width: 0.75;"/>
<circle cx="713.91" cy="91.89" r="2.24" style="stroke-width: 0.75;"/>
<circle cx="755.40" cy="76.90" r="2.24" style="stroke-width: 0.75;"/>
<circle cx="643.98" cy="115.43" r="2.24" style="stroke-width: 0.75;"/>
<circle cx="727.72" cy="89.72" r="2.24" style="stroke-width: 0.75;"/>
<circle cx="695.04" cy="91.14" r="2.24" style="stroke-width: 0.75;"/>
<circle cx="769.94" cy="91.79" r="2.24" style="stroke-width: 0.75;"/>
<circle cx="718.52" cy="106.19" r="2.24" style="stroke-width: 0.75;"/>
<circle cx="739.60" cy="90.96" r="2.24" style="stroke-width: 0.75;"/>
<circle cx="659.23" cy="130.22" r="2.24" style="stroke-width: 0.75;"/>
<circle cx="642.35" cy="100.83" r="2.24" style="stroke-width: 0.75;"/>
<circle cx="617.88" cy="94.84" r="2.24" style="stroke-width: 0.75;"/>
<circle cx="750.21" cy="85.52" r="2.24" style="stroke-width: 0.75;"/>
<circle cx="628.21" cy="79.98" r="2.24" style="stroke-width: 0.75;"/>
<circle cx="672.72" cy="95.34" r="2.24" style="stroke-width: 0.75;"/>
<circle cx="639.24" cy="99.78" r="2.24" style="stroke-width: 0.75;"/>
<circle cx="647.82" cy="117.22" r="2.24" style="stroke-width: 0.75;"/>
<circle cx="692.93" cy="99.01" r="2.24" style="stroke-width: 0.75;"/>
<circle cx="698.90" cy="89.27" r="2.24" style="stroke-width: 0.75;"/>
<circle cx="531.67" cy="125.69" r="2.24" style="stroke-width: 0.75;"/>
<circle cx="678.63" cy="85.86" r="2.24" style="stroke-width: 0.75;"/>
<circle cx="718.19" cy="99.84" r="2.24" style="stroke-width: 0.75;"/>
<circle cx="697.51" cy="98.92" r="2.24" style="stroke-width: 0.75;"/>
<circle cx="597.78" cy="124.74" r="2.24" style="stroke-width: 0.75;"/>
<circle cx="626.85" cy="98.21" r="2.24" style="stroke-width: 0.75;"/>
<circle cx="744.30" cy="77.03" r="2.24" style="stroke-width: 0.75;"/>
<circle cx="666.99" cy="91.18" r="2.24" style="stroke-width: 0.75;"/>
<circle cx="696.20" cy="120.10" r="2.24" style="stroke-width: 0.75;"/>
<circle cx="750.93" cy="77.69" r="2.24" style="stroke-width: 0.75;"/>
<circle cx="629.21" cy="105.69" r="2.24" style="stroke-width: 0.75;"/>
<circle cx="781.67" cy="77.01" r="2.24" style="stroke-width: 0.75;"/>
<circle cx="696.20" cy="107.33" r="2.24" style="stroke-width: 0.75;"/>
<circle cx="767.76" cy="69.10" r="2.24" style="stroke-width: 0.75;"/>
<circle cx="729.30" cy="80.32" r="2.24" style="stroke-width: 0.75;"/>
<circle cx="734.12" cy="84.06" r="2.24" style="stroke-width: 0.75;"/>
<circle cx="648.58" cy="87.30" r="2.24" style="stroke-width: 0.75;"/>
<circle cx="622.46" cy="120.00" r="2.24" style="stroke-width: 0.75;"/>
<circle cx="702.57" cy="95.41" r="2.24" style="stroke-width: 0.75;"/>
<circle cx="713.46" cy="101.83" r="2.24" style="stroke-width: 0.75;"/>
<circle cx="719.84" cy="93.54" r="2.24" style="stroke-width: 0.75;"/>
<circle cx="659.04" cy="96.80" r="2.24" style="stroke-width: 0.75;"/>
<circle cx="584.91" cy="107.16" r="2.24" style="stroke-width: 0.75;"/>
<circle cx="666.21" cy="90.17" r="2.24" style="stroke-width: 0.75;"/>
<circle cx="520.57" cy="116.48" r="2.24" style="stroke-width: 0.75;"/>
<circle cx="698.56" cy="102.57" r="2.24" style="stroke-width: 0.75;"/>
<circle cx="595.43" cy="121.79" r="2.24" style="stroke-width: 0.75;"/>
<circle cx="614.85" cy="114.38" r="2.24" style="stroke-width: 0.75;"/>
<circle cx="739.77" cy="78.79" r="2.24" style="stroke-width: 0.75;"/>
<circle cx="693.29" cy="108.53" r="2.24" style="stroke-width: 0.75;"/>
<circle cx="751.92" cy="83.35" r="2.24" style="stroke-width: 0.75;"/>
<circle cx="633.78" cy="97.85" r="2.24" style="stroke-width: 0.75;"/>
<circle cx="715.70" cy="80.15" r="2.24" style="stroke-width: 0.75;"/>
<circle cx="765.87" cy="81.05" r="2.24" style="stroke-width: 0.75;"/>
<circle cx="471.03" cy="147.27" r="2.24" style="stroke-width: 0.75;"/>
<circle cx="663.67" cy="84.95" r="2.24" style="stroke-width: 0.75;"/>
<circle cx="735.54" cy="91.54" r="2.24" style="stroke-width: 0.75;"/>
<circle cx="671.56" cy="79.62" r="2.24" style="stroke-width: 0.75;"/>
<circle cx="744.52" cy="90.17" r="2.24" style="stroke-width: 0.75;"/>
</g><g clip-path="url(#c5)">
<line x1="504.81" y1="151.04" x2="762.19" y2="151.04" style="stroke-width: 0.75;"/>
<line x1="504.81" y1="151.04" x2="504.81" y2="157.02" style="stroke-width: 0.75;"/>
<line x1="556.29" y1="151.04" x2="556.29" y2="157.02" style="stroke-width: 0.75;"/>
<line x1="607.76" y1="151.04" x2="607.76" y2="157.02" style="stroke-width: 0.75;"/>
<line x1="659.24" y1="151.04" x2="659.24" y2="157.02" style="stroke-width: 0.75;"/>
<line x1="710.72" y1="151.04" x2="710.72" y2="157.02" style="stroke-width: 0.75;"/>
<line x1="762.19" y1="151.04" x2="762.19" y2="157.02" style="stroke-width: 0.75;"/>
<g><text x="504.81" y="172.56" text-anchor="middle" style="font-family: Arial;font-size: 9.96px;" textLength="19.38px" lengthAdjust="spacingAndGlyphs">0.94</text></g>
<g><text x="556.29" y="172.56" text-anchor="middle" style="font-family: Arial;font-size: 9.96px;" textLength="19.38px" lengthAdjust="spacingAndGlyphs">0.95</text></g>
<g><text x="607.76" y="172.56" text-anchor="middle" style="font-family: Arial;font-size: 9.96px;" textLength="19.38px" lengthAdjust="spacingAndGlyphs">0.96</text></g>
<g><text x="659.24" y="172.56" text-anchor="middle" style="font-family: Arial;font-size: 9.96px;" textLength="19.38px" lengthAdjust="spacingAndGlyphs">0.97</text></g>
<g><text x="710.72" y="172.56" text-anchor="middle" style="font-family: Arial;font-size: 9.96px;" textLength="19.38px" lengthAdjust="spacingAndGlyphs">0.98</text></g>
<g><text x="762.19" y="172.56" text-anchor="middle" style="font-family: Arial;font-size: 9.96px;" textLength="19.38px" lengthAdjust="spacingAndGlyphs">0.99</text></g>
<line x1="458.60" y1="142.26" x2="458.60" y2="60.73" style="stroke-width: 0.75;"/>
<line x1="458.60" y1="142.26" x2="452.63" y2="142.26" style="stroke-width: 0.75;"/>
<line x1="458.60" y1="128.67" x2="452.63" y2="128.67" style="stroke-width: 0.75;"/>
<line x1="458.60" y1="115.08" x2="452.63" y2="115.08" style="stroke-width: 0.75;"/>
<line x1="458.60" y1="101.49" x2="452.63" y2="101.49" style="stroke-width: 0.75;"/>
<line x1="458.60" y1="87.90" x2="452.63" y2="87.90" style="stroke-width: 0.75;"/>
<line x1="458.60" y1="74.32" x2="452.63" y2="74.32" style="stroke-width: 0.75;"/>
<line x1="458.60" y1="60.73" x2="452.63" y2="60.73" style="stroke-width: 0.75;"/>
<g><text transform="translate(444.26,142.26) rotate(-90.00)" text-anchor="middle" style="font-family: Arial;font-size: 9.96px;" textLength="19.38px" lengthAdjust="spacingAndGlyphs">1.46</text></g>
<g><text transform="translate(444.26,101.49) rotate(-90.00)" text-anchor="middle" style="font-family: Arial;font-size: 9.96px;" textLength="19.38px" lengthAdjust="spacingAndGlyphs">1.49</text></g>
<g><text transform="translate(444.26,60.73) rotate(-90.00)" text-anchor="middle" style="font-family: Arial;font-size: 9.96px;" textLength="19.38px" lengthAdjust="spacingAndGlyphs">1.52</text></g>
<polygon points="458.60,151.04 794.10,151.04 794.10,49.00 458.60,49.00" style="stroke-width: 0.75;" />
</g><g clip-path="url(#c6)">
<g><text x="626.35" y="28.77" text-anchor="middle" style="font-family: Arial;font-size: 11.95px;font-weight: bold;" textLength="56.41px" lengthAdjust="spacingAndGlyphs">Process 2</text></g>
<g><text x="620.94" y="194.12" style="font-family: Arial;font-size: 9.96px;" textLength="6.96px" lengthAdjust="spacingAndGlyphs">φ</text></g>
<g><text x="627.89" y="195.92" style="font-family: Arial;font-size: 6.97px;" textLength="3.87px" lengthAdjust="spacingAndGlyphs">2</text></g>
<g><text transform="translate(418.01,105.44) rotate(-90.00)" style="font-family: Arial;font-size: 9.96px;" textLength="6.96px" lengthAdjust="spacingAndGlyphs">φ</text></g>
<g><text transform="translate(419.82,98.48) rotate(-90.00)" style="font-family: Arial;font-size: 6.97px;" textLength="3.87px" lengthAdjust="spacingAndGlyphs">1</text></g>
</g><g clip-path="url(#c7)">
<circle cx="270.03" cy="292.81" r="2.24" style="stroke-width: 0.75;"/>
<circle cx="238.23" cy="310.44" r="2.24" style="stroke-width: 0.75;"/>
<circle cx="177.56" cy="330.94" r="2.24" style="stroke-width: 0.75;"/>
<circle cx="183.32" cy="316.63" r="2.24" style="stroke-width: 0.75;"/>
<circle cx="234.94" cy="303.89" r="2.24" style="stroke-width: 0.75;"/>
<circle cx="199.90" cy="319.50" r="2.24" style="stroke-width: 0.75;"/>
<circle cx="162.38" cy="323.67" r="2.24" style="stroke-width: 0.75;"/>
<circle cx="73.73" cy="352.39" r="2.24" style="stroke-width: 0.75;"/>
<circle cx="275.97" cy="294.69" r="2.24" style="stroke-width: 0.75;"/>
<circle cx="124.92" cy="341.82" r="2.24" style="stroke-width: 0.75;"/>
<circle cx="158.51" cy="337.36" r="2.24" style="stroke-width: 0.75;"/>
<circle cx="222.31" cy="310.22" r="2.24" style="stroke-width: 0.75;"/>
<circle cx="93.31" cy="345.05" r="2.24" style="stroke-width: 0.75;"/>
<circle cx="161.19" cy="325.05" r="2.24" style="stroke-width: 0.75;"/>
<circle cx="157.27" cy="324.06" r="2.24" style="stroke-width: 0.75;"/>
<circle cx="92.82" cy="359.27" r="2.24" style="stroke-width: 0.75;"/>
<circle cx="283.06" cy="291.29" r="2.24" style="stroke-width: 0.75;"/>
<circle cx="222.92" cy="311.21" r="2.24" style="stroke-width: 0.75;"/>
<circle cx="141.40" cy="330.05" r="2.24" style="stroke-width: 0.75;"/>
<circle cx="321.63" cy="277.76" r="2.24" style="stroke-width: 0.75;"/>
<circle cx="214.50" cy="311.90" r="2.24" style="stroke-width: 0.75;"/>
<circle cx="218.04" cy="308.51" r="2.24" style="stroke-width: 0.75;"/>
<circle cx="302.03" cy="286.87" r="2.24" style="stroke-width: 0.75;"/>
<circle cx="325.86" cy="276.71" r="2.24" style="stroke-width: 0.75;"/>
<circle cx="183.21" cy="320.17" r="2.24" style="stroke-width: 0.75;"/>
<circle cx="272.13" cy="302.38" r="2.24" style="stroke-width: 0.75;"/>
<circle cx="257.54" cy="298.41" r="2.24" style="stroke-width: 0.75;"/>
<circle cx="215.56" cy="310.72" r="2.24" style="stroke-width: 0.75;"/>
<circle cx="184.01" cy="321.27" r="2.24" style="stroke-width: 0.75;"/>
<circle cx="182.07" cy="323.32" r="2.24" style="stroke-width: 0.75;"/>
<circle cx="151.15" cy="331.74" r="2.24" style="stroke-width: 0.75;"/>
<circle cx="276.90" cy="293.23" r="2.24" style="stroke-width: 0.75;"/>
<circle cx="263.15" cy="302.45" r="2.24" style="stroke-width: 0.75;"/>
<circle cx="291.82" cy="286.67" r="2.24" style="stroke-width: 0.75;"/>
<circle cx="221.93" cy="309.16" r="2.24" style="stroke-width: 0.75;"/>
<circle cx="202.39" cy="313.61" r="2.24" style="stroke-width: 0.75;"/>
<circle cx="120.84" cy="334.86" r="2.24" style="stroke-width: 0.75;"/>
<circle cx="198.94" cy="313.60" r="2.24" style="stroke-width: 0.75;"/>
<circle cx="194.67" cy="314.09" r="2.24" style="stroke-width: 0.75;"/>
<circle cx="160.94" cy="330.84" r="2.24" style="stroke-width: 0.75;"/>
<circle cx="132.48" cy="333.62" r="2.24" style="stroke-width: 0.75;"/>
<circle cx="124.70" cy="334.99" r="2.24" style="stroke-width: 0.75;"/>
<circle cx="197.77" cy="313.51" r="2.24" style="stroke-width: 0.75;"/>
<circle cx="177.95" cy="327.95" r="2.24" style="stroke-width: 0.75;"/>
<circle cx="289.58" cy="294.56" r="2.24" style="stroke-width: 0.75;"/>
<circle cx="175.38" cy="320.32" r="2.24" style="stroke-width: 0.75;"/>
<circle cx="320.48" cy="276.42" r="2.24" style="stroke-width: 0.75;"/>
<circle cx="137.24" cy="332.06" r="2.24" style="stroke-width: 0.75;"/>
<circle cx="294.96" cy="283.73" r="2.24" style="stroke-width: 0.75;"/>
<circle cx="227.39" cy="312.36" r="2.24" style="stroke-width: 0.75;"/>
<circle cx="150.56" cy="328.10" r="2.24" style="stroke-width: 0.75;"/>
<circle cx="296.26" cy="283.02" r="2.24" style="stroke-width: 0.75;"/>
<circle cx="172.03" cy="333.54" r="2.24" style="stroke-width: 0.75;"/>
<circle cx="355.69" cy="268.61" r="2.24" style="stroke-width: 0.75;"/>
<circle cx="275.35" cy="291.66" r="2.24" style="stroke-width: 0.75;"/>
<circle cx="207.68" cy="307.83" r="2.24" style="stroke-width: 0.75;"/>
<circle cx="195.59" cy="315.65" r="2.24" style="stroke-width: 0.75;"/>
<circle cx="346.43" cy="272.71" r="2.24" style="stroke-width: 0.75;"/>
<circle cx="335.97" cy="271.00" r="2.24" style="stroke-width: 0.75;"/>
<circle cx="284.43" cy="293.16" r="2.24" style="stroke-width: 0.75;"/>
<circle cx="146.30" cy="332.78" r="2.24" style="stroke-width: 0.75;"/>
<circle cx="223.35" cy="306.55" r="2.24" style="stroke-width: 0.75;"/>
<circle cx="308.63" cy="284.11" r="2.24" style="stroke-width: 0.75;"/>
<circle cx="166.24" cy="335.52" r="2.24" style="stroke-width: 0.75;"/>
<circle cx="108.61" cy="340.36" r="2.24" style="stroke-width: 0.75;"/>
<circle cx="161.15" cy="330.78" r="2.24" style="stroke-width: 0.75;"/>
<circle cx="128.48" cy="333.17" r="2.24" style="stroke-width: 0.75;"/>
<circle cx="323.29" cy="282.31" r="2.24" style="stroke-width: 0.75;"/>
<circle cx="362.58" cy="273.91" r="2.24" style="stroke-width: 0.75;"/>
<circle cx="147.50" cy="336.50" r="2.24" style="stroke-width: 0.75;"/>
<circle cx="260.14" cy="300.01" r="2.24" style="stroke-width: 0.75;"/>
<circle cx="249.36" cy="298.66" r="2.24" style="stroke-width: 0.75;"/>
<circle cx="260.48" cy="300.65" r="2.24" style="stroke-width: 0.75;"/>
<circle cx="173.77" cy="318.36" r="2.24" style="stroke-width: 0.75;"/>
<circle cx="226.40" cy="310.34" r="2.24" style="stroke-width: 0.75;"/>
<circle cx="372.07" cy="264.78" r="2.24" style="stroke-width: 0.75;"/>
<circle cx="295.27" cy="286.04" r="2.24" style="stroke-width: 0.75;"/>
<circle cx="143.52" cy="336.26" r="2.24" style="stroke-width: 0.75;"/>
<circle cx="334.30" cy="277.14" r="2.24" style="stroke-width: 0.75;"/>
<circle cx="227.25" cy="308.45" r="2.24" style="stroke-width: 0.75;"/>
<circle cx="267.27" cy="299.72" r="2.24" style="stroke-width: 0.75;"/>
<circle cx="319.69" cy="284.92" r="2.24" style="stroke-width: 0.75;"/>
<circle cx="189.02" cy="321.38" r="2.24" style="stroke-width: 0.75;"/>
<circle cx="102.75" cy="342.29" r="2.24" style="stroke-width: 0.75;"/>
<circle cx="61.43" cy="354.25" r="2.24" style="stroke-width: 0.75;"/>
<circle cx="282.27" cy="296.93" r="2.24" style="stroke-width: 0.75;"/>
<circle cx="210.67" cy="318.08" r="2.24" style="stroke-width: 0.75;"/>
<circle cx="86.72" cy="344.07" r="2.24" style="stroke-width: 0.75;"/>
<circle cx="84.62" cy="347.27" r="2.24" style="stroke-width: 0.75;"/>
<circle cx="293.12" cy="286.10" r="2.24" style="stroke-width: 0.75;"/>
<circle cx="284.18" cy="290.62" r="2.24" style="stroke-width: 0.75;"/>
<circle cx="231.23" cy="301.16" r="2.24" style="stroke-width: 0.75;"/>
<circle cx="194.43" cy="315.91" r="2.24" style="stroke-width: 0.75;"/>
<circle cx="238.16" cy="313.86" r="2.24" style="stroke-width: 0.75;"/>
<circle cx="361.79" cy="273.36" r="2.24" style="stroke-width: 0.75;"/>
<circle cx="314.61" cy="282.76" r="2.24" style="stroke-width: 0.75;"/>
<circle cx="216.01" cy="312.29" r="2.24" style="stroke-width: 0.75;"/>
<circle cx="275.75" cy="293.79" r="2.24" style="stroke-width: 0.75;"/>
<circle cx="294.79" cy="287.19" r="2.24" style="stroke-width: 0.75;"/>
<circle cx="305.88" cy="286.99" r="2.24" style="stroke-width: 0.75;"/>
</g><g clip-path="url(#c8)">
<line x1="122.83" y1="363.04" x2="350.00" y2="363.04" style="stroke-width: 0.75;"/>
<line x1="122.83" y1="363.04" x2="122.83" y2="369.02" style="stroke-width: 0.75;"/>
<line x1="198.55" y1="363.04" x2="198.55" y2="369.02" style="stroke-width: 0.75;"/>
<line x1="274.28" y1="363.04" x2="274.28" y2="369.02" style="stroke-width: 0.75;"/>
<line x1="350.00" y1="363.04" x2="350.00" y2="369.02" style="stroke-width: 0.75;"/>
<g><text x="122.83" y="384.56" text-anchor="middle" style="font-family: Arial;font-size: 9.96px;" textLength="19.38px" lengthAdjust="spacingAndGlyphs">0.45</text></g>
<g><text x="198.55" y="384.56" text-anchor="middle" style="font-family: Arial;font-size: 9.96px;" textLength="19.38px" lengthAdjust="spacingAndGlyphs">0.50</text></g>
<g><text x="274.28" y="384.56" text-anchor="middle" style="font-family: Arial;font-size: 9.96px;" textLength="19.38px" lengthAdjust="spacingAndGlyphs">0.55</text></g>
<g><text x="350.00" y="384.56" text-anchor="middle" style="font-family: Arial;font-size: 9.96px;" textLength="19.38px" lengthAdjust="spacingAndGlyphs">0.60</text></g>
<line x1="49.00" y1="350.80" x2="49.00" y2="262.08" style="stroke-width: 0.75;"/>
<line x1="49.00" y1="350.80" x2="43.03" y2="350.80" style="stroke-width: 0.75;"/>
<line x1="49.00" y1="328.62" x2="43.03" y2="328.62" style="stroke-width: 0.75;"/>
<line x1="49.00" y1="306.44" x2="43.03" y2="306.44" style="stroke-width: 0.75;"/>
<line x1="49.00" y1="284.26" x2="43.03" y2="284.26" style="stroke-width: 0.75;"/>
<line x1="49.00" y1="262.08" x2="43.03" y2="262.08" style="stroke-width: 0.75;"/>
<g><text transform="translate(34.66,350.80) rotate(-90.00)" text-anchor="middle" style="font-family: Arial;font-size: 9.96px;" textLength="19.38px" lengthAdjust="spacingAndGlyphs">1.40</text></g>
<g><text transform="translate(34.66,306.44) rotate(-90.00)" text-anchor="middle" style="font-family: Arial;font-size: 9.96px;" textLength="19.38px" lengthAdjust="spacingAndGlyphs">1.50</text></g>
<g><text transform="translate(34.66,262.08) rotate(-90.00)" text-anchor="middle" style="font-family: Arial;font-size: 9.96px;" textLength="19.38px" lengthAdjust="spacingAndGlyphs">1.60</text></g>
<polygon points="49.00,363.04 384.50,363.04 384.50,261.00 49.00,261.00" style="stroke-width: 0.75;" />
</g><g clip-path="url(#c9)">
<g><text x="216.75" y="240.77" text-anchor="middle" style="font-family: Arial;font-size: 11.95px;font-weight: bold;" textLength="56.41px" lengthAdjust="spacingAndGlyphs">Process 3</text></g>
<g><text x="211.34" y="406.12" style="font-family: Arial;font-size: 9.96px;" textLength="6.96px" lengthAdjust="spacingAndGlyphs">φ</text></g>
<g><text x="218.29" y="407.92" style="font-family: Arial;font-size: 6.97px;" textLength="3.87px" lengthAdjust="spacingAndGlyphs">2</text></g>
<g><text transform="translate(8.41,317.44) rotate(-90.00)" style="font-family: Arial;font-size: 9.96px;" textLength="6.96px" lengthAdjust="spacingAndGlyphs">φ</text></g>
<g><text transform="translate(10.22,310.48) rotate(-90.00)" style="font-family: Arial;font-size: 6.97px;" textLength="3.87px" lengthAdjust="spacingAndGlyphs">1</text></g>
</g><g clip-path="url(#c10)">
<circle cx="677.01" cy="288.73" r="2.24" style="stroke-width: 0.75;"/>
<circle cx="757.50" cy="277.35" r="2.24" style="stroke-width: 0.75;"/>
<circle cx="621.51" cy="330.28" r="2.24" style="stroke-width: 0.75;"/>
<circle cx="729.68" cy="274.84" r="2.24" style="stroke-width: 0.75;"/>
<circle cx="700.87" cy="281.05" r="2.24" style="stroke-width: 0.75;"/>
<circle cx="665.98" cy="305.08" r="2.24" style="stroke-width: 0.75;"/>
<circle cx="767.40" cy="280.47" r="2.24" style="stroke-width: 0.75;"/>
<circle cx="643.31" cy="304.25" r="2.24" style="stroke-width: 0.75;"/>
<circle cx="717.97" cy="292.89" r="2.24" style="stroke-width: 0.75;"/>
<circle cx="696.09" cy="288.37" r="2.24" style="stroke-width: 0.75;"/>
<circle cx="668.49" cy="327.75" r="2.24" style="stroke-width: 0.75;"/>
<circle cx="743.03" cy="278.78" r="2.24" style="stroke-width: 0.75;"/>
<circle cx="716.79" cy="287.26" r="2.24" style="stroke-width: 0.75;"/>
<circle cx="719.21" cy="304.31" r="2.24" style="stroke-width: 0.75;"/>
<circle cx="658.43" cy="317.09" r="2.24" style="stroke-width: 0.75;"/>
<circle cx="617.78" cy="301.47" r="2.24" style="stroke-width: 0.75;"/>
<circle cx="752.44" cy="279.69" r="2.24" style="stroke-width: 0.75;"/>
<circle cx="683.82" cy="296.92" r="2.24" style="stroke-width: 0.75;"/>
<circle cx="745.33" cy="293.29" r="2.24" style="stroke-width: 0.75;"/>
<circle cx="710.47" cy="286.43" r="2.24" style="stroke-width: 0.75;"/>
<circle cx="661.55" cy="297.06" r="2.24" style="stroke-width: 0.75;"/>
<circle cx="731.00" cy="277.85" r="2.24" style="stroke-width: 0.75;"/>
<circle cx="471.03" cy="329.98" r="2.24" style="stroke-width: 0.75;"/>
<circle cx="688.06" cy="297.84" r="2.24" style="stroke-width: 0.75;"/>
<circle cx="619.52" cy="310.90" r="2.24" style="stroke-width: 0.75;"/>
<circle cx="573.20" cy="359.27" r="2.24" style="stroke-width: 0.75;"/>
<circle cx="580.78" cy="312.18" r="2.24" style="stroke-width: 0.75;"/>
<circle cx="603.46" cy="283.61" r="2.24" style="stroke-width: 0.75;"/>
<circle cx="717.88" cy="308.42" r="2.24" style="stroke-width: 0.75;"/>
<circle cx="696.55" cy="292.46" r="2.24" style="stroke-width: 0.75;"/>
<circle cx="588.38" cy="311.08" r="2.24" style="stroke-width: 0.75;"/>
<circle cx="717.96" cy="275.09" r="2.24" style="stroke-width: 0.75;"/>
<circle cx="717.15" cy="281.11" r="2.24" style="stroke-width: 0.75;"/>
<circle cx="705.34" cy="278.56" r="2.24" style="stroke-width: 0.75;"/>
<circle cx="662.14" cy="274.24" r="2.24" style="stroke-width: 0.75;"/>
<circle cx="645.72" cy="299.67" r="2.24" style="stroke-width: 0.75;"/>
<circle cx="774.97" cy="282.62" r="2.24" style="stroke-width: 0.75;"/>
<circle cx="629.31" cy="323.17" r="2.24" style="stroke-width: 0.75;"/>
<circle cx="743.39" cy="267.13" r="2.24" style="stroke-width: 0.75;"/>
<circle cx="621.87" cy="312.82" r="2.24" style="stroke-width: 0.75;"/>
<circle cx="664.79" cy="293.04" r="2.24" style="stroke-width: 0.75;"/>
<circle cx="620.91" cy="296.29" r="2.24" style="stroke-width: 0.75;"/>
<circle cx="666.25" cy="289.03" r="2.24" style="stroke-width: 0.75;"/>
<circle cx="654.43" cy="307.00" r="2.24" style="stroke-width: 0.75;"/>
<circle cx="602.16" cy="311.36" r="2.24" style="stroke-width: 0.75;"/>
<circle cx="774.35" cy="278.85" r="2.24" style="stroke-width: 0.75;"/>
<circle cx="744.03" cy="289.67" r="2.24" style="stroke-width: 0.75;"/>
<circle cx="651.91" cy="315.91" r="2.24" style="stroke-width: 0.75;"/>
<circle cx="549.52" cy="319.10" r="2.24" style="stroke-width: 0.75;"/>
<circle cx="597.63" cy="305.88" r="2.24" style="stroke-width: 0.75;"/>
<circle cx="670.64" cy="282.81" r="2.24" style="stroke-width: 0.75;"/>
<circle cx="718.71" cy="285.10" r="2.24" style="stroke-width: 0.75;"/>
<circle cx="612.16" cy="284.86" r="2.24" style="stroke-width: 0.75;"/>
<circle cx="715.95" cy="291.95" r="2.24" style="stroke-width: 0.75;"/>
<circle cx="636.66" cy="307.37" r="2.24" style="stroke-width: 0.75;"/>
<circle cx="529.85" cy="327.43" r="2.24" style="stroke-width: 0.75;"/>
<circle cx="695.52" cy="285.91" r="2.24" style="stroke-width: 0.75;"/>
<circle cx="656.22" cy="297.15" r="2.24" style="stroke-width: 0.75;"/>
<circle cx="781.67" cy="277.01" r="2.24" style="stroke-width: 0.75;"/>
<circle cx="534.39" cy="330.48" r="2.24" style="stroke-width: 0.75;"/>
<circle cx="709.70" cy="279.88" r="2.24" style="stroke-width: 0.75;"/>
<circle cx="744.34" cy="280.11" r="2.24" style="stroke-width: 0.75;"/>
<circle cx="745.12" cy="274.04" r="2.24" style="stroke-width: 0.75;"/>
<circle cx="724.92" cy="274.50" r="2.24" style="stroke-width: 0.75;"/>
<circle cx="598.46" cy="312.97" r="2.24" style="stroke-width: 0.75;"/>
<circle cx="749.64" cy="277.62" r="2.24" style="stroke-width: 0.75;"/>
<circle cx="503.14" cy="327.99" r="2.24" style="stroke-width: 0.75;"/>
<circle cx="665.25" cy="295.73" r="2.24" style="stroke-width: 0.75;"/>
<circle cx="708.71" cy="292.37" r="2.24" style="stroke-width: 0.75;"/>
<circle cx="691.99" cy="282.37" r="2.24" style="stroke-width: 0.75;"/>
<circle cx="663.16" cy="284.95" r="2.24" style="stroke-width: 0.75;"/>
<circle cx="744.98" cy="298.15" r="2.24" style="stroke-width: 0.75;"/>
<circle cx="718.37" cy="272.10" r="2.24" style="stroke-width: 0.75;"/>
<circle cx="637.78" cy="264.78" r="2.24" style="stroke-width: 0.75;"/>
<circle cx="664.91" cy="281.14" r="2.24" style="stroke-width: 0.75;"/>
<circle cx="626.61" cy="299.88" r="2.24" style="stroke-width: 0.75;"/>
<circle cx="653.69" cy="284.46" r="2.24" style="stroke-width: 0.75;"/>
<circle cx="756.55" cy="280.30" r="2.24" style="stroke-width: 0.75;"/>
<circle cx="588.87" cy="310.84" r="2.24" style="stroke-width: 0.75;"/>
<circle cx="644.50" cy="297.60" r="2.24" style="stroke-width: 0.75;"/>
<circle cx="633.59" cy="310.16" r="2.24" style="stroke-width: 0.75;"/>
<circle cx="670.37" cy="289.51" r="2.24" style="stroke-width: 0.75;"/>
<circle cx="755.08" cy="284.94" r="2.24" style="stroke-width: 0.75;"/>
<circle cx="641.59" cy="295.80" r="2.24" style="stroke-width: 0.75;"/>
<circle cx="671.34" cy="277.26" r="2.24" style="stroke-width: 0.75;"/>
<circle cx="609.85" cy="292.82" r="2.24" style="stroke-width: 0.75;"/>
<circle cx="728.93" cy="290.15" r="2.24" style="stroke-width: 0.75;"/>
<circle cx="716.67" cy="276.60" r="2.24" style="stroke-width: 0.75;"/>
<circle cx="606.22" cy="293.52" r="2.24" style="stroke-width: 0.75;"/>
<circle cx="677.56" cy="289.97" r="2.24" style="stroke-width: 0.75;"/>
<circle cx="635.97" cy="305.45" r="2.24" style="stroke-width: 0.75;"/>
<circle cx="699.39" cy="286.87" r="2.24" style="stroke-width: 0.75;"/>
<circle cx="715.19" cy="295.69" r="2.24" style="stroke-width: 0.75;"/>
<circle cx="779.98" cy="273.15" r="2.24" style="stroke-width: 0.75;"/>
<circle cx="732.23" cy="278.60" r="2.24" style="stroke-width: 0.75;"/>
<circle cx="690.57" cy="281.33" r="2.24" style="stroke-width: 0.75;"/>
<circle cx="691.77" cy="293.77" r="2.24" style="stroke-width: 0.75;"/>
<circle cx="744.81" cy="278.62" r="2.24" style="stroke-width: 0.75;"/>
<circle cx="737.60" cy="281.65" r="2.24" style="stroke-width: 0.75;"/>
<circle cx="711.54" cy="280.30" r="2.24" style="stroke-width: 0.75;"/>
</g><g clip-path="url(#c11)">
<line x1="478.88" y1="363.04" x2="764.41" y2="363.04" style="stroke-width: 0.75;"/>
<line x1="478.88" y1="363.04" x2="478.88" y2="369.02" style="stroke-width: 0.75;"/>
<line x1="535.98" y1="363.04" x2="535.98" y2="369.02" style="stroke-width: 0.75;"/>
<line x1="593.09" y1="363.04" x2="593.09" y2="369.02" style="stroke-width: 0.75;"/>
<line x1="650.19" y1="363.04" x2="650.19" y2="369.02" style="stroke-width: 0.75;"/>
<line x1="707.30" y1="363.04" x2="707.30" y2="369.02" style="stroke-width: 0.75;"/>
<line x1="764.41" y1="363.04" x2="764.41" y2="369.02" style="stroke-width: 0.75;"/>
<g><text x="478.88" y="384.56" text-anchor="middle" style="font-family: Arial;font-size: 9.96px;" textLength="19.38px" lengthAdjust="spacingAndGlyphs">0.94</text></g>
<g><text x="535.98" y="384.56" text-anchor="middle" style="font-family: Arial;font-size: 9.96px;" textLength="19.38px" lengthAdjust="spacingAndGlyphs">0.95</text></g>
<g><text x="593.09" y="384.56" text-anchor="middle" style="font-family: Arial;font-size: 9.96px;" textLength="19.38px" lengthAdjust="spacingAndGlyphs">0.96</text></g>
<g><text x="650.19" y="384.56" text-anchor="middle" style="font-family: Arial;font-size: 9.96px;" textLength="19.38px" lengthAdjust="spacingAndGlyphs">0.97</text></g>
<g><text x="707.30" y="384.56" text-anchor="middle" style="font-family: Arial;font-size: 9.96px;" textLength="19.38px" lengthAdjust="spacingAndGlyphs">0.98</text></g>
<g><text x="764.41" y="384.56" text-anchor="middle" style="font-family: Arial;font-size: 9.96px;" textLength="19.38px" lengthAdjust="spacingAndGlyphs">0.99</text></g>
<line x1="458.60" y1="339.83" x2="458.60" y2="261.18" style="stroke-width: 0.75;"/>
<line x1="458.60" y1="339.83" x2="452.63" y2="339.83" style="stroke-width: 0.75;"/>
<line x1="458.60" y1="313.61" x2="452.63" y2="313.61" style="stroke-width: 0.75;"/>
<line x1="458.60" y1="287.40" x2="452.63" y2="287.40" style="stroke-width: 0.75;"/>
<line x1="458.60" y1="261.18" x2="452.63" y2="261.18" style="stroke-width: 0.75;"/>
<g><text transform="translate(444.26,339.83) rotate(-90.00)" text-anchor="middle" style="font-family: Arial;font-size: 9.96px;" textLength="19.38px" lengthAdjust="spacingAndGlyphs">1.46</text></g>
<g><text transform="translate(444.26,287.40) rotate(-90.00)" text-anchor="middle" style="font-family: Arial;font-size: 9.96px;" textLength="19.38px" lengthAdjust="spacingAndGlyphs">1.50</text></g>
<polygon points="458.60,363.04 794.10,363.04 794.10,261.00 458.60,261.00" style="stroke-width: 0.75;" />
</g><g clip-path="url(#c12)">
<g><text x="626.35" y="240.77" text-anchor="middle" style="font-family: Arial;font-size: 11.95px;font-weight: bold;" textLength="56.41px" lengthAdjust="spacingAndGlyphs">Process 4</text></g>
<g><text x="620.94" y="406.12" style="font-family: Arial;font-size: 9.96px;" textLength="6.96px" lengthAdjust="spacingAndGlyphs">φ</text></g>
<g><text x="627.89" y="407.92" style="font-family: Arial;font-size: 6.97px;" textLength="3.87px" lengthAdjust="spacingAndGlyphs">2</text></g>
<g><text transform="translate(418.01,317.44) rotate(-90.00)" style="font-family: Arial;font-size: 9.96px;" textLength="6.96px" lengthAdjust="spacingAndGlyphs">φ</text></g>
<g><text transform="translate(419.82,310.48) rotate(-90.00)" style="font-family: Arial;font-size: 6.97px;" textLength="3.87px" lengthAdjust="spacingAndGlyphs">1</text></g>
</g>
</svg>