<svg xmlns="http://www.w3.org/2000/svg" xmlns:xlink="http://www.w3.org/1999/xlink" class="httpgd" width="1024.00" height="530.00" viewBox="0 0 819.20 424.00">
<defs>
  <style type='text/css'><![CDATA[
    .httpgd line, .httpgd polyline, .httpgd polygon, .httpgd path, .httpgd rect, .httpgd circle {
      fill: none;
      stroke: #000000;
      stroke-linecap: round;
      stroke-linejoin: round;
      stroke-miterlimit: 10.00;
    }
  ]]></style>
<clipPath id="c0"><rect x="0.00" y="0.00" width="819.20" height="424.00"/></clipPath>
<clipPath id="c1"><rect x="49.00" y="49.00" width="335.50" height="102.04"/></clipPath>
<clipPath id="c2"><rect x="0.00" y="0.00" width="409.60" height="212.00"/></clipPath>
<clipPath id="c3"><rect x="0.00" y="0.00" width="819.20" height="424.00"/></clipPath>
<clipPath id="c4"><rect x="49.00" y="49.00" width="335.50" height="102.04"/></clipPath>
<clipPath id="c5"><rect x="458.60" y="49.00" width="335.50" height="102.04"/></clipPath>
<clipPath id="c6"><rect x="409.60" y="0.00" width="409.60" height="212.00"/></clipPath>
<clipPath id="c7"><rect x="0.00" y="0.00" width="819.20" height="424.00"/></clipPath>
<clipPath id="c8"><rect x="458.60" y="49.00" width="335.50" height="102.04"/></clipPath>
<clipPath id="c9"><rect x="49.00" y="261.00" width="335.50" height="102.04"/></clipPath>
<clipPath id="c10"><rect x="0.00" y="212.00" width="409.60" height="212.00"/></clipPath>
<clipPath id="c11"><rect x="0.00" y="0.00" width="819.20" height="424.00"/></clipPath>
<clipPath id="c12"><rect x="49.00" y="261.00" width="335.50" height="102.04"/></clipPath>
<clipPath id="c13"><rect x="458.60" y="261.00" width="335.50" height="102.04"/></clipPath>
<clipPath id="c14"><rect x="409.60" y="212.00" width="409.60" height="212.00"/></clipPath>
<clipPath id="c15"><rect x="0.00" y="0.00" width="819.20" height="424.00"/></clipPath>
<clipPath id="c16"><rect x="458.60" y="261.00" width="335.50" height="102.04"/></clipPath>
</defs>
<rect width="100%" height="100%" style="stroke: none;fill: #FFFFFF;"/>
<g clip-path="url(#c0)">
</g><g clip-path="url(#c2)">
<g><text x="216.75" y="28.77" text-anchor="middle" style="font-family: Arial;font-size: 11.95px;font-weight: bold;" textLength="56.41px" lengthAdjust="spacingAndGlyphs">Process 1</text></g>
<g><text x="211.34" y="194.12" style="font-family: Arial;font-size: 9.96px;" textLength="6.96px" lengthAdjust="spacingAndGlyphs">φ</text></g>
<g><text x="218.29" y="195.92" style="font-family: Arial;font-size: 6.97px;" textLength="3.87px" lengthAdjust="spacingAndGlyphs">2</text></g>
<g><text transform="translate(10.76,100.02) rotate(-90.00)" text-anchor="middle" style="font-family: Arial;font-size: 9.96px;" textLength="33.18px" lengthAdjust="spacingAndGlyphs">Density</text></g>
</g><g clip-path="url(#c3)">
<line x1="50.33" y1="151.04" x2="383.17" y2="151.04" style="stroke-width: 0.75;"/>
<line x1="50.33" y1="151.04" x2="50.33" y2="157.02" style="stroke-width: 0.75;"/>
<line x1="105.81" y1="151.04" x2="105.81" y2="157.02" style="stroke-width: 0.75;"/>
<line x1="161.28" y1="151.04" x2="161.28" y2="157.02" style="stroke-width: 0.75;"/>
<line x1="216.75" y1="151.04" x2="216.75" y2="157.02" style="stroke-width: 0.75;"/>
<line x1="272.22" y1="151.04" x2="272.22" y2="157.02" style="stroke-width: 0.75;"/>
<line x1="327.70" y1="151.04" x2="327.70" y2="157.02" style="stroke-width: 0.75;"/>
<line x1="383.17" y1="151.04" x2="383.17" y2="157.02" style="stroke-width: 0.75;"/>
<g><text x="50.33" y="172.56" text-anchor="middle" style="font-family: Arial;font-size: 9.96px;" textLength="19.38px" lengthAdjust="spacingAndGlyphs">0.35</text></g>
<g><text x="105.81" y="172.56" text-anchor="middle" style="font-family: Arial;font-size: 9.96px;" textLength="19.38px" lengthAdjust="spacingAndGlyphs">0.40</text></g>
<g><text x="161.28" y="172.56" text-anchor="middle" style="font-family: Arial;font-size: 9.96px;" textLength="19.38px" lengthAdjust="spacingAndGlyphs">0.45</text></g>
<g><text x="216.75" y="172.56" text-anchor="middle" style="font-family: Arial;font-size: 9.96px;" textLength="19.38px" lengthAdjust="spacingAndGlyphs">0.50</text></g>
<g><text x="272.22" y="172.56" text-anchor="middle" style="font-family: Arial;font-size: 9.96px;" textLength="19.38px" lengthAdjust="spacingAndGlyphs">0.55</text></g>
<g><text x="327.70" y="172.56" text-anchor="middle" style="font-family: Arial;font-size: 9.96px;" textLength="19.38px" lengthAdjust="spacingAndGlyphs">0.60</text></g>
<g><text x="383.17" y="172.56" text-anchor="middle" style="font-family: Arial;font-size: 9.96px;" textLength="19.38px" lengthAdjust="spacingAndGlyphs">0.65</text></g>
<line x1="49.00" y1="147.27" x2="49.00" y2="52.78" style="stroke-width: 0.75;"/>
<line x1="49.00" y1="147.27" x2="43.03" y2="147.27" style="stroke-width: 0.75;"/>
<line x1="49.00" y1="128.37" x2="43.03" y2="128.37" style="stroke-width: 0.75;"/>
<line x1="49.00" y1="109.47" x2="43.03" y2="109.47" style="stroke-width: 0.75;"/>
<line x1="49.00" y1="90.58" x2="43.03" y2="90.58" style="stroke-width: 0.75;"/>
<line x1="49.00" y1="71.68" x2="43.03" y2="71.68" style="stroke-width: 0.75;"/>
<line x1="49.00" y1="52.78" x2="43.03" y2="52.78" style="stroke-width: 0.75;"/>
<g><text transform="translate(34.66,147.27) rotate(-90.00)" text-anchor="middle" style="font-family: Arial;font-size: 9.96px;" textLength="5.54px" lengthAdjust="spacingAndGlyphs">0</text></g>
<g><text transform="translate(34.66,128.37) rotate(-90.00)" text-anchor="middle" style="font-family: Arial;font-size: 9.96px;" textLength="5.54px" lengthAdjust="spacingAndGlyphs">2</text></g>
<g><text transform="translate(34.66,109.47) rotate(-90.00)" text-anchor="middle" style="font-family: Arial;font-size: 9.96px;" textLength="5.54px" lengthAdjust="spacingAndGlyphs">4</text></g>
<g><text transform="translate(34.66,90.58) rotate(-90.00)" text-anchor="middle" style="font-family: Arial;font-size: 9.96px;" textLength="5.54px" lengthAdjust="spacingAndGlyphs">6</text></g>
<g><text transform="translate(34.66,71.68) rotate(-90.00)" text-anchor="middle" style="font-family: Arial;font-size: 9.96px;" textLength="5.54px" lengthAdjust="spacingAndGlyphs">8</text></g>
<g><text transform="translate(34.66,52.78) rotate(-90.00)" text-anchor="middle" style="font-family: Arial;font-size: 9.96px;" textLength="11.07px" lengthAdjust="spacingAndGlyphs">10</text></g>
</g><g clip-path="url(#c4)">
<rect x="61.43" y="142.54" width="22.19" height="4.72" style="stroke-width: 0.75;fill: #D3D3D3;"/>
<rect x="83.62" y="147.27" width="22.19" height="0.00" style="stroke-width: 0.75;fill: #D3D3D3;"/>
<rect x="105.81" y="142.54" width="22.19" height="4.72" style="stroke-width: 0.75;fill: #D3D3D3;"/>
<rect x="128.00" y="114.20" width="22.19" height="33.07" style="stroke-width: 0.75;fill: #D3D3D3;"/>
<rect x="150.19" y="104.75" width="22.19" height="42.52" style="stroke-width: 0.75;fill: #D3D3D3;"/>
<rect x="172.37" y="123.64" width="22.19" height="23.62" style="stroke-width: 0.75;fill: #D3D3D3;"/>
<rect x="194.56" y="104.75" width="22.19" height="42.52" style="stroke-width: 0.75;fill: #D3D3D3;"/>
<rect x="216.75" y="52.78" width="22.19" height="94.48" style="stroke-width: 0.75;fill: #D3D3D3;"/>
<rect x="238.94" y="66.95" width="22.19" height="80.31" style="stroke-width: 0.75;fill: #D3D3D3;"/>
<rect x="261.13" y="71.68" width="22.19" height="75.59" style="stroke-width: 0.75;fill: #D3D3D3;"/>
<rect x="283.32" y="100.02" width="22.19" height="47.24" style="stroke-width: 0.75;fill: #D3D3D3;"/>
<rect x="305.51" y="133.09" width="22.19" height="14.17" style="stroke-width: 0.75;fill: #D3D3D3;"/>
<rect x="327.70" y="142.54" width="22.19" height="4.72" style="stroke-width: 0.75;fill: #D3D3D3;"/>
<rect x="349.89" y="142.54" width="22.19" height="4.72" style="stroke-width: 0.75;fill: #D3D3D3;"/>
<line x1="135.58" y1="151.04" x2="135.58" y2="49.00" style="stroke-width: 0.75;stroke: #0000FF;"/>
<line x1="315.54" y1="151.04" x2="315.54" y2="49.00" style="stroke-width: 0.75;stroke: #0000FF;"/>
<line x1="232.76" y1="151.04" x2="232.76" y2="49.00" style="stroke-width: 0.75; stroke-dasharray: 4.00, 4.00;"/>
</g><g clip-path="url(#c6)">
<g><text x="626.35" y="28.77" text-anchor="middle" style="font-family: Arial;font-size: 11.95px;font-weight: bold;" textLength="56.41px" lengthAdjust="spacingAndGlyphs">Process 2</text></g>
<g><text x="620.94" y="194.12" style="font-family: Arial;font-size: 9.96px;" textLength="6.96px" lengthAdjust="spacingAndGlyphs">φ</text></g>
<g><text x="627.89" y="195.92" style="font-family: Arial;font-size: 6.97px;" textLength="3.87px" lengthAdjust="spacingAndGlyphs">2</text></g>
<g><text transform="translate(420.36,100.02) rotate(-90.00)" text-anchor="middle" style="font-family: Arial;font-size: 9.96px;" textLength="33.18px" lengthAdjust="spacingAndGlyphs">Density</text></g>
</g><g clip-path="url(#c7)">
<line x1="493.22" y1="151.04" x2="759.49" y2="151.04" style="stroke-width: 0.75;"/>
<line x1="493.22" y1="151.04" x2="493.22" y2="157.02" style="stroke-width: 0.75;"/>
<line x1="537.60" y1="151.04" x2="537.60" y2="157.02" style="stroke-width: 0.75;"/>
<line x1="581.97" y1="151.04" x2="581.97" y2="157.02" style="stroke-width: 0.75;"/>
<line x1="626.35" y1="151.04" x2="626.35" y2="157.02" style="stroke-width: 0.75;"/>
<line x1="670.73" y1="151.04" x2="670.73" y2="157.02" style="stroke-width: 0.75;"/>
<line x1="715.11" y1="151.04" x2="715.11" y2="157.02" style="stroke-width: 0.75;"/>
<line x1="759.49" y1="151.04" x2="759.49" y2="157.02" style="stroke-width: 0.75;"/>
<g><text x="493.22" y="172.56" text-anchor="middle" style="font-family: Arial;font-size: 9.96px;" textLength="19.38px" lengthAdjust="spacingAndGlyphs">0.93</text></g>
<g><text x="537.60" y="172.56" text-anchor="middle" style="font-family: Arial;font-size: 9.96px;" textLength="19.38px" lengthAdjust="spacingAndGlyphs">0.94</text></g>
<g><text x="581.97" y="172.56" text-anchor="middle" style="font-family: Arial;font-size: 9.96px;" textLength="19.38px" lengthAdjust="spacingAndGlyphs">0.95</text></g>
<g><text x="626.35" y="172.56" text-anchor="middle" style="font-family: Arial;font-size: 9.96px;" textLength="19.38px" lengthAdjust="spacingAndGlyphs">0.96</text></g>
<g><text x="670.73" y="172.56" text-anchor="middle" style="font-family: Arial;font-size: 9.96px;" textLength="19.38px" lengthAdjust="spacingAndGlyphs">0.97</text></g>
<g><text x="715.11" y="172.56" text-anchor="middle" style="font-family: Arial;font-size: 9.96px;" textLength="19.38px" lengthAdjust="spacingAndGlyphs">0.98</text></g>
<g><text x="759.49" y="172.56" text-anchor="middle" style="font-family: Arial;font-size: 9.96px;" textLength="19.38px" lengthAdjust="spacingAndGlyphs">0.99</text></g>
<line x1="458.60" y1="147.27" x2="458.60" y2="57.28" style="stroke-width: 0.75;"/>
<line x1="458.60" y1="147.27" x2="452.63" y2="147.27" style="stroke-width: 0.75;"/>
<line x1="458.60" y1="124.77" x2="452.63" y2="124.77" style="stroke-width: 0.75;"/>
<line x1="458.60" y1="102.27" x2="452.63" y2="102.27" style="stroke-width: 0.75;"/>
<line x1="458.60" y1="79.78" x2="452.63" y2="79.78" style="stroke-width: 0.75;"/>
<line x1="458.60" y1="57.28" x2="452.63" y2="57.28" style="stroke-width: 0.75;"/>
<g><text transform="translate(444.26,147.27) rotate(-90.00)" text-anchor="middle" style="font-family: Arial;font-size: 9.96px;" textLength="5.54px" lengthAdjust="spacingAndGlyphs">0</text></g>
<g><text transform="translate(444.26,124.77) rotate(-90.00)" text-anchor="middle" style="font-family: Arial;font-size: 9.96px;" textLength="11.07px" lengthAdjust="spacingAndGlyphs">10</text></g>
<g><text transform="translate(444.26,102.27) rotate(-90.00)" text-anchor="middle" style="font-family: Arial;font-size: 9.96px;" textLength="11.07px" lengthAdjust="spacingAndGlyphs">20</text></g>
<g><text transform="translate(444.26,79.78) rotate(-90.00)" text-anchor="middle" style="font-family: Arial;font-size: 9.96px;" textLength="11.07px" lengthAdjust="spacingAndGlyphs">30</text></g>
<g><text transform="translate(444.26,57.28) rotate(-90.00)" text-anchor="middle" style="font-family: Arial;font-size: 9.96px;" textLength="11.07px" lengthAdjust="spacingAndGlyphs">40</text></g>
</g><g clip-path="url(#c8)">
<rect x="471.03" y="142.77" width="22.19" height="4.50" style="stroke-width: 0.75;fill: #D3D3D3;"/>
<rect x="493.22" y="142.77" width="22.19" height="4.50" style="stroke-width: 0.75;fill: #D3D3D3;"/>
<rect x="515.41" y="147.27" width="22.19" height="0.00" style="stroke-width: 0.75;fill: #D3D3D3;"/>
<rect x="537.60" y="142.77" width="22.19" height="4.50" style="stroke-width: 0.75;fill: #D3D3D3;"/>
<rect x="559.79" y="138.27" width="22.19" height="9.00" style="stroke-width: 0.75;fill: #D3D3D3;"/>
<rect x="581.97" y="138.27" width="22.19" height="9.00" style="stroke-width: 0.75;fill: #D3D3D3;"/>
<rect x="604.16" y="111.27" width="22.19" height="35.99" style="stroke-width: 0.75;fill: #D3D3D3;"/>
<rect x="626.35" y="106.77" width="22.19" height="40.49" style="stroke-width: 0.75;fill: #D3D3D3;"/>
<rect x="648.54" y="70.78" width="22.19" height="76.49" style="stroke-width: 0.75;fill: #D3D3D3;"/>
<rect x="670.73" y="97.77" width="22.19" height="49.49" style="stroke-width: 0.75;fill: #D3D3D3;"/>
<rect x="692.92" y="106.77" width="22.19" height="40.49" style="stroke-width: 0.75;fill: #D3D3D3;"/>
<rect x="715.11" y="52.78" width="22.19" height="94.48" style="stroke-width: 0.75;fill: #D3D3D3;"/>
<rect x="737.30" y="88.78" width="22.19" height="58.49" style="stroke-width: 0.75;fill: #D3D3D3;"/>
<rect x="759.49" y="124.77" width="22.19" height="22.50" style="stroke-width: 0.75;fill: #D3D3D3;"/>
<line x1="560.18" y1="151.04" x2="560.18" y2="49.00" style="stroke-width: 0.75;stroke: #0000FF;"/>
<line x1="761.26" y1="151.04" x2="761.26" y2="49.00" style="stroke-width: 0.75;stroke: #0000FF;"/>
<line x1="684.58" y1="151.04" x2="684.58" y2="49.00" style="stroke-width: 0.75; stroke-dasharray: 4.00, 4.00;"/>
</g><g clip-path="url(#c10)">
<g><text x="216.75" y="240.77" text-anchor="middle" style="font-family: Arial;font-size: 11.95px;font-weight: bold;" textLength="56.41px" lengthAdjust="spacingAndGlyphs">Process 3</text></g>
<g><text x="211.34" y="406.12" style="font-family: Arial;font-size: 9.96px;" textLength="6.96px" lengthAdjust="spacingAndGlyphs">φ</text></g>
<g><text x="218.29" y="407.92" style="font-family: Arial;font-size: 6.97px;" textLength="3.87px" lengthAdjust="spacingAndGlyphs">2</text></g>
<g><text transform="translate(10.76,312.02) rotate(-90.00)" text-anchor="middle" style="font-family: Arial;font-size: 9.96px;" textLength="33.18px" lengthAdjust="spacingAndGlyphs">Density</text></g>
</g><g clip-path="url(#c11)">
<line x1="51.07" y1="363.04" x2="361.72" y2="363.04" style="stroke-width: 0.75;"/>
<line x1="51.07" y1="363.04" x2="51.07" y2="369.02" style="stroke-width: 0.75;"/>
<line x1="102.85" y1="363.04" x2="102.85" y2="369.02" style="stroke-width: 0.75;"/>
<line x1="154.62" y1="363.04" x2="154.62" y2="369.02" style="stroke-width: 0.75;"/>
<line x1="206.40" y1="363.04" x2="206.40" y2="369.02" style="stroke-width: 0.75;"/>
<line x1="258.17" y1="363.04" x2="258.17" y2="369.02" style="stroke-width: 0.75;"/>
<line x1="309.95" y1="363.04" x2="309.95" y2="369.02" style="stroke-width: 0.75;"/>
<line x1="361.72" y1="363.04" x2="361.72" y2="369.02" style="stroke-width: 0.75;"/>
<g><text x="51.07" y="384.56" text-anchor="middle" style="font-family: Arial;font-size: 9.96px;" textLength="19.38px" lengthAdjust="spacingAndGlyphs">0.35</text></g>
<g><text x="102.85" y="384.56" text-anchor="middle" style="font-family: Arial;font-size: 9.96px;" textLength="19.38px" lengthAdjust="spacingAndGlyphs">0.40</text></g>
<g><text x="154.62" y="384.56" text-anchor="middle" style="font-family: Arial;font-size: 9.96px;" textLength="19.38px" lengthAdjust="spacingAndGlyphs">0.45</text></g>
<g><text x="206.40" y="384.56" text-anchor="middle" style="font-family: Arial;font-size: 9.96px;" textLength="19.38px" lengthAdjust="spacingAndGlyphs">0.50</text></g>
<g><text x="258.17" y="384.56" text-anchor="middle" style="font-family: Arial;font-size: 9.96px;" textLength="19.38px" lengthAdjust="spacingAndGlyphs">0.55</text></g>
<g><text x="309.95" y="384.56" text-anchor="middle" style="font-family: Arial;font-size: 9.96px;" textLength="19.38px" lengthAdjust="spacingAndGlyphs">0.60</text></g>
<g><text x="361.72" y="384.56" text-anchor="middle" style="font-family: Arial;font-size: 9.96px;" textLength="19.38px" lengthAdjust="spacingAndGlyphs">0.65</text></g>
<line x1="49.00" y1="359.27" x2="49.00" y2="273.37" style="stroke-width: 0.75;"/>
<line x1="49.00" y1="359.27" x2="43.03" y2="359.27" style="stroke-width: 0.75;"/>
<line x1="49.00" y1="342.09" x2="43.03" y2="342.09" style="stroke-width: 0.75;"/>
<line x1="49.00" y1="324.91" x2="43.03" y2="324.91" style="stroke-width: 0.75;"/>
<line x1="49.00" y1="307.73" x2="43.03" y2="307.73" style="stroke-width: 0.75;"/>
<line x1="49.00" y1="290.55" x2="43.03" y2="290.55" style="stroke-width: 0.75;"/>
<line x1="49.00" y1="273.37" x2="43.03" y2="273.37" style="stroke-width: 0.75;"/>
<g><text transform="translate(34.66,359.27) rotate(-90.00)" text-anchor="middle" style="font-family: Arial;font-size: 9.96px;" textLength="5.54px" lengthAdjust="spacingAndGlyphs">0</text></g>
<g><text transform="translate(34.66,342.09) rotate(-90.00)" text-anchor="middle" style="font-family: Arial;font-size: 9.96px;" textLength="5.54px" lengthAdjust="spacingAndGlyphs">2</text></g>
<g><text transform="translate(34.66,324.91) rotate(-90.00)" text-anchor="middle" style="font-family: Arial;font-size: 9.96px;" textLength="5.54px" lengthAdjust="spacingAndGlyphs">4</text></g>
<g><text transform="translate(34.66,307.73) rotate(-90.00)" text-anchor="middle" style="font-family: Arial;font-size: 9.96px;" textLength="5.54px" lengthAdjust="spacingAndGlyphs">6</text></g>
<g><text transform="translate(34.66,290.55) rotate(-90.00)" text-anchor="middle" style="font-family: Arial;font-size: 9.96px;" textLength="5.54px" lengthAdjust="spacingAndGlyphs">8</text></g>
<g><text transform="translate(34.66,273.37) rotate(-90.00)" text-anchor="middle" style="font-family: Arial;font-size: 9.96px;" textLength="11.07px" lengthAdjust="spacingAndGlyphs">10</text></g>
</g><g clip-path="url(#c12)">
<rect x="61.43" y="354.97" width="20.71" height="4.29" style="stroke-width: 0.75;fill: #D3D3D3;"/>
<rect x="82.14" y="354.97" width="20.71" height="4.29" style="stroke-width: 0.75;fill: #D3D3D3;"/>
<rect x="102.85" y="350.68" width="20.71" height="8.59" style="stroke-width: 0.75;fill: #D3D3D3;"/>
<rect x="123.56" y="350.68" width="20.71" height="8.59" style="stroke-width: 0.75;fill: #D3D3D3;"/>
<rect x="144.27" y="329.20" width="20.71" height="30.06" style="stroke-width: 0.75;fill: #D3D3D3;"/>
<rect x="164.98" y="320.61" width="20.71" height="38.65" style="stroke-width: 0.75;fill: #D3D3D3;"/>
<rect x="185.69" y="312.02" width="20.71" height="47.24" style="stroke-width: 0.75;fill: #D3D3D3;"/>
<rect x="206.40" y="264.78" width="20.71" height="94.48" style="stroke-width: 0.75;fill: #D3D3D3;"/>
<rect x="227.11" y="329.20" width="20.71" height="30.06" style="stroke-width: 0.75;fill: #D3D3D3;"/>
<rect x="247.82" y="299.14" width="20.71" height="60.13" style="stroke-width: 0.75;fill: #D3D3D3;"/>
<rect x="268.53" y="294.85" width="20.71" height="64.42" style="stroke-width: 0.75;fill: #D3D3D3;"/>
<rect x="289.24" y="337.79" width="20.71" height="21.47" style="stroke-width: 0.75;fill: #D3D3D3;"/>
<rect x="309.95" y="354.97" width="20.71" height="4.29" style="stroke-width: 0.75;fill: #D3D3D3;"/>
<rect x="330.66" y="354.97" width="20.71" height="4.29" style="stroke-width: 0.75;fill: #D3D3D3;"/>
<rect x="351.37" y="350.68" width="20.71" height="8.59" style="stroke-width: 0.75;fill: #D3D3D3;"/>
<line x1="118.27" y1="363.04" x2="118.27" y2="261.00" style="stroke-width: 0.75;stroke: #0000FF;"/>
<line x1="324.88" y1="363.04" x2="324.88" y2="261.00" style="stroke-width: 0.75;stroke: #0000FF;"/>
<line x1="226.05" y1="363.04" x2="226.05" y2="261.00" style="stroke-width: 0.75; stroke-dasharray: 4.00, 4.00;"/>
</g><g clip-path="url(#c14)">
<g><text x="626.35" y="240.77" text-anchor="middle" style="font-family: Arial;font-size: 11.95px;font-weight: bold;" textLength="56.41px" lengthAdjust="spacingAndGlyphs">Process 4</text></g>
<g><text x="620.94" y="406.12" style="font-family: Arial;font-size: 9.96px;" textLength="6.96px" lengthAdjust="spacingAndGlyphs">φ</text></g>
<g><text x="627.89" y="407.92" style="font-family: Arial;font-size: 6.97px;" textLength="3.87px" lengthAdjust="spacingAndGlyphs">2</text></g>
<g><text transform="translate(420.36,312.02) rotate(-90.00)" text-anchor="middle" style="font-family: Arial;font-size: 9.96px;" textLength="33.18px" lengthAdjust="spacingAndGlyphs">Density</text></g>
</g><g clip-path="url(#c15)">
<line x1="505.55" y1="363.04" x2="781.67" y2="363.04" style="stroke-width: 0.75;"/>
<line x1="505.55" y1="363.04" x2="505.55" y2="369.02" style="stroke-width: 0.75;"/>
<line x1="574.58" y1="363.04" x2="574.58" y2="369.02" style="stroke-width: 0.75;"/>
<line x1="643.61" y1="363.04" x2="643.61" y2="369.02" style="stroke-width: 0.75;"/>
<line x1="712.64" y1="363.04" x2="712.64" y2="369.02" style="stroke-width: 0.75;"/>
<line x1="781.67" y1="363.04" x2="781.67" y2="369.02" style="stroke-width: 0.75;"/>
<g><text x="505.55" y="384.56" text-anchor="middle" style="font-family: Arial;font-size: 9.96px;" textLength="19.38px" lengthAdjust="spacingAndGlyphs">0.92</text></g>
<g><text x="574.58" y="384.56" text-anchor="middle" style="font-family: Arial;font-size: 9.96px;" textLength="19.38px" lengthAdjust="spacingAndGlyphs">0.94</text></g>
<g><text x="643.61" y="384.56" text-anchor="middle" style="font-family: Arial;font-size: 9.96px;" textLength="19.38px" lengthAdjust="spacingAndGlyphs">0.96</text></g>
<g><text x="712.64" y="384.56" text-anchor="middle" style="font-family: Arial;font-size: 9.96px;" textLength="19.38px" lengthAdjust="spacingAndGlyphs">0.98</text></g>
<g><text x="781.67" y="384.56" text-anchor="middle" style="font-family: Arial;font-size: 9.96px;" textLength="19.38px" lengthAdjust="spacingAndGlyphs">1.00</text></g>
<line x1="458.60" y1="359.27" x2="458.60" y2="264.78" style="stroke-width: 0.75;"/>
<line x1="458.60" y1="359.27" x2="452.63" y2="359.27" style="stroke-width: 0.75;"/>
<line x1="458.60" y1="345.77" x2="452.63" y2="345.77" style="stroke-width: 0.75;"/>
<line x1="458.60" y1="332.27" x2="452.63" y2="332.27" style="stroke-width: 0.75;"/>
<line x1="458.60" y1="318.77" x2="452.63" y2="318.77" style="stroke-width: 0.75;"/>
<line x1="458.60" y1="305.28" x2="452.63" y2="305.28" style="stroke-width: 0.75;"/>
<line x1="458.60" y1="291.78" x2="452.63" y2="291.78" style="stroke-width: 0.75;"/>
<line x1="458.60" y1="278.28" x2="452.63" y2="278.28" style="stroke-width: 0.75;"/>
<line x1="458.60" y1="264.78" x2="452.63" y2="264.78" style="stroke-width: 0.75;"/>
<g><text transform="translate(444.26,359.27) rotate(-90.00)" text-anchor="middle" style="font-family: Arial;font-size: 9.96px;" textLength="5.54px" lengthAdjust="spacingAndGlyphs">0</text></g>
<g><text transform="translate(444.26,332.27) rotate(-90.00)" text-anchor="middle" style="font-family: Arial;font-size: 9.96px;" textLength="11.07px" lengthAdjust="spacingAndGlyphs">10</text></g>
<g><text transform="translate(444.26,305.28) rotate(-90.00)" text-anchor="middle" style="font-family: Arial;font-size: 9.96px;" textLength="11.07px" lengthAdjust="spacingAndGlyphs">20</text></g>
<g><text transform="translate(444.26,278.28) rotate(-90.00)" text-anchor="middle" style="font-family: Arial;font-size: 9.96px;" textLength="11.07px" lengthAdjust="spacingAndGlyphs">30</text></g>
</g><g clip-path="url(#c16)">
<rect x="471.03" y="353.87" width="34.52" height="5.40" style="stroke-width: 0.75;fill: #D3D3D3;"/>
<rect x="505.55" y="356.57" width="34.52" height="2.70" style="stroke-width: 0.75;fill: #D3D3D3;"/>
<rect x="540.06" y="356.57" width="34.52" height="2.70" style="stroke-width: 0.75;fill: #D3D3D3;"/>
<rect x="574.58" y="345.77" width="34.52" height="13.50" style="stroke-width: 0.75;fill: #D3D3D3;"/>
<rect x="609.09" y="353.87" width="34.52" height="5.40" style="stroke-width: 0.75;fill: #D3D3D3;"/>
<rect x="643.61" y="316.07" width="34.52" height="43.19" style="stroke-width: 0.75;fill: #D3D3D3;"/>
<rect x="678.13" y="264.78" width="34.52" height="94.48" style="stroke-width: 0.75;fill: #D3D3D3;"/>
<rect x="712.64" y="267.48" width="34.52" height="91.78" style="stroke-width: 0.75;fill: #D3D3D3;"/>
<rect x="747.16" y="348.47" width="34.52" height="10.80" style="stroke-width: 0.75;fill: #D3D3D3;"/>
<line x1="543.40" y1="363.04" x2="543.40" y2="261.00" style="stroke-width: 0.75;stroke: #0000FF;"/>
<line x1="749.21" y1="363.04" x2="749.21" y2="261.00" style="stroke-width: 0.75;stroke: #0000FF;"/>
<line x1="690.40" y1="363.04" x2="690.40" y2="261.00" style="stroke-width: 0.75; stroke-dasharray: 4.00, 4.00;"/>
</g>
</svg>